M48
; DRILL file {KiCad (5.1.5)-3} date 27/10/2020 23:40:57
; FORMAT={-:-/ absolute / inch / decimal}
; #@! TF.CreationDate,2020-10-27T23:40:57+01:00
; #@! TF.GenerationSoftware,Kicad,Pcbnew,(5.1.5)-3
; #@! TF.FileFunction,Plated,1,2,PTH
FMAT,2
INCH
T1C0.0157
T2C0.0197
T3C0.0276
T4C0.0315
T5C0.0433
T6C0.0472
T7C0.0512
T8C0.0630
T9C0.1063
T10C0.1378
%
G90
G05
T1
X3.4134Y-4.9724
X3.5531Y-4.4291
X3.5591Y-4.3484
X4.6299Y-4.8917
X5.0354Y-4.3228
X5.0354Y-4.5591
X5.25Y-4.2795
X5.3484Y-4.9055
X5.4921Y-4.3819
X5.6063Y-4.5906
X6.7441Y-4.626
X7.0866Y-4.6457
X7.1535Y-4.7047
X7.1772Y-4.315
X7.2008Y-4.7598
X7.3031Y-4.6575
X7.3661Y-4.5039
X7.378Y-4.2598
X7.4567Y-4.0551
X7.5118Y-4.5827
X7.6378Y-3.4528
X7.8268Y-3.3858
X7.8268Y-3.7598
X7.9055Y-3.3307
X8.0236Y-3.6378
X8.126Y-4.3346
T2
X3.6919Y-4.9606
X3.7153Y-4.9043
X3.7153Y-5.017
X3.7717Y-4.8809
X3.7717Y-5.0404
X3.828Y-4.9043
X3.828Y-5.017
X3.8514Y-4.9606
X7.0856Y-4.9606
X7.109Y-4.9043
X7.109Y-5.017
X7.1654Y-4.8809
X7.1654Y-5.0404
X7.2217Y-4.9043
X7.2217Y-5.017
X7.2451Y-4.9606
X4.3691Y-4.9606
X4.3924Y-4.9043
X4.3924Y-5.017
X4.4488Y-4.8809
X4.4488Y-5.0404
X4.5052Y-4.9043
X4.5052Y-5.017
X4.5285Y-4.9606
X8.2549Y-4.6811
X8.2783Y-4.6247
X8.2783Y-4.7375
X8.3346Y-4.6014
X8.3346Y-4.7608
X8.391Y-4.6247
X8.391Y-4.7375
X8.4144Y-4.6811
X8.2549Y-3.7835
X8.2783Y-3.7271
X8.2783Y-3.8398
X8.3346Y-3.7037
X8.3346Y-3.8632
X8.391Y-3.7271
X8.391Y-3.8398
X8.4144Y-3.7835
X7.4793Y-4.9606
X7.5027Y-4.9043
X7.5027Y-5.017
X7.5591Y-4.8809
X7.5591Y-5.0404
X7.6154Y-4.9043
X7.6154Y-5.017
X7.6388Y-4.9606
X7.0266Y-2.8937
X7.0499Y-2.8373
X7.0499Y-2.9501
X7.1063Y-2.814
X7.1063Y-2.9734
X7.1627Y-2.8373
X7.1627Y-2.9501
X7.186Y-2.8937
X4.0305Y-4.9606
X4.0539Y-4.9043
X4.0539Y-5.017
X4.1102Y-4.8809
X4.1102Y-5.0404
X4.1666Y-4.9043
X4.1666Y-5.017
X4.19Y-4.9606
X8.2549Y-4.0827
X8.2783Y-4.0263
X8.2783Y-4.1391
X8.3346Y-4.003
X8.3346Y-4.1624
X8.391Y-4.0263
X8.391Y-4.1391
X8.4144Y-4.0827
X8.2549Y-4.3819
X8.2783Y-4.3255
X8.2783Y-4.4383
X8.3346Y-4.3022
X8.3346Y-4.4616
X8.391Y-4.3255
X8.391Y-4.4383
X8.4144Y-4.3819
X6.6526Y-2.8937
X6.6759Y-2.8373
X6.6759Y-2.9501
X6.7323Y-2.814
X6.7323Y-2.9734
X6.7887Y-2.8373
X6.7887Y-2.9501
X6.812Y-2.8937
X8.2549Y-3.4843
X8.2783Y-3.4279
X8.2783Y-3.5406
X8.3346Y-3.4045
X8.3346Y-3.564
X8.391Y-3.4279
X8.391Y-3.5406
X8.4144Y-3.4843
X6.2392Y-4.9606
X6.2625Y-4.9043
X6.2625Y-5.017
X6.3189Y-4.8809
X6.3189Y-5.0404
X6.3753Y-4.9043
X6.3753Y-5.017
X6.3986Y-4.9606
X8.2549Y-3.185
X8.2783Y-3.1287
X8.2783Y-3.2414
X8.3346Y-3.1053
X8.3346Y-3.2648
X8.391Y-3.1287
X8.391Y-3.2414
X8.4144Y-3.185
X6.6329Y-4.9606
X6.6562Y-4.9043
X6.6562Y-5.017
X6.7126Y-4.8809
X6.7126Y-5.0404
X6.769Y-4.9043
X6.769Y-5.017
X6.7923Y-4.9606
X7.4006Y-2.8937
X7.4239Y-2.8373
X7.4239Y-2.9501
X7.4803Y-2.814
X7.4803Y-2.9734
X7.5367Y-2.8373
X7.5367Y-2.9501
X7.56Y-2.8937
T3
X3.6772Y-3.2047
X3.685Y-4.5039
X3.9016Y-4.1496
T4
X6.7323Y-3.3465
X6.9291Y-3.3465
X7.2835Y-3.3465
X7.4803Y-3.3465
T5
X7.8276Y-4.2362
X7.9276Y-4.2362
X8.0276Y-4.2362
T6
X5.6969Y-4.2795
X5.9134Y-4.1299
X6.815Y-4.1457
X7.1142Y-3.2953
X7.1614Y-4.0827
X7.2992Y-4.1496
X3.8583Y-3.9638
X3.8583Y-4.7638
X3.3465Y-2.8937
X4.1465Y-2.8937
X6.9764Y-3.6488
X6.9764Y-4.4488
X5.1181Y-2.8937
X5.9181Y-2.8937
X5.3937Y-3.9764
X5.3937Y-4.7764
T7
X3.6402Y-3.3681
X3.6402Y-3.7185
X3.7402Y-3.3681
X3.7402Y-3.7185
X3.8402Y-3.3681
X3.8402Y-3.7185
X5.4118Y-3.3681
X5.4118Y-3.7185
X5.5118Y-3.3681
X5.5118Y-3.7185
X5.6118Y-3.3681
X5.6118Y-3.7185
T8
X5.7953Y-4.5906
X7.9862Y-3.0768
T9
X5.0118Y-3.5433
X6.0118Y-3.5433
X8.3346Y-3.185
X6.7126Y-4.9606
X7.4803Y-2.8937
X3.7717Y-4.9606
X7.1654Y-4.9606
X4.4488Y-4.9606
X8.3346Y-4.6811
X8.3346Y-3.7835
X7.5591Y-4.9606
X7.1063Y-2.8937
X4.1102Y-4.9606
X8.3346Y-4.0827
X8.3346Y-4.3819
X6.7323Y-2.8937
X8.3346Y-3.4843
X3.2402Y-3.5433
X4.2402Y-3.5433
X6.3189Y-4.9606
T10
X7.9276Y-4.8921
T0
M30
