G04 #@! TF.GenerationSoftware,KiCad,Pcbnew,(5.1.5)-3*
G04 #@! TF.CreationDate,2020-10-27T23:40:54+01:00*
G04 #@! TF.ProjectId,output_stage_1,6f757470-7574-45f7-9374-6167655f312e,rev?*
G04 #@! TF.SameCoordinates,Original*
G04 #@! TF.FileFunction,Legend,Top*
G04 #@! TF.FilePolarity,Positive*
%FSLAX46Y46*%
G04 Gerber Fmt 4.6, Leading zero omitted, Abs format (unit mm)*
G04 Created by KiCad (PCBNEW (5.1.5)-3) date 2020-10-27 23:40:54*
%MOMM*%
%LPD*%
G04 APERTURE LIST*
%ADD10C,0.200000*%
%ADD11C,0.120000*%
%ADD12C,0.150000*%
%ADD13C,0.300000*%
%ADD14C,0.400000*%
G04 APERTURE END LIST*
D10*
X180500000Y-77000000D02*
X180000000Y-77000000D01*
X181000000Y-77000000D02*
X180500000Y-77000000D01*
X181000000Y-79000000D02*
X181000000Y-77000000D01*
X180000000Y-79000000D02*
X181000000Y-79000000D01*
X180000000Y-77000000D02*
X180000000Y-79000000D01*
X189000000Y-78000000D02*
X191000000Y-78000000D01*
X170000000Y-78000000D02*
X172000000Y-78000000D01*
X171000000Y-77000000D02*
X171000000Y-79000000D01*
D11*
X201160000Y-90300000D02*
X201160000Y-87425000D01*
X201160000Y-90300000D02*
X201160000Y-91800000D01*
X196840000Y-90300000D02*
X196840000Y-88800000D01*
X196840000Y-90300000D02*
X196840000Y-91800000D01*
X201850000Y-98800000D02*
G75*
G02X201150000Y-99500000I-700000J0D01*
G01*
X201150000Y-97500000D02*
G75*
G02X201850000Y-98200000I0J-700000D01*
G01*
X197750000Y-98200000D02*
G75*
G02X198450000Y-97500000I700000J0D01*
G01*
X198450000Y-99500000D02*
G75*
G02X197750000Y-98800000I0J700000D01*
G01*
X201200000Y-99500000D02*
X198400000Y-99500000D01*
X197750000Y-98800000D02*
X197750000Y-98200000D01*
X198400000Y-97500000D02*
X201200000Y-97500000D01*
X201850000Y-98200000D02*
X201850000Y-98800000D01*
X201000000Y-97300000D02*
X201300000Y-97000000D01*
X201300000Y-97000000D02*
X200700000Y-97000000D01*
X201000000Y-97300000D02*
X200700000Y-97000000D01*
X197550000Y-81000000D02*
G75*
G02X198250000Y-80300000I700000J0D01*
G01*
X198250000Y-82300000D02*
G75*
G02X197550000Y-81600000I0J700000D01*
G01*
X201650000Y-81600000D02*
G75*
G02X200950000Y-82300000I-700000J0D01*
G01*
X200950000Y-80300000D02*
G75*
G02X201650000Y-81000000I0J-700000D01*
G01*
X198200000Y-80300000D02*
X201000000Y-80300000D01*
X201650000Y-81000000D02*
X201650000Y-81600000D01*
X201000000Y-82300000D02*
X198200000Y-82300000D01*
X197550000Y-81600000D02*
X197550000Y-81000000D01*
X198400000Y-82500000D02*
X198100000Y-82800000D01*
X198100000Y-82800000D02*
X198700000Y-82800000D01*
X198400000Y-82500000D02*
X198700000Y-82800000D01*
X198650000Y-96600000D02*
G75*
G02X197950000Y-97300000I-700000J0D01*
G01*
X197950000Y-95300000D02*
G75*
G02X198650000Y-96000000I0J-700000D01*
G01*
X194550000Y-96000000D02*
G75*
G02X195250000Y-95300000I700000J0D01*
G01*
X195250000Y-97300000D02*
G75*
G02X194550000Y-96600000I0J700000D01*
G01*
X198000000Y-97300000D02*
X195200000Y-97300000D01*
X194550000Y-96600000D02*
X194550000Y-96000000D01*
X195200000Y-95300000D02*
X198000000Y-95300000D01*
X198650000Y-96000000D02*
X198650000Y-96600000D01*
X197800000Y-95100000D02*
X198100000Y-94800000D01*
X198100000Y-94800000D02*
X197500000Y-94800000D01*
X197800000Y-95100000D02*
X197500000Y-94800000D01*
X195450000Y-84000000D02*
G75*
G02X196150000Y-83300000I700000J0D01*
G01*
X196150000Y-85300000D02*
G75*
G02X195450000Y-84600000I0J700000D01*
G01*
X199550000Y-84600000D02*
G75*
G02X198850000Y-85300000I-700000J0D01*
G01*
X198850000Y-83300000D02*
G75*
G02X199550000Y-84000000I0J-700000D01*
G01*
X196100000Y-83300000D02*
X198900000Y-83300000D01*
X199550000Y-84000000D02*
X199550000Y-84600000D01*
X198900000Y-85300000D02*
X196100000Y-85300000D01*
X195450000Y-84600000D02*
X195450000Y-84000000D01*
X196300000Y-85500000D02*
X196000000Y-85800000D01*
X196000000Y-85800000D02*
X196600000Y-85800000D01*
X196300000Y-85500000D02*
X196600000Y-85800000D01*
X184000000Y-116300000D02*
X182600000Y-116300000D01*
X181900000Y-115600000D02*
X181900000Y-115000000D01*
X182600000Y-114300000D02*
X184000000Y-114300000D01*
X184700000Y-115000000D02*
X184700000Y-115600000D01*
X184700000Y-115600000D02*
G75*
G02X184000000Y-116300000I-700000J0D01*
G01*
X184000000Y-114300000D02*
G75*
G02X184700000Y-115000000I0J-700000D01*
G01*
X181900000Y-115000000D02*
G75*
G02X182600000Y-114300000I700000J0D01*
G01*
X182600000Y-116300000D02*
G75*
G02X181900000Y-115600000I0J700000D01*
G01*
X176500000Y-119490000D02*
X173575000Y-119490000D01*
X176500000Y-119490000D02*
X178000000Y-119490000D01*
X176500000Y-122710000D02*
X175000000Y-122710000D01*
X176500000Y-122710000D02*
X178000000Y-122710000D01*
X134060000Y-125750000D02*
X134060000Y-122825000D01*
X134060000Y-125750000D02*
X134060000Y-127250000D01*
X130840000Y-125750000D02*
X130840000Y-124250000D01*
X130840000Y-125750000D02*
X130840000Y-127250000D01*
X83540000Y-115900000D02*
X83540000Y-118775000D01*
X83540000Y-115900000D02*
X83540000Y-114400000D01*
X87860000Y-115900000D02*
X87860000Y-117400000D01*
X87860000Y-115900000D02*
X87860000Y-114400000D01*
X193210000Y-116900000D02*
X193210000Y-113450000D01*
X193210000Y-116900000D02*
X193210000Y-118850000D01*
X188090000Y-116900000D02*
X188090000Y-114950000D01*
X188090000Y-116900000D02*
X188090000Y-118850000D01*
D12*
X204600000Y-78150000D02*
G75*
G03X204600000Y-78150000I-1750000J0D01*
G01*
X148950000Y-116600000D02*
G75*
G03X148950000Y-116600000I-1750000J0D01*
G01*
D11*
X85400000Y-128300000D02*
G75*
G03X85400000Y-128300000I-1200000J0D01*
G01*
X207800000Y-93800000D02*
G75*
G03X207800000Y-93800000I-1200000J0D01*
G01*
X168300000Y-119800000D02*
G75*
G03X168300000Y-119800000I-1200000J0D01*
G01*
X125800000Y-124700000D02*
G75*
G03X125800000Y-124700000I-1200000J0D01*
G01*
X192700000Y-100900000D02*
G75*
G03X192700000Y-100900000I-1200000J0D01*
G01*
X101500000Y-123100000D02*
G75*
G03X101500000Y-123100000I-1200000J0D01*
G01*
X187171267Y-125490000D02*
X186828733Y-125490000D01*
X187171267Y-126510000D02*
X186828733Y-126510000D01*
X165671267Y-125490000D02*
X165328733Y-125490000D01*
X165671267Y-126510000D02*
X165328733Y-126510000D01*
X142560000Y-126252064D02*
X142560000Y-122147936D01*
X139140000Y-126252064D02*
X139140000Y-122147936D01*
X185010000Y-76671267D02*
X185010000Y-76328733D01*
X183990000Y-76671267D02*
X183990000Y-76328733D01*
X175510000Y-76671267D02*
X175510000Y-76328733D01*
X174490000Y-76671267D02*
X174490000Y-76328733D01*
X98000000Y-102120000D02*
X98000000Y-102220000D01*
X98000000Y-119560000D02*
X98000000Y-119460000D01*
X94880000Y-102220000D02*
X94880000Y-119460000D01*
X101120000Y-102220000D02*
X94880000Y-102220000D01*
X101120000Y-119460000D02*
X101120000Y-102220000D01*
X94880000Y-119460000D02*
X101120000Y-119460000D01*
X137000000Y-119880000D02*
X137000000Y-119780000D01*
X137000000Y-102440000D02*
X137000000Y-102540000D01*
X140120000Y-119780000D02*
X140120000Y-102540000D01*
X133880000Y-119780000D02*
X140120000Y-119780000D01*
X133880000Y-102540000D02*
X133880000Y-119780000D01*
X140120000Y-102540000D02*
X133880000Y-102540000D01*
X91297936Y-78660000D02*
X92502064Y-78660000D01*
X91297936Y-76840000D02*
X92502064Y-76840000D01*
X140102064Y-78590000D02*
X138897936Y-78590000D01*
X140102064Y-80410000D02*
X138897936Y-80410000D01*
X103880000Y-73500000D02*
X103030000Y-73500000D01*
X86440000Y-73500000D02*
X87290000Y-73500000D01*
X103030000Y-70880000D02*
X87290000Y-70880000D01*
X103030000Y-76120000D02*
X103030000Y-70880000D01*
X87290000Y-76120000D02*
X103030000Y-76120000D01*
X87290000Y-70880000D02*
X87290000Y-76120000D01*
X148880000Y-73500000D02*
X148030000Y-73500000D01*
X131440000Y-73500000D02*
X132290000Y-73500000D01*
X148030000Y-70880000D02*
X132290000Y-70880000D01*
X148030000Y-76120000D02*
X148030000Y-70880000D01*
X132290000Y-76120000D02*
X148030000Y-76120000D01*
X132290000Y-70880000D02*
X132290000Y-76120000D01*
X96597936Y-80910000D02*
X97802064Y-80910000D01*
X96597936Y-79090000D02*
X97802064Y-79090000D01*
X131310000Y-107802064D02*
X131310000Y-106597936D01*
X129490000Y-107802064D02*
X129490000Y-106597936D01*
X177200000Y-94120000D02*
X177200000Y-94970000D01*
X177200000Y-111560000D02*
X177200000Y-110710000D01*
X174580000Y-94970000D02*
X174580000Y-110710000D01*
X179820000Y-94970000D02*
X174580000Y-94970000D01*
X179820000Y-110710000D02*
X179820000Y-94970000D01*
X174580000Y-110710000D02*
X179820000Y-110710000D01*
X195510000Y-118752064D02*
X195510000Y-117547936D01*
X193690000Y-118752064D02*
X193690000Y-117547936D01*
X192321267Y-107240000D02*
X191978733Y-107240000D01*
X192321267Y-108260000D02*
X191978733Y-108260000D01*
X190571267Y-111840000D02*
X190228733Y-111840000D01*
X190571267Y-112860000D02*
X190228733Y-112860000D01*
X209360000Y-115421267D02*
X209360000Y-115078733D01*
X208340000Y-115421267D02*
X208340000Y-115078733D01*
X198820000Y-111290000D02*
X198820000Y-108750000D01*
X201360000Y-111290000D02*
X201360000Y-108750000D01*
X203900000Y-111290000D02*
X203900000Y-108750000D01*
X196240000Y-127180000D02*
X196240000Y-111290000D01*
X206480000Y-127180000D02*
X206480000Y-111290000D01*
X206480000Y-127180000D02*
X196240000Y-127180000D01*
X206480000Y-111290000D02*
X196240000Y-111290000D01*
X204200000Y-94450000D02*
X204200000Y-95850000D01*
X203500000Y-96550000D02*
X202900000Y-96550000D01*
X202200000Y-95850000D02*
X202200000Y-94450000D01*
X202900000Y-93750000D02*
X203500000Y-93750000D01*
X203500000Y-93750000D02*
G75*
G02X204200000Y-94450000I0J-700000D01*
G01*
X202200000Y-94450000D02*
G75*
G02X202900000Y-93750000I700000J0D01*
G01*
X202900000Y-96550000D02*
G75*
G02X202200000Y-95850000I0J700000D01*
G01*
X204200000Y-95850000D02*
G75*
G02X203500000Y-96550000I-700000J0D01*
G01*
X202200000Y-86050000D02*
X202200000Y-84650000D01*
X202900000Y-83950000D02*
X203500000Y-83950000D01*
X204200000Y-84650000D02*
X204200000Y-86050000D01*
X203500000Y-86750000D02*
X202900000Y-86750000D01*
X202900000Y-86750000D02*
G75*
G02X202200000Y-86050000I0J700000D01*
G01*
X204200000Y-86050000D02*
G75*
G02X203500000Y-86750000I-700000J0D01*
G01*
X203500000Y-83950000D02*
G75*
G02X204200000Y-84650000I0J-700000D01*
G01*
X202200000Y-84650000D02*
G75*
G02X202900000Y-83950000I700000J0D01*
G01*
X86200000Y-111600000D02*
X86200000Y-110200000D01*
X86900000Y-109500000D02*
X87500000Y-109500000D01*
X88200000Y-110200000D02*
X88200000Y-111600000D01*
X87500000Y-112300000D02*
X86900000Y-112300000D01*
X86900000Y-112300000D02*
G75*
G02X86200000Y-111600000I0J700000D01*
G01*
X88200000Y-111600000D02*
G75*
G02X87500000Y-112300000I-700000J0D01*
G01*
X87500000Y-109500000D02*
G75*
G02X88200000Y-110200000I0J-700000D01*
G01*
X86200000Y-110200000D02*
G75*
G02X86900000Y-109500000I700000J0D01*
G01*
X84000000Y-111600000D02*
X84000000Y-110200000D01*
X84700000Y-109500000D02*
X85300000Y-109500000D01*
X86000000Y-110200000D02*
X86000000Y-111600000D01*
X85300000Y-112300000D02*
X84700000Y-112300000D01*
X84700000Y-112300000D02*
G75*
G02X84000000Y-111600000I0J700000D01*
G01*
X86000000Y-111600000D02*
G75*
G02X85300000Y-112300000I-700000J0D01*
G01*
X85300000Y-109500000D02*
G75*
G02X86000000Y-110200000I0J-700000D01*
G01*
X84000000Y-110200000D02*
G75*
G02X84700000Y-109500000I700000J0D01*
G01*
X81800000Y-111600000D02*
X81800000Y-110200000D01*
X82500000Y-109500000D02*
X83100000Y-109500000D01*
X83800000Y-110200000D02*
X83800000Y-111600000D01*
X83100000Y-112300000D02*
X82500000Y-112300000D01*
X82500000Y-112300000D02*
G75*
G02X81800000Y-111600000I0J700000D01*
G01*
X83800000Y-111600000D02*
G75*
G02X83100000Y-112300000I-700000J0D01*
G01*
X83100000Y-109500000D02*
G75*
G02X83800000Y-110200000I0J-700000D01*
G01*
X81800000Y-110200000D02*
G75*
G02X82500000Y-109500000I700000J0D01*
G01*
X83800000Y-120150000D02*
X83800000Y-121550000D01*
X83100000Y-122250000D02*
X82500000Y-122250000D01*
X81800000Y-121550000D02*
X81800000Y-120150000D01*
X82500000Y-119450000D02*
X83100000Y-119450000D01*
X83100000Y-119450000D02*
G75*
G02X83800000Y-120150000I0J-700000D01*
G01*
X81800000Y-120150000D02*
G75*
G02X82500000Y-119450000I700000J0D01*
G01*
X82500000Y-122250000D02*
G75*
G02X81800000Y-121550000I0J700000D01*
G01*
X83800000Y-121550000D02*
G75*
G02X83100000Y-122250000I-700000J0D01*
G01*
X86000000Y-120150000D02*
X86000000Y-121550000D01*
X85300000Y-122250000D02*
X84700000Y-122250000D01*
X84000000Y-121550000D02*
X84000000Y-120150000D01*
X84700000Y-119450000D02*
X85300000Y-119450000D01*
X85300000Y-119450000D02*
G75*
G02X86000000Y-120150000I0J-700000D01*
G01*
X84000000Y-120150000D02*
G75*
G02X84700000Y-119450000I700000J0D01*
G01*
X84700000Y-122250000D02*
G75*
G02X84000000Y-121550000I0J700000D01*
G01*
X86000000Y-121550000D02*
G75*
G02X85300000Y-122250000I-700000J0D01*
G01*
X88200000Y-120150000D02*
X88200000Y-121550000D01*
X87500000Y-122250000D02*
X86900000Y-122250000D01*
X86200000Y-121550000D02*
X86200000Y-120150000D01*
X86900000Y-119450000D02*
X87500000Y-119450000D01*
X87500000Y-119450000D02*
G75*
G02X88200000Y-120150000I0J-700000D01*
G01*
X86200000Y-120150000D02*
G75*
G02X86900000Y-119450000I700000J0D01*
G01*
X86900000Y-122250000D02*
G75*
G02X86200000Y-121550000I0J700000D01*
G01*
X88200000Y-121550000D02*
G75*
G02X87500000Y-122250000I-700000J0D01*
G01*
X209400000Y-84100000D02*
X209400000Y-85500000D01*
X208700000Y-86200000D02*
X208100000Y-86200000D01*
X207400000Y-85500000D02*
X207400000Y-84100000D01*
X208100000Y-83400000D02*
X208700000Y-83400000D01*
X208700000Y-83400000D02*
G75*
G02X209400000Y-84100000I0J-700000D01*
G01*
X207400000Y-84100000D02*
G75*
G02X208100000Y-83400000I700000J0D01*
G01*
X208100000Y-86200000D02*
G75*
G02X207400000Y-85500000I0J700000D01*
G01*
X209400000Y-85500000D02*
G75*
G02X208700000Y-86200000I-700000J0D01*
G01*
X92350000Y-121350000D02*
X90950000Y-121350000D01*
X90250000Y-120650000D02*
X90250000Y-120050000D01*
X90950000Y-119350000D02*
X92350000Y-119350000D01*
X93050000Y-120050000D02*
X93050000Y-120650000D01*
X93050000Y-120650000D02*
G75*
G02X92350000Y-121350000I-700000J0D01*
G01*
X92350000Y-119350000D02*
G75*
G02X93050000Y-120050000I0J-700000D01*
G01*
X90250000Y-120050000D02*
G75*
G02X90950000Y-119350000I700000J0D01*
G01*
X90950000Y-121350000D02*
G75*
G02X90250000Y-120650000I0J700000D01*
G01*
X185265000Y-74840000D02*
X185265000Y-77300000D01*
X186735000Y-74840000D02*
X185265000Y-74840000D01*
X186735000Y-77300000D02*
X186735000Y-74840000D01*
X175765000Y-74840000D02*
X175765000Y-77300000D01*
X177235000Y-74840000D02*
X175765000Y-74840000D01*
X177235000Y-77300000D02*
X177235000Y-74840000D01*
X196310000Y-90421267D02*
X196310000Y-90078733D01*
X195290000Y-90421267D02*
X195290000Y-90078733D01*
X192620000Y-85000000D02*
G75*
G03X192620000Y-85000000I-5120000J0D01*
G01*
X178620000Y-85000000D02*
G75*
G03X178620000Y-85000000I-5120000J0D01*
G01*
X88390000Y-115728733D02*
X88390000Y-116071267D01*
X89410000Y-115728733D02*
X89410000Y-116071267D01*
X186828733Y-91710000D02*
X187171267Y-91710000D01*
X186828733Y-90690000D02*
X187171267Y-90690000D01*
X173228733Y-91560000D02*
X173571267Y-91560000D01*
X173228733Y-90540000D02*
X173571267Y-90540000D01*
X121590000Y-116897936D02*
X121590000Y-118102064D01*
X123410000Y-116897936D02*
X123410000Y-118102064D01*
X187760000Y-116871267D02*
X187760000Y-116528733D01*
X186740000Y-116871267D02*
X186740000Y-116528733D01*
X119090000Y-116897936D02*
X119090000Y-118102064D01*
X120910000Y-116897936D02*
X120910000Y-118102064D01*
X177671267Y-118090000D02*
X177328733Y-118090000D01*
X177671267Y-119110000D02*
X177328733Y-119110000D01*
X116590000Y-116897936D02*
X116590000Y-118102064D01*
X118410000Y-116897936D02*
X118410000Y-118102064D01*
X114090000Y-116897936D02*
X114090000Y-118102064D01*
X115910000Y-116897936D02*
X115910000Y-118102064D01*
X135460000Y-126921267D02*
X135460000Y-126578733D01*
X134440000Y-126921267D02*
X134440000Y-126578733D01*
X111590000Y-116897936D02*
X111590000Y-118102064D01*
X113410000Y-116897936D02*
X113410000Y-118102064D01*
X93410000Y-100202064D02*
X93410000Y-98997936D01*
X91590000Y-100202064D02*
X91590000Y-98997936D01*
X140102064Y-81090000D02*
X138897936Y-81090000D01*
X140102064Y-82910000D02*
X138897936Y-82910000D01*
X97802064Y-81490000D02*
X96597936Y-81490000D01*
X97802064Y-83310000D02*
X96597936Y-83310000D01*
X139130809Y-99267744D02*
X139982256Y-100119191D01*
X140417744Y-97980809D02*
X141269191Y-98832256D01*
X181460000Y-112171267D02*
X181460000Y-111828733D01*
X180440000Y-112171267D02*
X180440000Y-111828733D01*
X202278733Y-105260000D02*
X202621267Y-105260000D01*
X202278733Y-104240000D02*
X202621267Y-104240000D01*
X192321267Y-108773334D02*
X191978733Y-108773334D01*
X192321267Y-109793334D02*
X191978733Y-109793334D01*
X207860000Y-117171267D02*
X207860000Y-116828733D01*
X206840000Y-117171267D02*
X206840000Y-116828733D01*
X190571267Y-110306667D02*
X190228733Y-110306667D01*
X190571267Y-111326667D02*
X190228733Y-111326667D01*
D12*
X201452380Y-89061904D02*
X202261904Y-89061904D01*
X202357142Y-89014285D01*
X202404761Y-88966666D01*
X202452380Y-88871428D01*
X202452380Y-88680952D01*
X202404761Y-88585714D01*
X202357142Y-88538095D01*
X202261904Y-88490476D01*
X201452380Y-88490476D01*
X201452380Y-88109523D02*
X201452380Y-87490476D01*
X201833333Y-87823809D01*
X201833333Y-87680952D01*
X201880952Y-87585714D01*
X201928571Y-87538095D01*
X202023809Y-87490476D01*
X202261904Y-87490476D01*
X202357142Y-87538095D01*
X202404761Y-87585714D01*
X202452380Y-87680952D01*
X202452380Y-87966666D01*
X202404761Y-88061904D01*
X202357142Y-88109523D01*
X194490476Y-98152380D02*
X194490476Y-98866666D01*
X194442857Y-99009523D01*
X194347619Y-99104761D01*
X194204761Y-99152380D01*
X194109523Y-99152380D01*
X194966666Y-99152380D02*
X194966666Y-98152380D01*
X195347619Y-98152380D01*
X195442857Y-98200000D01*
X195490476Y-98247619D01*
X195538095Y-98342857D01*
X195538095Y-98485714D01*
X195490476Y-98580952D01*
X195442857Y-98628571D01*
X195347619Y-98676190D01*
X194966666Y-98676190D01*
X196490476Y-99152380D02*
X195919047Y-99152380D01*
X196204761Y-99152380D02*
X196204761Y-98152380D01*
X196109523Y-98295238D01*
X196014285Y-98390476D01*
X195919047Y-98438095D01*
X197347619Y-98485714D02*
X197347619Y-99152380D01*
X197109523Y-98104761D02*
X196871428Y-98819047D01*
X197490476Y-98819047D01*
X194390476Y-79852380D02*
X194390476Y-80566666D01*
X194342857Y-80709523D01*
X194247619Y-80804761D01*
X194104761Y-80852380D01*
X194009523Y-80852380D01*
X194866666Y-80852380D02*
X194866666Y-79852380D01*
X195247619Y-79852380D01*
X195342857Y-79900000D01*
X195390476Y-79947619D01*
X195438095Y-80042857D01*
X195438095Y-80185714D01*
X195390476Y-80280952D01*
X195342857Y-80328571D01*
X195247619Y-80376190D01*
X194866666Y-80376190D01*
X196390476Y-80852380D02*
X195819047Y-80852380D01*
X196104761Y-80852380D02*
X196104761Y-79852380D01*
X196009523Y-79995238D01*
X195914285Y-80090476D01*
X195819047Y-80138095D01*
X196723809Y-79852380D02*
X197342857Y-79852380D01*
X197009523Y-80233333D01*
X197152380Y-80233333D01*
X197247619Y-80280952D01*
X197295238Y-80328571D01*
X197342857Y-80423809D01*
X197342857Y-80661904D01*
X197295238Y-80757142D01*
X197247619Y-80804761D01*
X197152380Y-80852380D01*
X196866666Y-80852380D01*
X196771428Y-80804761D01*
X196723809Y-80757142D01*
X191290476Y-95752380D02*
X191290476Y-96466666D01*
X191242857Y-96609523D01*
X191147619Y-96704761D01*
X191004761Y-96752380D01*
X190909523Y-96752380D01*
X191766666Y-96752380D02*
X191766666Y-95752380D01*
X192147619Y-95752380D01*
X192242857Y-95800000D01*
X192290476Y-95847619D01*
X192338095Y-95942857D01*
X192338095Y-96085714D01*
X192290476Y-96180952D01*
X192242857Y-96228571D01*
X192147619Y-96276190D01*
X191766666Y-96276190D01*
X193290476Y-96752380D02*
X192719047Y-96752380D01*
X193004761Y-96752380D02*
X193004761Y-95752380D01*
X192909523Y-95895238D01*
X192814285Y-95990476D01*
X192719047Y-96038095D01*
X193909523Y-95752380D02*
X194004761Y-95752380D01*
X194100000Y-95800000D01*
X194147619Y-95847619D01*
X194195238Y-95942857D01*
X194242857Y-96133333D01*
X194242857Y-96371428D01*
X194195238Y-96561904D01*
X194147619Y-96657142D01*
X194100000Y-96704761D01*
X194004761Y-96752380D01*
X193909523Y-96752380D01*
X193814285Y-96704761D01*
X193766666Y-96657142D01*
X193719047Y-96561904D01*
X193671428Y-96371428D01*
X193671428Y-96133333D01*
X193719047Y-95942857D01*
X193766666Y-95847619D01*
X193814285Y-95800000D01*
X193909523Y-95752380D01*
X193366666Y-84952380D02*
X193366666Y-85666666D01*
X193319047Y-85809523D01*
X193223809Y-85904761D01*
X193080952Y-85952380D01*
X192985714Y-85952380D01*
X193842857Y-85952380D02*
X193842857Y-84952380D01*
X194223809Y-84952380D01*
X194319047Y-85000000D01*
X194366666Y-85047619D01*
X194414285Y-85142857D01*
X194414285Y-85285714D01*
X194366666Y-85380952D01*
X194319047Y-85428571D01*
X194223809Y-85476190D01*
X193842857Y-85476190D01*
X194890476Y-85952380D02*
X195080952Y-85952380D01*
X195176190Y-85904761D01*
X195223809Y-85857142D01*
X195319047Y-85714285D01*
X195366666Y-85523809D01*
X195366666Y-85142857D01*
X195319047Y-85047619D01*
X195271428Y-85000000D01*
X195176190Y-84952380D01*
X194985714Y-84952380D01*
X194890476Y-85000000D01*
X194842857Y-85047619D01*
X194795238Y-85142857D01*
X194795238Y-85380952D01*
X194842857Y-85476190D01*
X194890476Y-85523809D01*
X194985714Y-85571428D01*
X195176190Y-85571428D01*
X195271428Y-85523809D01*
X195319047Y-85476190D01*
X195366666Y-85380952D01*
X181990476Y-116552380D02*
X181990476Y-117266666D01*
X181942857Y-117409523D01*
X181847619Y-117504761D01*
X181704761Y-117552380D01*
X181609523Y-117552380D01*
X182466666Y-117552380D02*
X182466666Y-116552380D01*
X182847619Y-116552380D01*
X182942857Y-116600000D01*
X182990476Y-116647619D01*
X183038095Y-116742857D01*
X183038095Y-116885714D01*
X182990476Y-116980952D01*
X182942857Y-117028571D01*
X182847619Y-117076190D01*
X182466666Y-117076190D01*
X183990476Y-117552380D02*
X183419047Y-117552380D01*
X183704761Y-117552380D02*
X183704761Y-116552380D01*
X183609523Y-116695238D01*
X183514285Y-116790476D01*
X183419047Y-116838095D01*
X184895238Y-116552380D02*
X184419047Y-116552380D01*
X184371428Y-117028571D01*
X184419047Y-116980952D01*
X184514285Y-116933333D01*
X184752380Y-116933333D01*
X184847619Y-116980952D01*
X184895238Y-117028571D01*
X184942857Y-117123809D01*
X184942857Y-117361904D01*
X184895238Y-117457142D01*
X184847619Y-117504761D01*
X184752380Y-117552380D01*
X184514285Y-117552380D01*
X184419047Y-117504761D01*
X184371428Y-117457142D01*
D13*
X88207142Y-81178571D02*
X89064285Y-81178571D01*
X88635714Y-82678571D02*
X88635714Y-81178571D01*
X90421428Y-82535714D02*
X90350000Y-82607142D01*
X90135714Y-82678571D01*
X89992857Y-82678571D01*
X89778571Y-82607142D01*
X89635714Y-82464285D01*
X89564285Y-82321428D01*
X89492857Y-82035714D01*
X89492857Y-81821428D01*
X89564285Y-81535714D01*
X89635714Y-81392857D01*
X89778571Y-81250000D01*
X89992857Y-81178571D01*
X90135714Y-81178571D01*
X90350000Y-81250000D01*
X90421428Y-81321428D01*
X90992857Y-81321428D02*
X91064285Y-81250000D01*
X91207142Y-81178571D01*
X91564285Y-81178571D01*
X91707142Y-81250000D01*
X91778571Y-81321428D01*
X91850000Y-81464285D01*
X91850000Y-81607142D01*
X91778571Y-81821428D01*
X90921428Y-82678571D01*
X91850000Y-82678571D01*
D14*
X100730857Y-94429142D02*
X101016571Y-94524380D01*
X101111809Y-94619619D01*
X101207047Y-94810095D01*
X101207047Y-95095809D01*
X101111809Y-95286285D01*
X101016571Y-95381523D01*
X100826095Y-95476761D01*
X100064190Y-95476761D01*
X100064190Y-93476761D01*
X100730857Y-93476761D01*
X100921333Y-93572000D01*
X101016571Y-93667238D01*
X101111809Y-93857714D01*
X101111809Y-94048190D01*
X101016571Y-94238666D01*
X100921333Y-94333904D01*
X100730857Y-94429142D01*
X100064190Y-94429142D01*
X100111809Y-85761333D02*
X101064190Y-85761333D01*
X99921333Y-86332761D02*
X100588000Y-84332761D01*
X101254666Y-86332761D01*
D13*
X142607142Y-81178571D02*
X143464285Y-81178571D01*
X143035714Y-82678571D02*
X143035714Y-81178571D01*
X144821428Y-82535714D02*
X144750000Y-82607142D01*
X144535714Y-82678571D01*
X144392857Y-82678571D01*
X144178571Y-82607142D01*
X144035714Y-82464285D01*
X143964285Y-82321428D01*
X143892857Y-82035714D01*
X143892857Y-81821428D01*
X143964285Y-81535714D01*
X144035714Y-81392857D01*
X144178571Y-81250000D01*
X144392857Y-81178571D01*
X144535714Y-81178571D01*
X144750000Y-81250000D01*
X144821428Y-81321428D01*
X146250000Y-82678571D02*
X145392857Y-82678571D01*
X145821428Y-82678571D02*
X145821428Y-81178571D01*
X145678571Y-81392857D01*
X145535714Y-81535714D01*
X145392857Y-81607142D01*
D14*
X145730857Y-94429142D02*
X146016571Y-94524380D01*
X146111809Y-94619619D01*
X146207047Y-94810095D01*
X146207047Y-95095809D01*
X146111809Y-95286285D01*
X146016571Y-95381523D01*
X145826095Y-95476761D01*
X145064190Y-95476761D01*
X145064190Y-93476761D01*
X145730857Y-93476761D01*
X145921333Y-93572000D01*
X146016571Y-93667238D01*
X146111809Y-93857714D01*
X146111809Y-94048190D01*
X146016571Y-94238666D01*
X145921333Y-94333904D01*
X145730857Y-94429142D01*
X145064190Y-94429142D01*
X145111809Y-85761333D02*
X146064190Y-85761333D01*
X144921333Y-86332761D02*
X145588000Y-84332761D01*
X146254666Y-86332761D01*
D12*
X173438095Y-118252380D02*
X173438095Y-119061904D01*
X173485714Y-119157142D01*
X173533333Y-119204761D01*
X173628571Y-119252380D01*
X173819047Y-119252380D01*
X173914285Y-119204761D01*
X173961904Y-119157142D01*
X174009523Y-119061904D01*
X174009523Y-118252380D01*
X174961904Y-118252380D02*
X174485714Y-118252380D01*
X174438095Y-118728571D01*
X174485714Y-118680952D01*
X174580952Y-118633333D01*
X174819047Y-118633333D01*
X174914285Y-118680952D01*
X174961904Y-118728571D01*
X175009523Y-118823809D01*
X175009523Y-119061904D01*
X174961904Y-119157142D01*
X174914285Y-119204761D01*
X174819047Y-119252380D01*
X174580952Y-119252380D01*
X174485714Y-119204761D01*
X174438095Y-119157142D01*
X134402380Y-124011904D02*
X135211904Y-124011904D01*
X135307142Y-123964285D01*
X135354761Y-123916666D01*
X135402380Y-123821428D01*
X135402380Y-123630952D01*
X135354761Y-123535714D01*
X135307142Y-123488095D01*
X135211904Y-123440476D01*
X134402380Y-123440476D01*
X134735714Y-122535714D02*
X135402380Y-122535714D01*
X134354761Y-122773809D02*
X135069047Y-123011904D01*
X135069047Y-122392857D01*
X82252380Y-118761904D02*
X83061904Y-118761904D01*
X83157142Y-118714285D01*
X83204761Y-118666666D01*
X83252380Y-118571428D01*
X83252380Y-118380952D01*
X83204761Y-118285714D01*
X83157142Y-118238095D01*
X83061904Y-118190476D01*
X82252380Y-118190476D01*
X82347619Y-117761904D02*
X82300000Y-117714285D01*
X82252380Y-117619047D01*
X82252380Y-117380952D01*
X82300000Y-117285714D01*
X82347619Y-117238095D01*
X82442857Y-117190476D01*
X82538095Y-117190476D01*
X82680952Y-117238095D01*
X83252380Y-117809523D01*
X83252380Y-117190476D01*
X193502380Y-115061904D02*
X194311904Y-115061904D01*
X194407142Y-115014285D01*
X194454761Y-114966666D01*
X194502380Y-114871428D01*
X194502380Y-114680952D01*
X194454761Y-114585714D01*
X194407142Y-114538095D01*
X194311904Y-114490476D01*
X193502380Y-114490476D01*
X194502380Y-113490476D02*
X194502380Y-114061904D01*
X194502380Y-113776190D02*
X193502380Y-113776190D01*
X193645238Y-113871428D01*
X193740476Y-113966666D01*
X193788095Y-114061904D01*
X201588095Y-74852380D02*
X202159523Y-74852380D01*
X201873809Y-75852380D02*
X201873809Y-74852380D01*
X202492857Y-75852380D02*
X202492857Y-74852380D01*
X202873809Y-74852380D01*
X202969047Y-74900000D01*
X203016666Y-74947619D01*
X203064285Y-75042857D01*
X203064285Y-75185714D01*
X203016666Y-75280952D01*
X202969047Y-75328571D01*
X202873809Y-75376190D01*
X202492857Y-75376190D01*
X203635714Y-75280952D02*
X203540476Y-75233333D01*
X203492857Y-75185714D01*
X203445238Y-75090476D01*
X203445238Y-75042857D01*
X203492857Y-74947619D01*
X203540476Y-74900000D01*
X203635714Y-74852380D01*
X203826190Y-74852380D01*
X203921428Y-74900000D01*
X203969047Y-74947619D01*
X204016666Y-75042857D01*
X204016666Y-75090476D01*
X203969047Y-75185714D01*
X203921428Y-75233333D01*
X203826190Y-75280952D01*
X203635714Y-75280952D01*
X203540476Y-75328571D01*
X203492857Y-75376190D01*
X203445238Y-75471428D01*
X203445238Y-75661904D01*
X203492857Y-75757142D01*
X203540476Y-75804761D01*
X203635714Y-75852380D01*
X203826190Y-75852380D01*
X203921428Y-75804761D01*
X203969047Y-75757142D01*
X204016666Y-75661904D01*
X204016666Y-75471428D01*
X203969047Y-75376190D01*
X203921428Y-75328571D01*
X203826190Y-75280952D01*
X145938095Y-113302380D02*
X146509523Y-113302380D01*
X146223809Y-114302380D02*
X146223809Y-113302380D01*
X146842857Y-114302380D02*
X146842857Y-113302380D01*
X147223809Y-113302380D01*
X147319047Y-113350000D01*
X147366666Y-113397619D01*
X147414285Y-113492857D01*
X147414285Y-113635714D01*
X147366666Y-113730952D01*
X147319047Y-113778571D01*
X147223809Y-113826190D01*
X146842857Y-113826190D01*
X147747619Y-113302380D02*
X148414285Y-113302380D01*
X147985714Y-114302380D01*
X82938095Y-125754380D02*
X83509523Y-125754380D01*
X83223809Y-126754380D02*
X83223809Y-125754380D01*
X83842857Y-126754380D02*
X83842857Y-125754380D01*
X84223809Y-125754380D01*
X84319047Y-125802000D01*
X84366666Y-125849619D01*
X84414285Y-125944857D01*
X84414285Y-126087714D01*
X84366666Y-126182952D01*
X84319047Y-126230571D01*
X84223809Y-126278190D01*
X83842857Y-126278190D01*
X85271428Y-125754380D02*
X85080952Y-125754380D01*
X84985714Y-125802000D01*
X84938095Y-125849619D01*
X84842857Y-125992476D01*
X84795238Y-126182952D01*
X84795238Y-126563904D01*
X84842857Y-126659142D01*
X84890476Y-126706761D01*
X84985714Y-126754380D01*
X85176190Y-126754380D01*
X85271428Y-126706761D01*
X85319047Y-126659142D01*
X85366666Y-126563904D01*
X85366666Y-126325809D01*
X85319047Y-126230571D01*
X85271428Y-126182952D01*
X85176190Y-126135333D01*
X84985714Y-126135333D01*
X84890476Y-126182952D01*
X84842857Y-126230571D01*
X84795238Y-126325809D01*
X205338095Y-91254380D02*
X205909523Y-91254380D01*
X205623809Y-92254380D02*
X205623809Y-91254380D01*
X206242857Y-92254380D02*
X206242857Y-91254380D01*
X206623809Y-91254380D01*
X206719047Y-91302000D01*
X206766666Y-91349619D01*
X206814285Y-91444857D01*
X206814285Y-91587714D01*
X206766666Y-91682952D01*
X206719047Y-91730571D01*
X206623809Y-91778190D01*
X206242857Y-91778190D01*
X207719047Y-91254380D02*
X207242857Y-91254380D01*
X207195238Y-91730571D01*
X207242857Y-91682952D01*
X207338095Y-91635333D01*
X207576190Y-91635333D01*
X207671428Y-91682952D01*
X207719047Y-91730571D01*
X207766666Y-91825809D01*
X207766666Y-92063904D01*
X207719047Y-92159142D01*
X207671428Y-92206761D01*
X207576190Y-92254380D01*
X207338095Y-92254380D01*
X207242857Y-92206761D01*
X207195238Y-92159142D01*
X165838095Y-117254380D02*
X166409523Y-117254380D01*
X166123809Y-118254380D02*
X166123809Y-117254380D01*
X166742857Y-118254380D02*
X166742857Y-117254380D01*
X167123809Y-117254380D01*
X167219047Y-117302000D01*
X167266666Y-117349619D01*
X167314285Y-117444857D01*
X167314285Y-117587714D01*
X167266666Y-117682952D01*
X167219047Y-117730571D01*
X167123809Y-117778190D01*
X166742857Y-117778190D01*
X168171428Y-117587714D02*
X168171428Y-118254380D01*
X167933333Y-117206761D02*
X167695238Y-117921047D01*
X168314285Y-117921047D01*
X123338095Y-122154380D02*
X123909523Y-122154380D01*
X123623809Y-123154380D02*
X123623809Y-122154380D01*
X124242857Y-123154380D02*
X124242857Y-122154380D01*
X124623809Y-122154380D01*
X124719047Y-122202000D01*
X124766666Y-122249619D01*
X124814285Y-122344857D01*
X124814285Y-122487714D01*
X124766666Y-122582952D01*
X124719047Y-122630571D01*
X124623809Y-122678190D01*
X124242857Y-122678190D01*
X125147619Y-122154380D02*
X125766666Y-122154380D01*
X125433333Y-122535333D01*
X125576190Y-122535333D01*
X125671428Y-122582952D01*
X125719047Y-122630571D01*
X125766666Y-122725809D01*
X125766666Y-122963904D01*
X125719047Y-123059142D01*
X125671428Y-123106761D01*
X125576190Y-123154380D01*
X125290476Y-123154380D01*
X125195238Y-123106761D01*
X125147619Y-123059142D01*
X190238095Y-98354380D02*
X190809523Y-98354380D01*
X190523809Y-99354380D02*
X190523809Y-98354380D01*
X191142857Y-99354380D02*
X191142857Y-98354380D01*
X191523809Y-98354380D01*
X191619047Y-98402000D01*
X191666666Y-98449619D01*
X191714285Y-98544857D01*
X191714285Y-98687714D01*
X191666666Y-98782952D01*
X191619047Y-98830571D01*
X191523809Y-98878190D01*
X191142857Y-98878190D01*
X192095238Y-98449619D02*
X192142857Y-98402000D01*
X192238095Y-98354380D01*
X192476190Y-98354380D01*
X192571428Y-98402000D01*
X192619047Y-98449619D01*
X192666666Y-98544857D01*
X192666666Y-98640095D01*
X192619047Y-98782952D01*
X192047619Y-99354380D01*
X192666666Y-99354380D01*
X100838095Y-120552380D02*
X101409523Y-120552380D01*
X101123809Y-121552380D02*
X101123809Y-120552380D01*
X101742857Y-121552380D02*
X101742857Y-120552380D01*
X102123809Y-120552380D01*
X102219047Y-120600000D01*
X102266666Y-120647619D01*
X102314285Y-120742857D01*
X102314285Y-120885714D01*
X102266666Y-120980952D01*
X102219047Y-121028571D01*
X102123809Y-121076190D01*
X101742857Y-121076190D01*
X103266666Y-121552380D02*
X102695238Y-121552380D01*
X102980952Y-121552380D02*
X102980952Y-120552380D01*
X102885714Y-120695238D01*
X102790476Y-120790476D01*
X102695238Y-120838095D01*
X186357142Y-124952380D02*
X186023809Y-124476190D01*
X185785714Y-124952380D02*
X185785714Y-123952380D01*
X186166666Y-123952380D01*
X186261904Y-124000000D01*
X186309523Y-124047619D01*
X186357142Y-124142857D01*
X186357142Y-124285714D01*
X186309523Y-124380952D01*
X186261904Y-124428571D01*
X186166666Y-124476190D01*
X185785714Y-124476190D01*
X187309523Y-124952380D02*
X186738095Y-124952380D01*
X187023809Y-124952380D02*
X187023809Y-123952380D01*
X186928571Y-124095238D01*
X186833333Y-124190476D01*
X186738095Y-124238095D01*
X187880952Y-124380952D02*
X187785714Y-124333333D01*
X187738095Y-124285714D01*
X187690476Y-124190476D01*
X187690476Y-124142857D01*
X187738095Y-124047619D01*
X187785714Y-124000000D01*
X187880952Y-123952380D01*
X188071428Y-123952380D01*
X188166666Y-124000000D01*
X188214285Y-124047619D01*
X188261904Y-124142857D01*
X188261904Y-124190476D01*
X188214285Y-124285714D01*
X188166666Y-124333333D01*
X188071428Y-124380952D01*
X187880952Y-124380952D01*
X187785714Y-124428571D01*
X187738095Y-124476190D01*
X187690476Y-124571428D01*
X187690476Y-124761904D01*
X187738095Y-124857142D01*
X187785714Y-124904761D01*
X187880952Y-124952380D01*
X188071428Y-124952380D01*
X188166666Y-124904761D01*
X188214285Y-124857142D01*
X188261904Y-124761904D01*
X188261904Y-124571428D01*
X188214285Y-124476190D01*
X188166666Y-124428571D01*
X188071428Y-124380952D01*
X164857142Y-124952380D02*
X164523809Y-124476190D01*
X164285714Y-124952380D02*
X164285714Y-123952380D01*
X164666666Y-123952380D01*
X164761904Y-124000000D01*
X164809523Y-124047619D01*
X164857142Y-124142857D01*
X164857142Y-124285714D01*
X164809523Y-124380952D01*
X164761904Y-124428571D01*
X164666666Y-124476190D01*
X164285714Y-124476190D01*
X165809523Y-124952380D02*
X165238095Y-124952380D01*
X165523809Y-124952380D02*
X165523809Y-123952380D01*
X165428571Y-124095238D01*
X165333333Y-124190476D01*
X165238095Y-124238095D01*
X166142857Y-123952380D02*
X166809523Y-123952380D01*
X166380952Y-124952380D01*
X143802380Y-124842857D02*
X143326190Y-125176190D01*
X143802380Y-125414285D02*
X142802380Y-125414285D01*
X142802380Y-125033333D01*
X142850000Y-124938095D01*
X142897619Y-124890476D01*
X142992857Y-124842857D01*
X143135714Y-124842857D01*
X143230952Y-124890476D01*
X143278571Y-124938095D01*
X143326190Y-125033333D01*
X143326190Y-125414285D01*
X143802380Y-123890476D02*
X143802380Y-124461904D01*
X143802380Y-124176190D02*
X142802380Y-124176190D01*
X142945238Y-124271428D01*
X143040476Y-124366666D01*
X143088095Y-124461904D01*
X142802380Y-123033333D02*
X142802380Y-123223809D01*
X142850000Y-123319047D01*
X142897619Y-123366666D01*
X143040476Y-123461904D01*
X143230952Y-123509523D01*
X143611904Y-123509523D01*
X143707142Y-123461904D01*
X143754761Y-123414285D01*
X143802380Y-123319047D01*
X143802380Y-123128571D01*
X143754761Y-123033333D01*
X143707142Y-122985714D01*
X143611904Y-122938095D01*
X143373809Y-122938095D01*
X143278571Y-122985714D01*
X143230952Y-123033333D01*
X143183333Y-123128571D01*
X143183333Y-123319047D01*
X143230952Y-123414285D01*
X143278571Y-123461904D01*
X143373809Y-123509523D01*
X184952380Y-74142857D02*
X184476190Y-74476190D01*
X184952380Y-74714285D02*
X183952380Y-74714285D01*
X183952380Y-74333333D01*
X184000000Y-74238095D01*
X184047619Y-74190476D01*
X184142857Y-74142857D01*
X184285714Y-74142857D01*
X184380952Y-74190476D01*
X184428571Y-74238095D01*
X184476190Y-74333333D01*
X184476190Y-74714285D01*
X184952380Y-73190476D02*
X184952380Y-73761904D01*
X184952380Y-73476190D02*
X183952380Y-73476190D01*
X184095238Y-73571428D01*
X184190476Y-73666666D01*
X184238095Y-73761904D01*
X183952380Y-72285714D02*
X183952380Y-72761904D01*
X184428571Y-72809523D01*
X184380952Y-72761904D01*
X184333333Y-72666666D01*
X184333333Y-72428571D01*
X184380952Y-72333333D01*
X184428571Y-72285714D01*
X184523809Y-72238095D01*
X184761904Y-72238095D01*
X184857142Y-72285714D01*
X184904761Y-72333333D01*
X184952380Y-72428571D01*
X184952380Y-72666666D01*
X184904761Y-72761904D01*
X184857142Y-72809523D01*
X175452380Y-74142857D02*
X174976190Y-74476190D01*
X175452380Y-74714285D02*
X174452380Y-74714285D01*
X174452380Y-74333333D01*
X174500000Y-74238095D01*
X174547619Y-74190476D01*
X174642857Y-74142857D01*
X174785714Y-74142857D01*
X174880952Y-74190476D01*
X174928571Y-74238095D01*
X174976190Y-74333333D01*
X174976190Y-74714285D01*
X175452380Y-73190476D02*
X175452380Y-73761904D01*
X175452380Y-73476190D02*
X174452380Y-73476190D01*
X174595238Y-73571428D01*
X174690476Y-73666666D01*
X174738095Y-73761904D01*
X174785714Y-72333333D02*
X175452380Y-72333333D01*
X174404761Y-72571428D02*
X175119047Y-72809523D01*
X175119047Y-72190476D01*
X94332380Y-111482857D02*
X93856190Y-111816190D01*
X94332380Y-112054285D02*
X93332380Y-112054285D01*
X93332380Y-111673333D01*
X93380000Y-111578095D01*
X93427619Y-111530476D01*
X93522857Y-111482857D01*
X93665714Y-111482857D01*
X93760952Y-111530476D01*
X93808571Y-111578095D01*
X93856190Y-111673333D01*
X93856190Y-112054285D01*
X94332380Y-110530476D02*
X94332380Y-111101904D01*
X94332380Y-110816190D02*
X93332380Y-110816190D01*
X93475238Y-110911428D01*
X93570476Y-111006666D01*
X93618095Y-111101904D01*
X93332380Y-110197142D02*
X93332380Y-109578095D01*
X93713333Y-109911428D01*
X93713333Y-109768571D01*
X93760952Y-109673333D01*
X93808571Y-109625714D01*
X93903809Y-109578095D01*
X94141904Y-109578095D01*
X94237142Y-109625714D01*
X94284761Y-109673333D01*
X94332380Y-109768571D01*
X94332380Y-110054285D01*
X94284761Y-110149523D01*
X94237142Y-110197142D01*
X141572380Y-111802857D02*
X141096190Y-112136190D01*
X141572380Y-112374285D02*
X140572380Y-112374285D01*
X140572380Y-111993333D01*
X140620000Y-111898095D01*
X140667619Y-111850476D01*
X140762857Y-111802857D01*
X140905714Y-111802857D01*
X141000952Y-111850476D01*
X141048571Y-111898095D01*
X141096190Y-111993333D01*
X141096190Y-112374285D01*
X141572380Y-110850476D02*
X141572380Y-111421904D01*
X141572380Y-111136190D02*
X140572380Y-111136190D01*
X140715238Y-111231428D01*
X140810476Y-111326666D01*
X140858095Y-111421904D01*
X140667619Y-110469523D02*
X140620000Y-110421904D01*
X140572380Y-110326666D01*
X140572380Y-110088571D01*
X140620000Y-109993333D01*
X140667619Y-109945714D01*
X140762857Y-109898095D01*
X140858095Y-109898095D01*
X141000952Y-109945714D01*
X141572380Y-110517142D01*
X141572380Y-109898095D01*
X95207142Y-78252380D02*
X94873809Y-77776190D01*
X94635714Y-78252380D02*
X94635714Y-77252380D01*
X95016666Y-77252380D01*
X95111904Y-77300000D01*
X95159523Y-77347619D01*
X95207142Y-77442857D01*
X95207142Y-77585714D01*
X95159523Y-77680952D01*
X95111904Y-77728571D01*
X95016666Y-77776190D01*
X94635714Y-77776190D01*
X96159523Y-78252380D02*
X95588095Y-78252380D01*
X95873809Y-78252380D02*
X95873809Y-77252380D01*
X95778571Y-77395238D01*
X95683333Y-77490476D01*
X95588095Y-77538095D01*
X97111904Y-78252380D02*
X96540476Y-78252380D01*
X96826190Y-78252380D02*
X96826190Y-77252380D01*
X96730952Y-77395238D01*
X96635714Y-77490476D01*
X96540476Y-77538095D01*
X134857142Y-79952380D02*
X134523809Y-79476190D01*
X134285714Y-79952380D02*
X134285714Y-78952380D01*
X134666666Y-78952380D01*
X134761904Y-79000000D01*
X134809523Y-79047619D01*
X134857142Y-79142857D01*
X134857142Y-79285714D01*
X134809523Y-79380952D01*
X134761904Y-79428571D01*
X134666666Y-79476190D01*
X134285714Y-79476190D01*
X135809523Y-79952380D02*
X135238095Y-79952380D01*
X135523809Y-79952380D02*
X135523809Y-78952380D01*
X135428571Y-79095238D01*
X135333333Y-79190476D01*
X135238095Y-79238095D01*
X136428571Y-78952380D02*
X136523809Y-78952380D01*
X136619047Y-79000000D01*
X136666666Y-79047619D01*
X136714285Y-79142857D01*
X136761904Y-79333333D01*
X136761904Y-79571428D01*
X136714285Y-79761904D01*
X136666666Y-79857142D01*
X136619047Y-79904761D01*
X136523809Y-79952380D01*
X136428571Y-79952380D01*
X136333333Y-79904761D01*
X136285714Y-79857142D01*
X136238095Y-79761904D01*
X136190476Y-79571428D01*
X136190476Y-79333333D01*
X136238095Y-79142857D01*
X136285714Y-79047619D01*
X136333333Y-79000000D01*
X136428571Y-78952380D01*
X104333333Y-71952380D02*
X104000000Y-71476190D01*
X103761904Y-71952380D02*
X103761904Y-70952380D01*
X104142857Y-70952380D01*
X104238095Y-71000000D01*
X104285714Y-71047619D01*
X104333333Y-71142857D01*
X104333333Y-71285714D01*
X104285714Y-71380952D01*
X104238095Y-71428571D01*
X104142857Y-71476190D01*
X103761904Y-71476190D01*
X104809523Y-71952380D02*
X105000000Y-71952380D01*
X105095238Y-71904761D01*
X105142857Y-71857142D01*
X105238095Y-71714285D01*
X105285714Y-71523809D01*
X105285714Y-71142857D01*
X105238095Y-71047619D01*
X105190476Y-71000000D01*
X105095238Y-70952380D01*
X104904761Y-70952380D01*
X104809523Y-71000000D01*
X104761904Y-71047619D01*
X104714285Y-71142857D01*
X104714285Y-71380952D01*
X104761904Y-71476190D01*
X104809523Y-71523809D01*
X104904761Y-71571428D01*
X105095238Y-71571428D01*
X105190476Y-71523809D01*
X105238095Y-71476190D01*
X105285714Y-71380952D01*
X149333333Y-71452380D02*
X149000000Y-70976190D01*
X148761904Y-71452380D02*
X148761904Y-70452380D01*
X149142857Y-70452380D01*
X149238095Y-70500000D01*
X149285714Y-70547619D01*
X149333333Y-70642857D01*
X149333333Y-70785714D01*
X149285714Y-70880952D01*
X149238095Y-70928571D01*
X149142857Y-70976190D01*
X148761904Y-70976190D01*
X149904761Y-70880952D02*
X149809523Y-70833333D01*
X149761904Y-70785714D01*
X149714285Y-70690476D01*
X149714285Y-70642857D01*
X149761904Y-70547619D01*
X149809523Y-70500000D01*
X149904761Y-70452380D01*
X150095238Y-70452380D01*
X150190476Y-70500000D01*
X150238095Y-70547619D01*
X150285714Y-70642857D01*
X150285714Y-70690476D01*
X150238095Y-70785714D01*
X150190476Y-70833333D01*
X150095238Y-70880952D01*
X149904761Y-70880952D01*
X149809523Y-70928571D01*
X149761904Y-70976190D01*
X149714285Y-71071428D01*
X149714285Y-71261904D01*
X149761904Y-71357142D01*
X149809523Y-71404761D01*
X149904761Y-71452380D01*
X150095238Y-71452380D01*
X150190476Y-71404761D01*
X150238095Y-71357142D01*
X150285714Y-71261904D01*
X150285714Y-71071428D01*
X150238095Y-70976190D01*
X150190476Y-70928571D01*
X150095238Y-70880952D01*
X100633333Y-80452380D02*
X100300000Y-79976190D01*
X100061904Y-80452380D02*
X100061904Y-79452380D01*
X100442857Y-79452380D01*
X100538095Y-79500000D01*
X100585714Y-79547619D01*
X100633333Y-79642857D01*
X100633333Y-79785714D01*
X100585714Y-79880952D01*
X100538095Y-79928571D01*
X100442857Y-79976190D01*
X100061904Y-79976190D01*
X100966666Y-79452380D02*
X101633333Y-79452380D01*
X101204761Y-80452380D01*
X129032380Y-107366666D02*
X128556190Y-107700000D01*
X129032380Y-107938095D02*
X128032380Y-107938095D01*
X128032380Y-107557142D01*
X128080000Y-107461904D01*
X128127619Y-107414285D01*
X128222857Y-107366666D01*
X128365714Y-107366666D01*
X128460952Y-107414285D01*
X128508571Y-107461904D01*
X128556190Y-107557142D01*
X128556190Y-107938095D01*
X128032380Y-106509523D02*
X128032380Y-106700000D01*
X128080000Y-106795238D01*
X128127619Y-106842857D01*
X128270476Y-106938095D01*
X128460952Y-106985714D01*
X128841904Y-106985714D01*
X128937142Y-106938095D01*
X128984761Y-106890476D01*
X129032380Y-106795238D01*
X129032380Y-106604761D01*
X128984761Y-106509523D01*
X128937142Y-106461904D01*
X128841904Y-106414285D01*
X128603809Y-106414285D01*
X128508571Y-106461904D01*
X128460952Y-106509523D01*
X128413333Y-106604761D01*
X128413333Y-106795238D01*
X128460952Y-106890476D01*
X128508571Y-106938095D01*
X128603809Y-106985714D01*
X174032380Y-103006666D02*
X173556190Y-103340000D01*
X174032380Y-103578095D02*
X173032380Y-103578095D01*
X173032380Y-103197142D01*
X173080000Y-103101904D01*
X173127619Y-103054285D01*
X173222857Y-103006666D01*
X173365714Y-103006666D01*
X173460952Y-103054285D01*
X173508571Y-103101904D01*
X173556190Y-103197142D01*
X173556190Y-103578095D01*
X173032380Y-102101904D02*
X173032380Y-102578095D01*
X173508571Y-102625714D01*
X173460952Y-102578095D01*
X173413333Y-102482857D01*
X173413333Y-102244761D01*
X173460952Y-102149523D01*
X173508571Y-102101904D01*
X173603809Y-102054285D01*
X173841904Y-102054285D01*
X173937142Y-102101904D01*
X173984761Y-102149523D01*
X174032380Y-102244761D01*
X174032380Y-102482857D01*
X173984761Y-102578095D01*
X173937142Y-102625714D01*
X195052380Y-121866666D02*
X194576190Y-122200000D01*
X195052380Y-122438095D02*
X194052380Y-122438095D01*
X194052380Y-122057142D01*
X194100000Y-121961904D01*
X194147619Y-121914285D01*
X194242857Y-121866666D01*
X194385714Y-121866666D01*
X194480952Y-121914285D01*
X194528571Y-121961904D01*
X194576190Y-122057142D01*
X194576190Y-122438095D01*
X194385714Y-121009523D02*
X195052380Y-121009523D01*
X194004761Y-121247619D02*
X194719047Y-121485714D01*
X194719047Y-120866666D01*
X189483333Y-108152380D02*
X189150000Y-107676190D01*
X188911904Y-108152380D02*
X188911904Y-107152380D01*
X189292857Y-107152380D01*
X189388095Y-107200000D01*
X189435714Y-107247619D01*
X189483333Y-107342857D01*
X189483333Y-107485714D01*
X189435714Y-107580952D01*
X189388095Y-107628571D01*
X189292857Y-107676190D01*
X188911904Y-107676190D01*
X189816666Y-107152380D02*
X190435714Y-107152380D01*
X190102380Y-107533333D01*
X190245238Y-107533333D01*
X190340476Y-107580952D01*
X190388095Y-107628571D01*
X190435714Y-107723809D01*
X190435714Y-107961904D01*
X190388095Y-108057142D01*
X190340476Y-108104761D01*
X190245238Y-108152380D01*
X189959523Y-108152380D01*
X189864285Y-108104761D01*
X189816666Y-108057142D01*
X192783333Y-112802380D02*
X192450000Y-112326190D01*
X192211904Y-112802380D02*
X192211904Y-111802380D01*
X192592857Y-111802380D01*
X192688095Y-111850000D01*
X192735714Y-111897619D01*
X192783333Y-111992857D01*
X192783333Y-112135714D01*
X192735714Y-112230952D01*
X192688095Y-112278571D01*
X192592857Y-112326190D01*
X192211904Y-112326190D01*
X193164285Y-111897619D02*
X193211904Y-111850000D01*
X193307142Y-111802380D01*
X193545238Y-111802380D01*
X193640476Y-111850000D01*
X193688095Y-111897619D01*
X193735714Y-111992857D01*
X193735714Y-112088095D01*
X193688095Y-112230952D01*
X193116666Y-112802380D01*
X193735714Y-112802380D01*
X208252380Y-112816666D02*
X207776190Y-113150000D01*
X208252380Y-113388095D02*
X207252380Y-113388095D01*
X207252380Y-113007142D01*
X207300000Y-112911904D01*
X207347619Y-112864285D01*
X207442857Y-112816666D01*
X207585714Y-112816666D01*
X207680952Y-112864285D01*
X207728571Y-112911904D01*
X207776190Y-113007142D01*
X207776190Y-113388095D01*
X208252380Y-111864285D02*
X208252380Y-112435714D01*
X208252380Y-112150000D02*
X207252380Y-112150000D01*
X207395238Y-112245238D01*
X207490476Y-112340476D01*
X207538095Y-112435714D01*
X207604761Y-129547619D02*
X207509523Y-129500000D01*
X207414285Y-129404761D01*
X207271428Y-129261904D01*
X207176190Y-129214285D01*
X207080952Y-129214285D01*
X207128571Y-129452380D02*
X207033333Y-129404761D01*
X206938095Y-129309523D01*
X206890476Y-129119047D01*
X206890476Y-128785714D01*
X206938095Y-128595238D01*
X207033333Y-128500000D01*
X207128571Y-128452380D01*
X207319047Y-128452380D01*
X207414285Y-128500000D01*
X207509523Y-128595238D01*
X207557142Y-128785714D01*
X207557142Y-129119047D01*
X207509523Y-129309523D01*
X207414285Y-129404761D01*
X207319047Y-129452380D01*
X207128571Y-129452380D01*
X208509523Y-129452380D02*
X207938095Y-129452380D01*
X208223809Y-129452380D02*
X208223809Y-128452380D01*
X208128571Y-128595238D01*
X208033333Y-128690476D01*
X207938095Y-128738095D01*
X202552380Y-99759523D02*
X203266666Y-99759523D01*
X203409523Y-99807142D01*
X203504761Y-99902380D01*
X203552380Y-100045238D01*
X203552380Y-100140476D01*
X203552380Y-99283333D02*
X202552380Y-99283333D01*
X202552380Y-98902380D01*
X202600000Y-98807142D01*
X202647619Y-98759523D01*
X202742857Y-98711904D01*
X202885714Y-98711904D01*
X202980952Y-98759523D01*
X203028571Y-98807142D01*
X203076190Y-98902380D01*
X203076190Y-99283333D01*
X203552380Y-97759523D02*
X203552380Y-98330952D01*
X203552380Y-98045238D02*
X202552380Y-98045238D01*
X202695238Y-98140476D01*
X202790476Y-98235714D01*
X202838095Y-98330952D01*
X202647619Y-97378571D02*
X202600000Y-97330952D01*
X202552380Y-97235714D01*
X202552380Y-96997619D01*
X202600000Y-96902380D01*
X202647619Y-96854761D01*
X202742857Y-96807142D01*
X202838095Y-96807142D01*
X202980952Y-96854761D01*
X203552380Y-97426190D01*
X203552380Y-96807142D01*
X202752380Y-83359523D02*
X203466666Y-83359523D01*
X203609523Y-83407142D01*
X203704761Y-83502380D01*
X203752380Y-83645238D01*
X203752380Y-83740476D01*
X203752380Y-82883333D02*
X202752380Y-82883333D01*
X202752380Y-82502380D01*
X202800000Y-82407142D01*
X202847619Y-82359523D01*
X202942857Y-82311904D01*
X203085714Y-82311904D01*
X203180952Y-82359523D01*
X203228571Y-82407142D01*
X203276190Y-82502380D01*
X203276190Y-82883333D01*
X203752380Y-81359523D02*
X203752380Y-81930952D01*
X203752380Y-81645238D02*
X202752380Y-81645238D01*
X202895238Y-81740476D01*
X202990476Y-81835714D01*
X203038095Y-81930952D01*
X203752380Y-80407142D02*
X203752380Y-80978571D01*
X203752380Y-80692857D02*
X202752380Y-80692857D01*
X202895238Y-80788095D01*
X202990476Y-80883333D01*
X203038095Y-80978571D01*
X86752380Y-108933333D02*
X87466666Y-108933333D01*
X87609523Y-108980952D01*
X87704761Y-109076190D01*
X87752380Y-109219047D01*
X87752380Y-109314285D01*
X87752380Y-108457142D02*
X86752380Y-108457142D01*
X86752380Y-108076190D01*
X86800000Y-107980952D01*
X86847619Y-107933333D01*
X86942857Y-107885714D01*
X87085714Y-107885714D01*
X87180952Y-107933333D01*
X87228571Y-107980952D01*
X87276190Y-108076190D01*
X87276190Y-108457142D01*
X87180952Y-107314285D02*
X87133333Y-107409523D01*
X87085714Y-107457142D01*
X86990476Y-107504761D01*
X86942857Y-107504761D01*
X86847619Y-107457142D01*
X86800000Y-107409523D01*
X86752380Y-107314285D01*
X86752380Y-107123809D01*
X86800000Y-107028571D01*
X86847619Y-106980952D01*
X86942857Y-106933333D01*
X86990476Y-106933333D01*
X87085714Y-106980952D01*
X87133333Y-107028571D01*
X87180952Y-107123809D01*
X87180952Y-107314285D01*
X87228571Y-107409523D01*
X87276190Y-107457142D01*
X87371428Y-107504761D01*
X87561904Y-107504761D01*
X87657142Y-107457142D01*
X87704761Y-107409523D01*
X87752380Y-107314285D01*
X87752380Y-107123809D01*
X87704761Y-107028571D01*
X87657142Y-106980952D01*
X87561904Y-106933333D01*
X87371428Y-106933333D01*
X87276190Y-106980952D01*
X87228571Y-107028571D01*
X87180952Y-107123809D01*
X84652380Y-108933333D02*
X85366666Y-108933333D01*
X85509523Y-108980952D01*
X85604761Y-109076190D01*
X85652380Y-109219047D01*
X85652380Y-109314285D01*
X85652380Y-108457142D02*
X84652380Y-108457142D01*
X84652380Y-108076190D01*
X84700000Y-107980952D01*
X84747619Y-107933333D01*
X84842857Y-107885714D01*
X84985714Y-107885714D01*
X85080952Y-107933333D01*
X85128571Y-107980952D01*
X85176190Y-108076190D01*
X85176190Y-108457142D01*
X84652380Y-107552380D02*
X84652380Y-106885714D01*
X85652380Y-107314285D01*
X82452380Y-108933333D02*
X83166666Y-108933333D01*
X83309523Y-108980952D01*
X83404761Y-109076190D01*
X83452380Y-109219047D01*
X83452380Y-109314285D01*
X83452380Y-108457142D02*
X82452380Y-108457142D01*
X82452380Y-108076190D01*
X82500000Y-107980952D01*
X82547619Y-107933333D01*
X82642857Y-107885714D01*
X82785714Y-107885714D01*
X82880952Y-107933333D01*
X82928571Y-107980952D01*
X82976190Y-108076190D01*
X82976190Y-108457142D01*
X82452380Y-107028571D02*
X82452380Y-107219047D01*
X82500000Y-107314285D01*
X82547619Y-107361904D01*
X82690476Y-107457142D01*
X82880952Y-107504761D01*
X83261904Y-107504761D01*
X83357142Y-107457142D01*
X83404761Y-107409523D01*
X83452380Y-107314285D01*
X83452380Y-107123809D01*
X83404761Y-107028571D01*
X83357142Y-106980952D01*
X83261904Y-106933333D01*
X83023809Y-106933333D01*
X82928571Y-106980952D01*
X82880952Y-107028571D01*
X82833333Y-107123809D01*
X82833333Y-107314285D01*
X82880952Y-107409523D01*
X82928571Y-107457142D01*
X83023809Y-107504761D01*
X82152380Y-124483333D02*
X82866666Y-124483333D01*
X83009523Y-124530952D01*
X83104761Y-124626190D01*
X83152380Y-124769047D01*
X83152380Y-124864285D01*
X83152380Y-124007142D02*
X82152380Y-124007142D01*
X82152380Y-123626190D01*
X82200000Y-123530952D01*
X82247619Y-123483333D01*
X82342857Y-123435714D01*
X82485714Y-123435714D01*
X82580952Y-123483333D01*
X82628571Y-123530952D01*
X82676190Y-123626190D01*
X82676190Y-124007142D01*
X82152380Y-122530952D02*
X82152380Y-123007142D01*
X82628571Y-123054761D01*
X82580952Y-123007142D01*
X82533333Y-122911904D01*
X82533333Y-122673809D01*
X82580952Y-122578571D01*
X82628571Y-122530952D01*
X82723809Y-122483333D01*
X82961904Y-122483333D01*
X83057142Y-122530952D01*
X83104761Y-122578571D01*
X83152380Y-122673809D01*
X83152380Y-122911904D01*
X83104761Y-123007142D01*
X83057142Y-123054761D01*
X84352380Y-124483333D02*
X85066666Y-124483333D01*
X85209523Y-124530952D01*
X85304761Y-124626190D01*
X85352380Y-124769047D01*
X85352380Y-124864285D01*
X85352380Y-124007142D02*
X84352380Y-124007142D01*
X84352380Y-123626190D01*
X84400000Y-123530952D01*
X84447619Y-123483333D01*
X84542857Y-123435714D01*
X84685714Y-123435714D01*
X84780952Y-123483333D01*
X84828571Y-123530952D01*
X84876190Y-123626190D01*
X84876190Y-124007142D01*
X84685714Y-122578571D02*
X85352380Y-122578571D01*
X84304761Y-122816666D02*
X85019047Y-123054761D01*
X85019047Y-122435714D01*
X86552380Y-124483333D02*
X87266666Y-124483333D01*
X87409523Y-124530952D01*
X87504761Y-124626190D01*
X87552380Y-124769047D01*
X87552380Y-124864285D01*
X87552380Y-124007142D02*
X86552380Y-124007142D01*
X86552380Y-123626190D01*
X86600000Y-123530952D01*
X86647619Y-123483333D01*
X86742857Y-123435714D01*
X86885714Y-123435714D01*
X86980952Y-123483333D01*
X87028571Y-123530952D01*
X87076190Y-123626190D01*
X87076190Y-124007142D01*
X86552380Y-123102380D02*
X86552380Y-122483333D01*
X86933333Y-122816666D01*
X86933333Y-122673809D01*
X86980952Y-122578571D01*
X87028571Y-122530952D01*
X87123809Y-122483333D01*
X87361904Y-122483333D01*
X87457142Y-122530952D01*
X87504761Y-122578571D01*
X87552380Y-122673809D01*
X87552380Y-122959523D01*
X87504761Y-123054761D01*
X87457142Y-123102380D01*
X206052380Y-85733333D02*
X206766666Y-85733333D01*
X206909523Y-85780952D01*
X207004761Y-85876190D01*
X207052380Y-86019047D01*
X207052380Y-86114285D01*
X207052380Y-85257142D02*
X206052380Y-85257142D01*
X206052380Y-84876190D01*
X206100000Y-84780952D01*
X206147619Y-84733333D01*
X206242857Y-84685714D01*
X206385714Y-84685714D01*
X206480952Y-84733333D01*
X206528571Y-84780952D01*
X206576190Y-84876190D01*
X206576190Y-85257142D01*
X206147619Y-84304761D02*
X206100000Y-84257142D01*
X206052380Y-84161904D01*
X206052380Y-83923809D01*
X206100000Y-83828571D01*
X206147619Y-83780952D01*
X206242857Y-83733333D01*
X206338095Y-83733333D01*
X206480952Y-83780952D01*
X207052380Y-84352380D01*
X207052380Y-83733333D01*
X92216666Y-117952380D02*
X92216666Y-118666666D01*
X92169047Y-118809523D01*
X92073809Y-118904761D01*
X91930952Y-118952380D01*
X91835714Y-118952380D01*
X92692857Y-118952380D02*
X92692857Y-117952380D01*
X93073809Y-117952380D01*
X93169047Y-118000000D01*
X93216666Y-118047619D01*
X93264285Y-118142857D01*
X93264285Y-118285714D01*
X93216666Y-118380952D01*
X93169047Y-118428571D01*
X93073809Y-118476190D01*
X92692857Y-118476190D01*
X94216666Y-118952380D02*
X93645238Y-118952380D01*
X93930952Y-118952380D02*
X93930952Y-117952380D01*
X93835714Y-118095238D01*
X93740476Y-118190476D01*
X93645238Y-118238095D01*
X186452380Y-74238095D02*
X185452380Y-74238095D01*
X185452380Y-74000000D01*
X185500000Y-73857142D01*
X185595238Y-73761904D01*
X185690476Y-73714285D01*
X185880952Y-73666666D01*
X186023809Y-73666666D01*
X186214285Y-73714285D01*
X186309523Y-73761904D01*
X186404761Y-73857142D01*
X186452380Y-74000000D01*
X186452380Y-74238095D01*
X185547619Y-73285714D02*
X185500000Y-73238095D01*
X185452380Y-73142857D01*
X185452380Y-72904761D01*
X185500000Y-72809523D01*
X185547619Y-72761904D01*
X185642857Y-72714285D01*
X185738095Y-72714285D01*
X185880952Y-72761904D01*
X186452380Y-73333333D01*
X186452380Y-72714285D01*
X176952380Y-74238095D02*
X175952380Y-74238095D01*
X175952380Y-74000000D01*
X176000000Y-73857142D01*
X176095238Y-73761904D01*
X176190476Y-73714285D01*
X176380952Y-73666666D01*
X176523809Y-73666666D01*
X176714285Y-73714285D01*
X176809523Y-73761904D01*
X176904761Y-73857142D01*
X176952380Y-74000000D01*
X176952380Y-74238095D01*
X176952380Y-72714285D02*
X176952380Y-73285714D01*
X176952380Y-73000000D02*
X175952380Y-73000000D01*
X176095238Y-73095238D01*
X176190476Y-73190476D01*
X176238095Y-73285714D01*
X196057142Y-93992857D02*
X196104761Y-94040476D01*
X196152380Y-94183333D01*
X196152380Y-94278571D01*
X196104761Y-94421428D01*
X196009523Y-94516666D01*
X195914285Y-94564285D01*
X195723809Y-94611904D01*
X195580952Y-94611904D01*
X195390476Y-94564285D01*
X195295238Y-94516666D01*
X195200000Y-94421428D01*
X195152380Y-94278571D01*
X195152380Y-94183333D01*
X195200000Y-94040476D01*
X195247619Y-93992857D01*
X195247619Y-93611904D02*
X195200000Y-93564285D01*
X195152380Y-93469047D01*
X195152380Y-93230952D01*
X195200000Y-93135714D01*
X195247619Y-93088095D01*
X195342857Y-93040476D01*
X195438095Y-93040476D01*
X195580952Y-93088095D01*
X196152380Y-93659523D01*
X196152380Y-93040476D01*
X195152380Y-92707142D02*
X195152380Y-92088095D01*
X195533333Y-92421428D01*
X195533333Y-92278571D01*
X195580952Y-92183333D01*
X195628571Y-92135714D01*
X195723809Y-92088095D01*
X195961904Y-92088095D01*
X196057142Y-92135714D01*
X196104761Y-92183333D01*
X196152380Y-92278571D01*
X196152380Y-92564285D01*
X196104761Y-92659523D01*
X196057142Y-92707142D01*
X182857142Y-79857142D02*
X182809523Y-79904761D01*
X182666666Y-79952380D01*
X182571428Y-79952380D01*
X182428571Y-79904761D01*
X182333333Y-79809523D01*
X182285714Y-79714285D01*
X182238095Y-79523809D01*
X182238095Y-79380952D01*
X182285714Y-79190476D01*
X182333333Y-79095238D01*
X182428571Y-79000000D01*
X182571428Y-78952380D01*
X182666666Y-78952380D01*
X182809523Y-79000000D01*
X182857142Y-79047619D01*
X183238095Y-79047619D02*
X183285714Y-79000000D01*
X183380952Y-78952380D01*
X183619047Y-78952380D01*
X183714285Y-79000000D01*
X183761904Y-79047619D01*
X183809523Y-79142857D01*
X183809523Y-79238095D01*
X183761904Y-79380952D01*
X183190476Y-79952380D01*
X183809523Y-79952380D01*
X184190476Y-79047619D02*
X184238095Y-79000000D01*
X184333333Y-78952380D01*
X184571428Y-78952380D01*
X184666666Y-79000000D01*
X184714285Y-79047619D01*
X184761904Y-79142857D01*
X184761904Y-79238095D01*
X184714285Y-79380952D01*
X184142857Y-79952380D01*
X184761904Y-79952380D01*
X176857142Y-79857142D02*
X176809523Y-79904761D01*
X176666666Y-79952380D01*
X176571428Y-79952380D01*
X176428571Y-79904761D01*
X176333333Y-79809523D01*
X176285714Y-79714285D01*
X176238095Y-79523809D01*
X176238095Y-79380952D01*
X176285714Y-79190476D01*
X176333333Y-79095238D01*
X176428571Y-79000000D01*
X176571428Y-78952380D01*
X176666666Y-78952380D01*
X176809523Y-79000000D01*
X176857142Y-79047619D01*
X177238095Y-79047619D02*
X177285714Y-79000000D01*
X177380952Y-78952380D01*
X177619047Y-78952380D01*
X177714285Y-79000000D01*
X177761904Y-79047619D01*
X177809523Y-79142857D01*
X177809523Y-79238095D01*
X177761904Y-79380952D01*
X177190476Y-79952380D01*
X177809523Y-79952380D01*
X178761904Y-79952380D02*
X178190476Y-79952380D01*
X178476190Y-79952380D02*
X178476190Y-78952380D01*
X178380952Y-79095238D01*
X178285714Y-79190476D01*
X178190476Y-79238095D01*
X89357142Y-113442857D02*
X89404761Y-113490476D01*
X89452380Y-113633333D01*
X89452380Y-113728571D01*
X89404761Y-113871428D01*
X89309523Y-113966666D01*
X89214285Y-114014285D01*
X89023809Y-114061904D01*
X88880952Y-114061904D01*
X88690476Y-114014285D01*
X88595238Y-113966666D01*
X88500000Y-113871428D01*
X88452380Y-113728571D01*
X88452380Y-113633333D01*
X88500000Y-113490476D01*
X88547619Y-113442857D01*
X88547619Y-113061904D02*
X88500000Y-113014285D01*
X88452380Y-112919047D01*
X88452380Y-112680952D01*
X88500000Y-112585714D01*
X88547619Y-112538095D01*
X88642857Y-112490476D01*
X88738095Y-112490476D01*
X88880952Y-112538095D01*
X89452380Y-113109523D01*
X89452380Y-112490476D01*
X88452380Y-111871428D02*
X88452380Y-111776190D01*
X88500000Y-111680952D01*
X88547619Y-111633333D01*
X88642857Y-111585714D01*
X88833333Y-111538095D01*
X89071428Y-111538095D01*
X89261904Y-111585714D01*
X89357142Y-111633333D01*
X89404761Y-111680952D01*
X89452380Y-111776190D01*
X89452380Y-111871428D01*
X89404761Y-111966666D01*
X89357142Y-112014285D01*
X89261904Y-112061904D01*
X89071428Y-112109523D01*
X88833333Y-112109523D01*
X88642857Y-112061904D01*
X88547619Y-112014285D01*
X88500000Y-111966666D01*
X88452380Y-111871428D01*
X186257142Y-93057142D02*
X186209523Y-93104761D01*
X186066666Y-93152380D01*
X185971428Y-93152380D01*
X185828571Y-93104761D01*
X185733333Y-93009523D01*
X185685714Y-92914285D01*
X185638095Y-92723809D01*
X185638095Y-92580952D01*
X185685714Y-92390476D01*
X185733333Y-92295238D01*
X185828571Y-92200000D01*
X185971428Y-92152380D01*
X186066666Y-92152380D01*
X186209523Y-92200000D01*
X186257142Y-92247619D01*
X187209523Y-93152380D02*
X186638095Y-93152380D01*
X186923809Y-93152380D02*
X186923809Y-92152380D01*
X186828571Y-92295238D01*
X186733333Y-92390476D01*
X186638095Y-92438095D01*
X187685714Y-93152380D02*
X187876190Y-93152380D01*
X187971428Y-93104761D01*
X188019047Y-93057142D01*
X188114285Y-92914285D01*
X188161904Y-92723809D01*
X188161904Y-92342857D01*
X188114285Y-92247619D01*
X188066666Y-92200000D01*
X187971428Y-92152380D01*
X187780952Y-92152380D01*
X187685714Y-92200000D01*
X187638095Y-92247619D01*
X187590476Y-92342857D01*
X187590476Y-92580952D01*
X187638095Y-92676190D01*
X187685714Y-92723809D01*
X187780952Y-92771428D01*
X187971428Y-92771428D01*
X188066666Y-92723809D01*
X188114285Y-92676190D01*
X188161904Y-92580952D01*
X172757142Y-92907142D02*
X172709523Y-92954761D01*
X172566666Y-93002380D01*
X172471428Y-93002380D01*
X172328571Y-92954761D01*
X172233333Y-92859523D01*
X172185714Y-92764285D01*
X172138095Y-92573809D01*
X172138095Y-92430952D01*
X172185714Y-92240476D01*
X172233333Y-92145238D01*
X172328571Y-92050000D01*
X172471428Y-92002380D01*
X172566666Y-92002380D01*
X172709523Y-92050000D01*
X172757142Y-92097619D01*
X173709523Y-93002380D02*
X173138095Y-93002380D01*
X173423809Y-93002380D02*
X173423809Y-92002380D01*
X173328571Y-92145238D01*
X173233333Y-92240476D01*
X173138095Y-92288095D01*
X174280952Y-92430952D02*
X174185714Y-92383333D01*
X174138095Y-92335714D01*
X174090476Y-92240476D01*
X174090476Y-92192857D01*
X174138095Y-92097619D01*
X174185714Y-92050000D01*
X174280952Y-92002380D01*
X174471428Y-92002380D01*
X174566666Y-92050000D01*
X174614285Y-92097619D01*
X174661904Y-92192857D01*
X174661904Y-92240476D01*
X174614285Y-92335714D01*
X174566666Y-92383333D01*
X174471428Y-92430952D01*
X174280952Y-92430952D01*
X174185714Y-92478571D01*
X174138095Y-92526190D01*
X174090476Y-92621428D01*
X174090476Y-92811904D01*
X174138095Y-92907142D01*
X174185714Y-92954761D01*
X174280952Y-93002380D01*
X174471428Y-93002380D01*
X174566666Y-92954761D01*
X174614285Y-92907142D01*
X174661904Y-92811904D01*
X174661904Y-92621428D01*
X174614285Y-92526190D01*
X174566666Y-92478571D01*
X174471428Y-92430952D01*
X122857142Y-114142857D02*
X122904761Y-114190476D01*
X122952380Y-114333333D01*
X122952380Y-114428571D01*
X122904761Y-114571428D01*
X122809523Y-114666666D01*
X122714285Y-114714285D01*
X122523809Y-114761904D01*
X122380952Y-114761904D01*
X122190476Y-114714285D01*
X122095238Y-114666666D01*
X122000000Y-114571428D01*
X121952380Y-114428571D01*
X121952380Y-114333333D01*
X122000000Y-114190476D01*
X122047619Y-114142857D01*
X122952380Y-113190476D02*
X122952380Y-113761904D01*
X122952380Y-113476190D02*
X121952380Y-113476190D01*
X122095238Y-113571428D01*
X122190476Y-113666666D01*
X122238095Y-113761904D01*
X121952380Y-112857142D02*
X121952380Y-112190476D01*
X122952380Y-112619047D01*
X187607142Y-120442857D02*
X187654761Y-120490476D01*
X187702380Y-120633333D01*
X187702380Y-120728571D01*
X187654761Y-120871428D01*
X187559523Y-120966666D01*
X187464285Y-121014285D01*
X187273809Y-121061904D01*
X187130952Y-121061904D01*
X186940476Y-121014285D01*
X186845238Y-120966666D01*
X186750000Y-120871428D01*
X186702380Y-120728571D01*
X186702380Y-120633333D01*
X186750000Y-120490476D01*
X186797619Y-120442857D01*
X187702380Y-119490476D02*
X187702380Y-120061904D01*
X187702380Y-119776190D02*
X186702380Y-119776190D01*
X186845238Y-119871428D01*
X186940476Y-119966666D01*
X186988095Y-120061904D01*
X186702380Y-118633333D02*
X186702380Y-118823809D01*
X186750000Y-118919047D01*
X186797619Y-118966666D01*
X186940476Y-119061904D01*
X187130952Y-119109523D01*
X187511904Y-119109523D01*
X187607142Y-119061904D01*
X187654761Y-119014285D01*
X187702380Y-118919047D01*
X187702380Y-118728571D01*
X187654761Y-118633333D01*
X187607142Y-118585714D01*
X187511904Y-118538095D01*
X187273809Y-118538095D01*
X187178571Y-118585714D01*
X187130952Y-118633333D01*
X187083333Y-118728571D01*
X187083333Y-118919047D01*
X187130952Y-119014285D01*
X187178571Y-119061904D01*
X187273809Y-119109523D01*
X120357142Y-114142857D02*
X120404761Y-114190476D01*
X120452380Y-114333333D01*
X120452380Y-114428571D01*
X120404761Y-114571428D01*
X120309523Y-114666666D01*
X120214285Y-114714285D01*
X120023809Y-114761904D01*
X119880952Y-114761904D01*
X119690476Y-114714285D01*
X119595238Y-114666666D01*
X119500000Y-114571428D01*
X119452380Y-114428571D01*
X119452380Y-114333333D01*
X119500000Y-114190476D01*
X119547619Y-114142857D01*
X120452380Y-113190476D02*
X120452380Y-113761904D01*
X120452380Y-113476190D02*
X119452380Y-113476190D01*
X119595238Y-113571428D01*
X119690476Y-113666666D01*
X119738095Y-113761904D01*
X119452380Y-112285714D02*
X119452380Y-112761904D01*
X119928571Y-112809523D01*
X119880952Y-112761904D01*
X119833333Y-112666666D01*
X119833333Y-112428571D01*
X119880952Y-112333333D01*
X119928571Y-112285714D01*
X120023809Y-112238095D01*
X120261904Y-112238095D01*
X120357142Y-112285714D01*
X120404761Y-112333333D01*
X120452380Y-112428571D01*
X120452380Y-112666666D01*
X120404761Y-112761904D01*
X120357142Y-112809523D01*
X176857142Y-117657142D02*
X176809523Y-117704761D01*
X176666666Y-117752380D01*
X176571428Y-117752380D01*
X176428571Y-117704761D01*
X176333333Y-117609523D01*
X176285714Y-117514285D01*
X176238095Y-117323809D01*
X176238095Y-117180952D01*
X176285714Y-116990476D01*
X176333333Y-116895238D01*
X176428571Y-116800000D01*
X176571428Y-116752380D01*
X176666666Y-116752380D01*
X176809523Y-116800000D01*
X176857142Y-116847619D01*
X177809523Y-117752380D02*
X177238095Y-117752380D01*
X177523809Y-117752380D02*
X177523809Y-116752380D01*
X177428571Y-116895238D01*
X177333333Y-116990476D01*
X177238095Y-117038095D01*
X178666666Y-117085714D02*
X178666666Y-117752380D01*
X178428571Y-116704761D02*
X178190476Y-117419047D01*
X178809523Y-117419047D01*
X117857142Y-114142857D02*
X117904761Y-114190476D01*
X117952380Y-114333333D01*
X117952380Y-114428571D01*
X117904761Y-114571428D01*
X117809523Y-114666666D01*
X117714285Y-114714285D01*
X117523809Y-114761904D01*
X117380952Y-114761904D01*
X117190476Y-114714285D01*
X117095238Y-114666666D01*
X117000000Y-114571428D01*
X116952380Y-114428571D01*
X116952380Y-114333333D01*
X117000000Y-114190476D01*
X117047619Y-114142857D01*
X117952380Y-113190476D02*
X117952380Y-113761904D01*
X117952380Y-113476190D02*
X116952380Y-113476190D01*
X117095238Y-113571428D01*
X117190476Y-113666666D01*
X117238095Y-113761904D01*
X116952380Y-112857142D02*
X116952380Y-112238095D01*
X117333333Y-112571428D01*
X117333333Y-112428571D01*
X117380952Y-112333333D01*
X117428571Y-112285714D01*
X117523809Y-112238095D01*
X117761904Y-112238095D01*
X117857142Y-112285714D01*
X117904761Y-112333333D01*
X117952380Y-112428571D01*
X117952380Y-112714285D01*
X117904761Y-112809523D01*
X117857142Y-112857142D01*
X115357142Y-114142857D02*
X115404761Y-114190476D01*
X115452380Y-114333333D01*
X115452380Y-114428571D01*
X115404761Y-114571428D01*
X115309523Y-114666666D01*
X115214285Y-114714285D01*
X115023809Y-114761904D01*
X114880952Y-114761904D01*
X114690476Y-114714285D01*
X114595238Y-114666666D01*
X114500000Y-114571428D01*
X114452380Y-114428571D01*
X114452380Y-114333333D01*
X114500000Y-114190476D01*
X114547619Y-114142857D01*
X115452380Y-113190476D02*
X115452380Y-113761904D01*
X115452380Y-113476190D02*
X114452380Y-113476190D01*
X114595238Y-113571428D01*
X114690476Y-113666666D01*
X114738095Y-113761904D01*
X114547619Y-112809523D02*
X114500000Y-112761904D01*
X114452380Y-112666666D01*
X114452380Y-112428571D01*
X114500000Y-112333333D01*
X114547619Y-112285714D01*
X114642857Y-112238095D01*
X114738095Y-112238095D01*
X114880952Y-112285714D01*
X115452380Y-112857142D01*
X115452380Y-112238095D01*
X136807142Y-127392857D02*
X136854761Y-127440476D01*
X136902380Y-127583333D01*
X136902380Y-127678571D01*
X136854761Y-127821428D01*
X136759523Y-127916666D01*
X136664285Y-127964285D01*
X136473809Y-128011904D01*
X136330952Y-128011904D01*
X136140476Y-127964285D01*
X136045238Y-127916666D01*
X135950000Y-127821428D01*
X135902380Y-127678571D01*
X135902380Y-127583333D01*
X135950000Y-127440476D01*
X135997619Y-127392857D01*
X136902380Y-126440476D02*
X136902380Y-127011904D01*
X136902380Y-126726190D02*
X135902380Y-126726190D01*
X136045238Y-126821428D01*
X136140476Y-126916666D01*
X136188095Y-127011904D01*
X136902380Y-125488095D02*
X136902380Y-126059523D01*
X136902380Y-125773809D02*
X135902380Y-125773809D01*
X136045238Y-125869047D01*
X136140476Y-125964285D01*
X136188095Y-126059523D01*
X112857142Y-114142857D02*
X112904761Y-114190476D01*
X112952380Y-114333333D01*
X112952380Y-114428571D01*
X112904761Y-114571428D01*
X112809523Y-114666666D01*
X112714285Y-114714285D01*
X112523809Y-114761904D01*
X112380952Y-114761904D01*
X112190476Y-114714285D01*
X112095238Y-114666666D01*
X112000000Y-114571428D01*
X111952380Y-114428571D01*
X111952380Y-114333333D01*
X112000000Y-114190476D01*
X112047619Y-114142857D01*
X112952380Y-113190476D02*
X112952380Y-113761904D01*
X112952380Y-113476190D02*
X111952380Y-113476190D01*
X112095238Y-113571428D01*
X112190476Y-113666666D01*
X112238095Y-113761904D01*
X111952380Y-112571428D02*
X111952380Y-112476190D01*
X112000000Y-112380952D01*
X112047619Y-112333333D01*
X112142857Y-112285714D01*
X112333333Y-112238095D01*
X112571428Y-112238095D01*
X112761904Y-112285714D01*
X112857142Y-112333333D01*
X112904761Y-112380952D01*
X112952380Y-112476190D01*
X112952380Y-112571428D01*
X112904761Y-112666666D01*
X112857142Y-112714285D01*
X112761904Y-112761904D01*
X112571428Y-112809523D01*
X112333333Y-112809523D01*
X112142857Y-112761904D01*
X112047619Y-112714285D01*
X112000000Y-112666666D01*
X111952380Y-112571428D01*
X91037142Y-99766666D02*
X91084761Y-99814285D01*
X91132380Y-99957142D01*
X91132380Y-100052380D01*
X91084761Y-100195238D01*
X90989523Y-100290476D01*
X90894285Y-100338095D01*
X90703809Y-100385714D01*
X90560952Y-100385714D01*
X90370476Y-100338095D01*
X90275238Y-100290476D01*
X90180000Y-100195238D01*
X90132380Y-100052380D01*
X90132380Y-99957142D01*
X90180000Y-99814285D01*
X90227619Y-99766666D01*
X91132380Y-99290476D02*
X91132380Y-99100000D01*
X91084761Y-99004761D01*
X91037142Y-98957142D01*
X90894285Y-98861904D01*
X90703809Y-98814285D01*
X90322857Y-98814285D01*
X90227619Y-98861904D01*
X90180000Y-98909523D01*
X90132380Y-99004761D01*
X90132380Y-99195238D01*
X90180000Y-99290476D01*
X90227619Y-99338095D01*
X90322857Y-99385714D01*
X90560952Y-99385714D01*
X90656190Y-99338095D01*
X90703809Y-99290476D01*
X90751428Y-99195238D01*
X90751428Y-99004761D01*
X90703809Y-98909523D01*
X90656190Y-98861904D01*
X90560952Y-98814285D01*
X135333333Y-82357142D02*
X135285714Y-82404761D01*
X135142857Y-82452380D01*
X135047619Y-82452380D01*
X134904761Y-82404761D01*
X134809523Y-82309523D01*
X134761904Y-82214285D01*
X134714285Y-82023809D01*
X134714285Y-81880952D01*
X134761904Y-81690476D01*
X134809523Y-81595238D01*
X134904761Y-81500000D01*
X135047619Y-81452380D01*
X135142857Y-81452380D01*
X135285714Y-81500000D01*
X135333333Y-81547619D01*
X135904761Y-81880952D02*
X135809523Y-81833333D01*
X135761904Y-81785714D01*
X135714285Y-81690476D01*
X135714285Y-81642857D01*
X135761904Y-81547619D01*
X135809523Y-81500000D01*
X135904761Y-81452380D01*
X136095238Y-81452380D01*
X136190476Y-81500000D01*
X136238095Y-81547619D01*
X136285714Y-81642857D01*
X136285714Y-81690476D01*
X136238095Y-81785714D01*
X136190476Y-81833333D01*
X136095238Y-81880952D01*
X135904761Y-81880952D01*
X135809523Y-81928571D01*
X135761904Y-81976190D01*
X135714285Y-82071428D01*
X135714285Y-82261904D01*
X135761904Y-82357142D01*
X135809523Y-82404761D01*
X135904761Y-82452380D01*
X136095238Y-82452380D01*
X136190476Y-82404761D01*
X136238095Y-82357142D01*
X136285714Y-82261904D01*
X136285714Y-82071428D01*
X136238095Y-81976190D01*
X136190476Y-81928571D01*
X136095238Y-81880952D01*
X100633333Y-82857142D02*
X100585714Y-82904761D01*
X100442857Y-82952380D01*
X100347619Y-82952380D01*
X100204761Y-82904761D01*
X100109523Y-82809523D01*
X100061904Y-82714285D01*
X100014285Y-82523809D01*
X100014285Y-82380952D01*
X100061904Y-82190476D01*
X100109523Y-82095238D01*
X100204761Y-82000000D01*
X100347619Y-81952380D01*
X100442857Y-81952380D01*
X100585714Y-82000000D01*
X100633333Y-82047619D01*
X100966666Y-81952380D02*
X101633333Y-81952380D01*
X101204761Y-82952380D01*
X142279610Y-101634687D02*
X142212267Y-101634687D01*
X142077580Y-101567343D01*
X142010236Y-101500000D01*
X141942893Y-101365312D01*
X141942893Y-101230625D01*
X141976564Y-101129610D01*
X142077580Y-100961251D01*
X142178595Y-100860236D01*
X142346954Y-100759221D01*
X142447969Y-100725549D01*
X142582656Y-100725549D01*
X142717343Y-100792893D01*
X142784687Y-100860236D01*
X142852030Y-100994923D01*
X142852030Y-101062267D01*
X143525465Y-101601015D02*
X143390778Y-101466328D01*
X143289763Y-101432656D01*
X143222419Y-101432656D01*
X143054061Y-101466328D01*
X142885702Y-101567343D01*
X142616328Y-101836717D01*
X142582656Y-101937732D01*
X142582656Y-102005076D01*
X142616328Y-102106091D01*
X142751015Y-102240778D01*
X142852030Y-102274450D01*
X142919374Y-102274450D01*
X143020389Y-102240778D01*
X143188748Y-102072419D01*
X143222419Y-101971404D01*
X143222419Y-101904061D01*
X143188748Y-101803045D01*
X143054061Y-101668358D01*
X142953045Y-101634687D01*
X142885702Y-101634687D01*
X142784687Y-101668358D01*
X181357142Y-109416666D02*
X181404761Y-109464285D01*
X181452380Y-109607142D01*
X181452380Y-109702380D01*
X181404761Y-109845238D01*
X181309523Y-109940476D01*
X181214285Y-109988095D01*
X181023809Y-110035714D01*
X180880952Y-110035714D01*
X180690476Y-109988095D01*
X180595238Y-109940476D01*
X180500000Y-109845238D01*
X180452380Y-109702380D01*
X180452380Y-109607142D01*
X180500000Y-109464285D01*
X180547619Y-109416666D01*
X180452380Y-108511904D02*
X180452380Y-108988095D01*
X180928571Y-109035714D01*
X180880952Y-108988095D01*
X180833333Y-108892857D01*
X180833333Y-108654761D01*
X180880952Y-108559523D01*
X180928571Y-108511904D01*
X181023809Y-108464285D01*
X181261904Y-108464285D01*
X181357142Y-108511904D01*
X181404761Y-108559523D01*
X181452380Y-108654761D01*
X181452380Y-108892857D01*
X181404761Y-108988095D01*
X181357142Y-109035714D01*
X202283333Y-103677142D02*
X202235714Y-103724761D01*
X202092857Y-103772380D01*
X201997619Y-103772380D01*
X201854761Y-103724761D01*
X201759523Y-103629523D01*
X201711904Y-103534285D01*
X201664285Y-103343809D01*
X201664285Y-103200952D01*
X201711904Y-103010476D01*
X201759523Y-102915238D01*
X201854761Y-102820000D01*
X201997619Y-102772380D01*
X202092857Y-102772380D01*
X202235714Y-102820000D01*
X202283333Y-102867619D01*
X203140476Y-103105714D02*
X203140476Y-103772380D01*
X202902380Y-102724761D02*
X202664285Y-103439047D01*
X203283333Y-103439047D01*
X189483333Y-109590476D02*
X189435714Y-109638095D01*
X189292857Y-109685714D01*
X189197619Y-109685714D01*
X189054761Y-109638095D01*
X188959523Y-109542857D01*
X188911904Y-109447619D01*
X188864285Y-109257143D01*
X188864285Y-109114286D01*
X188911904Y-108923810D01*
X188959523Y-108828572D01*
X189054761Y-108733334D01*
X189197619Y-108685714D01*
X189292857Y-108685714D01*
X189435714Y-108733334D01*
X189483333Y-108780953D01*
X189816666Y-108685714D02*
X190435714Y-108685714D01*
X190102380Y-109066667D01*
X190245238Y-109066667D01*
X190340476Y-109114286D01*
X190388095Y-109161905D01*
X190435714Y-109257143D01*
X190435714Y-109495238D01*
X190388095Y-109590476D01*
X190340476Y-109638095D01*
X190245238Y-109685714D01*
X189959523Y-109685714D01*
X189864285Y-109638095D01*
X189816666Y-109590476D01*
X207757142Y-119866666D02*
X207804761Y-119914285D01*
X207852380Y-120057142D01*
X207852380Y-120152380D01*
X207804761Y-120295238D01*
X207709523Y-120390476D01*
X207614285Y-120438095D01*
X207423809Y-120485714D01*
X207280952Y-120485714D01*
X207090476Y-120438095D01*
X206995238Y-120390476D01*
X206900000Y-120295238D01*
X206852380Y-120152380D01*
X206852380Y-120057142D01*
X206900000Y-119914285D01*
X206947619Y-119866666D01*
X206947619Y-119485714D02*
X206900000Y-119438095D01*
X206852380Y-119342857D01*
X206852380Y-119104761D01*
X206900000Y-119009523D01*
X206947619Y-118961904D01*
X207042857Y-118914285D01*
X207138095Y-118914285D01*
X207280952Y-118961904D01*
X207852380Y-119533333D01*
X207852380Y-118914285D01*
X192733333Y-111023809D02*
X192685714Y-111071428D01*
X192542857Y-111119047D01*
X192447619Y-111119047D01*
X192304761Y-111071428D01*
X192209523Y-110976190D01*
X192161904Y-110880952D01*
X192114285Y-110690476D01*
X192114285Y-110547619D01*
X192161904Y-110357143D01*
X192209523Y-110261905D01*
X192304761Y-110166667D01*
X192447619Y-110119047D01*
X192542857Y-110119047D01*
X192685714Y-110166667D01*
X192733333Y-110214286D01*
X193685714Y-111119047D02*
X193114285Y-111119047D01*
X193400000Y-111119047D02*
X193400000Y-110119047D01*
X193304761Y-110261905D01*
X193209523Y-110357143D01*
X193114285Y-110404762D01*
M02*
