G04 #@! TF.GenerationSoftware,KiCad,Pcbnew,(5.1.5)-3*
G04 #@! TF.CreationDate,2020-10-27T23:40:54+01:00*
G04 #@! TF.ProjectId,output_stage_1,6f757470-7574-45f7-9374-6167655f312e,rev?*
G04 #@! TF.SameCoordinates,Original*
G04 #@! TF.FileFunction,Copper,L2,Bot*
G04 #@! TF.FilePolarity,Positive*
%FSLAX46Y46*%
G04 Gerber Fmt 4.6, Leading zero omitted, Abs format (unit mm)*
G04 Created by KiCad (PCBNEW (5.1.5)-3) date 2020-10-27 23:40:54*
%MOMM*%
%LPD*%
G04 APERTURE LIST*
%ADD10C,0.800000*%
%ADD11C,5.400000*%
%ADD12O,2.000000X3.000000*%
%ADD13O,5.000000X8.000000*%
%ADD14C,2.800000*%
%ADD15O,2.400000X2.400000*%
%ADD16C,2.400000*%
%ADD17O,1.905000X2.000000*%
%ADD18R,1.905000X2.000000*%
%ADD19R,10.000000X16.000000*%
%ADD20C,1.600000*%
%ADD21C,2.000000*%
%ADD22C,1.200000*%
%ADD23C,1.200000*%
%ADD24C,0.800000*%
%ADD25C,0.300000*%
%ADD26C,0.400000*%
%ADD27C,0.254000*%
G04 APERTURE END LIST*
D10*
X213131891Y-102268109D03*
X211700000Y-101675000D03*
X210268109Y-102268109D03*
X209675000Y-103700000D03*
X210268109Y-105131891D03*
X211700000Y-105725000D03*
X213131891Y-105131891D03*
X213725000Y-103700000D03*
D11*
X211700000Y-103700000D03*
D10*
X191431891Y-72068109D03*
X190000000Y-71475000D03*
X188568109Y-72068109D03*
X187975000Y-73500000D03*
X188568109Y-74931891D03*
X190000000Y-75525000D03*
X191431891Y-74931891D03*
X192025000Y-73500000D03*
D11*
X190000000Y-73500000D03*
D10*
X181931891Y-72068109D03*
X180500000Y-71475000D03*
X179068109Y-72068109D03*
X178475000Y-73500000D03*
X179068109Y-74931891D03*
X180500000Y-75525000D03*
X181931891Y-74931891D03*
X182525000Y-73500000D03*
D11*
X180500000Y-73500000D03*
D10*
X172431891Y-72068109D03*
X171000000Y-71475000D03*
X169568109Y-72068109D03*
X168975000Y-73500000D03*
X169568109Y-74931891D03*
X171000000Y-75525000D03*
X172431891Y-74931891D03*
X173025000Y-73500000D03*
D11*
X171000000Y-73500000D03*
D12*
X97540000Y-94450000D03*
X95000000Y-94450000D03*
X92460000Y-94450000D03*
X97540000Y-85550000D03*
X95000000Y-85550000D03*
X92460000Y-85550000D03*
D13*
X107700000Y-90000000D03*
X82300000Y-90000000D03*
D12*
X142540000Y-94450000D03*
X140000000Y-94450000D03*
X137460000Y-94450000D03*
X142540000Y-85550000D03*
X140000000Y-85550000D03*
X137460000Y-85550000D03*
D13*
X152700000Y-90000000D03*
X127300000Y-90000000D03*
D14*
X202850000Y-78150000D03*
X147200000Y-116600000D03*
D15*
X98000000Y-100680000D03*
D16*
X98000000Y-121000000D03*
D15*
X137000000Y-121320000D03*
D16*
X137000000Y-101000000D03*
D15*
X105320000Y-73500000D03*
D16*
X85000000Y-73500000D03*
D15*
X150320000Y-73500000D03*
D16*
X130000000Y-73500000D03*
D15*
X177200000Y-92680000D03*
D16*
X177200000Y-113000000D03*
D17*
X198820000Y-107600000D03*
X201360000Y-107600000D03*
D18*
X203900000Y-107600000D03*
D19*
X201360000Y-121260000D03*
D10*
X193431891Y-124568109D03*
X192000000Y-123975000D03*
X190568109Y-124568109D03*
X189975000Y-126000000D03*
X190568109Y-127431891D03*
X192000000Y-128025000D03*
X193431891Y-127431891D03*
X194025000Y-126000000D03*
D11*
X192000000Y-126000000D03*
D10*
X161931891Y-124568109D03*
X160500000Y-123975000D03*
X159068109Y-124568109D03*
X158475000Y-126000000D03*
X159068109Y-127431891D03*
X160500000Y-128025000D03*
X161931891Y-127431891D03*
X162525000Y-126000000D03*
D11*
X160500000Y-126000000D03*
D10*
X183431891Y-124568109D03*
X182000000Y-123975000D03*
X180568109Y-124568109D03*
X179975000Y-126000000D03*
X180568109Y-127431891D03*
X182000000Y-128025000D03*
X183431891Y-127431891D03*
X184025000Y-126000000D03*
D11*
X182000000Y-126000000D03*
D10*
X171931891Y-124568109D03*
X170500000Y-123975000D03*
X169068109Y-124568109D03*
X168475000Y-126000000D03*
X169068109Y-127431891D03*
X170500000Y-128025000D03*
X171931891Y-127431891D03*
X172525000Y-126000000D03*
D11*
X170500000Y-126000000D03*
D10*
X213131891Y-87068109D03*
X211700000Y-86475000D03*
X210268109Y-87068109D03*
X209675000Y-88500000D03*
X210268109Y-89931891D03*
X211700000Y-90525000D03*
X213131891Y-89931891D03*
X213725000Y-88500000D03*
D11*
X211700000Y-88500000D03*
D10*
X114431891Y-124568109D03*
X113000000Y-123975000D03*
X111568109Y-124568109D03*
X110975000Y-126000000D03*
X111568109Y-127431891D03*
X113000000Y-128025000D03*
X114431891Y-127431891D03*
X115025000Y-126000000D03*
D11*
X113000000Y-126000000D03*
D10*
X213131891Y-79468109D03*
X211700000Y-78875000D03*
X210268109Y-79468109D03*
X209675000Y-80900000D03*
X210268109Y-82331891D03*
X211700000Y-82925000D03*
X213131891Y-82331891D03*
X213725000Y-80900000D03*
D11*
X211700000Y-80900000D03*
D10*
X213131891Y-94668109D03*
X211700000Y-94075000D03*
X210268109Y-94668109D03*
X209675000Y-96100000D03*
X210268109Y-97531891D03*
X211700000Y-98125000D03*
X213131891Y-97531891D03*
X213725000Y-96100000D03*
D11*
X211700000Y-96100000D03*
D10*
X97231891Y-124568109D03*
X95800000Y-123975000D03*
X94368109Y-124568109D03*
X93775000Y-126000000D03*
X94368109Y-127431891D03*
X95800000Y-128025000D03*
X97231891Y-127431891D03*
X97825000Y-126000000D03*
D11*
X95800000Y-126000000D03*
D10*
X105831891Y-124568109D03*
X104400000Y-123975000D03*
X102968109Y-124568109D03*
X102375000Y-126000000D03*
X102968109Y-127431891D03*
X104400000Y-128025000D03*
X105831891Y-127431891D03*
X106425000Y-126000000D03*
D11*
X104400000Y-126000000D03*
D10*
X213131891Y-109868109D03*
X211700000Y-109275000D03*
X210268109Y-109868109D03*
X209675000Y-111300000D03*
X210268109Y-112731891D03*
X211700000Y-113325000D03*
X213131891Y-112731891D03*
X213725000Y-111300000D03*
D11*
X211700000Y-111300000D03*
D10*
X213131891Y-117468109D03*
X211700000Y-116875000D03*
X210268109Y-117468109D03*
X209675000Y-118900000D03*
X210268109Y-120331891D03*
X211700000Y-120925000D03*
X213131891Y-120331891D03*
X213725000Y-118900000D03*
D11*
X211700000Y-118900000D03*
D20*
X190000000Y-85000000D03*
X185000000Y-85000000D03*
X176000000Y-85000000D03*
X171000000Y-85000000D03*
D21*
X181900000Y-103700000D03*
X180700000Y-83700000D03*
D10*
X206400000Y-110100000D03*
X190800000Y-116400000D03*
X133350000Y-108700000D03*
D22*
X93400000Y-81400000D03*
D21*
X144700000Y-108700000D03*
X150200000Y-104900000D03*
X185400000Y-105400000D03*
X173100000Y-105300000D03*
D10*
X142400000Y-116600000D03*
X139500000Y-111300000D03*
X181700000Y-119500000D03*
X185500000Y-118300000D03*
D22*
X93600000Y-114400000D03*
X99100000Y-105400000D03*
D10*
X187100000Y-114400000D03*
X127900000Y-115800000D03*
X127900000Y-109800000D03*
X182300000Y-109600000D03*
X180000000Y-118000000D03*
X90250000Y-112500000D03*
X135850000Y-124600000D03*
X86700000Y-126300000D03*
X117600000Y-124250000D03*
X90400000Y-110450000D03*
X182900000Y-120900000D03*
X203800000Y-92400000D03*
X198800000Y-95500000D03*
X189400000Y-103000000D03*
X187400000Y-108200000D03*
X194000000Y-87700000D03*
X171300000Y-117500000D03*
X198800000Y-86000000D03*
X200800000Y-84600000D03*
D23*
X181900000Y-103700000D02*
X180700000Y-102500000D01*
X180700000Y-102500000D02*
X180700000Y-83700000D01*
D24*
X186250000Y-78150000D02*
X202850000Y-78150000D01*
X180700000Y-83700000D02*
X186250000Y-78150000D01*
X209000001Y-114819999D02*
X206580002Y-112400000D01*
X211700000Y-118900000D02*
X209000001Y-116200001D01*
X209000001Y-116200001D02*
X209000001Y-114819999D01*
X192000000Y-116539998D02*
X192000000Y-122181624D01*
X192000000Y-122181624D02*
X192000000Y-126000000D01*
X196139998Y-112400000D02*
X192000000Y-116539998D01*
X206580002Y-112400000D02*
X196139998Y-112400000D01*
D25*
X205834315Y-110100000D02*
X204334315Y-111600000D01*
X206400000Y-110100000D02*
X205834315Y-110100000D01*
X204334315Y-111600000D02*
X195600000Y-111600000D01*
X195600000Y-111600000D02*
X190800000Y-116400000D01*
D24*
X133749999Y-109099999D02*
X139199999Y-109099999D01*
X133350000Y-108700000D02*
X133749999Y-109099999D01*
X143100000Y-113000000D02*
X177200000Y-113000000D01*
X139199999Y-109099999D02*
X143100000Y-113000000D01*
X132784315Y-108700000D02*
X132284315Y-108200000D01*
X133350000Y-108700000D02*
X132784315Y-108700000D01*
X132284315Y-108200000D02*
X126800000Y-108200000D01*
X126800000Y-108200000D02*
X123800000Y-111200000D01*
X123800000Y-111200000D02*
X107400000Y-111200000D01*
X107400000Y-111200000D02*
X100300000Y-104100000D01*
X100300000Y-104100000D02*
X100300000Y-83500000D01*
X100300000Y-83500000D02*
X98200000Y-81400000D01*
X98200000Y-81400000D02*
X93400000Y-81400000D01*
D23*
X144700000Y-108700000D02*
X146400000Y-108700000D01*
X146400000Y-108700000D02*
X150200000Y-104900000D01*
D24*
X183985787Y-105400000D02*
X182785787Y-106600000D01*
X185400000Y-105400000D02*
X183985787Y-105400000D01*
X174400000Y-106600000D02*
X173100000Y-105300000D01*
D26*
X142400000Y-116600000D02*
X139500000Y-113700000D01*
X139500000Y-113700000D02*
X139500000Y-111300000D01*
X182265685Y-119500000D02*
X183465685Y-118300000D01*
X181700000Y-119500000D02*
X182265685Y-119500000D01*
X183465685Y-118300000D02*
X185500000Y-118300000D01*
X180600000Y-106600000D02*
X180600000Y-107900000D01*
D24*
X182785787Y-106600000D02*
X180600000Y-106600000D01*
X180600000Y-106600000D02*
X174400000Y-106600000D01*
D26*
X180600000Y-107900000D02*
X179500000Y-109000000D01*
X179500000Y-109000000D02*
X179500000Y-114300000D01*
X179500000Y-114300000D02*
X178100000Y-115700000D01*
X178100000Y-115700000D02*
X170800000Y-115700000D01*
X170800000Y-115700000D02*
X169800000Y-116700000D01*
X169800000Y-116700000D02*
X169800000Y-118300000D01*
X169800000Y-118300000D02*
X171000000Y-119500000D01*
X171000000Y-119500000D02*
X181700000Y-119500000D01*
D24*
X93600000Y-112985787D02*
X99100000Y-107485787D01*
X93600000Y-114400000D02*
X93600000Y-112985787D01*
X99100000Y-107485787D02*
X99100000Y-105400000D01*
D26*
X127900000Y-115800000D02*
X127900000Y-109800000D01*
X182300000Y-109600000D02*
X187100000Y-114400000D01*
X182300000Y-109600000D02*
X182300000Y-115700000D01*
X182300000Y-115700000D02*
X180000000Y-118000000D01*
D25*
X90250000Y-113757122D02*
X90250000Y-113065685D01*
X98468387Y-116250011D02*
X92742888Y-116250010D01*
X92742888Y-116250010D02*
X90250000Y-113757122D01*
X104400000Y-122181624D02*
X98468387Y-116250011D01*
X104400000Y-126000000D02*
X104400000Y-122181624D01*
X90250000Y-113065685D02*
X90250000Y-112500000D01*
X135284315Y-124600000D02*
X130434315Y-129450000D01*
X135850000Y-124600000D02*
X135284315Y-124600000D01*
X130434315Y-129450000D02*
X89850000Y-129450000D01*
X89850000Y-129450000D02*
X86700000Y-126300000D01*
X117034315Y-124250000D02*
X108534315Y-115750000D01*
X117600000Y-124250000D02*
X117034315Y-124250000D01*
X108534315Y-115750000D02*
X92950000Y-115750000D01*
X92950000Y-115750000D02*
X91250000Y-114050000D01*
X91250000Y-114050000D02*
X91250000Y-111300000D01*
X91250000Y-111300000D02*
X90400000Y-110450000D01*
D26*
X183465685Y-120900000D02*
X184665685Y-119700000D01*
X182900000Y-120900000D02*
X183465685Y-120900000D01*
X184665685Y-119700000D02*
X186600000Y-119700000D01*
X186600000Y-119700000D02*
X189400000Y-116900000D01*
X189400000Y-116900000D02*
X189400000Y-110400000D01*
X189400000Y-110400000D02*
X203800000Y-96000000D01*
X203800000Y-96000000D02*
X203800000Y-92400000D01*
X199365685Y-95500000D02*
X200965685Y-97100000D01*
X198800000Y-95500000D02*
X199365685Y-95500000D01*
X200965685Y-97100000D02*
X202700000Y-97100000D01*
D24*
X142540000Y-92150000D02*
X145400000Y-89290000D01*
X142540000Y-94450000D02*
X142540000Y-92150000D01*
X148622944Y-73500000D02*
X150320000Y-73500000D01*
X145400000Y-76722944D02*
X148622944Y-73500000D01*
X145400000Y-89290000D02*
X145400000Y-76722944D01*
D25*
X189400000Y-103565685D02*
X187400000Y-105565685D01*
X189400000Y-103000000D02*
X189400000Y-103565685D01*
X187400000Y-105565685D02*
X187400000Y-108200000D01*
D26*
X194000000Y-88265685D02*
X191400000Y-90865685D01*
X194000000Y-87700000D02*
X194000000Y-88265685D01*
X191400000Y-90865685D02*
X191400000Y-106600000D01*
X191400000Y-106600000D02*
X188200000Y-109800000D01*
X188200000Y-109800000D02*
X184800000Y-109800000D01*
X184800000Y-109800000D02*
X183100000Y-108100000D01*
X183100000Y-108100000D02*
X181800000Y-108100000D01*
X181800000Y-108100000D02*
X180500000Y-109400000D01*
X180500000Y-109400000D02*
X180500000Y-114500000D01*
X180500000Y-114500000D02*
X177500000Y-117500000D01*
X177500000Y-117500000D02*
X171300000Y-117500000D01*
D25*
X198800000Y-86000000D02*
X195700000Y-86000000D01*
X195700000Y-86000000D02*
X194000000Y-87700000D01*
X199365685Y-86000000D02*
X200665685Y-84700000D01*
X198800000Y-86000000D02*
X199365685Y-86000000D01*
X200665685Y-84700000D02*
X200700000Y-84700000D01*
X200700000Y-84700000D02*
X200800000Y-84600000D01*
D27*
G36*
X158065424Y-70669580D02*
G01*
X158128356Y-70688580D01*
X158186405Y-70719445D01*
X158237343Y-70760989D01*
X158279248Y-70811644D01*
X158310515Y-70869471D01*
X158329956Y-70932272D01*
X158340000Y-71027835D01*
X158340001Y-75967711D01*
X158330420Y-76065424D01*
X158311420Y-76128357D01*
X158280554Y-76186406D01*
X158239011Y-76237343D01*
X158188356Y-76279248D01*
X158130529Y-76310515D01*
X158067728Y-76329956D01*
X157972165Y-76340000D01*
X147967581Y-76340000D01*
X147939326Y-76342783D01*
X147933199Y-76342740D01*
X147924028Y-76343640D01*
X147729931Y-76364041D01*
X147671348Y-76376066D01*
X147612577Y-76387277D01*
X147603755Y-76389941D01*
X147417317Y-76447653D01*
X147362162Y-76470838D01*
X147306709Y-76493242D01*
X147298573Y-76497568D01*
X147126896Y-76590393D01*
X147077278Y-76623861D01*
X147027247Y-76656600D01*
X147020106Y-76662424D01*
X146869728Y-76786828D01*
X146827589Y-76829263D01*
X146784839Y-76871126D01*
X146778966Y-76878227D01*
X146655616Y-77029469D01*
X146622534Y-77079262D01*
X146588716Y-77128651D01*
X146584333Y-77136757D01*
X146492708Y-77309079D01*
X146469909Y-77364394D01*
X146446348Y-77419366D01*
X146443623Y-77428169D01*
X146435000Y-77456730D01*
X146435000Y-77151654D01*
X148905786Y-74680868D01*
X149150256Y-74925338D01*
X149450801Y-75126156D01*
X149784750Y-75264482D01*
X150139268Y-75335000D01*
X150500732Y-75335000D01*
X150855250Y-75264482D01*
X151189199Y-75126156D01*
X151489744Y-74925338D01*
X151745338Y-74669744D01*
X151946156Y-74369199D01*
X152084482Y-74035250D01*
X152135279Y-73779872D01*
X153765000Y-73779872D01*
X153765000Y-74220128D01*
X153850890Y-74651925D01*
X154019369Y-75058669D01*
X154263962Y-75424729D01*
X154575271Y-75736038D01*
X154941331Y-75980631D01*
X155348075Y-76149110D01*
X155779872Y-76235000D01*
X156220128Y-76235000D01*
X156651925Y-76149110D01*
X157058669Y-75980631D01*
X157424729Y-75736038D01*
X157736038Y-75424729D01*
X157980631Y-75058669D01*
X158149110Y-74651925D01*
X158235000Y-74220128D01*
X158235000Y-73779872D01*
X158149110Y-73348075D01*
X157980631Y-72941331D01*
X157736038Y-72575271D01*
X157424729Y-72263962D01*
X157058669Y-72019369D01*
X156651925Y-71850890D01*
X156220128Y-71765000D01*
X155779872Y-71765000D01*
X155348075Y-71850890D01*
X154941331Y-72019369D01*
X154575271Y-72263962D01*
X154263962Y-72575271D01*
X154019369Y-72941331D01*
X153850890Y-73348075D01*
X153765000Y-73779872D01*
X152135279Y-73779872D01*
X152155000Y-73680732D01*
X152155000Y-73319268D01*
X152084482Y-72964750D01*
X151946156Y-72630801D01*
X151745338Y-72330256D01*
X151489744Y-72074662D01*
X151189199Y-71873844D01*
X150855250Y-71735518D01*
X150500732Y-71665000D01*
X150139268Y-71665000D01*
X149784750Y-71735518D01*
X149450801Y-71873844D01*
X149150256Y-72074662D01*
X148894662Y-72330256D01*
X148804629Y-72465000D01*
X148673771Y-72465000D01*
X148622943Y-72459994D01*
X148572115Y-72465000D01*
X148572106Y-72465000D01*
X148420049Y-72479976D01*
X148224951Y-72539159D01*
X148157390Y-72575271D01*
X148045146Y-72635266D01*
X147932293Y-72727883D01*
X147887548Y-72764604D01*
X147855141Y-72804092D01*
X144704092Y-75955142D01*
X144664605Y-75987548D01*
X144632198Y-76027036D01*
X144632197Y-76027037D01*
X144535266Y-76145147D01*
X144439160Y-76324951D01*
X144379977Y-76520049D01*
X144359994Y-76722944D01*
X144365001Y-76773782D01*
X144365000Y-88861289D01*
X141844092Y-91382198D01*
X141804605Y-91414604D01*
X141772198Y-91454092D01*
X141772197Y-91454093D01*
X141675266Y-91572203D01*
X141579160Y-91752007D01*
X141519977Y-91947105D01*
X141499994Y-92150000D01*
X141505001Y-92200838D01*
X141505001Y-92684294D01*
X141378286Y-92788286D01*
X141270000Y-92920234D01*
X141161714Y-92788286D01*
X140912751Y-92583969D01*
X140628714Y-92432148D01*
X140320515Y-92338657D01*
X140000000Y-92307089D01*
X139679484Y-92338657D01*
X139371285Y-92432148D01*
X139087248Y-92583969D01*
X138838286Y-92788286D01*
X138730000Y-92920234D01*
X138621714Y-92788286D01*
X138372751Y-92583969D01*
X138088714Y-92432148D01*
X137780515Y-92338657D01*
X137460000Y-92307089D01*
X137139484Y-92338657D01*
X136831285Y-92432148D01*
X136547248Y-92583969D01*
X136298286Y-92788286D01*
X136093969Y-93037249D01*
X135942148Y-93321286D01*
X135848657Y-93629485D01*
X135825000Y-93869679D01*
X135825000Y-95030322D01*
X135848657Y-95270516D01*
X135942148Y-95578715D01*
X136093970Y-95862752D01*
X136298287Y-96111714D01*
X136547249Y-96316031D01*
X136831286Y-96467852D01*
X137139485Y-96561343D01*
X137460000Y-96592911D01*
X137780516Y-96561343D01*
X138088715Y-96467852D01*
X138372752Y-96316031D01*
X138621714Y-96111714D01*
X138730001Y-95979766D01*
X138838287Y-96111714D01*
X139087249Y-96316031D01*
X139371286Y-96467852D01*
X139679485Y-96561343D01*
X140000000Y-96592911D01*
X140320516Y-96561343D01*
X140628715Y-96467852D01*
X140912752Y-96316031D01*
X141161714Y-96111714D01*
X141270001Y-95979766D01*
X141378287Y-96111714D01*
X141627249Y-96316031D01*
X141911286Y-96467852D01*
X142219485Y-96561343D01*
X142540000Y-96592911D01*
X142860516Y-96561343D01*
X143168715Y-96467852D01*
X143452752Y-96316031D01*
X143701714Y-96111714D01*
X143906031Y-95862752D01*
X144057852Y-95578715D01*
X144151343Y-95270516D01*
X144175000Y-95030322D01*
X144175000Y-93869678D01*
X144151343Y-93629484D01*
X144057852Y-93321285D01*
X143906031Y-93037248D01*
X143701714Y-92788286D01*
X143575000Y-92684295D01*
X143575000Y-92578710D01*
X146095908Y-90057803D01*
X146135396Y-90025396D01*
X146167803Y-89985908D01*
X146264734Y-89867798D01*
X146316104Y-89771691D01*
X146360841Y-89687993D01*
X146420024Y-89492895D01*
X146435000Y-89340838D01*
X146435000Y-89340835D01*
X146440007Y-89290000D01*
X146435000Y-89239165D01*
X146435000Y-84541808D01*
X146447653Y-84582683D01*
X146470838Y-84637838D01*
X146493242Y-84693291D01*
X146497568Y-84701427D01*
X146590393Y-84873104D01*
X146623846Y-84922699D01*
X146656600Y-84972753D01*
X146662424Y-84979894D01*
X146786828Y-85130272D01*
X146829263Y-85172411D01*
X146871126Y-85215161D01*
X146878227Y-85221034D01*
X147029469Y-85344384D01*
X147079277Y-85377477D01*
X147128651Y-85411284D01*
X147136757Y-85415667D01*
X147309080Y-85507292D01*
X147364392Y-85530090D01*
X147419366Y-85553652D01*
X147428169Y-85556377D01*
X147615006Y-85612786D01*
X147673686Y-85624405D01*
X147732196Y-85636842D01*
X147741361Y-85637805D01*
X147935594Y-85656850D01*
X147935598Y-85656850D01*
X147967581Y-85660000D01*
X151362819Y-85660000D01*
X150949860Y-85880731D01*
X150472495Y-86272495D01*
X150080731Y-86749861D01*
X149789624Y-87294484D01*
X149610362Y-87885434D01*
X149565000Y-88345999D01*
X149565000Y-91654002D01*
X149610362Y-92114567D01*
X149789625Y-92705517D01*
X150080732Y-93250140D01*
X150472496Y-93727505D01*
X150949861Y-94119269D01*
X151362820Y-94340000D01*
X147967581Y-94340000D01*
X147939326Y-94342783D01*
X147933199Y-94342740D01*
X147924028Y-94343640D01*
X147729931Y-94364041D01*
X147671348Y-94376066D01*
X147612577Y-94387277D01*
X147603755Y-94389941D01*
X147417317Y-94447653D01*
X147362162Y-94470838D01*
X147306709Y-94493242D01*
X147298573Y-94497568D01*
X147126896Y-94590393D01*
X147077278Y-94623861D01*
X147027247Y-94656600D01*
X147020106Y-94662424D01*
X146869728Y-94786828D01*
X146827589Y-94829263D01*
X146784839Y-94871126D01*
X146778966Y-94878227D01*
X146655616Y-95029469D01*
X146622534Y-95079262D01*
X146588716Y-95128651D01*
X146584333Y-95136757D01*
X146492708Y-95309079D01*
X146469909Y-95364394D01*
X146446348Y-95419366D01*
X146443623Y-95428169D01*
X146387214Y-95615005D01*
X146375594Y-95673693D01*
X146363158Y-95732196D01*
X146362195Y-95741361D01*
X146343150Y-95935595D01*
X146340000Y-95967582D01*
X146340001Y-102032419D01*
X146342783Y-102060664D01*
X146342740Y-102066801D01*
X146343640Y-102075972D01*
X146364041Y-102270069D01*
X146376068Y-102328658D01*
X146387277Y-102387423D01*
X146389941Y-102396245D01*
X146447653Y-102582683D01*
X146470838Y-102637838D01*
X146493242Y-102693291D01*
X146497568Y-102701427D01*
X146590393Y-102873104D01*
X146623846Y-102922699D01*
X146656600Y-102972753D01*
X146662424Y-102979894D01*
X146786828Y-103130272D01*
X146829263Y-103172411D01*
X146871126Y-103215161D01*
X146878227Y-103221034D01*
X147029469Y-103344384D01*
X147079277Y-103377477D01*
X147128651Y-103411284D01*
X147136757Y-103415667D01*
X147309080Y-103507292D01*
X147364392Y-103530090D01*
X147419366Y-103553652D01*
X147428169Y-103556377D01*
X147615006Y-103612786D01*
X147673686Y-103624405D01*
X147732196Y-103636842D01*
X147741361Y-103637805D01*
X147935594Y-103656850D01*
X147935598Y-103656850D01*
X147967581Y-103660000D01*
X149127761Y-103660000D01*
X148930013Y-103857748D01*
X148751082Y-104125537D01*
X148627832Y-104423088D01*
X148565000Y-104738967D01*
X148565000Y-104788447D01*
X145888447Y-107465000D01*
X145777239Y-107465000D01*
X145742252Y-107430013D01*
X145474463Y-107251082D01*
X145176912Y-107127832D01*
X144861033Y-107065000D01*
X144538967Y-107065000D01*
X144223088Y-107127832D01*
X143925537Y-107251082D01*
X143657748Y-107430013D01*
X143430013Y-107657748D01*
X143251082Y-107925537D01*
X143127832Y-108223088D01*
X143065000Y-108538967D01*
X143065000Y-108861033D01*
X143127832Y-109176912D01*
X143251082Y-109474463D01*
X143430013Y-109742252D01*
X143657748Y-109969987D01*
X143925537Y-110148918D01*
X144223088Y-110272168D01*
X144538967Y-110335000D01*
X144861033Y-110335000D01*
X145176912Y-110272168D01*
X145474463Y-110148918D01*
X145742252Y-109969987D01*
X145777239Y-109935000D01*
X146339335Y-109935000D01*
X146400000Y-109940975D01*
X146460665Y-109935000D01*
X146642102Y-109917130D01*
X146874901Y-109846511D01*
X147089449Y-109731833D01*
X147277502Y-109577502D01*
X147316179Y-109530374D01*
X150311553Y-106535000D01*
X150361033Y-106535000D01*
X150676912Y-106472168D01*
X150974463Y-106348918D01*
X151242252Y-106169987D01*
X151469987Y-105942252D01*
X151578485Y-105779872D01*
X153765000Y-105779872D01*
X153765000Y-106220128D01*
X153850890Y-106651925D01*
X154019369Y-107058669D01*
X154263962Y-107424729D01*
X154575271Y-107736038D01*
X154941331Y-107980631D01*
X155348075Y-108149110D01*
X155779872Y-108235000D01*
X156220128Y-108235000D01*
X156651925Y-108149110D01*
X157058669Y-107980631D01*
X157424729Y-107736038D01*
X157736038Y-107424729D01*
X157980631Y-107058669D01*
X158149110Y-106651925D01*
X158235000Y-106220128D01*
X158235000Y-105779872D01*
X158149110Y-105348075D01*
X157980631Y-104941331D01*
X157736038Y-104575271D01*
X157424729Y-104263962D01*
X157058669Y-104019369D01*
X156651925Y-103850890D01*
X156220128Y-103765000D01*
X155779872Y-103765000D01*
X155348075Y-103850890D01*
X154941331Y-104019369D01*
X154575271Y-104263962D01*
X154263962Y-104575271D01*
X154019369Y-104941331D01*
X153850890Y-105348075D01*
X153765000Y-105779872D01*
X151578485Y-105779872D01*
X151648918Y-105674463D01*
X151772168Y-105376912D01*
X151835000Y-105061033D01*
X151835000Y-104738967D01*
X151772168Y-104423088D01*
X151648918Y-104125537D01*
X151469987Y-103857748D01*
X151272239Y-103660000D01*
X157967721Y-103660000D01*
X158065424Y-103669580D01*
X158128356Y-103688580D01*
X158186405Y-103719445D01*
X158237343Y-103760989D01*
X158279248Y-103811644D01*
X158310515Y-103869471D01*
X158329956Y-103932272D01*
X158340000Y-104027835D01*
X158340001Y-109032419D01*
X158342783Y-109060664D01*
X158342740Y-109066801D01*
X158343640Y-109075972D01*
X158364041Y-109270069D01*
X158376068Y-109328658D01*
X158387277Y-109387423D01*
X158389941Y-109396245D01*
X158447653Y-109582683D01*
X158470838Y-109637838D01*
X158493242Y-109693291D01*
X158497568Y-109701427D01*
X158590393Y-109873104D01*
X158623846Y-109922699D01*
X158656600Y-109972753D01*
X158662424Y-109979894D01*
X158786828Y-110130272D01*
X158829263Y-110172411D01*
X158871126Y-110215161D01*
X158878227Y-110221034D01*
X159029469Y-110344384D01*
X159079277Y-110377477D01*
X159128651Y-110411284D01*
X159136757Y-110415667D01*
X159309080Y-110507292D01*
X159364392Y-110530090D01*
X159419366Y-110553652D01*
X159428169Y-110556377D01*
X159615006Y-110612786D01*
X159673686Y-110624405D01*
X159732196Y-110636842D01*
X159741361Y-110637805D01*
X159935594Y-110656850D01*
X159935598Y-110656850D01*
X159967581Y-110660000D01*
X166032419Y-110660000D01*
X166060674Y-110657217D01*
X166066801Y-110657260D01*
X166075972Y-110656360D01*
X166270069Y-110635959D01*
X166328658Y-110623932D01*
X166387423Y-110612723D01*
X166396245Y-110610059D01*
X166582683Y-110552347D01*
X166637838Y-110529162D01*
X166693291Y-110506758D01*
X166701427Y-110502432D01*
X166873104Y-110409607D01*
X166922699Y-110376154D01*
X166972753Y-110343400D01*
X166979894Y-110337576D01*
X167130272Y-110213172D01*
X167172411Y-110170737D01*
X167215161Y-110128874D01*
X167221034Y-110121773D01*
X167344384Y-109970531D01*
X167377477Y-109920723D01*
X167411284Y-109871349D01*
X167415667Y-109863243D01*
X167507292Y-109690920D01*
X167530090Y-109635608D01*
X167553652Y-109580634D01*
X167556377Y-109571831D01*
X167612786Y-109384994D01*
X167624405Y-109326314D01*
X167636842Y-109267804D01*
X167637805Y-109258639D01*
X167656850Y-109064406D01*
X167656850Y-109064402D01*
X167660000Y-109032419D01*
X167660000Y-92499268D01*
X175365000Y-92499268D01*
X175365000Y-92860732D01*
X175435518Y-93215250D01*
X175573844Y-93549199D01*
X175774662Y-93849744D01*
X176030256Y-94105338D01*
X176330801Y-94306156D01*
X176664750Y-94444482D01*
X177019268Y-94515000D01*
X177380732Y-94515000D01*
X177735250Y-94444482D01*
X178069199Y-94306156D01*
X178369744Y-94105338D01*
X178625338Y-93849744D01*
X178826156Y-93549199D01*
X178964482Y-93215250D01*
X179035000Y-92860732D01*
X179035000Y-92499268D01*
X178964482Y-92144750D01*
X178826156Y-91810801D01*
X178625338Y-91510256D01*
X178369744Y-91254662D01*
X178069199Y-91053844D01*
X177735250Y-90915518D01*
X177380732Y-90845000D01*
X177019268Y-90845000D01*
X176664750Y-90915518D01*
X176330801Y-91053844D01*
X176030256Y-91254662D01*
X175774662Y-91510256D01*
X175573844Y-91810801D01*
X175435518Y-92144750D01*
X175365000Y-92499268D01*
X167660000Y-92499268D01*
X167660000Y-84858665D01*
X169565000Y-84858665D01*
X169565000Y-85141335D01*
X169620147Y-85418574D01*
X169728320Y-85679727D01*
X169885363Y-85914759D01*
X170085241Y-86114637D01*
X170320273Y-86271680D01*
X170581426Y-86379853D01*
X170858665Y-86435000D01*
X171141335Y-86435000D01*
X171418574Y-86379853D01*
X171679727Y-86271680D01*
X171914759Y-86114637D01*
X172036694Y-85992702D01*
X175186903Y-85992702D01*
X175258486Y-86236671D01*
X175513996Y-86357571D01*
X175788184Y-86426300D01*
X176070512Y-86440217D01*
X176350130Y-86398787D01*
X176616292Y-86303603D01*
X176741514Y-86236671D01*
X176813097Y-85992702D01*
X184186903Y-85992702D01*
X184258486Y-86236671D01*
X184513996Y-86357571D01*
X184788184Y-86426300D01*
X185070512Y-86440217D01*
X185350130Y-86398787D01*
X185616292Y-86303603D01*
X185741514Y-86236671D01*
X185813097Y-85992702D01*
X185000000Y-85179605D01*
X184186903Y-85992702D01*
X176813097Y-85992702D01*
X176000000Y-85179605D01*
X175186903Y-85992702D01*
X172036694Y-85992702D01*
X172114637Y-85914759D01*
X172271680Y-85679727D01*
X172379853Y-85418574D01*
X172435000Y-85141335D01*
X172435000Y-85070512D01*
X174559783Y-85070512D01*
X174601213Y-85350130D01*
X174696397Y-85616292D01*
X174763329Y-85741514D01*
X175007298Y-85813097D01*
X175820395Y-85000000D01*
X176179605Y-85000000D01*
X176992702Y-85813097D01*
X177236671Y-85741514D01*
X177357571Y-85486004D01*
X177426300Y-85211816D01*
X177433265Y-85070512D01*
X183559783Y-85070512D01*
X183601213Y-85350130D01*
X183696397Y-85616292D01*
X183763329Y-85741514D01*
X184007298Y-85813097D01*
X184820395Y-85000000D01*
X185179605Y-85000000D01*
X185992702Y-85813097D01*
X186236671Y-85741514D01*
X186357571Y-85486004D01*
X186426300Y-85211816D01*
X186440217Y-84929488D01*
X186429724Y-84858665D01*
X188565000Y-84858665D01*
X188565000Y-85141335D01*
X188620147Y-85418574D01*
X188728320Y-85679727D01*
X188885363Y-85914759D01*
X189085241Y-86114637D01*
X189320273Y-86271680D01*
X189581426Y-86379853D01*
X189858665Y-86435000D01*
X190141335Y-86435000D01*
X190418574Y-86379853D01*
X190679727Y-86271680D01*
X190914759Y-86114637D01*
X191114637Y-85914759D01*
X191271680Y-85679727D01*
X191379853Y-85418574D01*
X191435000Y-85141335D01*
X191435000Y-84858665D01*
X191379853Y-84581426D01*
X191271680Y-84320273D01*
X191114637Y-84085241D01*
X190914759Y-83885363D01*
X190679727Y-83728320D01*
X190418574Y-83620147D01*
X190141335Y-83565000D01*
X189858665Y-83565000D01*
X189581426Y-83620147D01*
X189320273Y-83728320D01*
X189085241Y-83885363D01*
X188885363Y-84085241D01*
X188728320Y-84320273D01*
X188620147Y-84581426D01*
X188565000Y-84858665D01*
X186429724Y-84858665D01*
X186398787Y-84649870D01*
X186303603Y-84383708D01*
X186236671Y-84258486D01*
X185992702Y-84186903D01*
X185179605Y-85000000D01*
X184820395Y-85000000D01*
X184007298Y-84186903D01*
X183763329Y-84258486D01*
X183642429Y-84513996D01*
X183573700Y-84788184D01*
X183559783Y-85070512D01*
X177433265Y-85070512D01*
X177440217Y-84929488D01*
X177398787Y-84649870D01*
X177303603Y-84383708D01*
X177236671Y-84258486D01*
X176992702Y-84186903D01*
X176179605Y-85000000D01*
X175820395Y-85000000D01*
X175007298Y-84186903D01*
X174763329Y-84258486D01*
X174642429Y-84513996D01*
X174573700Y-84788184D01*
X174559783Y-85070512D01*
X172435000Y-85070512D01*
X172435000Y-84858665D01*
X172379853Y-84581426D01*
X172271680Y-84320273D01*
X172114637Y-84085241D01*
X172036694Y-84007298D01*
X175186903Y-84007298D01*
X176000000Y-84820395D01*
X176813097Y-84007298D01*
X184186903Y-84007298D01*
X185000000Y-84820395D01*
X185813097Y-84007298D01*
X185741514Y-83763329D01*
X185486004Y-83642429D01*
X185211816Y-83573700D01*
X184929488Y-83559783D01*
X184649870Y-83601213D01*
X184383708Y-83696397D01*
X184258486Y-83763329D01*
X184186903Y-84007298D01*
X176813097Y-84007298D01*
X176741514Y-83763329D01*
X176486004Y-83642429D01*
X176211816Y-83573700D01*
X175929488Y-83559783D01*
X175649870Y-83601213D01*
X175383708Y-83696397D01*
X175258486Y-83763329D01*
X175186903Y-84007298D01*
X172036694Y-84007298D01*
X171914759Y-83885363D01*
X171679727Y-83728320D01*
X171418574Y-83620147D01*
X171141335Y-83565000D01*
X170858665Y-83565000D01*
X170581426Y-83620147D01*
X170320273Y-83728320D01*
X170085241Y-83885363D01*
X169885363Y-84085241D01*
X169728320Y-84320273D01*
X169620147Y-84581426D01*
X169565000Y-84858665D01*
X167660000Y-84858665D01*
X167660000Y-83245374D01*
X209534231Y-83245374D01*
X209834411Y-83683828D01*
X210413356Y-83994296D01*
X211041746Y-84185852D01*
X211695431Y-84251134D01*
X212349293Y-84187634D01*
X212978203Y-83997792D01*
X213557992Y-83688904D01*
X213565589Y-83683828D01*
X213865769Y-83245374D01*
X211700000Y-81079605D01*
X209534231Y-83245374D01*
X167660000Y-83245374D01*
X167660000Y-80895431D01*
X208348866Y-80895431D01*
X208412366Y-81549293D01*
X208602208Y-82178203D01*
X208911096Y-82757992D01*
X208916172Y-82765589D01*
X209354626Y-83065769D01*
X211520395Y-80900000D01*
X209354626Y-78734231D01*
X208916172Y-79034411D01*
X208605704Y-79613356D01*
X208414148Y-80241746D01*
X208348866Y-80895431D01*
X167660000Y-80895431D01*
X167660000Y-79570447D01*
X201609158Y-79570447D01*
X201753135Y-79875770D01*
X202110892Y-80056597D01*
X202497053Y-80164155D01*
X202896777Y-80194310D01*
X203294704Y-80145904D01*
X203675540Y-80020795D01*
X203946865Y-79875770D01*
X204090842Y-79570447D01*
X202850000Y-78329605D01*
X201609158Y-79570447D01*
X167660000Y-79570447D01*
X167660000Y-78196777D01*
X200805690Y-78196777D01*
X200854096Y-78594704D01*
X200979205Y-78975540D01*
X201124230Y-79246865D01*
X201429553Y-79390842D01*
X202670395Y-78150000D01*
X203029605Y-78150000D01*
X204270447Y-79390842D01*
X204575770Y-79246865D01*
X204756597Y-78889108D01*
X204849760Y-78554626D01*
X209534231Y-78554626D01*
X211700000Y-80720395D01*
X213865769Y-78554626D01*
X213565589Y-78116172D01*
X212986644Y-77805704D01*
X212358254Y-77614148D01*
X211704569Y-77548866D01*
X211050707Y-77612366D01*
X210421797Y-77802208D01*
X209842008Y-78111096D01*
X209834411Y-78116172D01*
X209534231Y-78554626D01*
X204849760Y-78554626D01*
X204864155Y-78502947D01*
X204894310Y-78103223D01*
X204845904Y-77705296D01*
X204720795Y-77324460D01*
X204575770Y-77053135D01*
X204270447Y-76909158D01*
X203029605Y-78150000D01*
X202670395Y-78150000D01*
X201429553Y-76909158D01*
X201124230Y-77053135D01*
X200943403Y-77410892D01*
X200835845Y-77797053D01*
X200805690Y-78196777D01*
X167660000Y-78196777D01*
X167660000Y-71032279D01*
X167669580Y-70934576D01*
X167688580Y-70871644D01*
X167719445Y-70813595D01*
X167760989Y-70762657D01*
X167811644Y-70720752D01*
X167869471Y-70689485D01*
X167932272Y-70670044D01*
X168027835Y-70660000D01*
X169247518Y-70660000D01*
X168874061Y-70909536D01*
X168409536Y-71374061D01*
X168044561Y-71920285D01*
X167793162Y-72527216D01*
X167665000Y-73171531D01*
X167665000Y-73828469D01*
X167793162Y-74472784D01*
X168044561Y-75079715D01*
X168409536Y-75625939D01*
X168874061Y-76090464D01*
X169420285Y-76455439D01*
X170027216Y-76706838D01*
X170671531Y-76835000D01*
X171328469Y-76835000D01*
X171972784Y-76706838D01*
X172579715Y-76455439D01*
X173125939Y-76090464D01*
X173371029Y-75845374D01*
X178334231Y-75845374D01*
X178634411Y-76283828D01*
X179213356Y-76594296D01*
X179841746Y-76785852D01*
X180495431Y-76851134D01*
X181149293Y-76787634D01*
X181778203Y-76597792D01*
X182357992Y-76288904D01*
X182365589Y-76283828D01*
X182665769Y-75845374D01*
X180500000Y-73679605D01*
X178334231Y-75845374D01*
X173371029Y-75845374D01*
X173590464Y-75625939D01*
X173955439Y-75079715D01*
X174206838Y-74472784D01*
X174335000Y-73828469D01*
X174335000Y-73495431D01*
X177148866Y-73495431D01*
X177212366Y-74149293D01*
X177402208Y-74778203D01*
X177711096Y-75357992D01*
X177716172Y-75365589D01*
X178154626Y-75665769D01*
X180320395Y-73500000D01*
X180679605Y-73500000D01*
X182845374Y-75665769D01*
X183283828Y-75365589D01*
X183594296Y-74786644D01*
X183785852Y-74158254D01*
X183851134Y-73504569D01*
X183787634Y-72850707D01*
X183597792Y-72221797D01*
X183288904Y-71642008D01*
X183283828Y-71634411D01*
X182845374Y-71334231D01*
X180679605Y-73500000D01*
X180320395Y-73500000D01*
X178154626Y-71334231D01*
X177716172Y-71634411D01*
X177405704Y-72213356D01*
X177214148Y-72841746D01*
X177148866Y-73495431D01*
X174335000Y-73495431D01*
X174335000Y-73171531D01*
X174206838Y-72527216D01*
X173955439Y-71920285D01*
X173590464Y-71374061D01*
X173125939Y-70909536D01*
X172752482Y-70660000D01*
X178737916Y-70660000D01*
X178642008Y-70711096D01*
X178634411Y-70716172D01*
X178334231Y-71154626D01*
X180500000Y-73320395D01*
X182665769Y-71154626D01*
X182365589Y-70716172D01*
X182260842Y-70660000D01*
X188247518Y-70660000D01*
X187874061Y-70909536D01*
X187409536Y-71374061D01*
X187044561Y-71920285D01*
X186793162Y-72527216D01*
X186665000Y-73171531D01*
X186665000Y-73828469D01*
X186793162Y-74472784D01*
X187044561Y-75079715D01*
X187409536Y-75625939D01*
X187874061Y-76090464D01*
X188420285Y-76455439D01*
X189027216Y-76706838D01*
X189671531Y-76835000D01*
X190328469Y-76835000D01*
X190858587Y-76729553D01*
X201609158Y-76729553D01*
X202850000Y-77970395D01*
X204090842Y-76729553D01*
X203946865Y-76424230D01*
X203589108Y-76243403D01*
X203202947Y-76135845D01*
X202803223Y-76105690D01*
X202405296Y-76154096D01*
X202024460Y-76279205D01*
X201753135Y-76424230D01*
X201609158Y-76729553D01*
X190858587Y-76729553D01*
X190972784Y-76706838D01*
X191579715Y-76455439D01*
X192125939Y-76090464D01*
X192590464Y-75625939D01*
X192955439Y-75079715D01*
X193206838Y-74472784D01*
X193335000Y-73828469D01*
X193335000Y-73171531D01*
X193257095Y-72779872D01*
X209765000Y-72779872D01*
X209765000Y-73220128D01*
X209850890Y-73651925D01*
X210019369Y-74058669D01*
X210263962Y-74424729D01*
X210575271Y-74736038D01*
X210941331Y-74980631D01*
X211348075Y-75149110D01*
X211779872Y-75235000D01*
X212220128Y-75235000D01*
X212651925Y-75149110D01*
X213058669Y-74980631D01*
X213424729Y-74736038D01*
X213736038Y-74424729D01*
X213980631Y-74058669D01*
X214149110Y-73651925D01*
X214235000Y-73220128D01*
X214235000Y-72779872D01*
X214149110Y-72348075D01*
X213980631Y-71941331D01*
X213736038Y-71575271D01*
X213424729Y-71263962D01*
X213058669Y-71019369D01*
X212651925Y-70850890D01*
X212220128Y-70765000D01*
X211779872Y-70765000D01*
X211348075Y-70850890D01*
X210941331Y-71019369D01*
X210575271Y-71263962D01*
X210263962Y-71575271D01*
X210019369Y-71941331D01*
X209850890Y-72348075D01*
X209765000Y-72779872D01*
X193257095Y-72779872D01*
X193206838Y-72527216D01*
X192955439Y-71920285D01*
X192590464Y-71374061D01*
X192125939Y-70909536D01*
X191752482Y-70660000D01*
X213967721Y-70660000D01*
X214065424Y-70669580D01*
X214128356Y-70688580D01*
X214186405Y-70719445D01*
X214237343Y-70760989D01*
X214279248Y-70811644D01*
X214310515Y-70869471D01*
X214329956Y-70932272D01*
X214340001Y-71027845D01*
X214340001Y-78935942D01*
X214045374Y-78734231D01*
X211879605Y-80900000D01*
X214045374Y-83065769D01*
X214340001Y-82864058D01*
X214340001Y-86448198D01*
X214290464Y-86374061D01*
X213825939Y-85909536D01*
X213279715Y-85544561D01*
X212672784Y-85293162D01*
X212028469Y-85165000D01*
X211371531Y-85165000D01*
X210727216Y-85293162D01*
X210120285Y-85544561D01*
X209574061Y-85909536D01*
X209109536Y-86374061D01*
X208744561Y-86920285D01*
X208493162Y-87527216D01*
X208365000Y-88171531D01*
X208365000Y-88828469D01*
X208493162Y-89472784D01*
X208744561Y-90079715D01*
X209109536Y-90625939D01*
X209574061Y-91090464D01*
X210120285Y-91455439D01*
X210727216Y-91706838D01*
X211371531Y-91835000D01*
X212028469Y-91835000D01*
X212672784Y-91706838D01*
X213279715Y-91455439D01*
X213825939Y-91090464D01*
X214290464Y-90625939D01*
X214340001Y-90551802D01*
X214340001Y-94048198D01*
X214290464Y-93974061D01*
X213825939Y-93509536D01*
X213279715Y-93144561D01*
X212672784Y-92893162D01*
X212028469Y-92765000D01*
X211371531Y-92765000D01*
X210727216Y-92893162D01*
X210120285Y-93144561D01*
X209574061Y-93509536D01*
X209109536Y-93974061D01*
X208744561Y-94520285D01*
X208493162Y-95127216D01*
X208365000Y-95771531D01*
X208365000Y-96428469D01*
X208493162Y-97072784D01*
X208744561Y-97679715D01*
X209109536Y-98225939D01*
X209574061Y-98690464D01*
X210120285Y-99055439D01*
X210727216Y-99306838D01*
X211371531Y-99435000D01*
X212028469Y-99435000D01*
X212672784Y-99306838D01*
X213279715Y-99055439D01*
X213825939Y-98690464D01*
X214290464Y-98225939D01*
X214340001Y-98151802D01*
X214340000Y-101648198D01*
X214290464Y-101574061D01*
X213825939Y-101109536D01*
X213279715Y-100744561D01*
X212672784Y-100493162D01*
X212028469Y-100365000D01*
X211371531Y-100365000D01*
X210727216Y-100493162D01*
X210120285Y-100744561D01*
X209574061Y-101109536D01*
X209109536Y-101574061D01*
X208744561Y-102120285D01*
X208493162Y-102727216D01*
X208365000Y-103371531D01*
X208365000Y-104028469D01*
X208493162Y-104672784D01*
X208744561Y-105279715D01*
X209109536Y-105825939D01*
X209574061Y-106290464D01*
X210120285Y-106655439D01*
X210727216Y-106906838D01*
X211371531Y-107035000D01*
X212028469Y-107035000D01*
X212672784Y-106906838D01*
X213279715Y-106655439D01*
X213825939Y-106290464D01*
X214290464Y-105825939D01*
X214340000Y-105751802D01*
X214340000Y-109248197D01*
X214290464Y-109174061D01*
X213825939Y-108709536D01*
X213279715Y-108344561D01*
X212672784Y-108093162D01*
X212028469Y-107965000D01*
X211371531Y-107965000D01*
X210727216Y-108093162D01*
X210120285Y-108344561D01*
X209574061Y-108709536D01*
X209109536Y-109174061D01*
X208744561Y-109720285D01*
X208493162Y-110327216D01*
X208365000Y-110971531D01*
X208365000Y-111628469D01*
X208493162Y-112272784D01*
X208744561Y-112879715D01*
X209109536Y-113425939D01*
X209574061Y-113890464D01*
X210120285Y-114255439D01*
X210727216Y-114506838D01*
X211371531Y-114635000D01*
X212028469Y-114635000D01*
X212672784Y-114506838D01*
X213279715Y-114255439D01*
X213825939Y-113890464D01*
X214290464Y-113425939D01*
X214340000Y-113351803D01*
X214340000Y-116935942D01*
X214045374Y-116734231D01*
X211879605Y-118900000D01*
X214045374Y-121065769D01*
X214340000Y-120864058D01*
X214340000Y-128967721D01*
X214330420Y-129065424D01*
X214311420Y-129128357D01*
X214280554Y-129186406D01*
X214239011Y-129237343D01*
X214188356Y-129279248D01*
X214130529Y-129310515D01*
X214067728Y-129329956D01*
X213972165Y-129340000D01*
X206990193Y-129340000D01*
X206998072Y-129260000D01*
X206998072Y-126779872D01*
X209765000Y-126779872D01*
X209765000Y-127220128D01*
X209850890Y-127651925D01*
X210019369Y-128058669D01*
X210263962Y-128424729D01*
X210575271Y-128736038D01*
X210941331Y-128980631D01*
X211348075Y-129149110D01*
X211779872Y-129235000D01*
X212220128Y-129235000D01*
X212651925Y-129149110D01*
X213058669Y-128980631D01*
X213424729Y-128736038D01*
X213736038Y-128424729D01*
X213980631Y-128058669D01*
X214149110Y-127651925D01*
X214235000Y-127220128D01*
X214235000Y-126779872D01*
X214149110Y-126348075D01*
X213980631Y-125941331D01*
X213736038Y-125575271D01*
X213424729Y-125263962D01*
X213058669Y-125019369D01*
X212651925Y-124850890D01*
X212220128Y-124765000D01*
X211779872Y-124765000D01*
X211348075Y-124850890D01*
X210941331Y-125019369D01*
X210575271Y-125263962D01*
X210263962Y-125575271D01*
X210019369Y-125941331D01*
X209850890Y-126348075D01*
X209765000Y-126779872D01*
X206998072Y-126779872D01*
X206998072Y-121245374D01*
X209534231Y-121245374D01*
X209834411Y-121683828D01*
X210413356Y-121994296D01*
X211041746Y-122185852D01*
X211695431Y-122251134D01*
X212349293Y-122187634D01*
X212978203Y-121997792D01*
X213557992Y-121688904D01*
X213565589Y-121683828D01*
X213865769Y-121245374D01*
X211700000Y-119079605D01*
X209534231Y-121245374D01*
X206998072Y-121245374D01*
X206998072Y-118895431D01*
X208348866Y-118895431D01*
X208412366Y-119549293D01*
X208602208Y-120178203D01*
X208911096Y-120757992D01*
X208916172Y-120765589D01*
X209354626Y-121065769D01*
X211520395Y-118900000D01*
X209354626Y-116734231D01*
X208916172Y-117034411D01*
X208605704Y-117613356D01*
X208414148Y-118241746D01*
X208348866Y-118895431D01*
X206998072Y-118895431D01*
X206998072Y-116554626D01*
X209534231Y-116554626D01*
X211700000Y-118720395D01*
X213865769Y-116554626D01*
X213565589Y-116116172D01*
X212986644Y-115805704D01*
X212358254Y-115614148D01*
X211704569Y-115548866D01*
X211050707Y-115612366D01*
X210421797Y-115802208D01*
X209842008Y-116111096D01*
X209834411Y-116116172D01*
X209534231Y-116554626D01*
X206998072Y-116554626D01*
X206998072Y-113260000D01*
X206985812Y-113135518D01*
X206949502Y-113015820D01*
X206890537Y-112905506D01*
X206811185Y-112808815D01*
X206714494Y-112729463D01*
X206604180Y-112670498D01*
X206484482Y-112634188D01*
X206360000Y-112621928D01*
X196360000Y-112621928D01*
X196235518Y-112634188D01*
X196115820Y-112670498D01*
X196005506Y-112729463D01*
X195908815Y-112808815D01*
X195829463Y-112905506D01*
X195770498Y-113015820D01*
X195734188Y-113135518D01*
X195721928Y-113260000D01*
X195721928Y-129260000D01*
X195729807Y-129340000D01*
X192110078Y-129340000D01*
X192649293Y-129287634D01*
X193278203Y-129097792D01*
X193857992Y-128788904D01*
X193865589Y-128783828D01*
X194165769Y-128345374D01*
X192000000Y-126179605D01*
X189834231Y-128345374D01*
X190134411Y-128783828D01*
X190713356Y-129094296D01*
X191341746Y-129285852D01*
X191883943Y-129340000D01*
X131654472Y-129340000D01*
X135322941Y-125671531D01*
X157165000Y-125671531D01*
X157165000Y-126328469D01*
X157293162Y-126972784D01*
X157544561Y-127579715D01*
X157909536Y-128125939D01*
X158374061Y-128590464D01*
X158920285Y-128955439D01*
X159527216Y-129206838D01*
X160171531Y-129335000D01*
X160828469Y-129335000D01*
X161472784Y-129206838D01*
X162079715Y-128955439D01*
X162625939Y-128590464D01*
X163090464Y-128125939D01*
X163455439Y-127579715D01*
X163706838Y-126972784D01*
X163835000Y-126328469D01*
X163835000Y-125671531D01*
X167165000Y-125671531D01*
X167165000Y-126328469D01*
X167293162Y-126972784D01*
X167544561Y-127579715D01*
X167909536Y-128125939D01*
X168374061Y-128590464D01*
X168920285Y-128955439D01*
X169527216Y-129206838D01*
X170171531Y-129335000D01*
X170828469Y-129335000D01*
X171472784Y-129206838D01*
X172079715Y-128955439D01*
X172625939Y-128590464D01*
X173090464Y-128125939D01*
X173455439Y-127579715D01*
X173706838Y-126972784D01*
X173835000Y-126328469D01*
X173835000Y-125671531D01*
X178665000Y-125671531D01*
X178665000Y-126328469D01*
X178793162Y-126972784D01*
X179044561Y-127579715D01*
X179409536Y-128125939D01*
X179874061Y-128590464D01*
X180420285Y-128955439D01*
X181027216Y-129206838D01*
X181671531Y-129335000D01*
X182328469Y-129335000D01*
X182972784Y-129206838D01*
X183579715Y-128955439D01*
X184125939Y-128590464D01*
X184590464Y-128125939D01*
X184955439Y-127579715D01*
X185206838Y-126972784D01*
X185335000Y-126328469D01*
X185335000Y-125995431D01*
X188648866Y-125995431D01*
X188712366Y-126649293D01*
X188902208Y-127278203D01*
X189211096Y-127857992D01*
X189216172Y-127865589D01*
X189654626Y-128165769D01*
X191820395Y-126000000D01*
X192179605Y-126000000D01*
X194345374Y-128165769D01*
X194783828Y-127865589D01*
X195094296Y-127286644D01*
X195285852Y-126658254D01*
X195351134Y-126004569D01*
X195287634Y-125350707D01*
X195097792Y-124721797D01*
X194788904Y-124142008D01*
X194783828Y-124134411D01*
X194345374Y-123834231D01*
X192179605Y-126000000D01*
X191820395Y-126000000D01*
X189654626Y-123834231D01*
X189216172Y-124134411D01*
X188905704Y-124713356D01*
X188714148Y-125341746D01*
X188648866Y-125995431D01*
X185335000Y-125995431D01*
X185335000Y-125671531D01*
X185206838Y-125027216D01*
X184955439Y-124420285D01*
X184590464Y-123874061D01*
X184371029Y-123654626D01*
X189834231Y-123654626D01*
X192000000Y-125820395D01*
X194165769Y-123654626D01*
X193865589Y-123216172D01*
X193286644Y-122905704D01*
X192658254Y-122714148D01*
X192004569Y-122648866D01*
X191350707Y-122712366D01*
X190721797Y-122902208D01*
X190142008Y-123211096D01*
X190134411Y-123216172D01*
X189834231Y-123654626D01*
X184371029Y-123654626D01*
X184125939Y-123409536D01*
X183579715Y-123044561D01*
X182972784Y-122793162D01*
X182328469Y-122665000D01*
X181671531Y-122665000D01*
X181027216Y-122793162D01*
X180420285Y-123044561D01*
X179874061Y-123409536D01*
X179409536Y-123874061D01*
X179044561Y-124420285D01*
X178793162Y-125027216D01*
X178665000Y-125671531D01*
X173835000Y-125671531D01*
X173706838Y-125027216D01*
X173455439Y-124420285D01*
X173090464Y-123874061D01*
X172625939Y-123409536D01*
X172079715Y-123044561D01*
X171472784Y-122793162D01*
X170828469Y-122665000D01*
X170171531Y-122665000D01*
X169527216Y-122793162D01*
X168920285Y-123044561D01*
X168374061Y-123409536D01*
X167909536Y-123874061D01*
X167544561Y-124420285D01*
X167293162Y-125027216D01*
X167165000Y-125671531D01*
X163835000Y-125671531D01*
X163706838Y-125027216D01*
X163455439Y-124420285D01*
X163090464Y-123874061D01*
X162625939Y-123409536D01*
X162079715Y-123044561D01*
X161472784Y-122793162D01*
X160828469Y-122665000D01*
X160171531Y-122665000D01*
X159527216Y-122793162D01*
X158920285Y-123044561D01*
X158374061Y-123409536D01*
X157909536Y-123874061D01*
X157544561Y-124420285D01*
X157293162Y-125027216D01*
X157165000Y-125671531D01*
X135322941Y-125671531D01*
X135442845Y-125551627D01*
X135548102Y-125595226D01*
X135748061Y-125635000D01*
X135951939Y-125635000D01*
X136151898Y-125595226D01*
X136340256Y-125517205D01*
X136509774Y-125403937D01*
X136653937Y-125259774D01*
X136767205Y-125090256D01*
X136845226Y-124901898D01*
X136885000Y-124701939D01*
X136885000Y-124498061D01*
X136845226Y-124298102D01*
X136767205Y-124109744D01*
X136653937Y-123940226D01*
X136509774Y-123796063D01*
X136340256Y-123682795D01*
X136151898Y-123604774D01*
X135951939Y-123565000D01*
X135748061Y-123565000D01*
X135548102Y-123604774D01*
X135359744Y-123682795D01*
X135190226Y-123796063D01*
X135163154Y-123823135D01*
X135130428Y-123826358D01*
X134982455Y-123871246D01*
X134846082Y-123944138D01*
X134726551Y-124042236D01*
X134701968Y-124072190D01*
X130109158Y-128665000D01*
X115014388Y-128665000D01*
X115125939Y-128590464D01*
X115590464Y-128125939D01*
X115955439Y-127579715D01*
X116206838Y-126972784D01*
X116335000Y-126328469D01*
X116335000Y-125671531D01*
X116206838Y-125027216D01*
X115955439Y-124420285D01*
X115675533Y-124001376D01*
X116451973Y-124777816D01*
X116476551Y-124807764D01*
X116506499Y-124832342D01*
X116506502Y-124832345D01*
X116529099Y-124850890D01*
X116596082Y-124905862D01*
X116732455Y-124978754D01*
X116835460Y-125010000D01*
X116880427Y-125023641D01*
X116894805Y-125025057D01*
X116913153Y-125026864D01*
X116940226Y-125053937D01*
X117109744Y-125167205D01*
X117298102Y-125245226D01*
X117498061Y-125285000D01*
X117701939Y-125285000D01*
X117901898Y-125245226D01*
X118090256Y-125167205D01*
X118259774Y-125053937D01*
X118403937Y-124909774D01*
X118517205Y-124740256D01*
X118595226Y-124551898D01*
X118635000Y-124351939D01*
X118635000Y-124148061D01*
X118595226Y-123948102D01*
X118517205Y-123759744D01*
X118403937Y-123590226D01*
X118259774Y-123446063D01*
X118090256Y-123332795D01*
X117901898Y-123254774D01*
X117701939Y-123215000D01*
X117498061Y-123215000D01*
X117298102Y-123254774D01*
X117192846Y-123298373D01*
X115033741Y-121139268D01*
X135165000Y-121139268D01*
X135165000Y-121500732D01*
X135235518Y-121855250D01*
X135373844Y-122189199D01*
X135574662Y-122489744D01*
X135830256Y-122745338D01*
X136130801Y-122946156D01*
X136464750Y-123084482D01*
X136819268Y-123155000D01*
X137180732Y-123155000D01*
X137535250Y-123084482D01*
X137869199Y-122946156D01*
X138169744Y-122745338D01*
X138425338Y-122489744D01*
X138626156Y-122189199D01*
X138764482Y-121855250D01*
X138835000Y-121500732D01*
X138835000Y-121139268D01*
X138764482Y-120784750D01*
X138626156Y-120450801D01*
X138425338Y-120150256D01*
X138169744Y-119894662D01*
X137869199Y-119693844D01*
X137535250Y-119555518D01*
X137180732Y-119485000D01*
X136819268Y-119485000D01*
X136464750Y-119555518D01*
X136130801Y-119693844D01*
X135830256Y-119894662D01*
X135574662Y-120150256D01*
X135373844Y-120450801D01*
X135235518Y-120784750D01*
X135165000Y-121139268D01*
X115033741Y-121139268D01*
X111914920Y-118020447D01*
X145959158Y-118020447D01*
X146103135Y-118325770D01*
X146460892Y-118506597D01*
X146847053Y-118614155D01*
X147246777Y-118644310D01*
X147644704Y-118595904D01*
X148025540Y-118470795D01*
X148296865Y-118325770D01*
X148440842Y-118020447D01*
X147200000Y-116779605D01*
X145959158Y-118020447D01*
X111914920Y-118020447D01*
X109116662Y-115222190D01*
X109092079Y-115192236D01*
X108972548Y-115094138D01*
X108836175Y-115021246D01*
X108688202Y-114976359D01*
X108572876Y-114965000D01*
X108572868Y-114965000D01*
X108534315Y-114961203D01*
X108495762Y-114965000D01*
X94702724Y-114965000D01*
X94787540Y-114760236D01*
X94835000Y-114521637D01*
X94835000Y-114278363D01*
X94787540Y-114039764D01*
X94694443Y-113815008D01*
X94635000Y-113726045D01*
X94635000Y-113414497D01*
X99795908Y-108253590D01*
X99835396Y-108221183D01*
X99894545Y-108149110D01*
X99964734Y-108063585D01*
X100060841Y-107883781D01*
X100085647Y-107802007D01*
X100120024Y-107688682D01*
X100135000Y-107536625D01*
X100135000Y-107536622D01*
X100140007Y-107485787D01*
X100135000Y-107434952D01*
X100135000Y-106073955D01*
X100194443Y-105984992D01*
X100287540Y-105760236D01*
X100322213Y-105585923D01*
X106632197Y-111895908D01*
X106664604Y-111935396D01*
X106704092Y-111967803D01*
X106822202Y-112064734D01*
X106895547Y-112103937D01*
X107002007Y-112160841D01*
X107197105Y-112220024D01*
X107349162Y-112235000D01*
X107349171Y-112235000D01*
X107399999Y-112240006D01*
X107450827Y-112235000D01*
X123749172Y-112235000D01*
X123800000Y-112240006D01*
X123850828Y-112235000D01*
X123850838Y-112235000D01*
X124002895Y-112220024D01*
X124197993Y-112160841D01*
X124377797Y-112064734D01*
X124535396Y-111935396D01*
X124567807Y-111895903D01*
X126889669Y-109574042D01*
X126865000Y-109698061D01*
X126865000Y-109901939D01*
X126904774Y-110101898D01*
X126982795Y-110290256D01*
X127065001Y-110413286D01*
X127065000Y-115186715D01*
X126982795Y-115309744D01*
X126904774Y-115498102D01*
X126865000Y-115698061D01*
X126865000Y-115901939D01*
X126904774Y-116101898D01*
X126982795Y-116290256D01*
X127096063Y-116459774D01*
X127240226Y-116603937D01*
X127409744Y-116717205D01*
X127598102Y-116795226D01*
X127798061Y-116835000D01*
X128001939Y-116835000D01*
X128201898Y-116795226D01*
X128390256Y-116717205D01*
X128559774Y-116603937D01*
X128703937Y-116459774D01*
X128817205Y-116290256D01*
X128895226Y-116101898D01*
X128935000Y-115901939D01*
X128935000Y-115698061D01*
X128895226Y-115498102D01*
X128817205Y-115309744D01*
X128735000Y-115186715D01*
X128735000Y-110413285D01*
X128817205Y-110290256D01*
X128895226Y-110101898D01*
X128935000Y-109901939D01*
X128935000Y-109698061D01*
X128895226Y-109498102D01*
X128817205Y-109309744D01*
X128767263Y-109235000D01*
X131855605Y-109235000D01*
X132016508Y-109395903D01*
X132048919Y-109435396D01*
X132206518Y-109564734D01*
X132386322Y-109660841D01*
X132581420Y-109720024D01*
X132733477Y-109735000D01*
X132733480Y-109735000D01*
X132784315Y-109740007D01*
X132835150Y-109735000D01*
X132921290Y-109735000D01*
X132982192Y-109795902D01*
X133014603Y-109835395D01*
X133172202Y-109964733D01*
X133352006Y-110060840D01*
X133547104Y-110120023D01*
X133699161Y-110134999D01*
X133699170Y-110134999D01*
X133749998Y-110140005D01*
X133800826Y-110134999D01*
X138771289Y-110134999D01*
X139016349Y-110380059D01*
X139009744Y-110382795D01*
X138840226Y-110496063D01*
X138696063Y-110640226D01*
X138582795Y-110809744D01*
X138504774Y-110998102D01*
X138465000Y-111198061D01*
X138465000Y-111401939D01*
X138504774Y-111601898D01*
X138582795Y-111790256D01*
X138665001Y-111913286D01*
X138665000Y-113658981D01*
X138660960Y-113700000D01*
X138665000Y-113741018D01*
X138677082Y-113863688D01*
X138724828Y-114021086D01*
X138802364Y-114166145D01*
X138906709Y-114293291D01*
X138938579Y-114319446D01*
X141375908Y-116756775D01*
X141404774Y-116901898D01*
X141482795Y-117090256D01*
X141596063Y-117259774D01*
X141740226Y-117403937D01*
X141909744Y-117517205D01*
X142098102Y-117595226D01*
X142298061Y-117635000D01*
X142501939Y-117635000D01*
X142701898Y-117595226D01*
X142890256Y-117517205D01*
X143059774Y-117403937D01*
X143203937Y-117259774D01*
X143317205Y-117090256D01*
X143395226Y-116901898D01*
X143435000Y-116701939D01*
X143435000Y-116646777D01*
X145155690Y-116646777D01*
X145204096Y-117044704D01*
X145329205Y-117425540D01*
X145474230Y-117696865D01*
X145779553Y-117840842D01*
X147020395Y-116600000D01*
X147379605Y-116600000D01*
X148620447Y-117840842D01*
X148925770Y-117696865D01*
X149106597Y-117339108D01*
X149214155Y-116952947D01*
X149244310Y-116553223D01*
X149195904Y-116155296D01*
X149070795Y-115774460D01*
X148925770Y-115503135D01*
X148620447Y-115359158D01*
X147379605Y-116600000D01*
X147020395Y-116600000D01*
X145779553Y-115359158D01*
X145474230Y-115503135D01*
X145293403Y-115860892D01*
X145185845Y-116247053D01*
X145155690Y-116646777D01*
X143435000Y-116646777D01*
X143435000Y-116498061D01*
X143395226Y-116298102D01*
X143317205Y-116109744D01*
X143203937Y-115940226D01*
X143059774Y-115796063D01*
X142890256Y-115682795D01*
X142701898Y-115604774D01*
X142556775Y-115575908D01*
X142160420Y-115179553D01*
X145959158Y-115179553D01*
X147200000Y-116420395D01*
X148440842Y-115179553D01*
X148296865Y-114874230D01*
X147939108Y-114693403D01*
X147552947Y-114585845D01*
X147153223Y-114555690D01*
X146755296Y-114604096D01*
X146374460Y-114729205D01*
X146103135Y-114874230D01*
X145959158Y-115179553D01*
X142160420Y-115179553D01*
X140335000Y-113354133D01*
X140335000Y-111913285D01*
X140417205Y-111790256D01*
X140419941Y-111783651D01*
X142332197Y-113695908D01*
X142364604Y-113735396D01*
X142404092Y-113767803D01*
X142522202Y-113864734D01*
X142580911Y-113896114D01*
X142702007Y-113960841D01*
X142897105Y-114020024D01*
X143049162Y-114035000D01*
X143049171Y-114035000D01*
X143099999Y-114040006D01*
X143150827Y-114035000D01*
X175684629Y-114035000D01*
X175774662Y-114169744D01*
X176030256Y-114425338D01*
X176330801Y-114626156D01*
X176664750Y-114764482D01*
X177019268Y-114835000D01*
X177380732Y-114835000D01*
X177735250Y-114764482D01*
X177939080Y-114680053D01*
X177754133Y-114865000D01*
X170841018Y-114865000D01*
X170800000Y-114860960D01*
X170758982Y-114865000D01*
X170758981Y-114865000D01*
X170636311Y-114877082D01*
X170478913Y-114924828D01*
X170333854Y-115002364D01*
X170270023Y-115054749D01*
X170263900Y-115059774D01*
X170206709Y-115106709D01*
X170180563Y-115138568D01*
X169238578Y-116080555D01*
X169206709Y-116106709D01*
X169139805Y-116188233D01*
X169102364Y-116233855D01*
X169024828Y-116378914D01*
X168977082Y-116536312D01*
X168960960Y-116700000D01*
X168965000Y-116741019D01*
X168965001Y-118258972D01*
X168960960Y-118300000D01*
X168977082Y-118463688D01*
X169024828Y-118621086D01*
X169102364Y-118766145D01*
X169125907Y-118794832D01*
X169206710Y-118893291D01*
X169238574Y-118919441D01*
X170380558Y-120061426D01*
X170406709Y-120093291D01*
X170533854Y-120197636D01*
X170678913Y-120275172D01*
X170836311Y-120322918D01*
X170958981Y-120335000D01*
X170958991Y-120335000D01*
X170999999Y-120339039D01*
X171041007Y-120335000D01*
X181086715Y-120335000D01*
X181209744Y-120417205D01*
X181398102Y-120495226D01*
X181598061Y-120535000D01*
X181801939Y-120535000D01*
X181942492Y-120507042D01*
X181904774Y-120598102D01*
X181865000Y-120798061D01*
X181865000Y-121001939D01*
X181904774Y-121201898D01*
X181982795Y-121390256D01*
X182096063Y-121559774D01*
X182240226Y-121703937D01*
X182409744Y-121817205D01*
X182598102Y-121895226D01*
X182798061Y-121935000D01*
X183001939Y-121935000D01*
X183201898Y-121895226D01*
X183390256Y-121817205D01*
X183514423Y-121734240D01*
X183629374Y-121722918D01*
X183786772Y-121675172D01*
X183931831Y-121597636D01*
X184058976Y-121493291D01*
X184085131Y-121461421D01*
X185011553Y-120535000D01*
X186558982Y-120535000D01*
X186600000Y-120539040D01*
X186641018Y-120535000D01*
X186641019Y-120535000D01*
X186763689Y-120522918D01*
X186921087Y-120475172D01*
X187066146Y-120397636D01*
X187193291Y-120293291D01*
X187219446Y-120261421D01*
X189961428Y-117519440D01*
X189993291Y-117493291D01*
X190097636Y-117366146D01*
X190172730Y-117225655D01*
X190309744Y-117317205D01*
X190498102Y-117395226D01*
X190698061Y-117435000D01*
X190901939Y-117435000D01*
X191101898Y-117395226D01*
X191290256Y-117317205D01*
X191459774Y-117203937D01*
X191603937Y-117059774D01*
X191717205Y-116890256D01*
X191795226Y-116701898D01*
X191835000Y-116501939D01*
X191835000Y-116475157D01*
X195925158Y-112385000D01*
X204295762Y-112385000D01*
X204334315Y-112388797D01*
X204372868Y-112385000D01*
X204372876Y-112385000D01*
X204488202Y-112373641D01*
X204636175Y-112328754D01*
X204772548Y-112255862D01*
X204892079Y-112157764D01*
X204916662Y-112127810D01*
X205992846Y-111051627D01*
X206098102Y-111095226D01*
X206298061Y-111135000D01*
X206501939Y-111135000D01*
X206701898Y-111095226D01*
X206890256Y-111017205D01*
X207059774Y-110903937D01*
X207203937Y-110759774D01*
X207317205Y-110590256D01*
X207395226Y-110401898D01*
X207435000Y-110201939D01*
X207435000Y-109998061D01*
X207395226Y-109798102D01*
X207317205Y-109609744D01*
X207203937Y-109440226D01*
X207059774Y-109296063D01*
X206890256Y-109182795D01*
X206701898Y-109104774D01*
X206501939Y-109065000D01*
X206298061Y-109065000D01*
X206098102Y-109104774D01*
X205909744Y-109182795D01*
X205740226Y-109296063D01*
X205713153Y-109323136D01*
X205694805Y-109324943D01*
X205680427Y-109326359D01*
X205655720Y-109333854D01*
X205532455Y-109371246D01*
X205396082Y-109444138D01*
X205353708Y-109478914D01*
X205306502Y-109517655D01*
X205306499Y-109517658D01*
X205276551Y-109542236D01*
X205251973Y-109572184D01*
X204009158Y-110815000D01*
X195638552Y-110815000D01*
X195599999Y-110811203D01*
X195561446Y-110815000D01*
X195561439Y-110815000D01*
X195460490Y-110824943D01*
X195446112Y-110826359D01*
X195417627Y-110835000D01*
X195298140Y-110871246D01*
X195161767Y-110944138D01*
X195101876Y-110993290D01*
X195072187Y-111017655D01*
X195072184Y-111017658D01*
X195042236Y-111042236D01*
X195017658Y-111072184D01*
X190724843Y-115365000D01*
X190698061Y-115365000D01*
X190498102Y-115404774D01*
X190309744Y-115482795D01*
X190235000Y-115532737D01*
X190235000Y-110745867D01*
X193506353Y-107474514D01*
X197232500Y-107474514D01*
X197232500Y-107725485D01*
X197255470Y-107958703D01*
X197346245Y-108257948D01*
X197493655Y-108533734D01*
X197692037Y-108775463D01*
X197933765Y-108973845D01*
X198209551Y-109121255D01*
X198508796Y-109212030D01*
X198820000Y-109242681D01*
X199131203Y-109212030D01*
X199430448Y-109121255D01*
X199706234Y-108973845D01*
X199947963Y-108775463D01*
X200090000Y-108602391D01*
X200232037Y-108775463D01*
X200473765Y-108973845D01*
X200749551Y-109121255D01*
X201048796Y-109212030D01*
X201360000Y-109242681D01*
X201671203Y-109212030D01*
X201970448Y-109121255D01*
X202246234Y-108973845D01*
X202372095Y-108870553D01*
X202416963Y-108954494D01*
X202496315Y-109051185D01*
X202593006Y-109130537D01*
X202703320Y-109189502D01*
X202823018Y-109225812D01*
X202947500Y-109238072D01*
X204852500Y-109238072D01*
X204976982Y-109225812D01*
X205096680Y-109189502D01*
X205206994Y-109130537D01*
X205303685Y-109051185D01*
X205383037Y-108954494D01*
X205442002Y-108844180D01*
X205478312Y-108724482D01*
X205490572Y-108600000D01*
X205490572Y-106600000D01*
X205478312Y-106475518D01*
X205442002Y-106355820D01*
X205383037Y-106245506D01*
X205303685Y-106148815D01*
X205206994Y-106069463D01*
X205096680Y-106010498D01*
X204976982Y-105974188D01*
X204852500Y-105961928D01*
X202947500Y-105961928D01*
X202823018Y-105974188D01*
X202703320Y-106010498D01*
X202593006Y-106069463D01*
X202496315Y-106148815D01*
X202416963Y-106245506D01*
X202372095Y-106329446D01*
X202246235Y-106226155D01*
X201970449Y-106078745D01*
X201671204Y-105987970D01*
X201360000Y-105957319D01*
X201048797Y-105987970D01*
X200749552Y-106078745D01*
X200473766Y-106226155D01*
X200232037Y-106424537D01*
X200090000Y-106597609D01*
X199947963Y-106424537D01*
X199706235Y-106226155D01*
X199430449Y-106078745D01*
X199131204Y-105987970D01*
X198820000Y-105957319D01*
X198508797Y-105987970D01*
X198209552Y-106078745D01*
X197933766Y-106226155D01*
X197692037Y-106424537D01*
X197493655Y-106666265D01*
X197346245Y-106942051D01*
X197255470Y-107241296D01*
X197232500Y-107474514D01*
X193506353Y-107474514D01*
X203261426Y-97719442D01*
X203293291Y-97693291D01*
X203319442Y-97661426D01*
X204361428Y-96619440D01*
X204393291Y-96593291D01*
X204497636Y-96466146D01*
X204575172Y-96321087D01*
X204622918Y-96163689D01*
X204635000Y-96041019D01*
X204635000Y-96041009D01*
X204639039Y-96000001D01*
X204635000Y-95958993D01*
X204635000Y-93013285D01*
X204717205Y-92890256D01*
X204795226Y-92701898D01*
X204835000Y-92501939D01*
X204835000Y-92298061D01*
X204795226Y-92098102D01*
X204717205Y-91909744D01*
X204603937Y-91740226D01*
X204459774Y-91596063D01*
X204290256Y-91482795D01*
X204101898Y-91404774D01*
X203901939Y-91365000D01*
X203698061Y-91365000D01*
X203498102Y-91404774D01*
X203309744Y-91482795D01*
X203140226Y-91596063D01*
X202996063Y-91740226D01*
X202882795Y-91909744D01*
X202804774Y-92098102D01*
X202765000Y-92298061D01*
X202765000Y-92501939D01*
X202804774Y-92701898D01*
X202882795Y-92890256D01*
X202965001Y-93013286D01*
X202965000Y-95654132D01*
X202354132Y-96265000D01*
X201311554Y-96265000D01*
X199985131Y-94938579D01*
X199958976Y-94906709D01*
X199831831Y-94802364D01*
X199686772Y-94724828D01*
X199529374Y-94677082D01*
X199414423Y-94665760D01*
X199290256Y-94582795D01*
X199101898Y-94504774D01*
X198901939Y-94465000D01*
X198698061Y-94465000D01*
X198498102Y-94504774D01*
X198309744Y-94582795D01*
X198140226Y-94696063D01*
X197996063Y-94840226D01*
X197882795Y-95009744D01*
X197804774Y-95198102D01*
X197765000Y-95398061D01*
X197765000Y-95601939D01*
X197804774Y-95801898D01*
X197882795Y-95990256D01*
X197996063Y-96159774D01*
X198140226Y-96303937D01*
X198309744Y-96417205D01*
X198498102Y-96495226D01*
X198698061Y-96535000D01*
X198901939Y-96535000D01*
X199101898Y-96495226D01*
X199157155Y-96472338D01*
X200346248Y-97661432D01*
X200372394Y-97693291D01*
X200499539Y-97797636D01*
X200644598Y-97875172D01*
X200720834Y-97898298D01*
X192235000Y-106384133D01*
X192235000Y-91211552D01*
X194561427Y-88885126D01*
X194593291Y-88858976D01*
X194697636Y-88731831D01*
X194775172Y-88586772D01*
X194822918Y-88429374D01*
X194834240Y-88314423D01*
X194917205Y-88190256D01*
X194995226Y-88001898D01*
X195035000Y-87801939D01*
X195035000Y-87775157D01*
X196025158Y-86785000D01*
X198121289Y-86785000D01*
X198140226Y-86803937D01*
X198309744Y-86917205D01*
X198498102Y-86995226D01*
X198698061Y-87035000D01*
X198901939Y-87035000D01*
X199101898Y-86995226D01*
X199290256Y-86917205D01*
X199459774Y-86803937D01*
X199486847Y-86776864D01*
X199519572Y-86773641D01*
X199667545Y-86728754D01*
X199803918Y-86655862D01*
X199923449Y-86557764D01*
X199948032Y-86527810D01*
X200840842Y-85635000D01*
X200901939Y-85635000D01*
X201101898Y-85595226D01*
X201290256Y-85517205D01*
X201459774Y-85403937D01*
X201603937Y-85259774D01*
X201717205Y-85090256D01*
X201795226Y-84901898D01*
X201835000Y-84701939D01*
X201835000Y-84498061D01*
X201795226Y-84298102D01*
X201717205Y-84109744D01*
X201603937Y-83940226D01*
X201459774Y-83796063D01*
X201290256Y-83682795D01*
X201101898Y-83604774D01*
X200901939Y-83565000D01*
X200698061Y-83565000D01*
X200498102Y-83604774D01*
X200309744Y-83682795D01*
X200140226Y-83796063D01*
X199996063Y-83940226D01*
X199882795Y-84109744D01*
X199804774Y-84298102D01*
X199766870Y-84488658D01*
X199207155Y-85048373D01*
X199101898Y-85004774D01*
X198901939Y-84965000D01*
X198698061Y-84965000D01*
X198498102Y-85004774D01*
X198309744Y-85082795D01*
X198140226Y-85196063D01*
X198121289Y-85215000D01*
X195738552Y-85215000D01*
X195699999Y-85211203D01*
X195661446Y-85215000D01*
X195661439Y-85215000D01*
X195546113Y-85226359D01*
X195398140Y-85271246D01*
X195261767Y-85344138D01*
X195208334Y-85387990D01*
X195172187Y-85417655D01*
X195172184Y-85417658D01*
X195142236Y-85442236D01*
X195117658Y-85472184D01*
X193924843Y-86665000D01*
X193898061Y-86665000D01*
X193698102Y-86704774D01*
X193509744Y-86782795D01*
X193340226Y-86896063D01*
X193196063Y-87040226D01*
X193082795Y-87209744D01*
X193004774Y-87398102D01*
X192965000Y-87598061D01*
X192965000Y-87801939D01*
X193004774Y-88001898D01*
X193027662Y-88057155D01*
X190838579Y-90246239D01*
X190806709Y-90272394D01*
X190702365Y-90399539D01*
X190702364Y-90399540D01*
X190624828Y-90544599D01*
X190577082Y-90701997D01*
X190560960Y-90865685D01*
X190565000Y-90906704D01*
X190565001Y-106254131D01*
X188414591Y-108404541D01*
X188435000Y-108301939D01*
X188435000Y-108098061D01*
X188395226Y-107898102D01*
X188317205Y-107709744D01*
X188203937Y-107540226D01*
X188185000Y-107521289D01*
X188185000Y-105890842D01*
X189927816Y-104148027D01*
X189957764Y-104123449D01*
X189993624Y-104079755D01*
X190030353Y-104035000D01*
X190055862Y-104003918D01*
X190128754Y-103867545D01*
X190146293Y-103809728D01*
X190173641Y-103719573D01*
X190176864Y-103686847D01*
X190203937Y-103659774D01*
X190317205Y-103490256D01*
X190395226Y-103301898D01*
X190435000Y-103101939D01*
X190435000Y-102898061D01*
X190395226Y-102698102D01*
X190317205Y-102509744D01*
X190203937Y-102340226D01*
X190059774Y-102196063D01*
X189890256Y-102082795D01*
X189701898Y-102004774D01*
X189501939Y-101965000D01*
X189298061Y-101965000D01*
X189098102Y-102004774D01*
X188909744Y-102082795D01*
X188740226Y-102196063D01*
X188596063Y-102340226D01*
X188482795Y-102509744D01*
X188404774Y-102698102D01*
X188365000Y-102898061D01*
X188365000Y-103101939D01*
X188404774Y-103301898D01*
X188448373Y-103407154D01*
X186960532Y-104894996D01*
X186848918Y-104625537D01*
X186669987Y-104357748D01*
X186442252Y-104130013D01*
X186174463Y-103951082D01*
X185876912Y-103827832D01*
X185561033Y-103765000D01*
X185238967Y-103765000D01*
X184923088Y-103827832D01*
X184625537Y-103951082D01*
X184357748Y-104130013D01*
X184130013Y-104357748D01*
X184125167Y-104365000D01*
X184036614Y-104365000D01*
X183985786Y-104359994D01*
X183934958Y-104365000D01*
X183934949Y-104365000D01*
X183782892Y-104379976D01*
X183587794Y-104439159D01*
X183526134Y-104472117D01*
X183407989Y-104535266D01*
X183313596Y-104612733D01*
X183250391Y-104664604D01*
X183217984Y-104704092D01*
X182357077Y-105565000D01*
X174828711Y-105565000D01*
X174733298Y-105469588D01*
X174735000Y-105461033D01*
X174735000Y-105138967D01*
X174672168Y-104823088D01*
X174548918Y-104525537D01*
X174369987Y-104257748D01*
X174142252Y-104030013D01*
X173874463Y-103851082D01*
X173576912Y-103727832D01*
X173261033Y-103665000D01*
X172938967Y-103665000D01*
X172623088Y-103727832D01*
X172325537Y-103851082D01*
X172057748Y-104030013D01*
X171830013Y-104257748D01*
X171651082Y-104525537D01*
X171527832Y-104823088D01*
X171465000Y-105138967D01*
X171465000Y-105461033D01*
X171527832Y-105776912D01*
X171651082Y-106074463D01*
X171830013Y-106342252D01*
X172057748Y-106569987D01*
X172325537Y-106748918D01*
X172623088Y-106872168D01*
X172938967Y-106935000D01*
X173261033Y-106935000D01*
X173269588Y-106933298D01*
X173632197Y-107295908D01*
X173664604Y-107335396D01*
X173704092Y-107367803D01*
X173822202Y-107464734D01*
X173856133Y-107482870D01*
X174002007Y-107560841D01*
X174197105Y-107620024D01*
X174349162Y-107635000D01*
X174349165Y-107635000D01*
X174400000Y-107640007D01*
X174450835Y-107635000D01*
X179684132Y-107635000D01*
X178938578Y-108380555D01*
X178906709Y-108406709D01*
X178805497Y-108530038D01*
X178802364Y-108533855D01*
X178724828Y-108678914D01*
X178677082Y-108836312D01*
X178660960Y-109000000D01*
X178665000Y-109041019D01*
X178665001Y-111889615D01*
X178625338Y-111830256D01*
X178369744Y-111574662D01*
X178069199Y-111373844D01*
X177735250Y-111235518D01*
X177380732Y-111165000D01*
X177019268Y-111165000D01*
X176664750Y-111235518D01*
X176330801Y-111373844D01*
X176030256Y-111574662D01*
X175774662Y-111830256D01*
X175684629Y-111965000D01*
X143528711Y-111965000D01*
X139967806Y-108404096D01*
X139935395Y-108364603D01*
X139777796Y-108235265D01*
X139597992Y-108139158D01*
X139402894Y-108079975D01*
X139250837Y-108064999D01*
X139250827Y-108064999D01*
X139199999Y-108059993D01*
X139149171Y-108064999D01*
X134178709Y-108064999D01*
X134153939Y-108040229D01*
X134153937Y-108040226D01*
X134117803Y-108004092D01*
X134085396Y-107964604D01*
X134045908Y-107932197D01*
X134009774Y-107896063D01*
X133967284Y-107867672D01*
X133927797Y-107835266D01*
X133882746Y-107811186D01*
X133840256Y-107782795D01*
X133793042Y-107763238D01*
X133747993Y-107739159D01*
X133699113Y-107724331D01*
X133651898Y-107704774D01*
X133601777Y-107694804D01*
X133552895Y-107679976D01*
X133502057Y-107674969D01*
X133451939Y-107665000D01*
X133400828Y-107665000D01*
X133350000Y-107659994D01*
X133299172Y-107665000D01*
X133213025Y-107665000D01*
X133052122Y-107504097D01*
X133019711Y-107464604D01*
X132862112Y-107335266D01*
X132682308Y-107239159D01*
X132487210Y-107179976D01*
X132335153Y-107165000D01*
X132335143Y-107165000D01*
X132284315Y-107159994D01*
X132233487Y-107165000D01*
X126850835Y-107165000D01*
X126800000Y-107159993D01*
X126749165Y-107165000D01*
X126749162Y-107165000D01*
X126597105Y-107179976D01*
X126402007Y-107239159D01*
X126353662Y-107265000D01*
X126222202Y-107335266D01*
X126113192Y-107424729D01*
X126064604Y-107464604D01*
X126032197Y-107504092D01*
X123371290Y-110165000D01*
X121178270Y-110165000D01*
X121215161Y-110128874D01*
X121221034Y-110121773D01*
X121344384Y-109970531D01*
X121377477Y-109920723D01*
X121411284Y-109871349D01*
X121415667Y-109863243D01*
X121507292Y-109690920D01*
X121530090Y-109635608D01*
X121553652Y-109580634D01*
X121556377Y-109571831D01*
X121612786Y-109384994D01*
X121624405Y-109326314D01*
X121636842Y-109267804D01*
X121637805Y-109258639D01*
X121656850Y-109064406D01*
X121656850Y-109064402D01*
X121660000Y-109032419D01*
X121660000Y-105779872D01*
X121765000Y-105779872D01*
X121765000Y-106220128D01*
X121850890Y-106651925D01*
X122019369Y-107058669D01*
X122263962Y-107424729D01*
X122575271Y-107736038D01*
X122941331Y-107980631D01*
X123348075Y-108149110D01*
X123779872Y-108235000D01*
X124220128Y-108235000D01*
X124651925Y-108149110D01*
X125058669Y-107980631D01*
X125424729Y-107736038D01*
X125736038Y-107424729D01*
X125980631Y-107058669D01*
X126149110Y-106651925D01*
X126235000Y-106220128D01*
X126235000Y-105779872D01*
X126149110Y-105348075D01*
X125980631Y-104941331D01*
X125736038Y-104575271D01*
X125424729Y-104263962D01*
X125058669Y-104019369D01*
X124651925Y-103850890D01*
X124220128Y-103765000D01*
X123779872Y-103765000D01*
X123348075Y-103850890D01*
X122941331Y-104019369D01*
X122575271Y-104263962D01*
X122263962Y-104575271D01*
X122019369Y-104941331D01*
X121850890Y-105348075D01*
X121765000Y-105779872D01*
X121660000Y-105779872D01*
X121660000Y-104032279D01*
X121669580Y-103934576D01*
X121688580Y-103871644D01*
X121719445Y-103813595D01*
X121760989Y-103762657D01*
X121811644Y-103720752D01*
X121869471Y-103689485D01*
X121932272Y-103670044D01*
X122027835Y-103660000D01*
X132032419Y-103660000D01*
X132060674Y-103657217D01*
X132066801Y-103657260D01*
X132075972Y-103656360D01*
X132270069Y-103635959D01*
X132328658Y-103623932D01*
X132387423Y-103612723D01*
X132396245Y-103610059D01*
X132582683Y-103552347D01*
X132637838Y-103529162D01*
X132693291Y-103506758D01*
X132701427Y-103502432D01*
X132873104Y-103409607D01*
X132922699Y-103376154D01*
X132972753Y-103343400D01*
X132979894Y-103337576D01*
X133130272Y-103213172D01*
X133172411Y-103170737D01*
X133215161Y-103128874D01*
X133221034Y-103121773D01*
X133344384Y-102970531D01*
X133377477Y-102920723D01*
X133411284Y-102871349D01*
X133415667Y-102863243D01*
X133507292Y-102690920D01*
X133530090Y-102635608D01*
X133553652Y-102580634D01*
X133556377Y-102571831D01*
X133612786Y-102384994D01*
X133624405Y-102326314D01*
X133636842Y-102267804D01*
X133637805Y-102258639D01*
X133656850Y-102064406D01*
X133656850Y-102064402D01*
X133660000Y-102032419D01*
X133660000Y-100819268D01*
X135165000Y-100819268D01*
X135165000Y-101180732D01*
X135235518Y-101535250D01*
X135373844Y-101869199D01*
X135574662Y-102169744D01*
X135830256Y-102425338D01*
X136130801Y-102626156D01*
X136464750Y-102764482D01*
X136819268Y-102835000D01*
X137180732Y-102835000D01*
X137535250Y-102764482D01*
X137869199Y-102626156D01*
X138169744Y-102425338D01*
X138425338Y-102169744D01*
X138626156Y-101869199D01*
X138764482Y-101535250D01*
X138835000Y-101180732D01*
X138835000Y-100819268D01*
X138764482Y-100464750D01*
X138626156Y-100130801D01*
X138425338Y-99830256D01*
X138169744Y-99574662D01*
X137869199Y-99373844D01*
X137535250Y-99235518D01*
X137180732Y-99165000D01*
X136819268Y-99165000D01*
X136464750Y-99235518D01*
X136130801Y-99373844D01*
X135830256Y-99574662D01*
X135574662Y-99830256D01*
X135373844Y-100130801D01*
X135235518Y-100464750D01*
X135165000Y-100819268D01*
X133660000Y-100819268D01*
X133660000Y-95967581D01*
X133657217Y-95939326D01*
X133657260Y-95933199D01*
X133656360Y-95924028D01*
X133635959Y-95729931D01*
X133623934Y-95671348D01*
X133612723Y-95612577D01*
X133610059Y-95603755D01*
X133552347Y-95417317D01*
X133529162Y-95362162D01*
X133506758Y-95306709D01*
X133502432Y-95298573D01*
X133409607Y-95126896D01*
X133376139Y-95077278D01*
X133343400Y-95027247D01*
X133337576Y-95020106D01*
X133213172Y-94869728D01*
X133170737Y-94827589D01*
X133128874Y-94784839D01*
X133121773Y-94778966D01*
X132970531Y-94655616D01*
X132920738Y-94622534D01*
X132871349Y-94588716D01*
X132863243Y-94584333D01*
X132690921Y-94492708D01*
X132635606Y-94469909D01*
X132580634Y-94446348D01*
X132571831Y-94443623D01*
X132384995Y-94387214D01*
X132326307Y-94375594D01*
X132267804Y-94363158D01*
X132258639Y-94362195D01*
X132064405Y-94343150D01*
X132064402Y-94343150D01*
X132032419Y-94340000D01*
X128637181Y-94340000D01*
X129050140Y-94119269D01*
X129527505Y-93727505D01*
X129919269Y-93250140D01*
X130210376Y-92705517D01*
X130389638Y-92114567D01*
X130435000Y-91654002D01*
X130435000Y-88345998D01*
X130389638Y-87885433D01*
X130210376Y-87294483D01*
X129919269Y-86749860D01*
X129527505Y-86272495D01*
X129050139Y-85880731D01*
X128637180Y-85660000D01*
X132032419Y-85660000D01*
X132060674Y-85657217D01*
X132066801Y-85657260D01*
X132075972Y-85656360D01*
X132270069Y-85635959D01*
X132328658Y-85623932D01*
X132387423Y-85612723D01*
X132396245Y-85610059D01*
X132582683Y-85552347D01*
X132637838Y-85529162D01*
X132693291Y-85506758D01*
X132701427Y-85502432D01*
X132873104Y-85409607D01*
X132922699Y-85376154D01*
X132972753Y-85343400D01*
X132979894Y-85337576D01*
X133130272Y-85213172D01*
X133172411Y-85170737D01*
X133215161Y-85128874D01*
X133221034Y-85121773D01*
X133344384Y-84970531D01*
X133344950Y-84969679D01*
X135825000Y-84969679D01*
X135825000Y-86130322D01*
X135848657Y-86370516D01*
X135942148Y-86678715D01*
X136093970Y-86962752D01*
X136298287Y-87211714D01*
X136547249Y-87416031D01*
X136831286Y-87567852D01*
X137139485Y-87661343D01*
X137460000Y-87692911D01*
X137780516Y-87661343D01*
X138088715Y-87567852D01*
X138372752Y-87416031D01*
X138621714Y-87211714D01*
X138730001Y-87079766D01*
X138838287Y-87211714D01*
X139087249Y-87416031D01*
X139371286Y-87567852D01*
X139679485Y-87661343D01*
X140000000Y-87692911D01*
X140320516Y-87661343D01*
X140628715Y-87567852D01*
X140912752Y-87416031D01*
X141161714Y-87211714D01*
X141270001Y-87079766D01*
X141378287Y-87211714D01*
X141627249Y-87416031D01*
X141911286Y-87567852D01*
X142219485Y-87661343D01*
X142540000Y-87692911D01*
X142860516Y-87661343D01*
X143168715Y-87567852D01*
X143452752Y-87416031D01*
X143701714Y-87211714D01*
X143906031Y-86962752D01*
X144057852Y-86678715D01*
X144151343Y-86370516D01*
X144175000Y-86130322D01*
X144175000Y-84969678D01*
X144151343Y-84729484D01*
X144057852Y-84421285D01*
X143906031Y-84137248D01*
X143701714Y-83888286D01*
X143452751Y-83683969D01*
X143168714Y-83532148D01*
X142860515Y-83438657D01*
X142540000Y-83407089D01*
X142219484Y-83438657D01*
X141911285Y-83532148D01*
X141627248Y-83683969D01*
X141378286Y-83888286D01*
X141270000Y-84020234D01*
X141161714Y-83888286D01*
X140912751Y-83683969D01*
X140628714Y-83532148D01*
X140320515Y-83438657D01*
X140000000Y-83407089D01*
X139679484Y-83438657D01*
X139371285Y-83532148D01*
X139087248Y-83683969D01*
X138838286Y-83888286D01*
X138730000Y-84020234D01*
X138621714Y-83888286D01*
X138372751Y-83683969D01*
X138088714Y-83532148D01*
X137780515Y-83438657D01*
X137460000Y-83407089D01*
X137139484Y-83438657D01*
X136831285Y-83532148D01*
X136547248Y-83683969D01*
X136298286Y-83888286D01*
X136093969Y-84137249D01*
X135942148Y-84421286D01*
X135848657Y-84729485D01*
X135825000Y-84969679D01*
X133344950Y-84969679D01*
X133377477Y-84920723D01*
X133411284Y-84871349D01*
X133415667Y-84863243D01*
X133507292Y-84690920D01*
X133530090Y-84635608D01*
X133553652Y-84580634D01*
X133556377Y-84571831D01*
X133612786Y-84384994D01*
X133624405Y-84326314D01*
X133636842Y-84267804D01*
X133637805Y-84258639D01*
X133656850Y-84064406D01*
X133656850Y-84064402D01*
X133660000Y-84032419D01*
X133660000Y-77967581D01*
X133657217Y-77939326D01*
X133657260Y-77933199D01*
X133656360Y-77924028D01*
X133635959Y-77729931D01*
X133623934Y-77671348D01*
X133612723Y-77612577D01*
X133610059Y-77603755D01*
X133552347Y-77417317D01*
X133529162Y-77362162D01*
X133506758Y-77306709D01*
X133502432Y-77298573D01*
X133409607Y-77126896D01*
X133376139Y-77077278D01*
X133343400Y-77027247D01*
X133337576Y-77020106D01*
X133213172Y-76869728D01*
X133170737Y-76827589D01*
X133128874Y-76784839D01*
X133121773Y-76778966D01*
X132970531Y-76655616D01*
X132920738Y-76622534D01*
X132871349Y-76588716D01*
X132863243Y-76584333D01*
X132690921Y-76492708D01*
X132635606Y-76469909D01*
X132580634Y-76446348D01*
X132571831Y-76443623D01*
X132384995Y-76387214D01*
X132326307Y-76375594D01*
X132267804Y-76363158D01*
X132258639Y-76362195D01*
X132064405Y-76343150D01*
X132064402Y-76343150D01*
X132032419Y-76340000D01*
X122032279Y-76340000D01*
X121934576Y-76330420D01*
X121871643Y-76311420D01*
X121813594Y-76280554D01*
X121762657Y-76239011D01*
X121720752Y-76188356D01*
X121689485Y-76130529D01*
X121670044Y-76067728D01*
X121660000Y-75972165D01*
X121660000Y-73779872D01*
X121765000Y-73779872D01*
X121765000Y-74220128D01*
X121850890Y-74651925D01*
X122019369Y-75058669D01*
X122263962Y-75424729D01*
X122575271Y-75736038D01*
X122941331Y-75980631D01*
X123348075Y-76149110D01*
X123779872Y-76235000D01*
X124220128Y-76235000D01*
X124651925Y-76149110D01*
X125058669Y-75980631D01*
X125424729Y-75736038D01*
X125736038Y-75424729D01*
X125980631Y-75058669D01*
X126149110Y-74651925D01*
X126235000Y-74220128D01*
X126235000Y-73779872D01*
X126149110Y-73348075D01*
X126137178Y-73319268D01*
X128165000Y-73319268D01*
X128165000Y-73680732D01*
X128235518Y-74035250D01*
X128373844Y-74369199D01*
X128574662Y-74669744D01*
X128830256Y-74925338D01*
X129130801Y-75126156D01*
X129464750Y-75264482D01*
X129819268Y-75335000D01*
X130180732Y-75335000D01*
X130535250Y-75264482D01*
X130869199Y-75126156D01*
X131169744Y-74925338D01*
X131425338Y-74669744D01*
X131626156Y-74369199D01*
X131764482Y-74035250D01*
X131835000Y-73680732D01*
X131835000Y-73319268D01*
X131764482Y-72964750D01*
X131626156Y-72630801D01*
X131425338Y-72330256D01*
X131169744Y-72074662D01*
X130869199Y-71873844D01*
X130535250Y-71735518D01*
X130180732Y-71665000D01*
X129819268Y-71665000D01*
X129464750Y-71735518D01*
X129130801Y-71873844D01*
X128830256Y-72074662D01*
X128574662Y-72330256D01*
X128373844Y-72630801D01*
X128235518Y-72964750D01*
X128165000Y-73319268D01*
X126137178Y-73319268D01*
X125980631Y-72941331D01*
X125736038Y-72575271D01*
X125424729Y-72263962D01*
X125058669Y-72019369D01*
X124651925Y-71850890D01*
X124220128Y-71765000D01*
X123779872Y-71765000D01*
X123348075Y-71850890D01*
X122941331Y-72019369D01*
X122575271Y-72263962D01*
X122263962Y-72575271D01*
X122019369Y-72941331D01*
X121850890Y-73348075D01*
X121765000Y-73779872D01*
X121660000Y-73779872D01*
X121660000Y-71032279D01*
X121669580Y-70934576D01*
X121688580Y-70871644D01*
X121719445Y-70813595D01*
X121760989Y-70762657D01*
X121811644Y-70720752D01*
X121869471Y-70689485D01*
X121932272Y-70670044D01*
X122027835Y-70660000D01*
X157967721Y-70660000D01*
X158065424Y-70669580D01*
G37*
X158065424Y-70669580D02*
X158128356Y-70688580D01*
X158186405Y-70719445D01*
X158237343Y-70760989D01*
X158279248Y-70811644D01*
X158310515Y-70869471D01*
X158329956Y-70932272D01*
X158340000Y-71027835D01*
X158340001Y-75967711D01*
X158330420Y-76065424D01*
X158311420Y-76128357D01*
X158280554Y-76186406D01*
X158239011Y-76237343D01*
X158188356Y-76279248D01*
X158130529Y-76310515D01*
X158067728Y-76329956D01*
X157972165Y-76340000D01*
X147967581Y-76340000D01*
X147939326Y-76342783D01*
X147933199Y-76342740D01*
X147924028Y-76343640D01*
X147729931Y-76364041D01*
X147671348Y-76376066D01*
X147612577Y-76387277D01*
X147603755Y-76389941D01*
X147417317Y-76447653D01*
X147362162Y-76470838D01*
X147306709Y-76493242D01*
X147298573Y-76497568D01*
X147126896Y-76590393D01*
X147077278Y-76623861D01*
X147027247Y-76656600D01*
X147020106Y-76662424D01*
X146869728Y-76786828D01*
X146827589Y-76829263D01*
X146784839Y-76871126D01*
X146778966Y-76878227D01*
X146655616Y-77029469D01*
X146622534Y-77079262D01*
X146588716Y-77128651D01*
X146584333Y-77136757D01*
X146492708Y-77309079D01*
X146469909Y-77364394D01*
X146446348Y-77419366D01*
X146443623Y-77428169D01*
X146435000Y-77456730D01*
X146435000Y-77151654D01*
X148905786Y-74680868D01*
X149150256Y-74925338D01*
X149450801Y-75126156D01*
X149784750Y-75264482D01*
X150139268Y-75335000D01*
X150500732Y-75335000D01*
X150855250Y-75264482D01*
X151189199Y-75126156D01*
X151489744Y-74925338D01*
X151745338Y-74669744D01*
X151946156Y-74369199D01*
X152084482Y-74035250D01*
X152135279Y-73779872D01*
X153765000Y-73779872D01*
X153765000Y-74220128D01*
X153850890Y-74651925D01*
X154019369Y-75058669D01*
X154263962Y-75424729D01*
X154575271Y-75736038D01*
X154941331Y-75980631D01*
X155348075Y-76149110D01*
X155779872Y-76235000D01*
X156220128Y-76235000D01*
X156651925Y-76149110D01*
X157058669Y-75980631D01*
X157424729Y-75736038D01*
X157736038Y-75424729D01*
X157980631Y-75058669D01*
X158149110Y-74651925D01*
X158235000Y-74220128D01*
X158235000Y-73779872D01*
X158149110Y-73348075D01*
X157980631Y-72941331D01*
X157736038Y-72575271D01*
X157424729Y-72263962D01*
X157058669Y-72019369D01*
X156651925Y-71850890D01*
X156220128Y-71765000D01*
X155779872Y-71765000D01*
X155348075Y-71850890D01*
X154941331Y-72019369D01*
X154575271Y-72263962D01*
X154263962Y-72575271D01*
X154019369Y-72941331D01*
X153850890Y-73348075D01*
X153765000Y-73779872D01*
X152135279Y-73779872D01*
X152155000Y-73680732D01*
X152155000Y-73319268D01*
X152084482Y-72964750D01*
X151946156Y-72630801D01*
X151745338Y-72330256D01*
X151489744Y-72074662D01*
X151189199Y-71873844D01*
X150855250Y-71735518D01*
X150500732Y-71665000D01*
X150139268Y-71665000D01*
X149784750Y-71735518D01*
X149450801Y-71873844D01*
X149150256Y-72074662D01*
X148894662Y-72330256D01*
X148804629Y-72465000D01*
X148673771Y-72465000D01*
X148622943Y-72459994D01*
X148572115Y-72465000D01*
X148572106Y-72465000D01*
X148420049Y-72479976D01*
X148224951Y-72539159D01*
X148157390Y-72575271D01*
X148045146Y-72635266D01*
X147932293Y-72727883D01*
X147887548Y-72764604D01*
X147855141Y-72804092D01*
X144704092Y-75955142D01*
X144664605Y-75987548D01*
X144632198Y-76027036D01*
X144632197Y-76027037D01*
X144535266Y-76145147D01*
X144439160Y-76324951D01*
X144379977Y-76520049D01*
X144359994Y-76722944D01*
X144365001Y-76773782D01*
X144365000Y-88861289D01*
X141844092Y-91382198D01*
X141804605Y-91414604D01*
X141772198Y-91454092D01*
X141772197Y-91454093D01*
X141675266Y-91572203D01*
X141579160Y-91752007D01*
X141519977Y-91947105D01*
X141499994Y-92150000D01*
X141505001Y-92200838D01*
X141505001Y-92684294D01*
X141378286Y-92788286D01*
X141270000Y-92920234D01*
X141161714Y-92788286D01*
X140912751Y-92583969D01*
X140628714Y-92432148D01*
X140320515Y-92338657D01*
X140000000Y-92307089D01*
X139679484Y-92338657D01*
X139371285Y-92432148D01*
X139087248Y-92583969D01*
X138838286Y-92788286D01*
X138730000Y-92920234D01*
X138621714Y-92788286D01*
X138372751Y-92583969D01*
X138088714Y-92432148D01*
X137780515Y-92338657D01*
X137460000Y-92307089D01*
X137139484Y-92338657D01*
X136831285Y-92432148D01*
X136547248Y-92583969D01*
X136298286Y-92788286D01*
X136093969Y-93037249D01*
X135942148Y-93321286D01*
X135848657Y-93629485D01*
X135825000Y-93869679D01*
X135825000Y-95030322D01*
X135848657Y-95270516D01*
X135942148Y-95578715D01*
X136093970Y-95862752D01*
X136298287Y-96111714D01*
X136547249Y-96316031D01*
X136831286Y-96467852D01*
X137139485Y-96561343D01*
X137460000Y-96592911D01*
X137780516Y-96561343D01*
X138088715Y-96467852D01*
X138372752Y-96316031D01*
X138621714Y-96111714D01*
X138730001Y-95979766D01*
X138838287Y-96111714D01*
X139087249Y-96316031D01*
X139371286Y-96467852D01*
X139679485Y-96561343D01*
X140000000Y-96592911D01*
X140320516Y-96561343D01*
X140628715Y-96467852D01*
X140912752Y-96316031D01*
X141161714Y-96111714D01*
X141270001Y-95979766D01*
X141378287Y-96111714D01*
X141627249Y-96316031D01*
X141911286Y-96467852D01*
X142219485Y-96561343D01*
X142540000Y-96592911D01*
X142860516Y-96561343D01*
X143168715Y-96467852D01*
X143452752Y-96316031D01*
X143701714Y-96111714D01*
X143906031Y-95862752D01*
X144057852Y-95578715D01*
X144151343Y-95270516D01*
X144175000Y-95030322D01*
X144175000Y-93869678D01*
X144151343Y-93629484D01*
X144057852Y-93321285D01*
X143906031Y-93037248D01*
X143701714Y-92788286D01*
X143575000Y-92684295D01*
X143575000Y-92578710D01*
X146095908Y-90057803D01*
X146135396Y-90025396D01*
X146167803Y-89985908D01*
X146264734Y-89867798D01*
X146316104Y-89771691D01*
X146360841Y-89687993D01*
X146420024Y-89492895D01*
X146435000Y-89340838D01*
X146435000Y-89340835D01*
X146440007Y-89290000D01*
X146435000Y-89239165D01*
X146435000Y-84541808D01*
X146447653Y-84582683D01*
X146470838Y-84637838D01*
X146493242Y-84693291D01*
X146497568Y-84701427D01*
X146590393Y-84873104D01*
X146623846Y-84922699D01*
X146656600Y-84972753D01*
X146662424Y-84979894D01*
X146786828Y-85130272D01*
X146829263Y-85172411D01*
X146871126Y-85215161D01*
X146878227Y-85221034D01*
X147029469Y-85344384D01*
X147079277Y-85377477D01*
X147128651Y-85411284D01*
X147136757Y-85415667D01*
X147309080Y-85507292D01*
X147364392Y-85530090D01*
X147419366Y-85553652D01*
X147428169Y-85556377D01*
X147615006Y-85612786D01*
X147673686Y-85624405D01*
X147732196Y-85636842D01*
X147741361Y-85637805D01*
X147935594Y-85656850D01*
X147935598Y-85656850D01*
X147967581Y-85660000D01*
X151362819Y-85660000D01*
X150949860Y-85880731D01*
X150472495Y-86272495D01*
X150080731Y-86749861D01*
X149789624Y-87294484D01*
X149610362Y-87885434D01*
X149565000Y-88345999D01*
X149565000Y-91654002D01*
X149610362Y-92114567D01*
X149789625Y-92705517D01*
X150080732Y-93250140D01*
X150472496Y-93727505D01*
X150949861Y-94119269D01*
X151362820Y-94340000D01*
X147967581Y-94340000D01*
X147939326Y-94342783D01*
X147933199Y-94342740D01*
X147924028Y-94343640D01*
X147729931Y-94364041D01*
X147671348Y-94376066D01*
X147612577Y-94387277D01*
X147603755Y-94389941D01*
X147417317Y-94447653D01*
X147362162Y-94470838D01*
X147306709Y-94493242D01*
X147298573Y-94497568D01*
X147126896Y-94590393D01*
X147077278Y-94623861D01*
X147027247Y-94656600D01*
X147020106Y-94662424D01*
X146869728Y-94786828D01*
X146827589Y-94829263D01*
X146784839Y-94871126D01*
X146778966Y-94878227D01*
X146655616Y-95029469D01*
X146622534Y-95079262D01*
X146588716Y-95128651D01*
X146584333Y-95136757D01*
X146492708Y-95309079D01*
X146469909Y-95364394D01*
X146446348Y-95419366D01*
X146443623Y-95428169D01*
X146387214Y-95615005D01*
X146375594Y-95673693D01*
X146363158Y-95732196D01*
X146362195Y-95741361D01*
X146343150Y-95935595D01*
X146340000Y-95967582D01*
X146340001Y-102032419D01*
X146342783Y-102060664D01*
X146342740Y-102066801D01*
X146343640Y-102075972D01*
X146364041Y-102270069D01*
X146376068Y-102328658D01*
X146387277Y-102387423D01*
X146389941Y-102396245D01*
X146447653Y-102582683D01*
X146470838Y-102637838D01*
X146493242Y-102693291D01*
X146497568Y-102701427D01*
X146590393Y-102873104D01*
X146623846Y-102922699D01*
X146656600Y-102972753D01*
X146662424Y-102979894D01*
X146786828Y-103130272D01*
X146829263Y-103172411D01*
X146871126Y-103215161D01*
X146878227Y-103221034D01*
X147029469Y-103344384D01*
X147079277Y-103377477D01*
X147128651Y-103411284D01*
X147136757Y-103415667D01*
X147309080Y-103507292D01*
X147364392Y-103530090D01*
X147419366Y-103553652D01*
X147428169Y-103556377D01*
X147615006Y-103612786D01*
X147673686Y-103624405D01*
X147732196Y-103636842D01*
X147741361Y-103637805D01*
X147935594Y-103656850D01*
X147935598Y-103656850D01*
X147967581Y-103660000D01*
X149127761Y-103660000D01*
X148930013Y-103857748D01*
X148751082Y-104125537D01*
X148627832Y-104423088D01*
X148565000Y-104738967D01*
X148565000Y-104788447D01*
X145888447Y-107465000D01*
X145777239Y-107465000D01*
X145742252Y-107430013D01*
X145474463Y-107251082D01*
X145176912Y-107127832D01*
X144861033Y-107065000D01*
X144538967Y-107065000D01*
X144223088Y-107127832D01*
X143925537Y-107251082D01*
X143657748Y-107430013D01*
X143430013Y-107657748D01*
X143251082Y-107925537D01*
X143127832Y-108223088D01*
X143065000Y-108538967D01*
X143065000Y-108861033D01*
X143127832Y-109176912D01*
X143251082Y-109474463D01*
X143430013Y-109742252D01*
X143657748Y-109969987D01*
X143925537Y-110148918D01*
X144223088Y-110272168D01*
X144538967Y-110335000D01*
X144861033Y-110335000D01*
X145176912Y-110272168D01*
X145474463Y-110148918D01*
X145742252Y-109969987D01*
X145777239Y-109935000D01*
X146339335Y-109935000D01*
X146400000Y-109940975D01*
X146460665Y-109935000D01*
X146642102Y-109917130D01*
X146874901Y-109846511D01*
X147089449Y-109731833D01*
X147277502Y-109577502D01*
X147316179Y-109530374D01*
X150311553Y-106535000D01*
X150361033Y-106535000D01*
X150676912Y-106472168D01*
X150974463Y-106348918D01*
X151242252Y-106169987D01*
X151469987Y-105942252D01*
X151578485Y-105779872D01*
X153765000Y-105779872D01*
X153765000Y-106220128D01*
X153850890Y-106651925D01*
X154019369Y-107058669D01*
X154263962Y-107424729D01*
X154575271Y-107736038D01*
X154941331Y-107980631D01*
X155348075Y-108149110D01*
X155779872Y-108235000D01*
X156220128Y-108235000D01*
X156651925Y-108149110D01*
X157058669Y-107980631D01*
X157424729Y-107736038D01*
X157736038Y-107424729D01*
X157980631Y-107058669D01*
X158149110Y-106651925D01*
X158235000Y-106220128D01*
X158235000Y-105779872D01*
X158149110Y-105348075D01*
X157980631Y-104941331D01*
X157736038Y-104575271D01*
X157424729Y-104263962D01*
X157058669Y-104019369D01*
X156651925Y-103850890D01*
X156220128Y-103765000D01*
X155779872Y-103765000D01*
X155348075Y-103850890D01*
X154941331Y-104019369D01*
X154575271Y-104263962D01*
X154263962Y-104575271D01*
X154019369Y-104941331D01*
X153850890Y-105348075D01*
X153765000Y-105779872D01*
X151578485Y-105779872D01*
X151648918Y-105674463D01*
X151772168Y-105376912D01*
X151835000Y-105061033D01*
X151835000Y-104738967D01*
X151772168Y-104423088D01*
X151648918Y-104125537D01*
X151469987Y-103857748D01*
X151272239Y-103660000D01*
X157967721Y-103660000D01*
X158065424Y-103669580D01*
X158128356Y-103688580D01*
X158186405Y-103719445D01*
X158237343Y-103760989D01*
X158279248Y-103811644D01*
X158310515Y-103869471D01*
X158329956Y-103932272D01*
X158340000Y-104027835D01*
X158340001Y-109032419D01*
X158342783Y-109060664D01*
X158342740Y-109066801D01*
X158343640Y-109075972D01*
X158364041Y-109270069D01*
X158376068Y-109328658D01*
X158387277Y-109387423D01*
X158389941Y-109396245D01*
X158447653Y-109582683D01*
X158470838Y-109637838D01*
X158493242Y-109693291D01*
X158497568Y-109701427D01*
X158590393Y-109873104D01*
X158623846Y-109922699D01*
X158656600Y-109972753D01*
X158662424Y-109979894D01*
X158786828Y-110130272D01*
X158829263Y-110172411D01*
X158871126Y-110215161D01*
X158878227Y-110221034D01*
X159029469Y-110344384D01*
X159079277Y-110377477D01*
X159128651Y-110411284D01*
X159136757Y-110415667D01*
X159309080Y-110507292D01*
X159364392Y-110530090D01*
X159419366Y-110553652D01*
X159428169Y-110556377D01*
X159615006Y-110612786D01*
X159673686Y-110624405D01*
X159732196Y-110636842D01*
X159741361Y-110637805D01*
X159935594Y-110656850D01*
X159935598Y-110656850D01*
X159967581Y-110660000D01*
X166032419Y-110660000D01*
X166060674Y-110657217D01*
X166066801Y-110657260D01*
X166075972Y-110656360D01*
X166270069Y-110635959D01*
X166328658Y-110623932D01*
X166387423Y-110612723D01*
X166396245Y-110610059D01*
X166582683Y-110552347D01*
X166637838Y-110529162D01*
X166693291Y-110506758D01*
X166701427Y-110502432D01*
X166873104Y-110409607D01*
X166922699Y-110376154D01*
X166972753Y-110343400D01*
X166979894Y-110337576D01*
X167130272Y-110213172D01*
X167172411Y-110170737D01*
X167215161Y-110128874D01*
X167221034Y-110121773D01*
X167344384Y-109970531D01*
X167377477Y-109920723D01*
X167411284Y-109871349D01*
X167415667Y-109863243D01*
X167507292Y-109690920D01*
X167530090Y-109635608D01*
X167553652Y-109580634D01*
X167556377Y-109571831D01*
X167612786Y-109384994D01*
X167624405Y-109326314D01*
X167636842Y-109267804D01*
X167637805Y-109258639D01*
X167656850Y-109064406D01*
X167656850Y-109064402D01*
X167660000Y-109032419D01*
X167660000Y-92499268D01*
X175365000Y-92499268D01*
X175365000Y-92860732D01*
X175435518Y-93215250D01*
X175573844Y-93549199D01*
X175774662Y-93849744D01*
X176030256Y-94105338D01*
X176330801Y-94306156D01*
X176664750Y-94444482D01*
X177019268Y-94515000D01*
X177380732Y-94515000D01*
X177735250Y-94444482D01*
X178069199Y-94306156D01*
X178369744Y-94105338D01*
X178625338Y-93849744D01*
X178826156Y-93549199D01*
X178964482Y-93215250D01*
X179035000Y-92860732D01*
X179035000Y-92499268D01*
X178964482Y-92144750D01*
X178826156Y-91810801D01*
X178625338Y-91510256D01*
X178369744Y-91254662D01*
X178069199Y-91053844D01*
X177735250Y-90915518D01*
X177380732Y-90845000D01*
X177019268Y-90845000D01*
X176664750Y-90915518D01*
X176330801Y-91053844D01*
X176030256Y-91254662D01*
X175774662Y-91510256D01*
X175573844Y-91810801D01*
X175435518Y-92144750D01*
X175365000Y-92499268D01*
X167660000Y-92499268D01*
X167660000Y-84858665D01*
X169565000Y-84858665D01*
X169565000Y-85141335D01*
X169620147Y-85418574D01*
X169728320Y-85679727D01*
X169885363Y-85914759D01*
X170085241Y-86114637D01*
X170320273Y-86271680D01*
X170581426Y-86379853D01*
X170858665Y-86435000D01*
X171141335Y-86435000D01*
X171418574Y-86379853D01*
X171679727Y-86271680D01*
X171914759Y-86114637D01*
X172036694Y-85992702D01*
X175186903Y-85992702D01*
X175258486Y-86236671D01*
X175513996Y-86357571D01*
X175788184Y-86426300D01*
X176070512Y-86440217D01*
X176350130Y-86398787D01*
X176616292Y-86303603D01*
X176741514Y-86236671D01*
X176813097Y-85992702D01*
X184186903Y-85992702D01*
X184258486Y-86236671D01*
X184513996Y-86357571D01*
X184788184Y-86426300D01*
X185070512Y-86440217D01*
X185350130Y-86398787D01*
X185616292Y-86303603D01*
X185741514Y-86236671D01*
X185813097Y-85992702D01*
X185000000Y-85179605D01*
X184186903Y-85992702D01*
X176813097Y-85992702D01*
X176000000Y-85179605D01*
X175186903Y-85992702D01*
X172036694Y-85992702D01*
X172114637Y-85914759D01*
X172271680Y-85679727D01*
X172379853Y-85418574D01*
X172435000Y-85141335D01*
X172435000Y-85070512D01*
X174559783Y-85070512D01*
X174601213Y-85350130D01*
X174696397Y-85616292D01*
X174763329Y-85741514D01*
X175007298Y-85813097D01*
X175820395Y-85000000D01*
X176179605Y-85000000D01*
X176992702Y-85813097D01*
X177236671Y-85741514D01*
X177357571Y-85486004D01*
X177426300Y-85211816D01*
X177433265Y-85070512D01*
X183559783Y-85070512D01*
X183601213Y-85350130D01*
X183696397Y-85616292D01*
X183763329Y-85741514D01*
X184007298Y-85813097D01*
X184820395Y-85000000D01*
X185179605Y-85000000D01*
X185992702Y-85813097D01*
X186236671Y-85741514D01*
X186357571Y-85486004D01*
X186426300Y-85211816D01*
X186440217Y-84929488D01*
X186429724Y-84858665D01*
X188565000Y-84858665D01*
X188565000Y-85141335D01*
X188620147Y-85418574D01*
X188728320Y-85679727D01*
X188885363Y-85914759D01*
X189085241Y-86114637D01*
X189320273Y-86271680D01*
X189581426Y-86379853D01*
X189858665Y-86435000D01*
X190141335Y-86435000D01*
X190418574Y-86379853D01*
X190679727Y-86271680D01*
X190914759Y-86114637D01*
X191114637Y-85914759D01*
X191271680Y-85679727D01*
X191379853Y-85418574D01*
X191435000Y-85141335D01*
X191435000Y-84858665D01*
X191379853Y-84581426D01*
X191271680Y-84320273D01*
X191114637Y-84085241D01*
X190914759Y-83885363D01*
X190679727Y-83728320D01*
X190418574Y-83620147D01*
X190141335Y-83565000D01*
X189858665Y-83565000D01*
X189581426Y-83620147D01*
X189320273Y-83728320D01*
X189085241Y-83885363D01*
X188885363Y-84085241D01*
X188728320Y-84320273D01*
X188620147Y-84581426D01*
X188565000Y-84858665D01*
X186429724Y-84858665D01*
X186398787Y-84649870D01*
X186303603Y-84383708D01*
X186236671Y-84258486D01*
X185992702Y-84186903D01*
X185179605Y-85000000D01*
X184820395Y-85000000D01*
X184007298Y-84186903D01*
X183763329Y-84258486D01*
X183642429Y-84513996D01*
X183573700Y-84788184D01*
X183559783Y-85070512D01*
X177433265Y-85070512D01*
X177440217Y-84929488D01*
X177398787Y-84649870D01*
X177303603Y-84383708D01*
X177236671Y-84258486D01*
X176992702Y-84186903D01*
X176179605Y-85000000D01*
X175820395Y-85000000D01*
X175007298Y-84186903D01*
X174763329Y-84258486D01*
X174642429Y-84513996D01*
X174573700Y-84788184D01*
X174559783Y-85070512D01*
X172435000Y-85070512D01*
X172435000Y-84858665D01*
X172379853Y-84581426D01*
X172271680Y-84320273D01*
X172114637Y-84085241D01*
X172036694Y-84007298D01*
X175186903Y-84007298D01*
X176000000Y-84820395D01*
X176813097Y-84007298D01*
X184186903Y-84007298D01*
X185000000Y-84820395D01*
X185813097Y-84007298D01*
X185741514Y-83763329D01*
X185486004Y-83642429D01*
X185211816Y-83573700D01*
X184929488Y-83559783D01*
X184649870Y-83601213D01*
X184383708Y-83696397D01*
X184258486Y-83763329D01*
X184186903Y-84007298D01*
X176813097Y-84007298D01*
X176741514Y-83763329D01*
X176486004Y-83642429D01*
X176211816Y-83573700D01*
X175929488Y-83559783D01*
X175649870Y-83601213D01*
X175383708Y-83696397D01*
X175258486Y-83763329D01*
X175186903Y-84007298D01*
X172036694Y-84007298D01*
X171914759Y-83885363D01*
X171679727Y-83728320D01*
X171418574Y-83620147D01*
X171141335Y-83565000D01*
X170858665Y-83565000D01*
X170581426Y-83620147D01*
X170320273Y-83728320D01*
X170085241Y-83885363D01*
X169885363Y-84085241D01*
X169728320Y-84320273D01*
X169620147Y-84581426D01*
X169565000Y-84858665D01*
X167660000Y-84858665D01*
X167660000Y-83245374D01*
X209534231Y-83245374D01*
X209834411Y-83683828D01*
X210413356Y-83994296D01*
X211041746Y-84185852D01*
X211695431Y-84251134D01*
X212349293Y-84187634D01*
X212978203Y-83997792D01*
X213557992Y-83688904D01*
X213565589Y-83683828D01*
X213865769Y-83245374D01*
X211700000Y-81079605D01*
X209534231Y-83245374D01*
X167660000Y-83245374D01*
X167660000Y-80895431D01*
X208348866Y-80895431D01*
X208412366Y-81549293D01*
X208602208Y-82178203D01*
X208911096Y-82757992D01*
X208916172Y-82765589D01*
X209354626Y-83065769D01*
X211520395Y-80900000D01*
X209354626Y-78734231D01*
X208916172Y-79034411D01*
X208605704Y-79613356D01*
X208414148Y-80241746D01*
X208348866Y-80895431D01*
X167660000Y-80895431D01*
X167660000Y-79570447D01*
X201609158Y-79570447D01*
X201753135Y-79875770D01*
X202110892Y-80056597D01*
X202497053Y-80164155D01*
X202896777Y-80194310D01*
X203294704Y-80145904D01*
X203675540Y-80020795D01*
X203946865Y-79875770D01*
X204090842Y-79570447D01*
X202850000Y-78329605D01*
X201609158Y-79570447D01*
X167660000Y-79570447D01*
X167660000Y-78196777D01*
X200805690Y-78196777D01*
X200854096Y-78594704D01*
X200979205Y-78975540D01*
X201124230Y-79246865D01*
X201429553Y-79390842D01*
X202670395Y-78150000D01*
X203029605Y-78150000D01*
X204270447Y-79390842D01*
X204575770Y-79246865D01*
X204756597Y-78889108D01*
X204849760Y-78554626D01*
X209534231Y-78554626D01*
X211700000Y-80720395D01*
X213865769Y-78554626D01*
X213565589Y-78116172D01*
X212986644Y-77805704D01*
X212358254Y-77614148D01*
X211704569Y-77548866D01*
X211050707Y-77612366D01*
X210421797Y-77802208D01*
X209842008Y-78111096D01*
X209834411Y-78116172D01*
X209534231Y-78554626D01*
X204849760Y-78554626D01*
X204864155Y-78502947D01*
X204894310Y-78103223D01*
X204845904Y-77705296D01*
X204720795Y-77324460D01*
X204575770Y-77053135D01*
X204270447Y-76909158D01*
X203029605Y-78150000D01*
X202670395Y-78150000D01*
X201429553Y-76909158D01*
X201124230Y-77053135D01*
X200943403Y-77410892D01*
X200835845Y-77797053D01*
X200805690Y-78196777D01*
X167660000Y-78196777D01*
X167660000Y-71032279D01*
X167669580Y-70934576D01*
X167688580Y-70871644D01*
X167719445Y-70813595D01*
X167760989Y-70762657D01*
X167811644Y-70720752D01*
X167869471Y-70689485D01*
X167932272Y-70670044D01*
X168027835Y-70660000D01*
X169247518Y-70660000D01*
X168874061Y-70909536D01*
X168409536Y-71374061D01*
X168044561Y-71920285D01*
X167793162Y-72527216D01*
X167665000Y-73171531D01*
X167665000Y-73828469D01*
X167793162Y-74472784D01*
X168044561Y-75079715D01*
X168409536Y-75625939D01*
X168874061Y-76090464D01*
X169420285Y-76455439D01*
X170027216Y-76706838D01*
X170671531Y-76835000D01*
X171328469Y-76835000D01*
X171972784Y-76706838D01*
X172579715Y-76455439D01*
X173125939Y-76090464D01*
X173371029Y-75845374D01*
X178334231Y-75845374D01*
X178634411Y-76283828D01*
X179213356Y-76594296D01*
X179841746Y-76785852D01*
X180495431Y-76851134D01*
X181149293Y-76787634D01*
X181778203Y-76597792D01*
X182357992Y-76288904D01*
X182365589Y-76283828D01*
X182665769Y-75845374D01*
X180500000Y-73679605D01*
X178334231Y-75845374D01*
X173371029Y-75845374D01*
X173590464Y-75625939D01*
X173955439Y-75079715D01*
X174206838Y-74472784D01*
X174335000Y-73828469D01*
X174335000Y-73495431D01*
X177148866Y-73495431D01*
X177212366Y-74149293D01*
X177402208Y-74778203D01*
X177711096Y-75357992D01*
X177716172Y-75365589D01*
X178154626Y-75665769D01*
X180320395Y-73500000D01*
X180679605Y-73500000D01*
X182845374Y-75665769D01*
X183283828Y-75365589D01*
X183594296Y-74786644D01*
X183785852Y-74158254D01*
X183851134Y-73504569D01*
X183787634Y-72850707D01*
X183597792Y-72221797D01*
X183288904Y-71642008D01*
X183283828Y-71634411D01*
X182845374Y-71334231D01*
X180679605Y-73500000D01*
X180320395Y-73500000D01*
X178154626Y-71334231D01*
X177716172Y-71634411D01*
X177405704Y-72213356D01*
X177214148Y-72841746D01*
X177148866Y-73495431D01*
X174335000Y-73495431D01*
X174335000Y-73171531D01*
X174206838Y-72527216D01*
X173955439Y-71920285D01*
X173590464Y-71374061D01*
X173125939Y-70909536D01*
X172752482Y-70660000D01*
X178737916Y-70660000D01*
X178642008Y-70711096D01*
X178634411Y-70716172D01*
X178334231Y-71154626D01*
X180500000Y-73320395D01*
X182665769Y-71154626D01*
X182365589Y-70716172D01*
X182260842Y-70660000D01*
X188247518Y-70660000D01*
X187874061Y-70909536D01*
X187409536Y-71374061D01*
X187044561Y-71920285D01*
X186793162Y-72527216D01*
X186665000Y-73171531D01*
X186665000Y-73828469D01*
X186793162Y-74472784D01*
X187044561Y-75079715D01*
X187409536Y-75625939D01*
X187874061Y-76090464D01*
X188420285Y-76455439D01*
X189027216Y-76706838D01*
X189671531Y-76835000D01*
X190328469Y-76835000D01*
X190858587Y-76729553D01*
X201609158Y-76729553D01*
X202850000Y-77970395D01*
X204090842Y-76729553D01*
X203946865Y-76424230D01*
X203589108Y-76243403D01*
X203202947Y-76135845D01*
X202803223Y-76105690D01*
X202405296Y-76154096D01*
X202024460Y-76279205D01*
X201753135Y-76424230D01*
X201609158Y-76729553D01*
X190858587Y-76729553D01*
X190972784Y-76706838D01*
X191579715Y-76455439D01*
X192125939Y-76090464D01*
X192590464Y-75625939D01*
X192955439Y-75079715D01*
X193206838Y-74472784D01*
X193335000Y-73828469D01*
X193335000Y-73171531D01*
X193257095Y-72779872D01*
X209765000Y-72779872D01*
X209765000Y-73220128D01*
X209850890Y-73651925D01*
X210019369Y-74058669D01*
X210263962Y-74424729D01*
X210575271Y-74736038D01*
X210941331Y-74980631D01*
X211348075Y-75149110D01*
X211779872Y-75235000D01*
X212220128Y-75235000D01*
X212651925Y-75149110D01*
X213058669Y-74980631D01*
X213424729Y-74736038D01*
X213736038Y-74424729D01*
X213980631Y-74058669D01*
X214149110Y-73651925D01*
X214235000Y-73220128D01*
X214235000Y-72779872D01*
X214149110Y-72348075D01*
X213980631Y-71941331D01*
X213736038Y-71575271D01*
X213424729Y-71263962D01*
X213058669Y-71019369D01*
X212651925Y-70850890D01*
X212220128Y-70765000D01*
X211779872Y-70765000D01*
X211348075Y-70850890D01*
X210941331Y-71019369D01*
X210575271Y-71263962D01*
X210263962Y-71575271D01*
X210019369Y-71941331D01*
X209850890Y-72348075D01*
X209765000Y-72779872D01*
X193257095Y-72779872D01*
X193206838Y-72527216D01*
X192955439Y-71920285D01*
X192590464Y-71374061D01*
X192125939Y-70909536D01*
X191752482Y-70660000D01*
X213967721Y-70660000D01*
X214065424Y-70669580D01*
X214128356Y-70688580D01*
X214186405Y-70719445D01*
X214237343Y-70760989D01*
X214279248Y-70811644D01*
X214310515Y-70869471D01*
X214329956Y-70932272D01*
X214340001Y-71027845D01*
X214340001Y-78935942D01*
X214045374Y-78734231D01*
X211879605Y-80900000D01*
X214045374Y-83065769D01*
X214340001Y-82864058D01*
X214340001Y-86448198D01*
X214290464Y-86374061D01*
X213825939Y-85909536D01*
X213279715Y-85544561D01*
X212672784Y-85293162D01*
X212028469Y-85165000D01*
X211371531Y-85165000D01*
X210727216Y-85293162D01*
X210120285Y-85544561D01*
X209574061Y-85909536D01*
X209109536Y-86374061D01*
X208744561Y-86920285D01*
X208493162Y-87527216D01*
X208365000Y-88171531D01*
X208365000Y-88828469D01*
X208493162Y-89472784D01*
X208744561Y-90079715D01*
X209109536Y-90625939D01*
X209574061Y-91090464D01*
X210120285Y-91455439D01*
X210727216Y-91706838D01*
X211371531Y-91835000D01*
X212028469Y-91835000D01*
X212672784Y-91706838D01*
X213279715Y-91455439D01*
X213825939Y-91090464D01*
X214290464Y-90625939D01*
X214340001Y-90551802D01*
X214340001Y-94048198D01*
X214290464Y-93974061D01*
X213825939Y-93509536D01*
X213279715Y-93144561D01*
X212672784Y-92893162D01*
X212028469Y-92765000D01*
X211371531Y-92765000D01*
X210727216Y-92893162D01*
X210120285Y-93144561D01*
X209574061Y-93509536D01*
X209109536Y-93974061D01*
X208744561Y-94520285D01*
X208493162Y-95127216D01*
X208365000Y-95771531D01*
X208365000Y-96428469D01*
X208493162Y-97072784D01*
X208744561Y-97679715D01*
X209109536Y-98225939D01*
X209574061Y-98690464D01*
X210120285Y-99055439D01*
X210727216Y-99306838D01*
X211371531Y-99435000D01*
X212028469Y-99435000D01*
X212672784Y-99306838D01*
X213279715Y-99055439D01*
X213825939Y-98690464D01*
X214290464Y-98225939D01*
X214340001Y-98151802D01*
X214340000Y-101648198D01*
X214290464Y-101574061D01*
X213825939Y-101109536D01*
X213279715Y-100744561D01*
X212672784Y-100493162D01*
X212028469Y-100365000D01*
X211371531Y-100365000D01*
X210727216Y-100493162D01*
X210120285Y-100744561D01*
X209574061Y-101109536D01*
X209109536Y-101574061D01*
X208744561Y-102120285D01*
X208493162Y-102727216D01*
X208365000Y-103371531D01*
X208365000Y-104028469D01*
X208493162Y-104672784D01*
X208744561Y-105279715D01*
X209109536Y-105825939D01*
X209574061Y-106290464D01*
X210120285Y-106655439D01*
X210727216Y-106906838D01*
X211371531Y-107035000D01*
X212028469Y-107035000D01*
X212672784Y-106906838D01*
X213279715Y-106655439D01*
X213825939Y-106290464D01*
X214290464Y-105825939D01*
X214340000Y-105751802D01*
X214340000Y-109248197D01*
X214290464Y-109174061D01*
X213825939Y-108709536D01*
X213279715Y-108344561D01*
X212672784Y-108093162D01*
X212028469Y-107965000D01*
X211371531Y-107965000D01*
X210727216Y-108093162D01*
X210120285Y-108344561D01*
X209574061Y-108709536D01*
X209109536Y-109174061D01*
X208744561Y-109720285D01*
X208493162Y-110327216D01*
X208365000Y-110971531D01*
X208365000Y-111628469D01*
X208493162Y-112272784D01*
X208744561Y-112879715D01*
X209109536Y-113425939D01*
X209574061Y-113890464D01*
X210120285Y-114255439D01*
X210727216Y-114506838D01*
X211371531Y-114635000D01*
X212028469Y-114635000D01*
X212672784Y-114506838D01*
X213279715Y-114255439D01*
X213825939Y-113890464D01*
X214290464Y-113425939D01*
X214340000Y-113351803D01*
X214340000Y-116935942D01*
X214045374Y-116734231D01*
X211879605Y-118900000D01*
X214045374Y-121065769D01*
X214340000Y-120864058D01*
X214340000Y-128967721D01*
X214330420Y-129065424D01*
X214311420Y-129128357D01*
X214280554Y-129186406D01*
X214239011Y-129237343D01*
X214188356Y-129279248D01*
X214130529Y-129310515D01*
X214067728Y-129329956D01*
X213972165Y-129340000D01*
X206990193Y-129340000D01*
X206998072Y-129260000D01*
X206998072Y-126779872D01*
X209765000Y-126779872D01*
X209765000Y-127220128D01*
X209850890Y-127651925D01*
X210019369Y-128058669D01*
X210263962Y-128424729D01*
X210575271Y-128736038D01*
X210941331Y-128980631D01*
X211348075Y-129149110D01*
X211779872Y-129235000D01*
X212220128Y-129235000D01*
X212651925Y-129149110D01*
X213058669Y-128980631D01*
X213424729Y-128736038D01*
X213736038Y-128424729D01*
X213980631Y-128058669D01*
X214149110Y-127651925D01*
X214235000Y-127220128D01*
X214235000Y-126779872D01*
X214149110Y-126348075D01*
X213980631Y-125941331D01*
X213736038Y-125575271D01*
X213424729Y-125263962D01*
X213058669Y-125019369D01*
X212651925Y-124850890D01*
X212220128Y-124765000D01*
X211779872Y-124765000D01*
X211348075Y-124850890D01*
X210941331Y-125019369D01*
X210575271Y-125263962D01*
X210263962Y-125575271D01*
X210019369Y-125941331D01*
X209850890Y-126348075D01*
X209765000Y-126779872D01*
X206998072Y-126779872D01*
X206998072Y-121245374D01*
X209534231Y-121245374D01*
X209834411Y-121683828D01*
X210413356Y-121994296D01*
X211041746Y-122185852D01*
X211695431Y-122251134D01*
X212349293Y-122187634D01*
X212978203Y-121997792D01*
X213557992Y-121688904D01*
X213565589Y-121683828D01*
X213865769Y-121245374D01*
X211700000Y-119079605D01*
X209534231Y-121245374D01*
X206998072Y-121245374D01*
X206998072Y-118895431D01*
X208348866Y-118895431D01*
X208412366Y-119549293D01*
X208602208Y-120178203D01*
X208911096Y-120757992D01*
X208916172Y-120765589D01*
X209354626Y-121065769D01*
X211520395Y-118900000D01*
X209354626Y-116734231D01*
X208916172Y-117034411D01*
X208605704Y-117613356D01*
X208414148Y-118241746D01*
X208348866Y-118895431D01*
X206998072Y-118895431D01*
X206998072Y-116554626D01*
X209534231Y-116554626D01*
X211700000Y-118720395D01*
X213865769Y-116554626D01*
X213565589Y-116116172D01*
X212986644Y-115805704D01*
X212358254Y-115614148D01*
X211704569Y-115548866D01*
X211050707Y-115612366D01*
X210421797Y-115802208D01*
X209842008Y-116111096D01*
X209834411Y-116116172D01*
X209534231Y-116554626D01*
X206998072Y-116554626D01*
X206998072Y-113260000D01*
X206985812Y-113135518D01*
X206949502Y-113015820D01*
X206890537Y-112905506D01*
X206811185Y-112808815D01*
X206714494Y-112729463D01*
X206604180Y-112670498D01*
X206484482Y-112634188D01*
X206360000Y-112621928D01*
X196360000Y-112621928D01*
X196235518Y-112634188D01*
X196115820Y-112670498D01*
X196005506Y-112729463D01*
X195908815Y-112808815D01*
X195829463Y-112905506D01*
X195770498Y-113015820D01*
X195734188Y-113135518D01*
X195721928Y-113260000D01*
X195721928Y-129260000D01*
X195729807Y-129340000D01*
X192110078Y-129340000D01*
X192649293Y-129287634D01*
X193278203Y-129097792D01*
X193857992Y-128788904D01*
X193865589Y-128783828D01*
X194165769Y-128345374D01*
X192000000Y-126179605D01*
X189834231Y-128345374D01*
X190134411Y-128783828D01*
X190713356Y-129094296D01*
X191341746Y-129285852D01*
X191883943Y-129340000D01*
X131654472Y-129340000D01*
X135322941Y-125671531D01*
X157165000Y-125671531D01*
X157165000Y-126328469D01*
X157293162Y-126972784D01*
X157544561Y-127579715D01*
X157909536Y-128125939D01*
X158374061Y-128590464D01*
X158920285Y-128955439D01*
X159527216Y-129206838D01*
X160171531Y-129335000D01*
X160828469Y-129335000D01*
X161472784Y-129206838D01*
X162079715Y-128955439D01*
X162625939Y-128590464D01*
X163090464Y-128125939D01*
X163455439Y-127579715D01*
X163706838Y-126972784D01*
X163835000Y-126328469D01*
X163835000Y-125671531D01*
X167165000Y-125671531D01*
X167165000Y-126328469D01*
X167293162Y-126972784D01*
X167544561Y-127579715D01*
X167909536Y-128125939D01*
X168374061Y-128590464D01*
X168920285Y-128955439D01*
X169527216Y-129206838D01*
X170171531Y-129335000D01*
X170828469Y-129335000D01*
X171472784Y-129206838D01*
X172079715Y-128955439D01*
X172625939Y-128590464D01*
X173090464Y-128125939D01*
X173455439Y-127579715D01*
X173706838Y-126972784D01*
X173835000Y-126328469D01*
X173835000Y-125671531D01*
X178665000Y-125671531D01*
X178665000Y-126328469D01*
X178793162Y-126972784D01*
X179044561Y-127579715D01*
X179409536Y-128125939D01*
X179874061Y-128590464D01*
X180420285Y-128955439D01*
X181027216Y-129206838D01*
X181671531Y-129335000D01*
X182328469Y-129335000D01*
X182972784Y-129206838D01*
X183579715Y-128955439D01*
X184125939Y-128590464D01*
X184590464Y-128125939D01*
X184955439Y-127579715D01*
X185206838Y-126972784D01*
X185335000Y-126328469D01*
X185335000Y-125995431D01*
X188648866Y-125995431D01*
X188712366Y-126649293D01*
X188902208Y-127278203D01*
X189211096Y-127857992D01*
X189216172Y-127865589D01*
X189654626Y-128165769D01*
X191820395Y-126000000D01*
X192179605Y-126000000D01*
X194345374Y-128165769D01*
X194783828Y-127865589D01*
X195094296Y-127286644D01*
X195285852Y-126658254D01*
X195351134Y-126004569D01*
X195287634Y-125350707D01*
X195097792Y-124721797D01*
X194788904Y-124142008D01*
X194783828Y-124134411D01*
X194345374Y-123834231D01*
X192179605Y-126000000D01*
X191820395Y-126000000D01*
X189654626Y-123834231D01*
X189216172Y-124134411D01*
X188905704Y-124713356D01*
X188714148Y-125341746D01*
X188648866Y-125995431D01*
X185335000Y-125995431D01*
X185335000Y-125671531D01*
X185206838Y-125027216D01*
X184955439Y-124420285D01*
X184590464Y-123874061D01*
X184371029Y-123654626D01*
X189834231Y-123654626D01*
X192000000Y-125820395D01*
X194165769Y-123654626D01*
X193865589Y-123216172D01*
X193286644Y-122905704D01*
X192658254Y-122714148D01*
X192004569Y-122648866D01*
X191350707Y-122712366D01*
X190721797Y-122902208D01*
X190142008Y-123211096D01*
X190134411Y-123216172D01*
X189834231Y-123654626D01*
X184371029Y-123654626D01*
X184125939Y-123409536D01*
X183579715Y-123044561D01*
X182972784Y-122793162D01*
X182328469Y-122665000D01*
X181671531Y-122665000D01*
X181027216Y-122793162D01*
X180420285Y-123044561D01*
X179874061Y-123409536D01*
X179409536Y-123874061D01*
X179044561Y-124420285D01*
X178793162Y-125027216D01*
X178665000Y-125671531D01*
X173835000Y-125671531D01*
X173706838Y-125027216D01*
X173455439Y-124420285D01*
X173090464Y-123874061D01*
X172625939Y-123409536D01*
X172079715Y-123044561D01*
X171472784Y-122793162D01*
X170828469Y-122665000D01*
X170171531Y-122665000D01*
X169527216Y-122793162D01*
X168920285Y-123044561D01*
X168374061Y-123409536D01*
X167909536Y-123874061D01*
X167544561Y-124420285D01*
X167293162Y-125027216D01*
X167165000Y-125671531D01*
X163835000Y-125671531D01*
X163706838Y-125027216D01*
X163455439Y-124420285D01*
X163090464Y-123874061D01*
X162625939Y-123409536D01*
X162079715Y-123044561D01*
X161472784Y-122793162D01*
X160828469Y-122665000D01*
X160171531Y-122665000D01*
X159527216Y-122793162D01*
X158920285Y-123044561D01*
X158374061Y-123409536D01*
X157909536Y-123874061D01*
X157544561Y-124420285D01*
X157293162Y-125027216D01*
X157165000Y-125671531D01*
X135322941Y-125671531D01*
X135442845Y-125551627D01*
X135548102Y-125595226D01*
X135748061Y-125635000D01*
X135951939Y-125635000D01*
X136151898Y-125595226D01*
X136340256Y-125517205D01*
X136509774Y-125403937D01*
X136653937Y-125259774D01*
X136767205Y-125090256D01*
X136845226Y-124901898D01*
X136885000Y-124701939D01*
X136885000Y-124498061D01*
X136845226Y-124298102D01*
X136767205Y-124109744D01*
X136653937Y-123940226D01*
X136509774Y-123796063D01*
X136340256Y-123682795D01*
X136151898Y-123604774D01*
X135951939Y-123565000D01*
X135748061Y-123565000D01*
X135548102Y-123604774D01*
X135359744Y-123682795D01*
X135190226Y-123796063D01*
X135163154Y-123823135D01*
X135130428Y-123826358D01*
X134982455Y-123871246D01*
X134846082Y-123944138D01*
X134726551Y-124042236D01*
X134701968Y-124072190D01*
X130109158Y-128665000D01*
X115014388Y-128665000D01*
X115125939Y-128590464D01*
X115590464Y-128125939D01*
X115955439Y-127579715D01*
X116206838Y-126972784D01*
X116335000Y-126328469D01*
X116335000Y-125671531D01*
X116206838Y-125027216D01*
X115955439Y-124420285D01*
X115675533Y-124001376D01*
X116451973Y-124777816D01*
X116476551Y-124807764D01*
X116506499Y-124832342D01*
X116506502Y-124832345D01*
X116529099Y-124850890D01*
X116596082Y-124905862D01*
X116732455Y-124978754D01*
X116835460Y-125010000D01*
X116880427Y-125023641D01*
X116894805Y-125025057D01*
X116913153Y-125026864D01*
X116940226Y-125053937D01*
X117109744Y-125167205D01*
X117298102Y-125245226D01*
X117498061Y-125285000D01*
X117701939Y-125285000D01*
X117901898Y-125245226D01*
X118090256Y-125167205D01*
X118259774Y-125053937D01*
X118403937Y-124909774D01*
X118517205Y-124740256D01*
X118595226Y-124551898D01*
X118635000Y-124351939D01*
X118635000Y-124148061D01*
X118595226Y-123948102D01*
X118517205Y-123759744D01*
X118403937Y-123590226D01*
X118259774Y-123446063D01*
X118090256Y-123332795D01*
X117901898Y-123254774D01*
X117701939Y-123215000D01*
X117498061Y-123215000D01*
X117298102Y-123254774D01*
X117192846Y-123298373D01*
X115033741Y-121139268D01*
X135165000Y-121139268D01*
X135165000Y-121500732D01*
X135235518Y-121855250D01*
X135373844Y-122189199D01*
X135574662Y-122489744D01*
X135830256Y-122745338D01*
X136130801Y-122946156D01*
X136464750Y-123084482D01*
X136819268Y-123155000D01*
X137180732Y-123155000D01*
X137535250Y-123084482D01*
X137869199Y-122946156D01*
X138169744Y-122745338D01*
X138425338Y-122489744D01*
X138626156Y-122189199D01*
X138764482Y-121855250D01*
X138835000Y-121500732D01*
X138835000Y-121139268D01*
X138764482Y-120784750D01*
X138626156Y-120450801D01*
X138425338Y-120150256D01*
X138169744Y-119894662D01*
X137869199Y-119693844D01*
X137535250Y-119555518D01*
X137180732Y-119485000D01*
X136819268Y-119485000D01*
X136464750Y-119555518D01*
X136130801Y-119693844D01*
X135830256Y-119894662D01*
X135574662Y-120150256D01*
X135373844Y-120450801D01*
X135235518Y-120784750D01*
X135165000Y-121139268D01*
X115033741Y-121139268D01*
X111914920Y-118020447D01*
X145959158Y-118020447D01*
X146103135Y-118325770D01*
X146460892Y-118506597D01*
X146847053Y-118614155D01*
X147246777Y-118644310D01*
X147644704Y-118595904D01*
X148025540Y-118470795D01*
X148296865Y-118325770D01*
X148440842Y-118020447D01*
X147200000Y-116779605D01*
X145959158Y-118020447D01*
X111914920Y-118020447D01*
X109116662Y-115222190D01*
X109092079Y-115192236D01*
X108972548Y-115094138D01*
X108836175Y-115021246D01*
X108688202Y-114976359D01*
X108572876Y-114965000D01*
X108572868Y-114965000D01*
X108534315Y-114961203D01*
X108495762Y-114965000D01*
X94702724Y-114965000D01*
X94787540Y-114760236D01*
X94835000Y-114521637D01*
X94835000Y-114278363D01*
X94787540Y-114039764D01*
X94694443Y-113815008D01*
X94635000Y-113726045D01*
X94635000Y-113414497D01*
X99795908Y-108253590D01*
X99835396Y-108221183D01*
X99894545Y-108149110D01*
X99964734Y-108063585D01*
X100060841Y-107883781D01*
X100085647Y-107802007D01*
X100120024Y-107688682D01*
X100135000Y-107536625D01*
X100135000Y-107536622D01*
X100140007Y-107485787D01*
X100135000Y-107434952D01*
X100135000Y-106073955D01*
X100194443Y-105984992D01*
X100287540Y-105760236D01*
X100322213Y-105585923D01*
X106632197Y-111895908D01*
X106664604Y-111935396D01*
X106704092Y-111967803D01*
X106822202Y-112064734D01*
X106895547Y-112103937D01*
X107002007Y-112160841D01*
X107197105Y-112220024D01*
X107349162Y-112235000D01*
X107349171Y-112235000D01*
X107399999Y-112240006D01*
X107450827Y-112235000D01*
X123749172Y-112235000D01*
X123800000Y-112240006D01*
X123850828Y-112235000D01*
X123850838Y-112235000D01*
X124002895Y-112220024D01*
X124197993Y-112160841D01*
X124377797Y-112064734D01*
X124535396Y-111935396D01*
X124567807Y-111895903D01*
X126889669Y-109574042D01*
X126865000Y-109698061D01*
X126865000Y-109901939D01*
X126904774Y-110101898D01*
X126982795Y-110290256D01*
X127065001Y-110413286D01*
X127065000Y-115186715D01*
X126982795Y-115309744D01*
X126904774Y-115498102D01*
X126865000Y-115698061D01*
X126865000Y-115901939D01*
X126904774Y-116101898D01*
X126982795Y-116290256D01*
X127096063Y-116459774D01*
X127240226Y-116603937D01*
X127409744Y-116717205D01*
X127598102Y-116795226D01*
X127798061Y-116835000D01*
X128001939Y-116835000D01*
X128201898Y-116795226D01*
X128390256Y-116717205D01*
X128559774Y-116603937D01*
X128703937Y-116459774D01*
X128817205Y-116290256D01*
X128895226Y-116101898D01*
X128935000Y-115901939D01*
X128935000Y-115698061D01*
X128895226Y-115498102D01*
X128817205Y-115309744D01*
X128735000Y-115186715D01*
X128735000Y-110413285D01*
X128817205Y-110290256D01*
X128895226Y-110101898D01*
X128935000Y-109901939D01*
X128935000Y-109698061D01*
X128895226Y-109498102D01*
X128817205Y-109309744D01*
X128767263Y-109235000D01*
X131855605Y-109235000D01*
X132016508Y-109395903D01*
X132048919Y-109435396D01*
X132206518Y-109564734D01*
X132386322Y-109660841D01*
X132581420Y-109720024D01*
X132733477Y-109735000D01*
X132733480Y-109735000D01*
X132784315Y-109740007D01*
X132835150Y-109735000D01*
X132921290Y-109735000D01*
X132982192Y-109795902D01*
X133014603Y-109835395D01*
X133172202Y-109964733D01*
X133352006Y-110060840D01*
X133547104Y-110120023D01*
X133699161Y-110134999D01*
X133699170Y-110134999D01*
X133749998Y-110140005D01*
X133800826Y-110134999D01*
X138771289Y-110134999D01*
X139016349Y-110380059D01*
X139009744Y-110382795D01*
X138840226Y-110496063D01*
X138696063Y-110640226D01*
X138582795Y-110809744D01*
X138504774Y-110998102D01*
X138465000Y-111198061D01*
X138465000Y-111401939D01*
X138504774Y-111601898D01*
X138582795Y-111790256D01*
X138665001Y-111913286D01*
X138665000Y-113658981D01*
X138660960Y-113700000D01*
X138665000Y-113741018D01*
X138677082Y-113863688D01*
X138724828Y-114021086D01*
X138802364Y-114166145D01*
X138906709Y-114293291D01*
X138938579Y-114319446D01*
X141375908Y-116756775D01*
X141404774Y-116901898D01*
X141482795Y-117090256D01*
X141596063Y-117259774D01*
X141740226Y-117403937D01*
X141909744Y-117517205D01*
X142098102Y-117595226D01*
X142298061Y-117635000D01*
X142501939Y-117635000D01*
X142701898Y-117595226D01*
X142890256Y-117517205D01*
X143059774Y-117403937D01*
X143203937Y-117259774D01*
X143317205Y-117090256D01*
X143395226Y-116901898D01*
X143435000Y-116701939D01*
X143435000Y-116646777D01*
X145155690Y-116646777D01*
X145204096Y-117044704D01*
X145329205Y-117425540D01*
X145474230Y-117696865D01*
X145779553Y-117840842D01*
X147020395Y-116600000D01*
X147379605Y-116600000D01*
X148620447Y-117840842D01*
X148925770Y-117696865D01*
X149106597Y-117339108D01*
X149214155Y-116952947D01*
X149244310Y-116553223D01*
X149195904Y-116155296D01*
X149070795Y-115774460D01*
X148925770Y-115503135D01*
X148620447Y-115359158D01*
X147379605Y-116600000D01*
X147020395Y-116600000D01*
X145779553Y-115359158D01*
X145474230Y-115503135D01*
X145293403Y-115860892D01*
X145185845Y-116247053D01*
X145155690Y-116646777D01*
X143435000Y-116646777D01*
X143435000Y-116498061D01*
X143395226Y-116298102D01*
X143317205Y-116109744D01*
X143203937Y-115940226D01*
X143059774Y-115796063D01*
X142890256Y-115682795D01*
X142701898Y-115604774D01*
X142556775Y-115575908D01*
X142160420Y-115179553D01*
X145959158Y-115179553D01*
X147200000Y-116420395D01*
X148440842Y-115179553D01*
X148296865Y-114874230D01*
X147939108Y-114693403D01*
X147552947Y-114585845D01*
X147153223Y-114555690D01*
X146755296Y-114604096D01*
X146374460Y-114729205D01*
X146103135Y-114874230D01*
X145959158Y-115179553D01*
X142160420Y-115179553D01*
X140335000Y-113354133D01*
X140335000Y-111913285D01*
X140417205Y-111790256D01*
X140419941Y-111783651D01*
X142332197Y-113695908D01*
X142364604Y-113735396D01*
X142404092Y-113767803D01*
X142522202Y-113864734D01*
X142580911Y-113896114D01*
X142702007Y-113960841D01*
X142897105Y-114020024D01*
X143049162Y-114035000D01*
X143049171Y-114035000D01*
X143099999Y-114040006D01*
X143150827Y-114035000D01*
X175684629Y-114035000D01*
X175774662Y-114169744D01*
X176030256Y-114425338D01*
X176330801Y-114626156D01*
X176664750Y-114764482D01*
X177019268Y-114835000D01*
X177380732Y-114835000D01*
X177735250Y-114764482D01*
X177939080Y-114680053D01*
X177754133Y-114865000D01*
X170841018Y-114865000D01*
X170800000Y-114860960D01*
X170758982Y-114865000D01*
X170758981Y-114865000D01*
X170636311Y-114877082D01*
X170478913Y-114924828D01*
X170333854Y-115002364D01*
X170270023Y-115054749D01*
X170263900Y-115059774D01*
X170206709Y-115106709D01*
X170180563Y-115138568D01*
X169238578Y-116080555D01*
X169206709Y-116106709D01*
X169139805Y-116188233D01*
X169102364Y-116233855D01*
X169024828Y-116378914D01*
X168977082Y-116536312D01*
X168960960Y-116700000D01*
X168965000Y-116741019D01*
X168965001Y-118258972D01*
X168960960Y-118300000D01*
X168977082Y-118463688D01*
X169024828Y-118621086D01*
X169102364Y-118766145D01*
X169125907Y-118794832D01*
X169206710Y-118893291D01*
X169238574Y-118919441D01*
X170380558Y-120061426D01*
X170406709Y-120093291D01*
X170533854Y-120197636D01*
X170678913Y-120275172D01*
X170836311Y-120322918D01*
X170958981Y-120335000D01*
X170958991Y-120335000D01*
X170999999Y-120339039D01*
X171041007Y-120335000D01*
X181086715Y-120335000D01*
X181209744Y-120417205D01*
X181398102Y-120495226D01*
X181598061Y-120535000D01*
X181801939Y-120535000D01*
X181942492Y-120507042D01*
X181904774Y-120598102D01*
X181865000Y-120798061D01*
X181865000Y-121001939D01*
X181904774Y-121201898D01*
X181982795Y-121390256D01*
X182096063Y-121559774D01*
X182240226Y-121703937D01*
X182409744Y-121817205D01*
X182598102Y-121895226D01*
X182798061Y-121935000D01*
X183001939Y-121935000D01*
X183201898Y-121895226D01*
X183390256Y-121817205D01*
X183514423Y-121734240D01*
X183629374Y-121722918D01*
X183786772Y-121675172D01*
X183931831Y-121597636D01*
X184058976Y-121493291D01*
X184085131Y-121461421D01*
X185011553Y-120535000D01*
X186558982Y-120535000D01*
X186600000Y-120539040D01*
X186641018Y-120535000D01*
X186641019Y-120535000D01*
X186763689Y-120522918D01*
X186921087Y-120475172D01*
X187066146Y-120397636D01*
X187193291Y-120293291D01*
X187219446Y-120261421D01*
X189961428Y-117519440D01*
X189993291Y-117493291D01*
X190097636Y-117366146D01*
X190172730Y-117225655D01*
X190309744Y-117317205D01*
X190498102Y-117395226D01*
X190698061Y-117435000D01*
X190901939Y-117435000D01*
X191101898Y-117395226D01*
X191290256Y-117317205D01*
X191459774Y-117203937D01*
X191603937Y-117059774D01*
X191717205Y-116890256D01*
X191795226Y-116701898D01*
X191835000Y-116501939D01*
X191835000Y-116475157D01*
X195925158Y-112385000D01*
X204295762Y-112385000D01*
X204334315Y-112388797D01*
X204372868Y-112385000D01*
X204372876Y-112385000D01*
X204488202Y-112373641D01*
X204636175Y-112328754D01*
X204772548Y-112255862D01*
X204892079Y-112157764D01*
X204916662Y-112127810D01*
X205992846Y-111051627D01*
X206098102Y-111095226D01*
X206298061Y-111135000D01*
X206501939Y-111135000D01*
X206701898Y-111095226D01*
X206890256Y-111017205D01*
X207059774Y-110903937D01*
X207203937Y-110759774D01*
X207317205Y-110590256D01*
X207395226Y-110401898D01*
X207435000Y-110201939D01*
X207435000Y-109998061D01*
X207395226Y-109798102D01*
X207317205Y-109609744D01*
X207203937Y-109440226D01*
X207059774Y-109296063D01*
X206890256Y-109182795D01*
X206701898Y-109104774D01*
X206501939Y-109065000D01*
X206298061Y-109065000D01*
X206098102Y-109104774D01*
X205909744Y-109182795D01*
X205740226Y-109296063D01*
X205713153Y-109323136D01*
X205694805Y-109324943D01*
X205680427Y-109326359D01*
X205655720Y-109333854D01*
X205532455Y-109371246D01*
X205396082Y-109444138D01*
X205353708Y-109478914D01*
X205306502Y-109517655D01*
X205306499Y-109517658D01*
X205276551Y-109542236D01*
X205251973Y-109572184D01*
X204009158Y-110815000D01*
X195638552Y-110815000D01*
X195599999Y-110811203D01*
X195561446Y-110815000D01*
X195561439Y-110815000D01*
X195460490Y-110824943D01*
X195446112Y-110826359D01*
X195417627Y-110835000D01*
X195298140Y-110871246D01*
X195161767Y-110944138D01*
X195101876Y-110993290D01*
X195072187Y-111017655D01*
X195072184Y-111017658D01*
X195042236Y-111042236D01*
X195017658Y-111072184D01*
X190724843Y-115365000D01*
X190698061Y-115365000D01*
X190498102Y-115404774D01*
X190309744Y-115482795D01*
X190235000Y-115532737D01*
X190235000Y-110745867D01*
X193506353Y-107474514D01*
X197232500Y-107474514D01*
X197232500Y-107725485D01*
X197255470Y-107958703D01*
X197346245Y-108257948D01*
X197493655Y-108533734D01*
X197692037Y-108775463D01*
X197933765Y-108973845D01*
X198209551Y-109121255D01*
X198508796Y-109212030D01*
X198820000Y-109242681D01*
X199131203Y-109212030D01*
X199430448Y-109121255D01*
X199706234Y-108973845D01*
X199947963Y-108775463D01*
X200090000Y-108602391D01*
X200232037Y-108775463D01*
X200473765Y-108973845D01*
X200749551Y-109121255D01*
X201048796Y-109212030D01*
X201360000Y-109242681D01*
X201671203Y-109212030D01*
X201970448Y-109121255D01*
X202246234Y-108973845D01*
X202372095Y-108870553D01*
X202416963Y-108954494D01*
X202496315Y-109051185D01*
X202593006Y-109130537D01*
X202703320Y-109189502D01*
X202823018Y-109225812D01*
X202947500Y-109238072D01*
X204852500Y-109238072D01*
X204976982Y-109225812D01*
X205096680Y-109189502D01*
X205206994Y-109130537D01*
X205303685Y-109051185D01*
X205383037Y-108954494D01*
X205442002Y-108844180D01*
X205478312Y-108724482D01*
X205490572Y-108600000D01*
X205490572Y-106600000D01*
X205478312Y-106475518D01*
X205442002Y-106355820D01*
X205383037Y-106245506D01*
X205303685Y-106148815D01*
X205206994Y-106069463D01*
X205096680Y-106010498D01*
X204976982Y-105974188D01*
X204852500Y-105961928D01*
X202947500Y-105961928D01*
X202823018Y-105974188D01*
X202703320Y-106010498D01*
X202593006Y-106069463D01*
X202496315Y-106148815D01*
X202416963Y-106245506D01*
X202372095Y-106329446D01*
X202246235Y-106226155D01*
X201970449Y-106078745D01*
X201671204Y-105987970D01*
X201360000Y-105957319D01*
X201048797Y-105987970D01*
X200749552Y-106078745D01*
X200473766Y-106226155D01*
X200232037Y-106424537D01*
X200090000Y-106597609D01*
X199947963Y-106424537D01*
X199706235Y-106226155D01*
X199430449Y-106078745D01*
X199131204Y-105987970D01*
X198820000Y-105957319D01*
X198508797Y-105987970D01*
X198209552Y-106078745D01*
X197933766Y-106226155D01*
X197692037Y-106424537D01*
X197493655Y-106666265D01*
X197346245Y-106942051D01*
X197255470Y-107241296D01*
X197232500Y-107474514D01*
X193506353Y-107474514D01*
X203261426Y-97719442D01*
X203293291Y-97693291D01*
X203319442Y-97661426D01*
X204361428Y-96619440D01*
X204393291Y-96593291D01*
X204497636Y-96466146D01*
X204575172Y-96321087D01*
X204622918Y-96163689D01*
X204635000Y-96041019D01*
X204635000Y-96041009D01*
X204639039Y-96000001D01*
X204635000Y-95958993D01*
X204635000Y-93013285D01*
X204717205Y-92890256D01*
X204795226Y-92701898D01*
X204835000Y-92501939D01*
X204835000Y-92298061D01*
X204795226Y-92098102D01*
X204717205Y-91909744D01*
X204603937Y-91740226D01*
X204459774Y-91596063D01*
X204290256Y-91482795D01*
X204101898Y-91404774D01*
X203901939Y-91365000D01*
X203698061Y-91365000D01*
X203498102Y-91404774D01*
X203309744Y-91482795D01*
X203140226Y-91596063D01*
X202996063Y-91740226D01*
X202882795Y-91909744D01*
X202804774Y-92098102D01*
X202765000Y-92298061D01*
X202765000Y-92501939D01*
X202804774Y-92701898D01*
X202882795Y-92890256D01*
X202965001Y-93013286D01*
X202965000Y-95654132D01*
X202354132Y-96265000D01*
X201311554Y-96265000D01*
X199985131Y-94938579D01*
X199958976Y-94906709D01*
X199831831Y-94802364D01*
X199686772Y-94724828D01*
X199529374Y-94677082D01*
X199414423Y-94665760D01*
X199290256Y-94582795D01*
X199101898Y-94504774D01*
X198901939Y-94465000D01*
X198698061Y-94465000D01*
X198498102Y-94504774D01*
X198309744Y-94582795D01*
X198140226Y-94696063D01*
X197996063Y-94840226D01*
X197882795Y-95009744D01*
X197804774Y-95198102D01*
X197765000Y-95398061D01*
X197765000Y-95601939D01*
X197804774Y-95801898D01*
X197882795Y-95990256D01*
X197996063Y-96159774D01*
X198140226Y-96303937D01*
X198309744Y-96417205D01*
X198498102Y-96495226D01*
X198698061Y-96535000D01*
X198901939Y-96535000D01*
X199101898Y-96495226D01*
X199157155Y-96472338D01*
X200346248Y-97661432D01*
X200372394Y-97693291D01*
X200499539Y-97797636D01*
X200644598Y-97875172D01*
X200720834Y-97898298D01*
X192235000Y-106384133D01*
X192235000Y-91211552D01*
X194561427Y-88885126D01*
X194593291Y-88858976D01*
X194697636Y-88731831D01*
X194775172Y-88586772D01*
X194822918Y-88429374D01*
X194834240Y-88314423D01*
X194917205Y-88190256D01*
X194995226Y-88001898D01*
X195035000Y-87801939D01*
X195035000Y-87775157D01*
X196025158Y-86785000D01*
X198121289Y-86785000D01*
X198140226Y-86803937D01*
X198309744Y-86917205D01*
X198498102Y-86995226D01*
X198698061Y-87035000D01*
X198901939Y-87035000D01*
X199101898Y-86995226D01*
X199290256Y-86917205D01*
X199459774Y-86803937D01*
X199486847Y-86776864D01*
X199519572Y-86773641D01*
X199667545Y-86728754D01*
X199803918Y-86655862D01*
X199923449Y-86557764D01*
X199948032Y-86527810D01*
X200840842Y-85635000D01*
X200901939Y-85635000D01*
X201101898Y-85595226D01*
X201290256Y-85517205D01*
X201459774Y-85403937D01*
X201603937Y-85259774D01*
X201717205Y-85090256D01*
X201795226Y-84901898D01*
X201835000Y-84701939D01*
X201835000Y-84498061D01*
X201795226Y-84298102D01*
X201717205Y-84109744D01*
X201603937Y-83940226D01*
X201459774Y-83796063D01*
X201290256Y-83682795D01*
X201101898Y-83604774D01*
X200901939Y-83565000D01*
X200698061Y-83565000D01*
X200498102Y-83604774D01*
X200309744Y-83682795D01*
X200140226Y-83796063D01*
X199996063Y-83940226D01*
X199882795Y-84109744D01*
X199804774Y-84298102D01*
X199766870Y-84488658D01*
X199207155Y-85048373D01*
X199101898Y-85004774D01*
X198901939Y-84965000D01*
X198698061Y-84965000D01*
X198498102Y-85004774D01*
X198309744Y-85082795D01*
X198140226Y-85196063D01*
X198121289Y-85215000D01*
X195738552Y-85215000D01*
X195699999Y-85211203D01*
X195661446Y-85215000D01*
X195661439Y-85215000D01*
X195546113Y-85226359D01*
X195398140Y-85271246D01*
X195261767Y-85344138D01*
X195208334Y-85387990D01*
X195172187Y-85417655D01*
X195172184Y-85417658D01*
X195142236Y-85442236D01*
X195117658Y-85472184D01*
X193924843Y-86665000D01*
X193898061Y-86665000D01*
X193698102Y-86704774D01*
X193509744Y-86782795D01*
X193340226Y-86896063D01*
X193196063Y-87040226D01*
X193082795Y-87209744D01*
X193004774Y-87398102D01*
X192965000Y-87598061D01*
X192965000Y-87801939D01*
X193004774Y-88001898D01*
X193027662Y-88057155D01*
X190838579Y-90246239D01*
X190806709Y-90272394D01*
X190702365Y-90399539D01*
X190702364Y-90399540D01*
X190624828Y-90544599D01*
X190577082Y-90701997D01*
X190560960Y-90865685D01*
X190565000Y-90906704D01*
X190565001Y-106254131D01*
X188414591Y-108404541D01*
X188435000Y-108301939D01*
X188435000Y-108098061D01*
X188395226Y-107898102D01*
X188317205Y-107709744D01*
X188203937Y-107540226D01*
X188185000Y-107521289D01*
X188185000Y-105890842D01*
X189927816Y-104148027D01*
X189957764Y-104123449D01*
X189993624Y-104079755D01*
X190030353Y-104035000D01*
X190055862Y-104003918D01*
X190128754Y-103867545D01*
X190146293Y-103809728D01*
X190173641Y-103719573D01*
X190176864Y-103686847D01*
X190203937Y-103659774D01*
X190317205Y-103490256D01*
X190395226Y-103301898D01*
X190435000Y-103101939D01*
X190435000Y-102898061D01*
X190395226Y-102698102D01*
X190317205Y-102509744D01*
X190203937Y-102340226D01*
X190059774Y-102196063D01*
X189890256Y-102082795D01*
X189701898Y-102004774D01*
X189501939Y-101965000D01*
X189298061Y-101965000D01*
X189098102Y-102004774D01*
X188909744Y-102082795D01*
X188740226Y-102196063D01*
X188596063Y-102340226D01*
X188482795Y-102509744D01*
X188404774Y-102698102D01*
X188365000Y-102898061D01*
X188365000Y-103101939D01*
X188404774Y-103301898D01*
X188448373Y-103407154D01*
X186960532Y-104894996D01*
X186848918Y-104625537D01*
X186669987Y-104357748D01*
X186442252Y-104130013D01*
X186174463Y-103951082D01*
X185876912Y-103827832D01*
X185561033Y-103765000D01*
X185238967Y-103765000D01*
X184923088Y-103827832D01*
X184625537Y-103951082D01*
X184357748Y-104130013D01*
X184130013Y-104357748D01*
X184125167Y-104365000D01*
X184036614Y-104365000D01*
X183985786Y-104359994D01*
X183934958Y-104365000D01*
X183934949Y-104365000D01*
X183782892Y-104379976D01*
X183587794Y-104439159D01*
X183526134Y-104472117D01*
X183407989Y-104535266D01*
X183313596Y-104612733D01*
X183250391Y-104664604D01*
X183217984Y-104704092D01*
X182357077Y-105565000D01*
X174828711Y-105565000D01*
X174733298Y-105469588D01*
X174735000Y-105461033D01*
X174735000Y-105138967D01*
X174672168Y-104823088D01*
X174548918Y-104525537D01*
X174369987Y-104257748D01*
X174142252Y-104030013D01*
X173874463Y-103851082D01*
X173576912Y-103727832D01*
X173261033Y-103665000D01*
X172938967Y-103665000D01*
X172623088Y-103727832D01*
X172325537Y-103851082D01*
X172057748Y-104030013D01*
X171830013Y-104257748D01*
X171651082Y-104525537D01*
X171527832Y-104823088D01*
X171465000Y-105138967D01*
X171465000Y-105461033D01*
X171527832Y-105776912D01*
X171651082Y-106074463D01*
X171830013Y-106342252D01*
X172057748Y-106569987D01*
X172325537Y-106748918D01*
X172623088Y-106872168D01*
X172938967Y-106935000D01*
X173261033Y-106935000D01*
X173269588Y-106933298D01*
X173632197Y-107295908D01*
X173664604Y-107335396D01*
X173704092Y-107367803D01*
X173822202Y-107464734D01*
X173856133Y-107482870D01*
X174002007Y-107560841D01*
X174197105Y-107620024D01*
X174349162Y-107635000D01*
X174349165Y-107635000D01*
X174400000Y-107640007D01*
X174450835Y-107635000D01*
X179684132Y-107635000D01*
X178938578Y-108380555D01*
X178906709Y-108406709D01*
X178805497Y-108530038D01*
X178802364Y-108533855D01*
X178724828Y-108678914D01*
X178677082Y-108836312D01*
X178660960Y-109000000D01*
X178665000Y-109041019D01*
X178665001Y-111889615D01*
X178625338Y-111830256D01*
X178369744Y-111574662D01*
X178069199Y-111373844D01*
X177735250Y-111235518D01*
X177380732Y-111165000D01*
X177019268Y-111165000D01*
X176664750Y-111235518D01*
X176330801Y-111373844D01*
X176030256Y-111574662D01*
X175774662Y-111830256D01*
X175684629Y-111965000D01*
X143528711Y-111965000D01*
X139967806Y-108404096D01*
X139935395Y-108364603D01*
X139777796Y-108235265D01*
X139597992Y-108139158D01*
X139402894Y-108079975D01*
X139250837Y-108064999D01*
X139250827Y-108064999D01*
X139199999Y-108059993D01*
X139149171Y-108064999D01*
X134178709Y-108064999D01*
X134153939Y-108040229D01*
X134153937Y-108040226D01*
X134117803Y-108004092D01*
X134085396Y-107964604D01*
X134045908Y-107932197D01*
X134009774Y-107896063D01*
X133967284Y-107867672D01*
X133927797Y-107835266D01*
X133882746Y-107811186D01*
X133840256Y-107782795D01*
X133793042Y-107763238D01*
X133747993Y-107739159D01*
X133699113Y-107724331D01*
X133651898Y-107704774D01*
X133601777Y-107694804D01*
X133552895Y-107679976D01*
X133502057Y-107674969D01*
X133451939Y-107665000D01*
X133400828Y-107665000D01*
X133350000Y-107659994D01*
X133299172Y-107665000D01*
X133213025Y-107665000D01*
X133052122Y-107504097D01*
X133019711Y-107464604D01*
X132862112Y-107335266D01*
X132682308Y-107239159D01*
X132487210Y-107179976D01*
X132335153Y-107165000D01*
X132335143Y-107165000D01*
X132284315Y-107159994D01*
X132233487Y-107165000D01*
X126850835Y-107165000D01*
X126800000Y-107159993D01*
X126749165Y-107165000D01*
X126749162Y-107165000D01*
X126597105Y-107179976D01*
X126402007Y-107239159D01*
X126353662Y-107265000D01*
X126222202Y-107335266D01*
X126113192Y-107424729D01*
X126064604Y-107464604D01*
X126032197Y-107504092D01*
X123371290Y-110165000D01*
X121178270Y-110165000D01*
X121215161Y-110128874D01*
X121221034Y-110121773D01*
X121344384Y-109970531D01*
X121377477Y-109920723D01*
X121411284Y-109871349D01*
X121415667Y-109863243D01*
X121507292Y-109690920D01*
X121530090Y-109635608D01*
X121553652Y-109580634D01*
X121556377Y-109571831D01*
X121612786Y-109384994D01*
X121624405Y-109326314D01*
X121636842Y-109267804D01*
X121637805Y-109258639D01*
X121656850Y-109064406D01*
X121656850Y-109064402D01*
X121660000Y-109032419D01*
X121660000Y-105779872D01*
X121765000Y-105779872D01*
X121765000Y-106220128D01*
X121850890Y-106651925D01*
X122019369Y-107058669D01*
X122263962Y-107424729D01*
X122575271Y-107736038D01*
X122941331Y-107980631D01*
X123348075Y-108149110D01*
X123779872Y-108235000D01*
X124220128Y-108235000D01*
X124651925Y-108149110D01*
X125058669Y-107980631D01*
X125424729Y-107736038D01*
X125736038Y-107424729D01*
X125980631Y-107058669D01*
X126149110Y-106651925D01*
X126235000Y-106220128D01*
X126235000Y-105779872D01*
X126149110Y-105348075D01*
X125980631Y-104941331D01*
X125736038Y-104575271D01*
X125424729Y-104263962D01*
X125058669Y-104019369D01*
X124651925Y-103850890D01*
X124220128Y-103765000D01*
X123779872Y-103765000D01*
X123348075Y-103850890D01*
X122941331Y-104019369D01*
X122575271Y-104263962D01*
X122263962Y-104575271D01*
X122019369Y-104941331D01*
X121850890Y-105348075D01*
X121765000Y-105779872D01*
X121660000Y-105779872D01*
X121660000Y-104032279D01*
X121669580Y-103934576D01*
X121688580Y-103871644D01*
X121719445Y-103813595D01*
X121760989Y-103762657D01*
X121811644Y-103720752D01*
X121869471Y-103689485D01*
X121932272Y-103670044D01*
X122027835Y-103660000D01*
X132032419Y-103660000D01*
X132060674Y-103657217D01*
X132066801Y-103657260D01*
X132075972Y-103656360D01*
X132270069Y-103635959D01*
X132328658Y-103623932D01*
X132387423Y-103612723D01*
X132396245Y-103610059D01*
X132582683Y-103552347D01*
X132637838Y-103529162D01*
X132693291Y-103506758D01*
X132701427Y-103502432D01*
X132873104Y-103409607D01*
X132922699Y-103376154D01*
X132972753Y-103343400D01*
X132979894Y-103337576D01*
X133130272Y-103213172D01*
X133172411Y-103170737D01*
X133215161Y-103128874D01*
X133221034Y-103121773D01*
X133344384Y-102970531D01*
X133377477Y-102920723D01*
X133411284Y-102871349D01*
X133415667Y-102863243D01*
X133507292Y-102690920D01*
X133530090Y-102635608D01*
X133553652Y-102580634D01*
X133556377Y-102571831D01*
X133612786Y-102384994D01*
X133624405Y-102326314D01*
X133636842Y-102267804D01*
X133637805Y-102258639D01*
X133656850Y-102064406D01*
X133656850Y-102064402D01*
X133660000Y-102032419D01*
X133660000Y-100819268D01*
X135165000Y-100819268D01*
X135165000Y-101180732D01*
X135235518Y-101535250D01*
X135373844Y-101869199D01*
X135574662Y-102169744D01*
X135830256Y-102425338D01*
X136130801Y-102626156D01*
X136464750Y-102764482D01*
X136819268Y-102835000D01*
X137180732Y-102835000D01*
X137535250Y-102764482D01*
X137869199Y-102626156D01*
X138169744Y-102425338D01*
X138425338Y-102169744D01*
X138626156Y-101869199D01*
X138764482Y-101535250D01*
X138835000Y-101180732D01*
X138835000Y-100819268D01*
X138764482Y-100464750D01*
X138626156Y-100130801D01*
X138425338Y-99830256D01*
X138169744Y-99574662D01*
X137869199Y-99373844D01*
X137535250Y-99235518D01*
X137180732Y-99165000D01*
X136819268Y-99165000D01*
X136464750Y-99235518D01*
X136130801Y-99373844D01*
X135830256Y-99574662D01*
X135574662Y-99830256D01*
X135373844Y-100130801D01*
X135235518Y-100464750D01*
X135165000Y-100819268D01*
X133660000Y-100819268D01*
X133660000Y-95967581D01*
X133657217Y-95939326D01*
X133657260Y-95933199D01*
X133656360Y-95924028D01*
X133635959Y-95729931D01*
X133623934Y-95671348D01*
X133612723Y-95612577D01*
X133610059Y-95603755D01*
X133552347Y-95417317D01*
X133529162Y-95362162D01*
X133506758Y-95306709D01*
X133502432Y-95298573D01*
X133409607Y-95126896D01*
X133376139Y-95077278D01*
X133343400Y-95027247D01*
X133337576Y-95020106D01*
X133213172Y-94869728D01*
X133170737Y-94827589D01*
X133128874Y-94784839D01*
X133121773Y-94778966D01*
X132970531Y-94655616D01*
X132920738Y-94622534D01*
X132871349Y-94588716D01*
X132863243Y-94584333D01*
X132690921Y-94492708D01*
X132635606Y-94469909D01*
X132580634Y-94446348D01*
X132571831Y-94443623D01*
X132384995Y-94387214D01*
X132326307Y-94375594D01*
X132267804Y-94363158D01*
X132258639Y-94362195D01*
X132064405Y-94343150D01*
X132064402Y-94343150D01*
X132032419Y-94340000D01*
X128637181Y-94340000D01*
X129050140Y-94119269D01*
X129527505Y-93727505D01*
X129919269Y-93250140D01*
X130210376Y-92705517D01*
X130389638Y-92114567D01*
X130435000Y-91654002D01*
X130435000Y-88345998D01*
X130389638Y-87885433D01*
X130210376Y-87294483D01*
X129919269Y-86749860D01*
X129527505Y-86272495D01*
X129050139Y-85880731D01*
X128637180Y-85660000D01*
X132032419Y-85660000D01*
X132060674Y-85657217D01*
X132066801Y-85657260D01*
X132075972Y-85656360D01*
X132270069Y-85635959D01*
X132328658Y-85623932D01*
X132387423Y-85612723D01*
X132396245Y-85610059D01*
X132582683Y-85552347D01*
X132637838Y-85529162D01*
X132693291Y-85506758D01*
X132701427Y-85502432D01*
X132873104Y-85409607D01*
X132922699Y-85376154D01*
X132972753Y-85343400D01*
X132979894Y-85337576D01*
X133130272Y-85213172D01*
X133172411Y-85170737D01*
X133215161Y-85128874D01*
X133221034Y-85121773D01*
X133344384Y-84970531D01*
X133344950Y-84969679D01*
X135825000Y-84969679D01*
X135825000Y-86130322D01*
X135848657Y-86370516D01*
X135942148Y-86678715D01*
X136093970Y-86962752D01*
X136298287Y-87211714D01*
X136547249Y-87416031D01*
X136831286Y-87567852D01*
X137139485Y-87661343D01*
X137460000Y-87692911D01*
X137780516Y-87661343D01*
X138088715Y-87567852D01*
X138372752Y-87416031D01*
X138621714Y-87211714D01*
X138730001Y-87079766D01*
X138838287Y-87211714D01*
X139087249Y-87416031D01*
X139371286Y-87567852D01*
X139679485Y-87661343D01*
X140000000Y-87692911D01*
X140320516Y-87661343D01*
X140628715Y-87567852D01*
X140912752Y-87416031D01*
X141161714Y-87211714D01*
X141270001Y-87079766D01*
X141378287Y-87211714D01*
X141627249Y-87416031D01*
X141911286Y-87567852D01*
X142219485Y-87661343D01*
X142540000Y-87692911D01*
X142860516Y-87661343D01*
X143168715Y-87567852D01*
X143452752Y-87416031D01*
X143701714Y-87211714D01*
X143906031Y-86962752D01*
X144057852Y-86678715D01*
X144151343Y-86370516D01*
X144175000Y-86130322D01*
X144175000Y-84969678D01*
X144151343Y-84729484D01*
X144057852Y-84421285D01*
X143906031Y-84137248D01*
X143701714Y-83888286D01*
X143452751Y-83683969D01*
X143168714Y-83532148D01*
X142860515Y-83438657D01*
X142540000Y-83407089D01*
X142219484Y-83438657D01*
X141911285Y-83532148D01*
X141627248Y-83683969D01*
X141378286Y-83888286D01*
X141270000Y-84020234D01*
X141161714Y-83888286D01*
X140912751Y-83683969D01*
X140628714Y-83532148D01*
X140320515Y-83438657D01*
X140000000Y-83407089D01*
X139679484Y-83438657D01*
X139371285Y-83532148D01*
X139087248Y-83683969D01*
X138838286Y-83888286D01*
X138730000Y-84020234D01*
X138621714Y-83888286D01*
X138372751Y-83683969D01*
X138088714Y-83532148D01*
X137780515Y-83438657D01*
X137460000Y-83407089D01*
X137139484Y-83438657D01*
X136831285Y-83532148D01*
X136547248Y-83683969D01*
X136298286Y-83888286D01*
X136093969Y-84137249D01*
X135942148Y-84421286D01*
X135848657Y-84729485D01*
X135825000Y-84969679D01*
X133344950Y-84969679D01*
X133377477Y-84920723D01*
X133411284Y-84871349D01*
X133415667Y-84863243D01*
X133507292Y-84690920D01*
X133530090Y-84635608D01*
X133553652Y-84580634D01*
X133556377Y-84571831D01*
X133612786Y-84384994D01*
X133624405Y-84326314D01*
X133636842Y-84267804D01*
X133637805Y-84258639D01*
X133656850Y-84064406D01*
X133656850Y-84064402D01*
X133660000Y-84032419D01*
X133660000Y-77967581D01*
X133657217Y-77939326D01*
X133657260Y-77933199D01*
X133656360Y-77924028D01*
X133635959Y-77729931D01*
X133623934Y-77671348D01*
X133612723Y-77612577D01*
X133610059Y-77603755D01*
X133552347Y-77417317D01*
X133529162Y-77362162D01*
X133506758Y-77306709D01*
X133502432Y-77298573D01*
X133409607Y-77126896D01*
X133376139Y-77077278D01*
X133343400Y-77027247D01*
X133337576Y-77020106D01*
X133213172Y-76869728D01*
X133170737Y-76827589D01*
X133128874Y-76784839D01*
X133121773Y-76778966D01*
X132970531Y-76655616D01*
X132920738Y-76622534D01*
X132871349Y-76588716D01*
X132863243Y-76584333D01*
X132690921Y-76492708D01*
X132635606Y-76469909D01*
X132580634Y-76446348D01*
X132571831Y-76443623D01*
X132384995Y-76387214D01*
X132326307Y-76375594D01*
X132267804Y-76363158D01*
X132258639Y-76362195D01*
X132064405Y-76343150D01*
X132064402Y-76343150D01*
X132032419Y-76340000D01*
X122032279Y-76340000D01*
X121934576Y-76330420D01*
X121871643Y-76311420D01*
X121813594Y-76280554D01*
X121762657Y-76239011D01*
X121720752Y-76188356D01*
X121689485Y-76130529D01*
X121670044Y-76067728D01*
X121660000Y-75972165D01*
X121660000Y-73779872D01*
X121765000Y-73779872D01*
X121765000Y-74220128D01*
X121850890Y-74651925D01*
X122019369Y-75058669D01*
X122263962Y-75424729D01*
X122575271Y-75736038D01*
X122941331Y-75980631D01*
X123348075Y-76149110D01*
X123779872Y-76235000D01*
X124220128Y-76235000D01*
X124651925Y-76149110D01*
X125058669Y-75980631D01*
X125424729Y-75736038D01*
X125736038Y-75424729D01*
X125980631Y-75058669D01*
X126149110Y-74651925D01*
X126235000Y-74220128D01*
X126235000Y-73779872D01*
X126149110Y-73348075D01*
X126137178Y-73319268D01*
X128165000Y-73319268D01*
X128165000Y-73680732D01*
X128235518Y-74035250D01*
X128373844Y-74369199D01*
X128574662Y-74669744D01*
X128830256Y-74925338D01*
X129130801Y-75126156D01*
X129464750Y-75264482D01*
X129819268Y-75335000D01*
X130180732Y-75335000D01*
X130535250Y-75264482D01*
X130869199Y-75126156D01*
X131169744Y-74925338D01*
X131425338Y-74669744D01*
X131626156Y-74369199D01*
X131764482Y-74035250D01*
X131835000Y-73680732D01*
X131835000Y-73319268D01*
X131764482Y-72964750D01*
X131626156Y-72630801D01*
X131425338Y-72330256D01*
X131169744Y-72074662D01*
X130869199Y-71873844D01*
X130535250Y-71735518D01*
X130180732Y-71665000D01*
X129819268Y-71665000D01*
X129464750Y-71735518D01*
X129130801Y-71873844D01*
X128830256Y-72074662D01*
X128574662Y-72330256D01*
X128373844Y-72630801D01*
X128235518Y-72964750D01*
X128165000Y-73319268D01*
X126137178Y-73319268D01*
X125980631Y-72941331D01*
X125736038Y-72575271D01*
X125424729Y-72263962D01*
X125058669Y-72019369D01*
X124651925Y-71850890D01*
X124220128Y-71765000D01*
X123779872Y-71765000D01*
X123348075Y-71850890D01*
X122941331Y-72019369D01*
X122575271Y-72263962D01*
X122263962Y-72575271D01*
X122019369Y-72941331D01*
X121850890Y-73348075D01*
X121765000Y-73779872D01*
X121660000Y-73779872D01*
X121660000Y-71032279D01*
X121669580Y-70934576D01*
X121688580Y-70871644D01*
X121719445Y-70813595D01*
X121760989Y-70762657D01*
X121811644Y-70720752D01*
X121869471Y-70689485D01*
X121932272Y-70670044D01*
X122027835Y-70660000D01*
X157967721Y-70660000D01*
X158065424Y-70669580D01*
G36*
X113065424Y-70669580D02*
G01*
X113128356Y-70688580D01*
X113186405Y-70719445D01*
X113237343Y-70760989D01*
X113279248Y-70811644D01*
X113310515Y-70869471D01*
X113329956Y-70932272D01*
X113340000Y-71027835D01*
X113340001Y-75967711D01*
X113330420Y-76065424D01*
X113311420Y-76128357D01*
X113280554Y-76186406D01*
X113239011Y-76237343D01*
X113188356Y-76279248D01*
X113130529Y-76310515D01*
X113067728Y-76329956D01*
X112972165Y-76340000D01*
X102967581Y-76340000D01*
X102939326Y-76342783D01*
X102933199Y-76342740D01*
X102924028Y-76343640D01*
X102729931Y-76364041D01*
X102671348Y-76376066D01*
X102612577Y-76387277D01*
X102603755Y-76389941D01*
X102417317Y-76447653D01*
X102362162Y-76470838D01*
X102306709Y-76493242D01*
X102298573Y-76497568D01*
X102126896Y-76590393D01*
X102077278Y-76623861D01*
X102027247Y-76656600D01*
X102020106Y-76662424D01*
X101869728Y-76786828D01*
X101827589Y-76829263D01*
X101784839Y-76871126D01*
X101778966Y-76878227D01*
X101655616Y-77029469D01*
X101622534Y-77079262D01*
X101588716Y-77128651D01*
X101584333Y-77136757D01*
X101492708Y-77309079D01*
X101469909Y-77364394D01*
X101446348Y-77419366D01*
X101443623Y-77428169D01*
X101387214Y-77615005D01*
X101375594Y-77673693D01*
X101363158Y-77732196D01*
X101362195Y-77741361D01*
X101343150Y-77935595D01*
X101340000Y-77967582D01*
X101340001Y-83499947D01*
X101335000Y-83449171D01*
X101335000Y-83449162D01*
X101320024Y-83297105D01*
X101260841Y-83102007D01*
X101164734Y-82922203D01*
X101035396Y-82764604D01*
X100995908Y-82732197D01*
X98967807Y-80704097D01*
X98935396Y-80664604D01*
X98777797Y-80535266D01*
X98597993Y-80439159D01*
X98402895Y-80379976D01*
X98250838Y-80365000D01*
X98250828Y-80365000D01*
X98200000Y-80359994D01*
X98149172Y-80365000D01*
X94073955Y-80365000D01*
X93984992Y-80305557D01*
X93760236Y-80212460D01*
X93521637Y-80165000D01*
X93278363Y-80165000D01*
X93039764Y-80212460D01*
X92815008Y-80305557D01*
X92612733Y-80440713D01*
X92440713Y-80612733D01*
X92305557Y-80815008D01*
X92212460Y-81039764D01*
X92165000Y-81278363D01*
X92165000Y-81521637D01*
X92212460Y-81760236D01*
X92305557Y-81984992D01*
X92440713Y-82187267D01*
X92612733Y-82359287D01*
X92815008Y-82494443D01*
X93039764Y-82587540D01*
X93278363Y-82635000D01*
X93521637Y-82635000D01*
X93760236Y-82587540D01*
X93984992Y-82494443D01*
X94073955Y-82435000D01*
X97771290Y-82435000D01*
X99265001Y-83928712D01*
X99265000Y-99349918D01*
X99169744Y-99254662D01*
X98869199Y-99053844D01*
X98535250Y-98915518D01*
X98180732Y-98845000D01*
X97819268Y-98845000D01*
X97464750Y-98915518D01*
X97130801Y-99053844D01*
X96830256Y-99254662D01*
X96574662Y-99510256D01*
X96373844Y-99810801D01*
X96235518Y-100144750D01*
X96165000Y-100499268D01*
X96165000Y-100860732D01*
X96235518Y-101215250D01*
X96373844Y-101549199D01*
X96574662Y-101849744D01*
X96830256Y-102105338D01*
X97130801Y-102306156D01*
X97464750Y-102444482D01*
X97819268Y-102515000D01*
X98180732Y-102515000D01*
X98535250Y-102444482D01*
X98869199Y-102306156D01*
X99169744Y-102105338D01*
X99265000Y-102010082D01*
X99265000Y-104049172D01*
X99259994Y-104100000D01*
X99265000Y-104150828D01*
X99265000Y-104150837D01*
X99267289Y-104174081D01*
X99221637Y-104165000D01*
X98978363Y-104165000D01*
X98739764Y-104212460D01*
X98515008Y-104305557D01*
X98312733Y-104440713D01*
X98140713Y-104612733D01*
X98005557Y-104815008D01*
X97912460Y-105039764D01*
X97865000Y-105278363D01*
X97865000Y-105521637D01*
X97912460Y-105760236D01*
X98005557Y-105984992D01*
X98065001Y-106073956D01*
X98065000Y-107057076D01*
X92904093Y-112217984D01*
X92864605Y-112250391D01*
X92832198Y-112289879D01*
X92832197Y-112289880D01*
X92735266Y-112407990D01*
X92639160Y-112587794D01*
X92579977Y-112782892D01*
X92559994Y-112985787D01*
X92565001Y-113036624D01*
X92565000Y-113726045D01*
X92505557Y-113815008D01*
X92412460Y-114039764D01*
X92402084Y-114091927D01*
X92035000Y-113724843D01*
X92035000Y-111338556D01*
X92038797Y-111300000D01*
X92035000Y-111261444D01*
X92035000Y-111261439D01*
X92028949Y-111200000D01*
X92023642Y-111146113D01*
X91978754Y-110998140D01*
X91968477Y-110978913D01*
X91905862Y-110861767D01*
X91807764Y-110742236D01*
X91777810Y-110717653D01*
X91435000Y-110374843D01*
X91435000Y-110348061D01*
X91395226Y-110148102D01*
X91317205Y-109959744D01*
X91203937Y-109790226D01*
X91059774Y-109646063D01*
X90890256Y-109532795D01*
X90701898Y-109454774D01*
X90501939Y-109415000D01*
X90298061Y-109415000D01*
X90098102Y-109454774D01*
X89909744Y-109532795D01*
X89740226Y-109646063D01*
X89596063Y-109790226D01*
X89482795Y-109959744D01*
X89404774Y-110148102D01*
X89365000Y-110348061D01*
X89365000Y-110551939D01*
X89404774Y-110751898D01*
X89482795Y-110940256D01*
X89596063Y-111109774D01*
X89740226Y-111253937D01*
X89909744Y-111367205D01*
X90098102Y-111445226D01*
X90197513Y-111465000D01*
X90148061Y-111465000D01*
X89948102Y-111504774D01*
X89759744Y-111582795D01*
X89590226Y-111696063D01*
X89446063Y-111840226D01*
X89332795Y-112009744D01*
X89254774Y-112198102D01*
X89215000Y-112398061D01*
X89215000Y-112601939D01*
X89254774Y-112801898D01*
X89332795Y-112990256D01*
X89446063Y-113159774D01*
X89465000Y-113178711D01*
X89465000Y-113718569D01*
X89461203Y-113757122D01*
X89465000Y-113795675D01*
X89465000Y-113795682D01*
X89476359Y-113911008D01*
X89521246Y-114058981D01*
X89594138Y-114195354D01*
X89692236Y-114314886D01*
X89722190Y-114339469D01*
X92160550Y-116777830D01*
X92185124Y-116807773D01*
X92215067Y-116832347D01*
X92215075Y-116832355D01*
X92304655Y-116905871D01*
X92441028Y-116978764D01*
X92589001Y-117023651D01*
X92742887Y-117038807D01*
X92781450Y-117035009D01*
X98143230Y-117035011D01*
X103615001Y-122506782D01*
X103615001Y-122755809D01*
X103427216Y-122793162D01*
X102820285Y-123044561D01*
X102274061Y-123409536D01*
X101809536Y-123874061D01*
X101444561Y-124420285D01*
X101193162Y-125027216D01*
X101065000Y-125671531D01*
X101065000Y-126328469D01*
X101193162Y-126972784D01*
X101444561Y-127579715D01*
X101809536Y-128125939D01*
X102274061Y-128590464D01*
X102385612Y-128665000D01*
X97746943Y-128665000D01*
X97965769Y-128345374D01*
X95800000Y-126179605D01*
X93634231Y-128345374D01*
X93853057Y-128665000D01*
X90175157Y-128665000D01*
X87735000Y-126224843D01*
X87735000Y-126198061D01*
X87695226Y-125998102D01*
X87694120Y-125995431D01*
X92448866Y-125995431D01*
X92512366Y-126649293D01*
X92702208Y-127278203D01*
X93011096Y-127857992D01*
X93016172Y-127865589D01*
X93454626Y-128165769D01*
X95620395Y-126000000D01*
X95979605Y-126000000D01*
X98145374Y-128165769D01*
X98583828Y-127865589D01*
X98894296Y-127286644D01*
X99085852Y-126658254D01*
X99151134Y-126004569D01*
X99087634Y-125350707D01*
X98897792Y-124721797D01*
X98588904Y-124142008D01*
X98583828Y-124134411D01*
X98145374Y-123834231D01*
X95979605Y-126000000D01*
X95620395Y-126000000D01*
X93454626Y-123834231D01*
X93016172Y-124134411D01*
X92705704Y-124713356D01*
X92514148Y-125341746D01*
X92448866Y-125995431D01*
X87694120Y-125995431D01*
X87617205Y-125809744D01*
X87503937Y-125640226D01*
X87359774Y-125496063D01*
X87190256Y-125382795D01*
X87001898Y-125304774D01*
X86801939Y-125265000D01*
X86598061Y-125265000D01*
X86398102Y-125304774D01*
X86209744Y-125382795D01*
X86040226Y-125496063D01*
X85896063Y-125640226D01*
X85782795Y-125809744D01*
X85704774Y-125998102D01*
X85665000Y-126198061D01*
X85665000Y-126401939D01*
X85704774Y-126601898D01*
X85782795Y-126790256D01*
X85896063Y-126959774D01*
X86040226Y-127103937D01*
X86209744Y-127217205D01*
X86398102Y-127295226D01*
X86598061Y-127335000D01*
X86624843Y-127335000D01*
X88629843Y-129340000D01*
X77032279Y-129340000D01*
X76934576Y-129330420D01*
X76871643Y-129311420D01*
X76813594Y-129280554D01*
X76762657Y-129239011D01*
X76720752Y-129188356D01*
X76689485Y-129130529D01*
X76670044Y-129067728D01*
X76660000Y-128972165D01*
X76660000Y-126779872D01*
X76765000Y-126779872D01*
X76765000Y-127220128D01*
X76850890Y-127651925D01*
X77019369Y-128058669D01*
X77263962Y-128424729D01*
X77575271Y-128736038D01*
X77941331Y-128980631D01*
X78348075Y-129149110D01*
X78779872Y-129235000D01*
X79220128Y-129235000D01*
X79651925Y-129149110D01*
X80058669Y-128980631D01*
X80424729Y-128736038D01*
X80736038Y-128424729D01*
X80980631Y-128058669D01*
X81149110Y-127651925D01*
X81235000Y-127220128D01*
X81235000Y-126779872D01*
X81149110Y-126348075D01*
X80980631Y-125941331D01*
X80736038Y-125575271D01*
X80424729Y-125263962D01*
X80058669Y-125019369D01*
X79651925Y-124850890D01*
X79220128Y-124765000D01*
X78779872Y-124765000D01*
X78348075Y-124850890D01*
X77941331Y-125019369D01*
X77575271Y-125263962D01*
X77263962Y-125575271D01*
X77019369Y-125941331D01*
X76850890Y-126348075D01*
X76765000Y-126779872D01*
X76660000Y-126779872D01*
X76660000Y-123654626D01*
X93634231Y-123654626D01*
X95800000Y-125820395D01*
X97965769Y-123654626D01*
X97665589Y-123216172D01*
X97086644Y-122905704D01*
X96458254Y-122714148D01*
X95804569Y-122648866D01*
X95150707Y-122712366D01*
X94521797Y-122902208D01*
X93942008Y-123211096D01*
X93934411Y-123216172D01*
X93634231Y-123654626D01*
X76660000Y-123654626D01*
X76660000Y-120819268D01*
X96165000Y-120819268D01*
X96165000Y-121180732D01*
X96235518Y-121535250D01*
X96373844Y-121869199D01*
X96574662Y-122169744D01*
X96830256Y-122425338D01*
X97130801Y-122626156D01*
X97464750Y-122764482D01*
X97819268Y-122835000D01*
X98180732Y-122835000D01*
X98535250Y-122764482D01*
X98869199Y-122626156D01*
X99169744Y-122425338D01*
X99425338Y-122169744D01*
X99626156Y-121869199D01*
X99764482Y-121535250D01*
X99835000Y-121180732D01*
X99835000Y-120819268D01*
X99764482Y-120464750D01*
X99626156Y-120130801D01*
X99425338Y-119830256D01*
X99169744Y-119574662D01*
X98869199Y-119373844D01*
X98535250Y-119235518D01*
X98180732Y-119165000D01*
X97819268Y-119165000D01*
X97464750Y-119235518D01*
X97130801Y-119373844D01*
X96830256Y-119574662D01*
X96574662Y-119830256D01*
X96373844Y-120130801D01*
X96235518Y-120464750D01*
X96165000Y-120819268D01*
X76660000Y-120819268D01*
X76660000Y-105779872D01*
X76765000Y-105779872D01*
X76765000Y-106220128D01*
X76850890Y-106651925D01*
X77019369Y-107058669D01*
X77263962Y-107424729D01*
X77575271Y-107736038D01*
X77941331Y-107980631D01*
X78348075Y-108149110D01*
X78779872Y-108235000D01*
X79220128Y-108235000D01*
X79651925Y-108149110D01*
X80058669Y-107980631D01*
X80424729Y-107736038D01*
X80736038Y-107424729D01*
X80980631Y-107058669D01*
X81149110Y-106651925D01*
X81235000Y-106220128D01*
X81235000Y-105779872D01*
X81149110Y-105348075D01*
X80980631Y-104941331D01*
X80736038Y-104575271D01*
X80424729Y-104263962D01*
X80058669Y-104019369D01*
X79651925Y-103850890D01*
X79220128Y-103765000D01*
X78779872Y-103765000D01*
X78348075Y-103850890D01*
X77941331Y-104019369D01*
X77575271Y-104263962D01*
X77263962Y-104575271D01*
X77019369Y-104941331D01*
X76850890Y-105348075D01*
X76765000Y-105779872D01*
X76660000Y-105779872D01*
X76660000Y-104032279D01*
X76669580Y-103934576D01*
X76688580Y-103871644D01*
X76719445Y-103813595D01*
X76760989Y-103762657D01*
X76811644Y-103720752D01*
X76869471Y-103689485D01*
X76932272Y-103670044D01*
X77027835Y-103660000D01*
X87032419Y-103660000D01*
X87060674Y-103657217D01*
X87066801Y-103657260D01*
X87075972Y-103656360D01*
X87270069Y-103635959D01*
X87328658Y-103623932D01*
X87387423Y-103612723D01*
X87396245Y-103610059D01*
X87582683Y-103552347D01*
X87637838Y-103529162D01*
X87693291Y-103506758D01*
X87701427Y-103502432D01*
X87873104Y-103409607D01*
X87922699Y-103376154D01*
X87972753Y-103343400D01*
X87979894Y-103337576D01*
X88130272Y-103213172D01*
X88172411Y-103170737D01*
X88215161Y-103128874D01*
X88221034Y-103121773D01*
X88344384Y-102970531D01*
X88377477Y-102920723D01*
X88411284Y-102871349D01*
X88415667Y-102863243D01*
X88507292Y-102690920D01*
X88530090Y-102635608D01*
X88553652Y-102580634D01*
X88556377Y-102571831D01*
X88612786Y-102384994D01*
X88624405Y-102326314D01*
X88636842Y-102267804D01*
X88637805Y-102258639D01*
X88656850Y-102064406D01*
X88656850Y-102064402D01*
X88660000Y-102032419D01*
X88660000Y-95967581D01*
X88657217Y-95939326D01*
X88657260Y-95933199D01*
X88656360Y-95924028D01*
X88635959Y-95729931D01*
X88623934Y-95671348D01*
X88612723Y-95612577D01*
X88610059Y-95603755D01*
X88552347Y-95417317D01*
X88529162Y-95362162D01*
X88506758Y-95306709D01*
X88502432Y-95298573D01*
X88409607Y-95126896D01*
X88376139Y-95077278D01*
X88343400Y-95027247D01*
X88337576Y-95020106D01*
X88213172Y-94869728D01*
X88170737Y-94827589D01*
X88128874Y-94784839D01*
X88121773Y-94778966D01*
X87970531Y-94655616D01*
X87920738Y-94622534D01*
X87871349Y-94588716D01*
X87863243Y-94584333D01*
X87690921Y-94492708D01*
X87635606Y-94469909D01*
X87580634Y-94446348D01*
X87571831Y-94443623D01*
X87384995Y-94387214D01*
X87326307Y-94375594D01*
X87267804Y-94363158D01*
X87258639Y-94362195D01*
X87064405Y-94343150D01*
X87064402Y-94343150D01*
X87032419Y-94340000D01*
X83637181Y-94340000D01*
X84050140Y-94119269D01*
X84354265Y-93869679D01*
X90825000Y-93869679D01*
X90825000Y-95030322D01*
X90848657Y-95270516D01*
X90942148Y-95578715D01*
X91093970Y-95862752D01*
X91298287Y-96111714D01*
X91547249Y-96316031D01*
X91831286Y-96467852D01*
X92139485Y-96561343D01*
X92460000Y-96592911D01*
X92780516Y-96561343D01*
X93088715Y-96467852D01*
X93372752Y-96316031D01*
X93621714Y-96111714D01*
X93730001Y-95979766D01*
X93838287Y-96111714D01*
X94087249Y-96316031D01*
X94371286Y-96467852D01*
X94679485Y-96561343D01*
X95000000Y-96592911D01*
X95320516Y-96561343D01*
X95628715Y-96467852D01*
X95912752Y-96316031D01*
X96161714Y-96111714D01*
X96270001Y-95979766D01*
X96378287Y-96111714D01*
X96627249Y-96316031D01*
X96911286Y-96467852D01*
X97219485Y-96561343D01*
X97540000Y-96592911D01*
X97860516Y-96561343D01*
X98168715Y-96467852D01*
X98452752Y-96316031D01*
X98701714Y-96111714D01*
X98906031Y-95862752D01*
X99057852Y-95578715D01*
X99151343Y-95270516D01*
X99175000Y-95030322D01*
X99175000Y-93869678D01*
X99151343Y-93629484D01*
X99057852Y-93321285D01*
X98906031Y-93037248D01*
X98701714Y-92788286D01*
X98452751Y-92583969D01*
X98168714Y-92432148D01*
X97860515Y-92338657D01*
X97540000Y-92307089D01*
X97219484Y-92338657D01*
X96911285Y-92432148D01*
X96627248Y-92583969D01*
X96378286Y-92788286D01*
X96270000Y-92920234D01*
X96161714Y-92788286D01*
X95912751Y-92583969D01*
X95628714Y-92432148D01*
X95320515Y-92338657D01*
X95000000Y-92307089D01*
X94679484Y-92338657D01*
X94371285Y-92432148D01*
X94087248Y-92583969D01*
X93838286Y-92788286D01*
X93730000Y-92920234D01*
X93621714Y-92788286D01*
X93372751Y-92583969D01*
X93088714Y-92432148D01*
X92780515Y-92338657D01*
X92460000Y-92307089D01*
X92139484Y-92338657D01*
X91831285Y-92432148D01*
X91547248Y-92583969D01*
X91298286Y-92788286D01*
X91093969Y-93037249D01*
X90942148Y-93321286D01*
X90848657Y-93629485D01*
X90825000Y-93869679D01*
X84354265Y-93869679D01*
X84527505Y-93727505D01*
X84919269Y-93250140D01*
X85210376Y-92705517D01*
X85389638Y-92114567D01*
X85435000Y-91654002D01*
X85435000Y-88345998D01*
X85389638Y-87885433D01*
X85210376Y-87294483D01*
X84919269Y-86749860D01*
X84527505Y-86272495D01*
X84050139Y-85880731D01*
X83637180Y-85660000D01*
X87032419Y-85660000D01*
X87060674Y-85657217D01*
X87066801Y-85657260D01*
X87075972Y-85656360D01*
X87270069Y-85635959D01*
X87328658Y-85623932D01*
X87387423Y-85612723D01*
X87396245Y-85610059D01*
X87582683Y-85552347D01*
X87637838Y-85529162D01*
X87693291Y-85506758D01*
X87701427Y-85502432D01*
X87873104Y-85409607D01*
X87922699Y-85376154D01*
X87972753Y-85343400D01*
X87979894Y-85337576D01*
X88130272Y-85213172D01*
X88172411Y-85170737D01*
X88215161Y-85128874D01*
X88221034Y-85121773D01*
X88344384Y-84970531D01*
X88344950Y-84969679D01*
X90825000Y-84969679D01*
X90825000Y-86130322D01*
X90848657Y-86370516D01*
X90942148Y-86678715D01*
X91093970Y-86962752D01*
X91298287Y-87211714D01*
X91547249Y-87416031D01*
X91831286Y-87567852D01*
X92139485Y-87661343D01*
X92460000Y-87692911D01*
X92780516Y-87661343D01*
X93088715Y-87567852D01*
X93372752Y-87416031D01*
X93621714Y-87211714D01*
X93730001Y-87079766D01*
X93838287Y-87211714D01*
X94087249Y-87416031D01*
X94371286Y-87567852D01*
X94679485Y-87661343D01*
X95000000Y-87692911D01*
X95320516Y-87661343D01*
X95628715Y-87567852D01*
X95912752Y-87416031D01*
X96161714Y-87211714D01*
X96270001Y-87079766D01*
X96378287Y-87211714D01*
X96627249Y-87416031D01*
X96911286Y-87567852D01*
X97219485Y-87661343D01*
X97540000Y-87692911D01*
X97860516Y-87661343D01*
X98168715Y-87567852D01*
X98452752Y-87416031D01*
X98701714Y-87211714D01*
X98906031Y-86962752D01*
X99057852Y-86678715D01*
X99151343Y-86370516D01*
X99175000Y-86130322D01*
X99175000Y-84969678D01*
X99151343Y-84729484D01*
X99057852Y-84421285D01*
X98906031Y-84137248D01*
X98701714Y-83888286D01*
X98452751Y-83683969D01*
X98168714Y-83532148D01*
X97860515Y-83438657D01*
X97540000Y-83407089D01*
X97219484Y-83438657D01*
X96911285Y-83532148D01*
X96627248Y-83683969D01*
X96378286Y-83888286D01*
X96270000Y-84020234D01*
X96161714Y-83888286D01*
X95912751Y-83683969D01*
X95628714Y-83532148D01*
X95320515Y-83438657D01*
X95000000Y-83407089D01*
X94679484Y-83438657D01*
X94371285Y-83532148D01*
X94087248Y-83683969D01*
X93838286Y-83888286D01*
X93730000Y-84020234D01*
X93621714Y-83888286D01*
X93372751Y-83683969D01*
X93088714Y-83532148D01*
X92780515Y-83438657D01*
X92460000Y-83407089D01*
X92139484Y-83438657D01*
X91831285Y-83532148D01*
X91547248Y-83683969D01*
X91298286Y-83888286D01*
X91093969Y-84137249D01*
X90942148Y-84421286D01*
X90848657Y-84729485D01*
X90825000Y-84969679D01*
X88344950Y-84969679D01*
X88377477Y-84920723D01*
X88411284Y-84871349D01*
X88415667Y-84863243D01*
X88507292Y-84690920D01*
X88530090Y-84635608D01*
X88553652Y-84580634D01*
X88556377Y-84571831D01*
X88612786Y-84384994D01*
X88624405Y-84326314D01*
X88636842Y-84267804D01*
X88637805Y-84258639D01*
X88656850Y-84064406D01*
X88656850Y-84064402D01*
X88660000Y-84032419D01*
X88660000Y-77967581D01*
X88657217Y-77939326D01*
X88657260Y-77933199D01*
X88656360Y-77924028D01*
X88635959Y-77729931D01*
X88623934Y-77671348D01*
X88612723Y-77612577D01*
X88610059Y-77603755D01*
X88552347Y-77417317D01*
X88529162Y-77362162D01*
X88506758Y-77306709D01*
X88502432Y-77298573D01*
X88409607Y-77126896D01*
X88376139Y-77077278D01*
X88343400Y-77027247D01*
X88337576Y-77020106D01*
X88213172Y-76869728D01*
X88170737Y-76827589D01*
X88128874Y-76784839D01*
X88121773Y-76778966D01*
X87970531Y-76655616D01*
X87920738Y-76622534D01*
X87871349Y-76588716D01*
X87863243Y-76584333D01*
X87690921Y-76492708D01*
X87635606Y-76469909D01*
X87580634Y-76446348D01*
X87571831Y-76443623D01*
X87384995Y-76387214D01*
X87326307Y-76375594D01*
X87267804Y-76363158D01*
X87258639Y-76362195D01*
X87064405Y-76343150D01*
X87064402Y-76343150D01*
X87032419Y-76340000D01*
X77032279Y-76340000D01*
X76934576Y-76330420D01*
X76871643Y-76311420D01*
X76813594Y-76280554D01*
X76762657Y-76239011D01*
X76720752Y-76188356D01*
X76689485Y-76130529D01*
X76670044Y-76067728D01*
X76660000Y-75972165D01*
X76660000Y-73779872D01*
X76765000Y-73779872D01*
X76765000Y-74220128D01*
X76850890Y-74651925D01*
X77019369Y-75058669D01*
X77263962Y-75424729D01*
X77575271Y-75736038D01*
X77941331Y-75980631D01*
X78348075Y-76149110D01*
X78779872Y-76235000D01*
X79220128Y-76235000D01*
X79651925Y-76149110D01*
X80058669Y-75980631D01*
X80424729Y-75736038D01*
X80736038Y-75424729D01*
X80980631Y-75058669D01*
X81149110Y-74651925D01*
X81235000Y-74220128D01*
X81235000Y-73779872D01*
X81149110Y-73348075D01*
X81137178Y-73319268D01*
X83165000Y-73319268D01*
X83165000Y-73680732D01*
X83235518Y-74035250D01*
X83373844Y-74369199D01*
X83574662Y-74669744D01*
X83830256Y-74925338D01*
X84130801Y-75126156D01*
X84464750Y-75264482D01*
X84819268Y-75335000D01*
X85180732Y-75335000D01*
X85535250Y-75264482D01*
X85869199Y-75126156D01*
X86169744Y-74925338D01*
X86425338Y-74669744D01*
X86626156Y-74369199D01*
X86764482Y-74035250D01*
X86835000Y-73680732D01*
X86835000Y-73319268D01*
X103485000Y-73319268D01*
X103485000Y-73680732D01*
X103555518Y-74035250D01*
X103693844Y-74369199D01*
X103894662Y-74669744D01*
X104150256Y-74925338D01*
X104450801Y-75126156D01*
X104784750Y-75264482D01*
X105139268Y-75335000D01*
X105500732Y-75335000D01*
X105855250Y-75264482D01*
X106189199Y-75126156D01*
X106489744Y-74925338D01*
X106745338Y-74669744D01*
X106946156Y-74369199D01*
X107084482Y-74035250D01*
X107135279Y-73779872D01*
X108765000Y-73779872D01*
X108765000Y-74220128D01*
X108850890Y-74651925D01*
X109019369Y-75058669D01*
X109263962Y-75424729D01*
X109575271Y-75736038D01*
X109941331Y-75980631D01*
X110348075Y-76149110D01*
X110779872Y-76235000D01*
X111220128Y-76235000D01*
X111651925Y-76149110D01*
X112058669Y-75980631D01*
X112424729Y-75736038D01*
X112736038Y-75424729D01*
X112980631Y-75058669D01*
X113149110Y-74651925D01*
X113235000Y-74220128D01*
X113235000Y-73779872D01*
X113149110Y-73348075D01*
X112980631Y-72941331D01*
X112736038Y-72575271D01*
X112424729Y-72263962D01*
X112058669Y-72019369D01*
X111651925Y-71850890D01*
X111220128Y-71765000D01*
X110779872Y-71765000D01*
X110348075Y-71850890D01*
X109941331Y-72019369D01*
X109575271Y-72263962D01*
X109263962Y-72575271D01*
X109019369Y-72941331D01*
X108850890Y-73348075D01*
X108765000Y-73779872D01*
X107135279Y-73779872D01*
X107155000Y-73680732D01*
X107155000Y-73319268D01*
X107084482Y-72964750D01*
X106946156Y-72630801D01*
X106745338Y-72330256D01*
X106489744Y-72074662D01*
X106189199Y-71873844D01*
X105855250Y-71735518D01*
X105500732Y-71665000D01*
X105139268Y-71665000D01*
X104784750Y-71735518D01*
X104450801Y-71873844D01*
X104150256Y-72074662D01*
X103894662Y-72330256D01*
X103693844Y-72630801D01*
X103555518Y-72964750D01*
X103485000Y-73319268D01*
X86835000Y-73319268D01*
X86764482Y-72964750D01*
X86626156Y-72630801D01*
X86425338Y-72330256D01*
X86169744Y-72074662D01*
X85869199Y-71873844D01*
X85535250Y-71735518D01*
X85180732Y-71665000D01*
X84819268Y-71665000D01*
X84464750Y-71735518D01*
X84130801Y-71873844D01*
X83830256Y-72074662D01*
X83574662Y-72330256D01*
X83373844Y-72630801D01*
X83235518Y-72964750D01*
X83165000Y-73319268D01*
X81137178Y-73319268D01*
X80980631Y-72941331D01*
X80736038Y-72575271D01*
X80424729Y-72263962D01*
X80058669Y-72019369D01*
X79651925Y-71850890D01*
X79220128Y-71765000D01*
X78779872Y-71765000D01*
X78348075Y-71850890D01*
X77941331Y-72019369D01*
X77575271Y-72263962D01*
X77263962Y-72575271D01*
X77019369Y-72941331D01*
X76850890Y-73348075D01*
X76765000Y-73779872D01*
X76660000Y-73779872D01*
X76660000Y-71032279D01*
X76669580Y-70934576D01*
X76688580Y-70871644D01*
X76719445Y-70813595D01*
X76760989Y-70762657D01*
X76811644Y-70720752D01*
X76869471Y-70689485D01*
X76932272Y-70670044D01*
X77027835Y-70660000D01*
X112967721Y-70660000D01*
X113065424Y-70669580D01*
G37*
X113065424Y-70669580D02*
X113128356Y-70688580D01*
X113186405Y-70719445D01*
X113237343Y-70760989D01*
X113279248Y-70811644D01*
X113310515Y-70869471D01*
X113329956Y-70932272D01*
X113340000Y-71027835D01*
X113340001Y-75967711D01*
X113330420Y-76065424D01*
X113311420Y-76128357D01*
X113280554Y-76186406D01*
X113239011Y-76237343D01*
X113188356Y-76279248D01*
X113130529Y-76310515D01*
X113067728Y-76329956D01*
X112972165Y-76340000D01*
X102967581Y-76340000D01*
X102939326Y-76342783D01*
X102933199Y-76342740D01*
X102924028Y-76343640D01*
X102729931Y-76364041D01*
X102671348Y-76376066D01*
X102612577Y-76387277D01*
X102603755Y-76389941D01*
X102417317Y-76447653D01*
X102362162Y-76470838D01*
X102306709Y-76493242D01*
X102298573Y-76497568D01*
X102126896Y-76590393D01*
X102077278Y-76623861D01*
X102027247Y-76656600D01*
X102020106Y-76662424D01*
X101869728Y-76786828D01*
X101827589Y-76829263D01*
X101784839Y-76871126D01*
X101778966Y-76878227D01*
X101655616Y-77029469D01*
X101622534Y-77079262D01*
X101588716Y-77128651D01*
X101584333Y-77136757D01*
X101492708Y-77309079D01*
X101469909Y-77364394D01*
X101446348Y-77419366D01*
X101443623Y-77428169D01*
X101387214Y-77615005D01*
X101375594Y-77673693D01*
X101363158Y-77732196D01*
X101362195Y-77741361D01*
X101343150Y-77935595D01*
X101340000Y-77967582D01*
X101340001Y-83499947D01*
X101335000Y-83449171D01*
X101335000Y-83449162D01*
X101320024Y-83297105D01*
X101260841Y-83102007D01*
X101164734Y-82922203D01*
X101035396Y-82764604D01*
X100995908Y-82732197D01*
X98967807Y-80704097D01*
X98935396Y-80664604D01*
X98777797Y-80535266D01*
X98597993Y-80439159D01*
X98402895Y-80379976D01*
X98250838Y-80365000D01*
X98250828Y-80365000D01*
X98200000Y-80359994D01*
X98149172Y-80365000D01*
X94073955Y-80365000D01*
X93984992Y-80305557D01*
X93760236Y-80212460D01*
X93521637Y-80165000D01*
X93278363Y-80165000D01*
X93039764Y-80212460D01*
X92815008Y-80305557D01*
X92612733Y-80440713D01*
X92440713Y-80612733D01*
X92305557Y-80815008D01*
X92212460Y-81039764D01*
X92165000Y-81278363D01*
X92165000Y-81521637D01*
X92212460Y-81760236D01*
X92305557Y-81984992D01*
X92440713Y-82187267D01*
X92612733Y-82359287D01*
X92815008Y-82494443D01*
X93039764Y-82587540D01*
X93278363Y-82635000D01*
X93521637Y-82635000D01*
X93760236Y-82587540D01*
X93984992Y-82494443D01*
X94073955Y-82435000D01*
X97771290Y-82435000D01*
X99265001Y-83928712D01*
X99265000Y-99349918D01*
X99169744Y-99254662D01*
X98869199Y-99053844D01*
X98535250Y-98915518D01*
X98180732Y-98845000D01*
X97819268Y-98845000D01*
X97464750Y-98915518D01*
X97130801Y-99053844D01*
X96830256Y-99254662D01*
X96574662Y-99510256D01*
X96373844Y-99810801D01*
X96235518Y-100144750D01*
X96165000Y-100499268D01*
X96165000Y-100860732D01*
X96235518Y-101215250D01*
X96373844Y-101549199D01*
X96574662Y-101849744D01*
X96830256Y-102105338D01*
X97130801Y-102306156D01*
X97464750Y-102444482D01*
X97819268Y-102515000D01*
X98180732Y-102515000D01*
X98535250Y-102444482D01*
X98869199Y-102306156D01*
X99169744Y-102105338D01*
X99265000Y-102010082D01*
X99265000Y-104049172D01*
X99259994Y-104100000D01*
X99265000Y-104150828D01*
X99265000Y-104150837D01*
X99267289Y-104174081D01*
X99221637Y-104165000D01*
X98978363Y-104165000D01*
X98739764Y-104212460D01*
X98515008Y-104305557D01*
X98312733Y-104440713D01*
X98140713Y-104612733D01*
X98005557Y-104815008D01*
X97912460Y-105039764D01*
X97865000Y-105278363D01*
X97865000Y-105521637D01*
X97912460Y-105760236D01*
X98005557Y-105984992D01*
X98065001Y-106073956D01*
X98065000Y-107057076D01*
X92904093Y-112217984D01*
X92864605Y-112250391D01*
X92832198Y-112289879D01*
X92832197Y-112289880D01*
X92735266Y-112407990D01*
X92639160Y-112587794D01*
X92579977Y-112782892D01*
X92559994Y-112985787D01*
X92565001Y-113036624D01*
X92565000Y-113726045D01*
X92505557Y-113815008D01*
X92412460Y-114039764D01*
X92402084Y-114091927D01*
X92035000Y-113724843D01*
X92035000Y-111338556D01*
X92038797Y-111300000D01*
X92035000Y-111261444D01*
X92035000Y-111261439D01*
X92028949Y-111200000D01*
X92023642Y-111146113D01*
X91978754Y-110998140D01*
X91968477Y-110978913D01*
X91905862Y-110861767D01*
X91807764Y-110742236D01*
X91777810Y-110717653D01*
X91435000Y-110374843D01*
X91435000Y-110348061D01*
X91395226Y-110148102D01*
X91317205Y-109959744D01*
X91203937Y-109790226D01*
X91059774Y-109646063D01*
X90890256Y-109532795D01*
X90701898Y-109454774D01*
X90501939Y-109415000D01*
X90298061Y-109415000D01*
X90098102Y-109454774D01*
X89909744Y-109532795D01*
X89740226Y-109646063D01*
X89596063Y-109790226D01*
X89482795Y-109959744D01*
X89404774Y-110148102D01*
X89365000Y-110348061D01*
X89365000Y-110551939D01*
X89404774Y-110751898D01*
X89482795Y-110940256D01*
X89596063Y-111109774D01*
X89740226Y-111253937D01*
X89909744Y-111367205D01*
X90098102Y-111445226D01*
X90197513Y-111465000D01*
X90148061Y-111465000D01*
X89948102Y-111504774D01*
X89759744Y-111582795D01*
X89590226Y-111696063D01*
X89446063Y-111840226D01*
X89332795Y-112009744D01*
X89254774Y-112198102D01*
X89215000Y-112398061D01*
X89215000Y-112601939D01*
X89254774Y-112801898D01*
X89332795Y-112990256D01*
X89446063Y-113159774D01*
X89465000Y-113178711D01*
X89465000Y-113718569D01*
X89461203Y-113757122D01*
X89465000Y-113795675D01*
X89465000Y-113795682D01*
X89476359Y-113911008D01*
X89521246Y-114058981D01*
X89594138Y-114195354D01*
X89692236Y-114314886D01*
X89722190Y-114339469D01*
X92160550Y-116777830D01*
X92185124Y-116807773D01*
X92215067Y-116832347D01*
X92215075Y-116832355D01*
X92304655Y-116905871D01*
X92441028Y-116978764D01*
X92589001Y-117023651D01*
X92742887Y-117038807D01*
X92781450Y-117035009D01*
X98143230Y-117035011D01*
X103615001Y-122506782D01*
X103615001Y-122755809D01*
X103427216Y-122793162D01*
X102820285Y-123044561D01*
X102274061Y-123409536D01*
X101809536Y-123874061D01*
X101444561Y-124420285D01*
X101193162Y-125027216D01*
X101065000Y-125671531D01*
X101065000Y-126328469D01*
X101193162Y-126972784D01*
X101444561Y-127579715D01*
X101809536Y-128125939D01*
X102274061Y-128590464D01*
X102385612Y-128665000D01*
X97746943Y-128665000D01*
X97965769Y-128345374D01*
X95800000Y-126179605D01*
X93634231Y-128345374D01*
X93853057Y-128665000D01*
X90175157Y-128665000D01*
X87735000Y-126224843D01*
X87735000Y-126198061D01*
X87695226Y-125998102D01*
X87694120Y-125995431D01*
X92448866Y-125995431D01*
X92512366Y-126649293D01*
X92702208Y-127278203D01*
X93011096Y-127857992D01*
X93016172Y-127865589D01*
X93454626Y-128165769D01*
X95620395Y-126000000D01*
X95979605Y-126000000D01*
X98145374Y-128165769D01*
X98583828Y-127865589D01*
X98894296Y-127286644D01*
X99085852Y-126658254D01*
X99151134Y-126004569D01*
X99087634Y-125350707D01*
X98897792Y-124721797D01*
X98588904Y-124142008D01*
X98583828Y-124134411D01*
X98145374Y-123834231D01*
X95979605Y-126000000D01*
X95620395Y-126000000D01*
X93454626Y-123834231D01*
X93016172Y-124134411D01*
X92705704Y-124713356D01*
X92514148Y-125341746D01*
X92448866Y-125995431D01*
X87694120Y-125995431D01*
X87617205Y-125809744D01*
X87503937Y-125640226D01*
X87359774Y-125496063D01*
X87190256Y-125382795D01*
X87001898Y-125304774D01*
X86801939Y-125265000D01*
X86598061Y-125265000D01*
X86398102Y-125304774D01*
X86209744Y-125382795D01*
X86040226Y-125496063D01*
X85896063Y-125640226D01*
X85782795Y-125809744D01*
X85704774Y-125998102D01*
X85665000Y-126198061D01*
X85665000Y-126401939D01*
X85704774Y-126601898D01*
X85782795Y-126790256D01*
X85896063Y-126959774D01*
X86040226Y-127103937D01*
X86209744Y-127217205D01*
X86398102Y-127295226D01*
X86598061Y-127335000D01*
X86624843Y-127335000D01*
X88629843Y-129340000D01*
X77032279Y-129340000D01*
X76934576Y-129330420D01*
X76871643Y-129311420D01*
X76813594Y-129280554D01*
X76762657Y-129239011D01*
X76720752Y-129188356D01*
X76689485Y-129130529D01*
X76670044Y-129067728D01*
X76660000Y-128972165D01*
X76660000Y-126779872D01*
X76765000Y-126779872D01*
X76765000Y-127220128D01*
X76850890Y-127651925D01*
X77019369Y-128058669D01*
X77263962Y-128424729D01*
X77575271Y-128736038D01*
X77941331Y-128980631D01*
X78348075Y-129149110D01*
X78779872Y-129235000D01*
X79220128Y-129235000D01*
X79651925Y-129149110D01*
X80058669Y-128980631D01*
X80424729Y-128736038D01*
X80736038Y-128424729D01*
X80980631Y-128058669D01*
X81149110Y-127651925D01*
X81235000Y-127220128D01*
X81235000Y-126779872D01*
X81149110Y-126348075D01*
X80980631Y-125941331D01*
X80736038Y-125575271D01*
X80424729Y-125263962D01*
X80058669Y-125019369D01*
X79651925Y-124850890D01*
X79220128Y-124765000D01*
X78779872Y-124765000D01*
X78348075Y-124850890D01*
X77941331Y-125019369D01*
X77575271Y-125263962D01*
X77263962Y-125575271D01*
X77019369Y-125941331D01*
X76850890Y-126348075D01*
X76765000Y-126779872D01*
X76660000Y-126779872D01*
X76660000Y-123654626D01*
X93634231Y-123654626D01*
X95800000Y-125820395D01*
X97965769Y-123654626D01*
X97665589Y-123216172D01*
X97086644Y-122905704D01*
X96458254Y-122714148D01*
X95804569Y-122648866D01*
X95150707Y-122712366D01*
X94521797Y-122902208D01*
X93942008Y-123211096D01*
X93934411Y-123216172D01*
X93634231Y-123654626D01*
X76660000Y-123654626D01*
X76660000Y-120819268D01*
X96165000Y-120819268D01*
X96165000Y-121180732D01*
X96235518Y-121535250D01*
X96373844Y-121869199D01*
X96574662Y-122169744D01*
X96830256Y-122425338D01*
X97130801Y-122626156D01*
X97464750Y-122764482D01*
X97819268Y-122835000D01*
X98180732Y-122835000D01*
X98535250Y-122764482D01*
X98869199Y-122626156D01*
X99169744Y-122425338D01*
X99425338Y-122169744D01*
X99626156Y-121869199D01*
X99764482Y-121535250D01*
X99835000Y-121180732D01*
X99835000Y-120819268D01*
X99764482Y-120464750D01*
X99626156Y-120130801D01*
X99425338Y-119830256D01*
X99169744Y-119574662D01*
X98869199Y-119373844D01*
X98535250Y-119235518D01*
X98180732Y-119165000D01*
X97819268Y-119165000D01*
X97464750Y-119235518D01*
X97130801Y-119373844D01*
X96830256Y-119574662D01*
X96574662Y-119830256D01*
X96373844Y-120130801D01*
X96235518Y-120464750D01*
X96165000Y-120819268D01*
X76660000Y-120819268D01*
X76660000Y-105779872D01*
X76765000Y-105779872D01*
X76765000Y-106220128D01*
X76850890Y-106651925D01*
X77019369Y-107058669D01*
X77263962Y-107424729D01*
X77575271Y-107736038D01*
X77941331Y-107980631D01*
X78348075Y-108149110D01*
X78779872Y-108235000D01*
X79220128Y-108235000D01*
X79651925Y-108149110D01*
X80058669Y-107980631D01*
X80424729Y-107736038D01*
X80736038Y-107424729D01*
X80980631Y-107058669D01*
X81149110Y-106651925D01*
X81235000Y-106220128D01*
X81235000Y-105779872D01*
X81149110Y-105348075D01*
X80980631Y-104941331D01*
X80736038Y-104575271D01*
X80424729Y-104263962D01*
X80058669Y-104019369D01*
X79651925Y-103850890D01*
X79220128Y-103765000D01*
X78779872Y-103765000D01*
X78348075Y-103850890D01*
X77941331Y-104019369D01*
X77575271Y-104263962D01*
X77263962Y-104575271D01*
X77019369Y-104941331D01*
X76850890Y-105348075D01*
X76765000Y-105779872D01*
X76660000Y-105779872D01*
X76660000Y-104032279D01*
X76669580Y-103934576D01*
X76688580Y-103871644D01*
X76719445Y-103813595D01*
X76760989Y-103762657D01*
X76811644Y-103720752D01*
X76869471Y-103689485D01*
X76932272Y-103670044D01*
X77027835Y-103660000D01*
X87032419Y-103660000D01*
X87060674Y-103657217D01*
X87066801Y-103657260D01*
X87075972Y-103656360D01*
X87270069Y-103635959D01*
X87328658Y-103623932D01*
X87387423Y-103612723D01*
X87396245Y-103610059D01*
X87582683Y-103552347D01*
X87637838Y-103529162D01*
X87693291Y-103506758D01*
X87701427Y-103502432D01*
X87873104Y-103409607D01*
X87922699Y-103376154D01*
X87972753Y-103343400D01*
X87979894Y-103337576D01*
X88130272Y-103213172D01*
X88172411Y-103170737D01*
X88215161Y-103128874D01*
X88221034Y-103121773D01*
X88344384Y-102970531D01*
X88377477Y-102920723D01*
X88411284Y-102871349D01*
X88415667Y-102863243D01*
X88507292Y-102690920D01*
X88530090Y-102635608D01*
X88553652Y-102580634D01*
X88556377Y-102571831D01*
X88612786Y-102384994D01*
X88624405Y-102326314D01*
X88636842Y-102267804D01*
X88637805Y-102258639D01*
X88656850Y-102064406D01*
X88656850Y-102064402D01*
X88660000Y-102032419D01*
X88660000Y-95967581D01*
X88657217Y-95939326D01*
X88657260Y-95933199D01*
X88656360Y-95924028D01*
X88635959Y-95729931D01*
X88623934Y-95671348D01*
X88612723Y-95612577D01*
X88610059Y-95603755D01*
X88552347Y-95417317D01*
X88529162Y-95362162D01*
X88506758Y-95306709D01*
X88502432Y-95298573D01*
X88409607Y-95126896D01*
X88376139Y-95077278D01*
X88343400Y-95027247D01*
X88337576Y-95020106D01*
X88213172Y-94869728D01*
X88170737Y-94827589D01*
X88128874Y-94784839D01*
X88121773Y-94778966D01*
X87970531Y-94655616D01*
X87920738Y-94622534D01*
X87871349Y-94588716D01*
X87863243Y-94584333D01*
X87690921Y-94492708D01*
X87635606Y-94469909D01*
X87580634Y-94446348D01*
X87571831Y-94443623D01*
X87384995Y-94387214D01*
X87326307Y-94375594D01*
X87267804Y-94363158D01*
X87258639Y-94362195D01*
X87064405Y-94343150D01*
X87064402Y-94343150D01*
X87032419Y-94340000D01*
X83637181Y-94340000D01*
X84050140Y-94119269D01*
X84354265Y-93869679D01*
X90825000Y-93869679D01*
X90825000Y-95030322D01*
X90848657Y-95270516D01*
X90942148Y-95578715D01*
X91093970Y-95862752D01*
X91298287Y-96111714D01*
X91547249Y-96316031D01*
X91831286Y-96467852D01*
X92139485Y-96561343D01*
X92460000Y-96592911D01*
X92780516Y-96561343D01*
X93088715Y-96467852D01*
X93372752Y-96316031D01*
X93621714Y-96111714D01*
X93730001Y-95979766D01*
X93838287Y-96111714D01*
X94087249Y-96316031D01*
X94371286Y-96467852D01*
X94679485Y-96561343D01*
X95000000Y-96592911D01*
X95320516Y-96561343D01*
X95628715Y-96467852D01*
X95912752Y-96316031D01*
X96161714Y-96111714D01*
X96270001Y-95979766D01*
X96378287Y-96111714D01*
X96627249Y-96316031D01*
X96911286Y-96467852D01*
X97219485Y-96561343D01*
X97540000Y-96592911D01*
X97860516Y-96561343D01*
X98168715Y-96467852D01*
X98452752Y-96316031D01*
X98701714Y-96111714D01*
X98906031Y-95862752D01*
X99057852Y-95578715D01*
X99151343Y-95270516D01*
X99175000Y-95030322D01*
X99175000Y-93869678D01*
X99151343Y-93629484D01*
X99057852Y-93321285D01*
X98906031Y-93037248D01*
X98701714Y-92788286D01*
X98452751Y-92583969D01*
X98168714Y-92432148D01*
X97860515Y-92338657D01*
X97540000Y-92307089D01*
X97219484Y-92338657D01*
X96911285Y-92432148D01*
X96627248Y-92583969D01*
X96378286Y-92788286D01*
X96270000Y-92920234D01*
X96161714Y-92788286D01*
X95912751Y-92583969D01*
X95628714Y-92432148D01*
X95320515Y-92338657D01*
X95000000Y-92307089D01*
X94679484Y-92338657D01*
X94371285Y-92432148D01*
X94087248Y-92583969D01*
X93838286Y-92788286D01*
X93730000Y-92920234D01*
X93621714Y-92788286D01*
X93372751Y-92583969D01*
X93088714Y-92432148D01*
X92780515Y-92338657D01*
X92460000Y-92307089D01*
X92139484Y-92338657D01*
X91831285Y-92432148D01*
X91547248Y-92583969D01*
X91298286Y-92788286D01*
X91093969Y-93037249D01*
X90942148Y-93321286D01*
X90848657Y-93629485D01*
X90825000Y-93869679D01*
X84354265Y-93869679D01*
X84527505Y-93727505D01*
X84919269Y-93250140D01*
X85210376Y-92705517D01*
X85389638Y-92114567D01*
X85435000Y-91654002D01*
X85435000Y-88345998D01*
X85389638Y-87885433D01*
X85210376Y-87294483D01*
X84919269Y-86749860D01*
X84527505Y-86272495D01*
X84050139Y-85880731D01*
X83637180Y-85660000D01*
X87032419Y-85660000D01*
X87060674Y-85657217D01*
X87066801Y-85657260D01*
X87075972Y-85656360D01*
X87270069Y-85635959D01*
X87328658Y-85623932D01*
X87387423Y-85612723D01*
X87396245Y-85610059D01*
X87582683Y-85552347D01*
X87637838Y-85529162D01*
X87693291Y-85506758D01*
X87701427Y-85502432D01*
X87873104Y-85409607D01*
X87922699Y-85376154D01*
X87972753Y-85343400D01*
X87979894Y-85337576D01*
X88130272Y-85213172D01*
X88172411Y-85170737D01*
X88215161Y-85128874D01*
X88221034Y-85121773D01*
X88344384Y-84970531D01*
X88344950Y-84969679D01*
X90825000Y-84969679D01*
X90825000Y-86130322D01*
X90848657Y-86370516D01*
X90942148Y-86678715D01*
X91093970Y-86962752D01*
X91298287Y-87211714D01*
X91547249Y-87416031D01*
X91831286Y-87567852D01*
X92139485Y-87661343D01*
X92460000Y-87692911D01*
X92780516Y-87661343D01*
X93088715Y-87567852D01*
X93372752Y-87416031D01*
X93621714Y-87211714D01*
X93730001Y-87079766D01*
X93838287Y-87211714D01*
X94087249Y-87416031D01*
X94371286Y-87567852D01*
X94679485Y-87661343D01*
X95000000Y-87692911D01*
X95320516Y-87661343D01*
X95628715Y-87567852D01*
X95912752Y-87416031D01*
X96161714Y-87211714D01*
X96270001Y-87079766D01*
X96378287Y-87211714D01*
X96627249Y-87416031D01*
X96911286Y-87567852D01*
X97219485Y-87661343D01*
X97540000Y-87692911D01*
X97860516Y-87661343D01*
X98168715Y-87567852D01*
X98452752Y-87416031D01*
X98701714Y-87211714D01*
X98906031Y-86962752D01*
X99057852Y-86678715D01*
X99151343Y-86370516D01*
X99175000Y-86130322D01*
X99175000Y-84969678D01*
X99151343Y-84729484D01*
X99057852Y-84421285D01*
X98906031Y-84137248D01*
X98701714Y-83888286D01*
X98452751Y-83683969D01*
X98168714Y-83532148D01*
X97860515Y-83438657D01*
X97540000Y-83407089D01*
X97219484Y-83438657D01*
X96911285Y-83532148D01*
X96627248Y-83683969D01*
X96378286Y-83888286D01*
X96270000Y-84020234D01*
X96161714Y-83888286D01*
X95912751Y-83683969D01*
X95628714Y-83532148D01*
X95320515Y-83438657D01*
X95000000Y-83407089D01*
X94679484Y-83438657D01*
X94371285Y-83532148D01*
X94087248Y-83683969D01*
X93838286Y-83888286D01*
X93730000Y-84020234D01*
X93621714Y-83888286D01*
X93372751Y-83683969D01*
X93088714Y-83532148D01*
X92780515Y-83438657D01*
X92460000Y-83407089D01*
X92139484Y-83438657D01*
X91831285Y-83532148D01*
X91547248Y-83683969D01*
X91298286Y-83888286D01*
X91093969Y-84137249D01*
X90942148Y-84421286D01*
X90848657Y-84729485D01*
X90825000Y-84969679D01*
X88344950Y-84969679D01*
X88377477Y-84920723D01*
X88411284Y-84871349D01*
X88415667Y-84863243D01*
X88507292Y-84690920D01*
X88530090Y-84635608D01*
X88553652Y-84580634D01*
X88556377Y-84571831D01*
X88612786Y-84384994D01*
X88624405Y-84326314D01*
X88636842Y-84267804D01*
X88637805Y-84258639D01*
X88656850Y-84064406D01*
X88656850Y-84064402D01*
X88660000Y-84032419D01*
X88660000Y-77967581D01*
X88657217Y-77939326D01*
X88657260Y-77933199D01*
X88656360Y-77924028D01*
X88635959Y-77729931D01*
X88623934Y-77671348D01*
X88612723Y-77612577D01*
X88610059Y-77603755D01*
X88552347Y-77417317D01*
X88529162Y-77362162D01*
X88506758Y-77306709D01*
X88502432Y-77298573D01*
X88409607Y-77126896D01*
X88376139Y-77077278D01*
X88343400Y-77027247D01*
X88337576Y-77020106D01*
X88213172Y-76869728D01*
X88170737Y-76827589D01*
X88128874Y-76784839D01*
X88121773Y-76778966D01*
X87970531Y-76655616D01*
X87920738Y-76622534D01*
X87871349Y-76588716D01*
X87863243Y-76584333D01*
X87690921Y-76492708D01*
X87635606Y-76469909D01*
X87580634Y-76446348D01*
X87571831Y-76443623D01*
X87384995Y-76387214D01*
X87326307Y-76375594D01*
X87267804Y-76363158D01*
X87258639Y-76362195D01*
X87064405Y-76343150D01*
X87064402Y-76343150D01*
X87032419Y-76340000D01*
X77032279Y-76340000D01*
X76934576Y-76330420D01*
X76871643Y-76311420D01*
X76813594Y-76280554D01*
X76762657Y-76239011D01*
X76720752Y-76188356D01*
X76689485Y-76130529D01*
X76670044Y-76067728D01*
X76660000Y-75972165D01*
X76660000Y-73779872D01*
X76765000Y-73779872D01*
X76765000Y-74220128D01*
X76850890Y-74651925D01*
X77019369Y-75058669D01*
X77263962Y-75424729D01*
X77575271Y-75736038D01*
X77941331Y-75980631D01*
X78348075Y-76149110D01*
X78779872Y-76235000D01*
X79220128Y-76235000D01*
X79651925Y-76149110D01*
X80058669Y-75980631D01*
X80424729Y-75736038D01*
X80736038Y-75424729D01*
X80980631Y-75058669D01*
X81149110Y-74651925D01*
X81235000Y-74220128D01*
X81235000Y-73779872D01*
X81149110Y-73348075D01*
X81137178Y-73319268D01*
X83165000Y-73319268D01*
X83165000Y-73680732D01*
X83235518Y-74035250D01*
X83373844Y-74369199D01*
X83574662Y-74669744D01*
X83830256Y-74925338D01*
X84130801Y-75126156D01*
X84464750Y-75264482D01*
X84819268Y-75335000D01*
X85180732Y-75335000D01*
X85535250Y-75264482D01*
X85869199Y-75126156D01*
X86169744Y-74925338D01*
X86425338Y-74669744D01*
X86626156Y-74369199D01*
X86764482Y-74035250D01*
X86835000Y-73680732D01*
X86835000Y-73319268D01*
X103485000Y-73319268D01*
X103485000Y-73680732D01*
X103555518Y-74035250D01*
X103693844Y-74369199D01*
X103894662Y-74669744D01*
X104150256Y-74925338D01*
X104450801Y-75126156D01*
X104784750Y-75264482D01*
X105139268Y-75335000D01*
X105500732Y-75335000D01*
X105855250Y-75264482D01*
X106189199Y-75126156D01*
X106489744Y-74925338D01*
X106745338Y-74669744D01*
X106946156Y-74369199D01*
X107084482Y-74035250D01*
X107135279Y-73779872D01*
X108765000Y-73779872D01*
X108765000Y-74220128D01*
X108850890Y-74651925D01*
X109019369Y-75058669D01*
X109263962Y-75424729D01*
X109575271Y-75736038D01*
X109941331Y-75980631D01*
X110348075Y-76149110D01*
X110779872Y-76235000D01*
X111220128Y-76235000D01*
X111651925Y-76149110D01*
X112058669Y-75980631D01*
X112424729Y-75736038D01*
X112736038Y-75424729D01*
X112980631Y-75058669D01*
X113149110Y-74651925D01*
X113235000Y-74220128D01*
X113235000Y-73779872D01*
X113149110Y-73348075D01*
X112980631Y-72941331D01*
X112736038Y-72575271D01*
X112424729Y-72263962D01*
X112058669Y-72019369D01*
X111651925Y-71850890D01*
X111220128Y-71765000D01*
X110779872Y-71765000D01*
X110348075Y-71850890D01*
X109941331Y-72019369D01*
X109575271Y-72263962D01*
X109263962Y-72575271D01*
X109019369Y-72941331D01*
X108850890Y-73348075D01*
X108765000Y-73779872D01*
X107135279Y-73779872D01*
X107155000Y-73680732D01*
X107155000Y-73319268D01*
X107084482Y-72964750D01*
X106946156Y-72630801D01*
X106745338Y-72330256D01*
X106489744Y-72074662D01*
X106189199Y-71873844D01*
X105855250Y-71735518D01*
X105500732Y-71665000D01*
X105139268Y-71665000D01*
X104784750Y-71735518D01*
X104450801Y-71873844D01*
X104150256Y-72074662D01*
X103894662Y-72330256D01*
X103693844Y-72630801D01*
X103555518Y-72964750D01*
X103485000Y-73319268D01*
X86835000Y-73319268D01*
X86764482Y-72964750D01*
X86626156Y-72630801D01*
X86425338Y-72330256D01*
X86169744Y-72074662D01*
X85869199Y-71873844D01*
X85535250Y-71735518D01*
X85180732Y-71665000D01*
X84819268Y-71665000D01*
X84464750Y-71735518D01*
X84130801Y-71873844D01*
X83830256Y-72074662D01*
X83574662Y-72330256D01*
X83373844Y-72630801D01*
X83235518Y-72964750D01*
X83165000Y-73319268D01*
X81137178Y-73319268D01*
X80980631Y-72941331D01*
X80736038Y-72575271D01*
X80424729Y-72263962D01*
X80058669Y-72019369D01*
X79651925Y-71850890D01*
X79220128Y-71765000D01*
X78779872Y-71765000D01*
X78348075Y-71850890D01*
X77941331Y-72019369D01*
X77575271Y-72263962D01*
X77263962Y-72575271D01*
X77019369Y-72941331D01*
X76850890Y-73348075D01*
X76765000Y-73779872D01*
X76660000Y-73779872D01*
X76660000Y-71032279D01*
X76669580Y-70934576D01*
X76688580Y-70871644D01*
X76719445Y-70813595D01*
X76760989Y-70762657D01*
X76811644Y-70720752D01*
X76869471Y-70689485D01*
X76932272Y-70670044D01*
X77027835Y-70660000D01*
X112967721Y-70660000D01*
X113065424Y-70669580D01*
M02*
