G04 #@! TF.GenerationSoftware,KiCad,Pcbnew,(5.1.5)-3*
G04 #@! TF.CreationDate,2020-10-27T23:40:54+01:00*
G04 #@! TF.ProjectId,output_stage_1,6f757470-7574-45f7-9374-6167655f312e,rev?*
G04 #@! TF.SameCoordinates,Original*
G04 #@! TF.FileFunction,Profile,NP*
%FSLAX46Y46*%
G04 Gerber Fmt 4.6, Leading zero omitted, Abs format (unit mm)*
G04 Created by KiCad (PCBNEW (5.1.5)-3) date 2020-10-27 23:40:54*
%MOMM*%
%LPD*%
G04 APERTURE LIST*
%ADD10C,0.050000*%
G04 APERTURE END LIST*
D10*
X215000000Y-129000000D02*
G75*
G02X214000000Y-130000000I-1000000J0D01*
G01*
X214000000Y-70000000D02*
G75*
G02X215000000Y-71000000I0J-1000000D01*
G01*
X79000000Y-86000000D02*
G75*
G02X80000000Y-85000000I1000000J0D01*
G01*
X80000000Y-95000000D02*
G75*
G02X79000000Y-94000000I0J1000000D01*
G01*
X87000000Y-95000000D02*
G75*
G02X88000000Y-96000000I0J-1000000D01*
G01*
X88000000Y-102000000D02*
G75*
G02X87000000Y-103000000I-1000000J0D01*
G01*
X76000000Y-104000000D02*
G75*
G02X77000000Y-103000000I1000000J0D01*
G01*
X77000000Y-130000000D02*
G75*
G02X76000000Y-129000000I0J1000000D01*
G01*
X88000000Y-84000000D02*
G75*
G02X87000000Y-85000000I-1000000J0D01*
G01*
X87000000Y-77000000D02*
G75*
G02X88000000Y-78000000I0J-1000000D01*
G01*
X77000000Y-77000000D02*
G75*
G02X76000000Y-76000000I0J1000000D01*
G01*
X76000000Y-71000000D02*
G75*
G02X77000000Y-70000000I1000000J0D01*
G01*
X167000000Y-109000000D02*
G75*
G02X166000000Y-110000000I-1000000J0D01*
G01*
X160000000Y-110000000D02*
G75*
G02X159000000Y-109000000I0J1000000D01*
G01*
X158000000Y-103000000D02*
G75*
G02X159000000Y-104000000I0J-1000000D01*
G01*
X148000000Y-103000000D02*
G75*
G02X147000000Y-102000000I0J1000000D01*
G01*
X147000000Y-96000000D02*
G75*
G02X148000000Y-95000000I1000000J0D01*
G01*
X156000000Y-94000000D02*
G75*
G02X155000000Y-95000000I-1000000J0D01*
G01*
X155000000Y-85000000D02*
G75*
G02X156000000Y-86000000I0J-1000000D01*
G01*
X148000000Y-85000000D02*
G75*
G02X147000000Y-84000000I0J1000000D01*
G01*
X147000000Y-78000000D02*
G75*
G02X148000000Y-77000000I1000000J0D01*
G01*
X159000000Y-76000000D02*
G75*
G02X158000000Y-77000000I-1000000J0D01*
G01*
X158000000Y-70000000D02*
G75*
G02X159000000Y-71000000I0J-1000000D01*
G01*
X167000000Y-71000000D02*
G75*
G02X168000000Y-70000000I1000000J0D01*
G01*
X121000000Y-71000000D02*
G75*
G02X122000000Y-70000000I1000000J0D01*
G01*
X122000000Y-77000000D02*
G75*
G02X121000000Y-76000000I0J1000000D01*
G01*
X132000000Y-77000000D02*
G75*
G02X133000000Y-78000000I0J-1000000D01*
G01*
X133000000Y-84000000D02*
G75*
G02X132000000Y-85000000I-1000000J0D01*
G01*
X124000000Y-86000000D02*
G75*
G02X125000000Y-85000000I1000000J0D01*
G01*
X125000000Y-95000000D02*
G75*
G02X124000000Y-94000000I0J1000000D01*
G01*
X132000000Y-95000000D02*
G75*
G02X133000000Y-96000000I0J-1000000D01*
G01*
X133000000Y-102000000D02*
G75*
G02X132000000Y-103000000I-1000000J0D01*
G01*
X121000000Y-104000000D02*
G75*
G02X122000000Y-103000000I1000000J0D01*
G01*
X121000000Y-109000000D02*
G75*
G02X120000000Y-110000000I-1000000J0D01*
G01*
X115000000Y-110000000D02*
G75*
G02X114000000Y-109000000I0J1000000D01*
G01*
X113000000Y-103000000D02*
G75*
G02X114000000Y-104000000I0J-1000000D01*
G01*
X103000000Y-103000000D02*
G75*
G02X102000000Y-102000000I0J1000000D01*
G01*
X102000000Y-96000000D02*
G75*
G02X103000000Y-95000000I1000000J0D01*
G01*
X111000000Y-94000000D02*
G75*
G02X110000000Y-95000000I-1000000J0D01*
G01*
X110000000Y-85000000D02*
G75*
G02X111000000Y-86000000I0J-1000000D01*
G01*
X103000000Y-85000000D02*
G75*
G02X102000000Y-84000000I0J1000000D01*
G01*
X102000000Y-78000000D02*
G75*
G02X103000000Y-77000000I1000000J0D01*
G01*
X114000000Y-76000000D02*
G75*
G02X113000000Y-77000000I-1000000J0D01*
G01*
X113000000Y-70000000D02*
G75*
G02X114000000Y-71000000I0J-1000000D01*
G01*
X110000000Y-95000000D02*
X103000000Y-95000000D01*
X111000000Y-86000000D02*
X111000000Y-94000000D01*
X103000000Y-85000000D02*
X110000000Y-85000000D01*
X122000000Y-70000000D02*
X158000000Y-70000000D01*
X77000000Y-70000000D02*
X113000000Y-70000000D01*
X214000000Y-70000000D02*
X168000000Y-70000000D01*
X215000000Y-129000000D02*
X215000000Y-71000000D01*
X77000000Y-130000000D02*
X214000000Y-130000000D01*
X76000000Y-104000000D02*
X76000000Y-129000000D01*
X87000000Y-103000000D02*
X77000000Y-103000000D01*
X88000000Y-96000000D02*
X88000000Y-102000000D01*
X80000000Y-95000000D02*
X87000000Y-95000000D01*
X79000000Y-86000000D02*
X79000000Y-94000000D01*
X87000000Y-85000000D02*
X80000000Y-85000000D01*
X88000000Y-78000000D02*
X88000000Y-84000000D01*
X77000000Y-77000000D02*
X87000000Y-77000000D01*
X76000000Y-71000000D02*
X76000000Y-76000000D01*
X167000000Y-109000000D02*
X167000000Y-71000000D01*
X160000000Y-110000000D02*
X166000000Y-110000000D01*
X159000000Y-104000000D02*
X159000000Y-109000000D01*
X148000000Y-103000000D02*
X158000000Y-103000000D01*
X147000000Y-96000000D02*
X147000000Y-102000000D01*
X155000000Y-95000000D02*
X148000000Y-95000000D01*
X156000000Y-86000000D02*
X156000000Y-94000000D01*
X148000000Y-85000000D02*
X155000000Y-85000000D01*
X147000000Y-78000000D02*
X147000000Y-84000000D01*
X158000000Y-77000000D02*
X148000000Y-77000000D01*
X159000000Y-71000000D02*
X159000000Y-76000000D01*
X121000000Y-76000000D02*
X121000000Y-71000000D01*
X132000000Y-77000000D02*
X122000000Y-77000000D01*
X133000000Y-84000000D02*
X133000000Y-78000000D01*
X125000000Y-85000000D02*
X132000000Y-85000000D01*
X124000000Y-94000000D02*
X124000000Y-86000000D01*
X132000000Y-95000000D02*
X125000000Y-95000000D01*
X133000000Y-102000000D02*
X133000000Y-96000000D01*
X122000000Y-103000000D02*
X132000000Y-103000000D01*
X121000000Y-109000000D02*
X121000000Y-104000000D01*
X115000000Y-110000000D02*
X120000000Y-110000000D01*
X114000000Y-104000000D02*
X114000000Y-109000000D01*
X103000000Y-103000000D02*
X113000000Y-103000000D01*
X102000000Y-96000000D02*
X102000000Y-102000000D01*
X102000000Y-78000000D02*
X102000000Y-84000000D01*
X113000000Y-77000000D02*
X103000000Y-77000000D01*
X114000000Y-71000000D02*
X114000000Y-76000000D01*
M02*
