G04 #@! TF.GenerationSoftware,KiCad,Pcbnew,(5.1.5)-3*
G04 #@! TF.CreationDate,2020-10-27T23:40:54+01:00*
G04 #@! TF.ProjectId,output_stage_1,6f757470-7574-45f7-9374-6167655f312e,rev?*
G04 #@! TF.SameCoordinates,Original*
G04 #@! TF.FileFunction,Soldermask,Bot*
G04 #@! TF.FilePolarity,Negative*
%FSLAX46Y46*%
G04 Gerber Fmt 4.6, Leading zero omitted, Abs format (unit mm)*
G04 Created by KiCad (PCBNEW (5.1.5)-3) date 2020-10-27 23:40:54*
%MOMM*%
%LPD*%
G04 APERTURE LIST*
%ADD10C,0.100000*%
G04 APERTURE END LIST*
D10*
G36*
X206411000Y-129311000D02*
G01*
X196309000Y-129311000D01*
X196309000Y-113209000D01*
X206411000Y-113209000D01*
X206411000Y-129311000D01*
G37*
G36*
X104936693Y-123301859D02*
G01*
X105202437Y-123354719D01*
X105703087Y-123562095D01*
X105883561Y-123682684D01*
X106153660Y-123863158D01*
X106536842Y-124246340D01*
X106717316Y-124516439D01*
X106837905Y-124696913D01*
X106971363Y-125019109D01*
X107045281Y-125197564D01*
X107151000Y-125729049D01*
X107151000Y-126270951D01*
X107115186Y-126451000D01*
X107045281Y-126802437D01*
X106837905Y-127303087D01*
X106781521Y-127387471D01*
X106536842Y-127753660D01*
X106153660Y-128136842D01*
X105935794Y-128282415D01*
X105703087Y-128437905D01*
X105202437Y-128645281D01*
X104936694Y-128698140D01*
X104670951Y-128751000D01*
X104129049Y-128751000D01*
X103863306Y-128698140D01*
X103597563Y-128645281D01*
X103096913Y-128437905D01*
X102864206Y-128282415D01*
X102646340Y-128136842D01*
X102263158Y-127753660D01*
X102018479Y-127387471D01*
X101962095Y-127303087D01*
X101754719Y-126802437D01*
X101684814Y-126451000D01*
X101649000Y-126270951D01*
X101649000Y-125729049D01*
X101754719Y-125197564D01*
X101828637Y-125019109D01*
X101962095Y-124696913D01*
X102082684Y-124516439D01*
X102263158Y-124246340D01*
X102646340Y-123863158D01*
X102916439Y-123682684D01*
X103096913Y-123562095D01*
X103597563Y-123354719D01*
X103863307Y-123301859D01*
X104129049Y-123249000D01*
X104670951Y-123249000D01*
X104936693Y-123301859D01*
G37*
G36*
X96336693Y-123301859D02*
G01*
X96602437Y-123354719D01*
X97103087Y-123562095D01*
X97283561Y-123682684D01*
X97553660Y-123863158D01*
X97936842Y-124246340D01*
X98117316Y-124516439D01*
X98237905Y-124696913D01*
X98371363Y-125019109D01*
X98445281Y-125197564D01*
X98551000Y-125729049D01*
X98551000Y-126270951D01*
X98515186Y-126451000D01*
X98445281Y-126802437D01*
X98237905Y-127303087D01*
X98181521Y-127387471D01*
X97936842Y-127753660D01*
X97553660Y-128136842D01*
X97335794Y-128282415D01*
X97103087Y-128437905D01*
X96602437Y-128645281D01*
X96336694Y-128698140D01*
X96070951Y-128751000D01*
X95529049Y-128751000D01*
X95263306Y-128698140D01*
X94997563Y-128645281D01*
X94496913Y-128437905D01*
X94264206Y-128282415D01*
X94046340Y-128136842D01*
X93663158Y-127753660D01*
X93418479Y-127387471D01*
X93362095Y-127303087D01*
X93154719Y-126802437D01*
X93084814Y-126451000D01*
X93049000Y-126270951D01*
X93049000Y-125729049D01*
X93154719Y-125197564D01*
X93228637Y-125019109D01*
X93362095Y-124696913D01*
X93482684Y-124516439D01*
X93663158Y-124246340D01*
X94046340Y-123863158D01*
X94316439Y-123682684D01*
X94496913Y-123562095D01*
X94997563Y-123354719D01*
X95263307Y-123301859D01*
X95529049Y-123249000D01*
X96070951Y-123249000D01*
X96336693Y-123301859D01*
G37*
G36*
X113536693Y-123301859D02*
G01*
X113802437Y-123354719D01*
X114303087Y-123562095D01*
X114483561Y-123682684D01*
X114753660Y-123863158D01*
X115136842Y-124246340D01*
X115317316Y-124516439D01*
X115437905Y-124696913D01*
X115571363Y-125019109D01*
X115645281Y-125197564D01*
X115751000Y-125729049D01*
X115751000Y-126270951D01*
X115715186Y-126451000D01*
X115645281Y-126802437D01*
X115437905Y-127303087D01*
X115381521Y-127387471D01*
X115136842Y-127753660D01*
X114753660Y-128136842D01*
X114535794Y-128282415D01*
X114303087Y-128437905D01*
X113802437Y-128645281D01*
X113536694Y-128698140D01*
X113270951Y-128751000D01*
X112729049Y-128751000D01*
X112463306Y-128698140D01*
X112197563Y-128645281D01*
X111696913Y-128437905D01*
X111464206Y-128282415D01*
X111246340Y-128136842D01*
X110863158Y-127753660D01*
X110618479Y-127387471D01*
X110562095Y-127303087D01*
X110354719Y-126802437D01*
X110284814Y-126451000D01*
X110249000Y-126270951D01*
X110249000Y-125729049D01*
X110354719Y-125197564D01*
X110428637Y-125019109D01*
X110562095Y-124696913D01*
X110682684Y-124516439D01*
X110863158Y-124246340D01*
X111246340Y-123863158D01*
X111516439Y-123682684D01*
X111696913Y-123562095D01*
X112197563Y-123354719D01*
X112463307Y-123301859D01*
X112729049Y-123249000D01*
X113270951Y-123249000D01*
X113536693Y-123301859D01*
G37*
G36*
X171036693Y-123301859D02*
G01*
X171302437Y-123354719D01*
X171803087Y-123562095D01*
X171983561Y-123682684D01*
X172253660Y-123863158D01*
X172636842Y-124246340D01*
X172817316Y-124516439D01*
X172937905Y-124696913D01*
X173071363Y-125019109D01*
X173145281Y-125197564D01*
X173251000Y-125729049D01*
X173251000Y-126270951D01*
X173215186Y-126451000D01*
X173145281Y-126802437D01*
X172937905Y-127303087D01*
X172881521Y-127387471D01*
X172636842Y-127753660D01*
X172253660Y-128136842D01*
X172035794Y-128282415D01*
X171803087Y-128437905D01*
X171302437Y-128645281D01*
X171036694Y-128698140D01*
X170770951Y-128751000D01*
X170229049Y-128751000D01*
X169963306Y-128698140D01*
X169697563Y-128645281D01*
X169196913Y-128437905D01*
X168964206Y-128282415D01*
X168746340Y-128136842D01*
X168363158Y-127753660D01*
X168118479Y-127387471D01*
X168062095Y-127303087D01*
X167854719Y-126802437D01*
X167784814Y-126451000D01*
X167749000Y-126270951D01*
X167749000Y-125729049D01*
X167854719Y-125197564D01*
X167928637Y-125019109D01*
X168062095Y-124696913D01*
X168182684Y-124516439D01*
X168363158Y-124246340D01*
X168746340Y-123863158D01*
X169016439Y-123682684D01*
X169196913Y-123562095D01*
X169697563Y-123354719D01*
X169963307Y-123301859D01*
X170229049Y-123249000D01*
X170770951Y-123249000D01*
X171036693Y-123301859D01*
G37*
G36*
X182536693Y-123301859D02*
G01*
X182802437Y-123354719D01*
X183303087Y-123562095D01*
X183483561Y-123682684D01*
X183753660Y-123863158D01*
X184136842Y-124246340D01*
X184317316Y-124516439D01*
X184437905Y-124696913D01*
X184571363Y-125019109D01*
X184645281Y-125197564D01*
X184751000Y-125729049D01*
X184751000Y-126270951D01*
X184715186Y-126451000D01*
X184645281Y-126802437D01*
X184437905Y-127303087D01*
X184381521Y-127387471D01*
X184136842Y-127753660D01*
X183753660Y-128136842D01*
X183535794Y-128282415D01*
X183303087Y-128437905D01*
X182802437Y-128645281D01*
X182536694Y-128698140D01*
X182270951Y-128751000D01*
X181729049Y-128751000D01*
X181463306Y-128698140D01*
X181197563Y-128645281D01*
X180696913Y-128437905D01*
X180464206Y-128282415D01*
X180246340Y-128136842D01*
X179863158Y-127753660D01*
X179618479Y-127387471D01*
X179562095Y-127303087D01*
X179354719Y-126802437D01*
X179284814Y-126451000D01*
X179249000Y-126270951D01*
X179249000Y-125729049D01*
X179354719Y-125197564D01*
X179428637Y-125019109D01*
X179562095Y-124696913D01*
X179682684Y-124516439D01*
X179863158Y-124246340D01*
X180246340Y-123863158D01*
X180516439Y-123682684D01*
X180696913Y-123562095D01*
X181197563Y-123354719D01*
X181463307Y-123301859D01*
X181729049Y-123249000D01*
X182270951Y-123249000D01*
X182536693Y-123301859D01*
G37*
G36*
X161036693Y-123301859D02*
G01*
X161302437Y-123354719D01*
X161803087Y-123562095D01*
X161983561Y-123682684D01*
X162253660Y-123863158D01*
X162636842Y-124246340D01*
X162817316Y-124516439D01*
X162937905Y-124696913D01*
X163071363Y-125019109D01*
X163145281Y-125197564D01*
X163251000Y-125729049D01*
X163251000Y-126270951D01*
X163215186Y-126451000D01*
X163145281Y-126802437D01*
X162937905Y-127303087D01*
X162881521Y-127387471D01*
X162636842Y-127753660D01*
X162253660Y-128136842D01*
X162035794Y-128282415D01*
X161803087Y-128437905D01*
X161302437Y-128645281D01*
X161036694Y-128698140D01*
X160770951Y-128751000D01*
X160229049Y-128751000D01*
X159963306Y-128698140D01*
X159697563Y-128645281D01*
X159196913Y-128437905D01*
X158964206Y-128282415D01*
X158746340Y-128136842D01*
X158363158Y-127753660D01*
X158118479Y-127387471D01*
X158062095Y-127303087D01*
X157854719Y-126802437D01*
X157784814Y-126451000D01*
X157749000Y-126270951D01*
X157749000Y-125729049D01*
X157854719Y-125197564D01*
X157928637Y-125019109D01*
X158062095Y-124696913D01*
X158182684Y-124516439D01*
X158363158Y-124246340D01*
X158746340Y-123863158D01*
X159016439Y-123682684D01*
X159196913Y-123562095D01*
X159697563Y-123354719D01*
X159963307Y-123301859D01*
X160229049Y-123249000D01*
X160770951Y-123249000D01*
X161036693Y-123301859D01*
G37*
G36*
X192536693Y-123301859D02*
G01*
X192802437Y-123354719D01*
X193303087Y-123562095D01*
X193483561Y-123682684D01*
X193753660Y-123863158D01*
X194136842Y-124246340D01*
X194317316Y-124516439D01*
X194437905Y-124696913D01*
X194571363Y-125019109D01*
X194645281Y-125197564D01*
X194751000Y-125729049D01*
X194751000Y-126270951D01*
X194715186Y-126451000D01*
X194645281Y-126802437D01*
X194437905Y-127303087D01*
X194381521Y-127387471D01*
X194136842Y-127753660D01*
X193753660Y-128136842D01*
X193535794Y-128282415D01*
X193303087Y-128437905D01*
X192802437Y-128645281D01*
X192536694Y-128698140D01*
X192270951Y-128751000D01*
X191729049Y-128751000D01*
X191463306Y-128698140D01*
X191197563Y-128645281D01*
X190696913Y-128437905D01*
X190464206Y-128282415D01*
X190246340Y-128136842D01*
X189863158Y-127753660D01*
X189618479Y-127387471D01*
X189562095Y-127303087D01*
X189354719Y-126802437D01*
X189284814Y-126451000D01*
X189249000Y-126270951D01*
X189249000Y-125729049D01*
X189354719Y-125197564D01*
X189428637Y-125019109D01*
X189562095Y-124696913D01*
X189682684Y-124516439D01*
X189863158Y-124246340D01*
X190246340Y-123863158D01*
X190516439Y-123682684D01*
X190696913Y-123562095D01*
X191197563Y-123354719D01*
X191463307Y-123301859D01*
X191729049Y-123249000D01*
X192270951Y-123249000D01*
X192536693Y-123301859D01*
G37*
G36*
X79375256Y-125391298D02*
G01*
X79481579Y-125412447D01*
X79782042Y-125536903D01*
X80052451Y-125717585D01*
X80282415Y-125947549D01*
X80282416Y-125947551D01*
X80463098Y-126217960D01*
X80587553Y-126518422D01*
X80651000Y-126837389D01*
X80651000Y-127162611D01*
X80623057Y-127303087D01*
X80587553Y-127481579D01*
X80463097Y-127782042D01*
X80282415Y-128052451D01*
X80052451Y-128282415D01*
X79782042Y-128463097D01*
X79782041Y-128463098D01*
X79782040Y-128463098D01*
X79694037Y-128499550D01*
X79481579Y-128587553D01*
X79375256Y-128608702D01*
X79162611Y-128651000D01*
X78837389Y-128651000D01*
X78624744Y-128608702D01*
X78518421Y-128587553D01*
X78305963Y-128499550D01*
X78217960Y-128463098D01*
X78217959Y-128463098D01*
X78217958Y-128463097D01*
X77947549Y-128282415D01*
X77717585Y-128052451D01*
X77536903Y-127782042D01*
X77412447Y-127481579D01*
X77376943Y-127303087D01*
X77349000Y-127162611D01*
X77349000Y-126837389D01*
X77412447Y-126518422D01*
X77536902Y-126217960D01*
X77717584Y-125947551D01*
X77717585Y-125947549D01*
X77947549Y-125717585D01*
X78217958Y-125536903D01*
X78518421Y-125412447D01*
X78624744Y-125391298D01*
X78837389Y-125349000D01*
X79162611Y-125349000D01*
X79375256Y-125391298D01*
G37*
G36*
X212375256Y-125391298D02*
G01*
X212481579Y-125412447D01*
X212782042Y-125536903D01*
X213052451Y-125717585D01*
X213282415Y-125947549D01*
X213282416Y-125947551D01*
X213463098Y-126217960D01*
X213587553Y-126518422D01*
X213651000Y-126837389D01*
X213651000Y-127162611D01*
X213623057Y-127303087D01*
X213587553Y-127481579D01*
X213463097Y-127782042D01*
X213282415Y-128052451D01*
X213052451Y-128282415D01*
X212782042Y-128463097D01*
X212782041Y-128463098D01*
X212782040Y-128463098D01*
X212694037Y-128499550D01*
X212481579Y-128587553D01*
X212375256Y-128608702D01*
X212162611Y-128651000D01*
X211837389Y-128651000D01*
X211624744Y-128608702D01*
X211518421Y-128587553D01*
X211305963Y-128499550D01*
X211217960Y-128463098D01*
X211217959Y-128463098D01*
X211217958Y-128463097D01*
X210947549Y-128282415D01*
X210717585Y-128052451D01*
X210536903Y-127782042D01*
X210412447Y-127481579D01*
X210376943Y-127303087D01*
X210349000Y-127162611D01*
X210349000Y-126837389D01*
X210412447Y-126518422D01*
X210536902Y-126217960D01*
X210717584Y-125947551D01*
X210717585Y-125947549D01*
X210947549Y-125717585D01*
X211217958Y-125536903D01*
X211518421Y-125412447D01*
X211624744Y-125391298D01*
X211837389Y-125349000D01*
X212162611Y-125349000D01*
X212375256Y-125391298D01*
G37*
G36*
X137364903Y-120117075D02*
G01*
X137572553Y-120203086D01*
X137592571Y-120211378D01*
X137797466Y-120348285D01*
X137971715Y-120522534D01*
X138059331Y-120653660D01*
X138108623Y-120727431D01*
X138202925Y-120955097D01*
X138251000Y-121196786D01*
X138251000Y-121443214D01*
X138221291Y-121592569D01*
X138202925Y-121684903D01*
X138108622Y-121912571D01*
X137971715Y-122117466D01*
X137797466Y-122291715D01*
X137592571Y-122428622D01*
X137592570Y-122428623D01*
X137592569Y-122428623D01*
X137364903Y-122522925D01*
X137123214Y-122571000D01*
X136876786Y-122571000D01*
X136635097Y-122522925D01*
X136407431Y-122428623D01*
X136407430Y-122428623D01*
X136407429Y-122428622D01*
X136202534Y-122291715D01*
X136028285Y-122117466D01*
X135891378Y-121912571D01*
X135797075Y-121684903D01*
X135778709Y-121592569D01*
X135749000Y-121443214D01*
X135749000Y-121196786D01*
X135797075Y-120955097D01*
X135891377Y-120727431D01*
X135940669Y-120653660D01*
X136028285Y-120522534D01*
X136202534Y-120348285D01*
X136407429Y-120211378D01*
X136427448Y-120203086D01*
X136635097Y-120117075D01*
X136876786Y-120069000D01*
X137123214Y-120069000D01*
X137364903Y-120117075D01*
G37*
G36*
X98364903Y-119797075D02*
G01*
X98592571Y-119891378D01*
X98797466Y-120028285D01*
X98971715Y-120202534D01*
X99108622Y-120407429D01*
X99108623Y-120407431D01*
X99202925Y-120635097D01*
X99251000Y-120876786D01*
X99251000Y-121123214D01*
X99236365Y-121196787D01*
X99202925Y-121364903D01*
X99108622Y-121592571D01*
X98971715Y-121797466D01*
X98797466Y-121971715D01*
X98592571Y-122108622D01*
X98592570Y-122108623D01*
X98592569Y-122108623D01*
X98364903Y-122202925D01*
X98123214Y-122251000D01*
X97876786Y-122251000D01*
X97635097Y-122202925D01*
X97407431Y-122108623D01*
X97407430Y-122108623D01*
X97407429Y-122108622D01*
X97202534Y-121971715D01*
X97028285Y-121797466D01*
X96891378Y-121592571D01*
X96797075Y-121364903D01*
X96763635Y-121196787D01*
X96749000Y-121123214D01*
X96749000Y-120876786D01*
X96797075Y-120635097D01*
X96891377Y-120407431D01*
X96891378Y-120407429D01*
X97028285Y-120202534D01*
X97202534Y-120028285D01*
X97407429Y-119891378D01*
X97635097Y-119797075D01*
X97876786Y-119749000D01*
X98123214Y-119749000D01*
X98364903Y-119797075D01*
G37*
G36*
X212236694Y-116201860D02*
G01*
X212502437Y-116254719D01*
X213003087Y-116462095D01*
X213183561Y-116582684D01*
X213453660Y-116763158D01*
X213836842Y-117146340D01*
X214017316Y-117416439D01*
X214137905Y-117596913D01*
X214271363Y-117919109D01*
X214345281Y-118097564D01*
X214451000Y-118629049D01*
X214451000Y-119170951D01*
X214415186Y-119351000D01*
X214345281Y-119702437D01*
X214137905Y-120203087D01*
X214022160Y-120376311D01*
X213836842Y-120653660D01*
X213453660Y-121036842D01*
X213190774Y-121212496D01*
X213003087Y-121337905D01*
X212502437Y-121545281D01*
X212264703Y-121592569D01*
X211970951Y-121651000D01*
X211429049Y-121651000D01*
X211135297Y-121592569D01*
X210897563Y-121545281D01*
X210396913Y-121337905D01*
X210209226Y-121212496D01*
X209946340Y-121036842D01*
X209563158Y-120653660D01*
X209377840Y-120376311D01*
X209262095Y-120203087D01*
X209054719Y-119702437D01*
X208984814Y-119351000D01*
X208949000Y-119170951D01*
X208949000Y-118629049D01*
X209054719Y-118097564D01*
X209128637Y-117919109D01*
X209262095Y-117596913D01*
X209382684Y-117416439D01*
X209563158Y-117146340D01*
X209946340Y-116763158D01*
X210216439Y-116582684D01*
X210396913Y-116462095D01*
X210897563Y-116254719D01*
X211163306Y-116201860D01*
X211429049Y-116149000D01*
X211970951Y-116149000D01*
X212236694Y-116201860D01*
G37*
G36*
X147623241Y-115204760D02*
G01*
X147887305Y-115314139D01*
X148124958Y-115472934D01*
X148327066Y-115675042D01*
X148485861Y-115912695D01*
X148595240Y-116176759D01*
X148651000Y-116457088D01*
X148651000Y-116742912D01*
X148595240Y-117023241D01*
X148485861Y-117287305D01*
X148327066Y-117524958D01*
X148124958Y-117727066D01*
X147887305Y-117885861D01*
X147623241Y-117995240D01*
X147342912Y-118051000D01*
X147057088Y-118051000D01*
X146776759Y-117995240D01*
X146512695Y-117885861D01*
X146275042Y-117727066D01*
X146072934Y-117524958D01*
X145914139Y-117287305D01*
X145804760Y-117023241D01*
X145749000Y-116742912D01*
X145749000Y-116457088D01*
X145804760Y-116176759D01*
X145914139Y-115912695D01*
X146072934Y-115675042D01*
X146275042Y-115472934D01*
X146512695Y-115314139D01*
X146776759Y-115204760D01*
X147057088Y-115149000D01*
X147342912Y-115149000D01*
X147623241Y-115204760D01*
G37*
G36*
X177564903Y-111797075D02*
G01*
X177792571Y-111891378D01*
X177997466Y-112028285D01*
X178171715Y-112202534D01*
X178291348Y-112381577D01*
X178308623Y-112407431D01*
X178402925Y-112635097D01*
X178451000Y-112876786D01*
X178451000Y-113123214D01*
X178402925Y-113364903D01*
X178330966Y-113538629D01*
X178308622Y-113592571D01*
X178171715Y-113797466D01*
X177997466Y-113971715D01*
X177792571Y-114108622D01*
X177792570Y-114108623D01*
X177792569Y-114108623D01*
X177564903Y-114202925D01*
X177323214Y-114251000D01*
X177076786Y-114251000D01*
X176835097Y-114202925D01*
X176607431Y-114108623D01*
X176607430Y-114108623D01*
X176607429Y-114108622D01*
X176402534Y-113971715D01*
X176228285Y-113797466D01*
X176091378Y-113592571D01*
X176069035Y-113538629D01*
X175997075Y-113364903D01*
X175949000Y-113123214D01*
X175949000Y-112876786D01*
X175997075Y-112635097D01*
X176091377Y-112407431D01*
X176108652Y-112381577D01*
X176228285Y-112202534D01*
X176402534Y-112028285D01*
X176607429Y-111891378D01*
X176835097Y-111797075D01*
X177076786Y-111749000D01*
X177323214Y-111749000D01*
X177564903Y-111797075D01*
G37*
G36*
X212236694Y-108601860D02*
G01*
X212502437Y-108654719D01*
X213003087Y-108862095D01*
X213183561Y-108982684D01*
X213453660Y-109163158D01*
X213836842Y-109546340D01*
X214017316Y-109816439D01*
X214137905Y-109996913D01*
X214271363Y-110319109D01*
X214345281Y-110497564D01*
X214451000Y-111029049D01*
X214451000Y-111570951D01*
X214415584Y-111749000D01*
X214345281Y-112102437D01*
X214137905Y-112603087D01*
X214081521Y-112687471D01*
X213836842Y-113053660D01*
X213453660Y-113436842D01*
X213220597Y-113592569D01*
X213003087Y-113737905D01*
X212502437Y-113945281D01*
X212236694Y-113998140D01*
X211970951Y-114051000D01*
X211429049Y-114051000D01*
X211163306Y-113998140D01*
X210897563Y-113945281D01*
X210396913Y-113737905D01*
X210179403Y-113592569D01*
X209946340Y-113436842D01*
X209563158Y-113053660D01*
X209318479Y-112687471D01*
X209262095Y-112603087D01*
X209054719Y-112102437D01*
X208984416Y-111749000D01*
X208949000Y-111570951D01*
X208949000Y-111029049D01*
X209054719Y-110497564D01*
X209128637Y-110319109D01*
X209262095Y-109996913D01*
X209382684Y-109816439D01*
X209563158Y-109546340D01*
X209946340Y-109163158D01*
X210216439Y-108982684D01*
X210396913Y-108862095D01*
X210897563Y-108654719D01*
X211163306Y-108601860D01*
X211429049Y-108549000D01*
X211970951Y-108549000D01*
X212236694Y-108601860D01*
G37*
G36*
X199016720Y-106563520D02*
G01*
X199205881Y-106620901D01*
X199380212Y-106714083D01*
X199533015Y-106839485D01*
X199658417Y-106992288D01*
X199690575Y-107052451D01*
X199751598Y-107166617D01*
X199751599Y-107166620D01*
X199808980Y-107355781D01*
X199823500Y-107503207D01*
X199823500Y-107696794D01*
X199808980Y-107844220D01*
X199751599Y-108033381D01*
X199658417Y-108207712D01*
X199533015Y-108360515D01*
X199380212Y-108485917D01*
X199298333Y-108529682D01*
X199205883Y-108579098D01*
X199205880Y-108579099D01*
X199016719Y-108636480D01*
X198820000Y-108655855D01*
X198623280Y-108636480D01*
X198434119Y-108579099D01*
X198259788Y-108485917D01*
X198106985Y-108360515D01*
X197981583Y-108207712D01*
X197937818Y-108125833D01*
X197888402Y-108033383D01*
X197888401Y-108033380D01*
X197831020Y-107844219D01*
X197816500Y-107696793D01*
X197816500Y-107503206D01*
X197831020Y-107355780D01*
X197888401Y-107166619D01*
X197981583Y-106992288D01*
X198106985Y-106839485D01*
X198259788Y-106714083D01*
X198434120Y-106620901D01*
X198623281Y-106563520D01*
X198820000Y-106544145D01*
X199016720Y-106563520D01*
G37*
G36*
X201556720Y-106563520D02*
G01*
X201745881Y-106620901D01*
X201920212Y-106714083D01*
X202073015Y-106839485D01*
X202198417Y-106992288D01*
X202230575Y-107052451D01*
X202291598Y-107166617D01*
X202291599Y-107166620D01*
X202348980Y-107355781D01*
X202363500Y-107503207D01*
X202363500Y-107696794D01*
X202348980Y-107844220D01*
X202291599Y-108033381D01*
X202198417Y-108207712D01*
X202073015Y-108360515D01*
X201920212Y-108485917D01*
X201838333Y-108529682D01*
X201745883Y-108579098D01*
X201745880Y-108579099D01*
X201556719Y-108636480D01*
X201360000Y-108655855D01*
X201163280Y-108636480D01*
X200974119Y-108579099D01*
X200799788Y-108485917D01*
X200646985Y-108360515D01*
X200521583Y-108207712D01*
X200477818Y-108125833D01*
X200428402Y-108033383D01*
X200428401Y-108033380D01*
X200371020Y-107844219D01*
X200356500Y-107696793D01*
X200356500Y-107503206D01*
X200371020Y-107355780D01*
X200428401Y-107166619D01*
X200521583Y-106992288D01*
X200646985Y-106839485D01*
X200799788Y-106714083D01*
X200974120Y-106620901D01*
X201163281Y-106563520D01*
X201360000Y-106544145D01*
X201556720Y-106563520D01*
G37*
G36*
X204903500Y-108651000D02*
G01*
X202896500Y-108651000D01*
X202896500Y-106549000D01*
X204903500Y-106549000D01*
X204903500Y-108651000D01*
G37*
G36*
X79375256Y-104391298D02*
G01*
X79481579Y-104412447D01*
X79782042Y-104536903D01*
X80052451Y-104717585D01*
X80282415Y-104947549D01*
X80463097Y-105217958D01*
X80584633Y-105511371D01*
X80587553Y-105518422D01*
X80651000Y-105837389D01*
X80651000Y-106162611D01*
X80614664Y-106345281D01*
X80587553Y-106481579D01*
X80463097Y-106782042D01*
X80282415Y-107052451D01*
X80052451Y-107282415D01*
X79782042Y-107463097D01*
X79481579Y-107587553D01*
X79375256Y-107608702D01*
X79162611Y-107651000D01*
X78837389Y-107651000D01*
X78624744Y-107608702D01*
X78518421Y-107587553D01*
X78217958Y-107463097D01*
X77947549Y-107282415D01*
X77717585Y-107052451D01*
X77536903Y-106782042D01*
X77412447Y-106481579D01*
X77385336Y-106345281D01*
X77349000Y-106162611D01*
X77349000Y-105837389D01*
X77412447Y-105518422D01*
X77415368Y-105511371D01*
X77536903Y-105217958D01*
X77717585Y-104947549D01*
X77947549Y-104717585D01*
X78217958Y-104536903D01*
X78518421Y-104412447D01*
X78624744Y-104391298D01*
X78837389Y-104349000D01*
X79162611Y-104349000D01*
X79375256Y-104391298D01*
G37*
G36*
X124375256Y-104391298D02*
G01*
X124481579Y-104412447D01*
X124782042Y-104536903D01*
X125052451Y-104717585D01*
X125282415Y-104947549D01*
X125463097Y-105217958D01*
X125584633Y-105511371D01*
X125587553Y-105518422D01*
X125651000Y-105837389D01*
X125651000Y-106162611D01*
X125614664Y-106345281D01*
X125587553Y-106481579D01*
X125463097Y-106782042D01*
X125282415Y-107052451D01*
X125052451Y-107282415D01*
X124782042Y-107463097D01*
X124481579Y-107587553D01*
X124375256Y-107608702D01*
X124162611Y-107651000D01*
X123837389Y-107651000D01*
X123624744Y-107608702D01*
X123518421Y-107587553D01*
X123217958Y-107463097D01*
X122947549Y-107282415D01*
X122717585Y-107052451D01*
X122536903Y-106782042D01*
X122412447Y-106481579D01*
X122385336Y-106345281D01*
X122349000Y-106162611D01*
X122349000Y-105837389D01*
X122412447Y-105518422D01*
X122415368Y-105511371D01*
X122536903Y-105217958D01*
X122717585Y-104947549D01*
X122947549Y-104717585D01*
X123217958Y-104536903D01*
X123518421Y-104412447D01*
X123624744Y-104391298D01*
X123837389Y-104349000D01*
X124162611Y-104349000D01*
X124375256Y-104391298D01*
G37*
G36*
X111375256Y-104391298D02*
G01*
X111481579Y-104412447D01*
X111782042Y-104536903D01*
X112052451Y-104717585D01*
X112282415Y-104947549D01*
X112463097Y-105217958D01*
X112584633Y-105511371D01*
X112587553Y-105518422D01*
X112651000Y-105837389D01*
X112651000Y-106162611D01*
X112614664Y-106345281D01*
X112587553Y-106481579D01*
X112463097Y-106782042D01*
X112282415Y-107052451D01*
X112052451Y-107282415D01*
X111782042Y-107463097D01*
X111481579Y-107587553D01*
X111375256Y-107608702D01*
X111162611Y-107651000D01*
X110837389Y-107651000D01*
X110624744Y-107608702D01*
X110518421Y-107587553D01*
X110217958Y-107463097D01*
X109947549Y-107282415D01*
X109717585Y-107052451D01*
X109536903Y-106782042D01*
X109412447Y-106481579D01*
X109385336Y-106345281D01*
X109349000Y-106162611D01*
X109349000Y-105837389D01*
X109412447Y-105518422D01*
X109415368Y-105511371D01*
X109536903Y-105217958D01*
X109717585Y-104947549D01*
X109947549Y-104717585D01*
X110217958Y-104536903D01*
X110518421Y-104412447D01*
X110624744Y-104391298D01*
X110837389Y-104349000D01*
X111162611Y-104349000D01*
X111375256Y-104391298D01*
G37*
G36*
X156375256Y-104391298D02*
G01*
X156481579Y-104412447D01*
X156782042Y-104536903D01*
X157052451Y-104717585D01*
X157282415Y-104947549D01*
X157463097Y-105217958D01*
X157584633Y-105511371D01*
X157587553Y-105518422D01*
X157651000Y-105837389D01*
X157651000Y-106162611D01*
X157614664Y-106345281D01*
X157587553Y-106481579D01*
X157463097Y-106782042D01*
X157282415Y-107052451D01*
X157052451Y-107282415D01*
X156782042Y-107463097D01*
X156481579Y-107587553D01*
X156375256Y-107608702D01*
X156162611Y-107651000D01*
X155837389Y-107651000D01*
X155624744Y-107608702D01*
X155518421Y-107587553D01*
X155217958Y-107463097D01*
X154947549Y-107282415D01*
X154717585Y-107052451D01*
X154536903Y-106782042D01*
X154412447Y-106481579D01*
X154385336Y-106345281D01*
X154349000Y-106162611D01*
X154349000Y-105837389D01*
X154412447Y-105518422D01*
X154415368Y-105511371D01*
X154536903Y-105217958D01*
X154717585Y-104947549D01*
X154947549Y-104717585D01*
X155217958Y-104536903D01*
X155518421Y-104412447D01*
X155624744Y-104391298D01*
X155837389Y-104349000D01*
X156162611Y-104349000D01*
X156375256Y-104391298D01*
G37*
G36*
X212236694Y-101001860D02*
G01*
X212502437Y-101054719D01*
X213003087Y-101262095D01*
X213156950Y-101364903D01*
X213453660Y-101563158D01*
X213836842Y-101946340D01*
X214008286Y-102202925D01*
X214137905Y-102396913D01*
X214271363Y-102719109D01*
X214345281Y-102897564D01*
X214451000Y-103429049D01*
X214451000Y-103970951D01*
X214415186Y-104151000D01*
X214345281Y-104502437D01*
X214137905Y-105003087D01*
X214081521Y-105087471D01*
X213836842Y-105453660D01*
X213453660Y-105836842D01*
X213190774Y-106012496D01*
X213003087Y-106137905D01*
X212502437Y-106345281D01*
X212236693Y-106398141D01*
X211970951Y-106451000D01*
X211429049Y-106451000D01*
X211163306Y-106398140D01*
X210897563Y-106345281D01*
X210396913Y-106137905D01*
X210209226Y-106012496D01*
X209946340Y-105836842D01*
X209563158Y-105453660D01*
X209318479Y-105087471D01*
X209262095Y-105003087D01*
X209054719Y-104502437D01*
X208984814Y-104151000D01*
X208949000Y-103970951D01*
X208949000Y-103429049D01*
X209054719Y-102897564D01*
X209128637Y-102719109D01*
X209262095Y-102396913D01*
X209391714Y-102202925D01*
X209563158Y-101946340D01*
X209946340Y-101563158D01*
X210243050Y-101364903D01*
X210396913Y-101262095D01*
X210897563Y-101054719D01*
X211163307Y-101001859D01*
X211429049Y-100949000D01*
X211970951Y-100949000D01*
X212236694Y-101001860D01*
G37*
G36*
X137364903Y-99797075D02*
G01*
X137571225Y-99882536D01*
X137592571Y-99891378D01*
X137797466Y-100028285D01*
X137971715Y-100202534D01*
X137971716Y-100202536D01*
X138108623Y-100407431D01*
X138202925Y-100635097D01*
X138251000Y-100876786D01*
X138251000Y-101123214D01*
X138202925Y-101364903D01*
X138128970Y-101543448D01*
X138108622Y-101592571D01*
X137971715Y-101797466D01*
X137797466Y-101971715D01*
X137592571Y-102108622D01*
X137592570Y-102108623D01*
X137592569Y-102108623D01*
X137364903Y-102202925D01*
X137123214Y-102251000D01*
X136876786Y-102251000D01*
X136635097Y-102202925D01*
X136407431Y-102108623D01*
X136407430Y-102108623D01*
X136407429Y-102108622D01*
X136202534Y-101971715D01*
X136028285Y-101797466D01*
X135891378Y-101592571D01*
X135871031Y-101543448D01*
X135797075Y-101364903D01*
X135749000Y-101123214D01*
X135749000Y-100876786D01*
X135797075Y-100635097D01*
X135891377Y-100407431D01*
X136028284Y-100202536D01*
X136028285Y-100202534D01*
X136202534Y-100028285D01*
X136407429Y-99891378D01*
X136428776Y-99882536D01*
X136635097Y-99797075D01*
X136876786Y-99749000D01*
X137123214Y-99749000D01*
X137364903Y-99797075D01*
G37*
G36*
X98364903Y-99477075D02*
G01*
X98592571Y-99571378D01*
X98797466Y-99708285D01*
X98971715Y-99882534D01*
X98977624Y-99891378D01*
X99108623Y-100087431D01*
X99202925Y-100315097D01*
X99251000Y-100556786D01*
X99251000Y-100803214D01*
X99236365Y-100876787D01*
X99202925Y-101044903D01*
X99108622Y-101272571D01*
X98971715Y-101477466D01*
X98797466Y-101651715D01*
X98592571Y-101788622D01*
X98592570Y-101788623D01*
X98592569Y-101788623D01*
X98364903Y-101882925D01*
X98123214Y-101931000D01*
X97876786Y-101931000D01*
X97635097Y-101882925D01*
X97407431Y-101788623D01*
X97407430Y-101788623D01*
X97407429Y-101788622D01*
X97202534Y-101651715D01*
X97028285Y-101477466D01*
X96891378Y-101272571D01*
X96797075Y-101044903D01*
X96763635Y-100876787D01*
X96749000Y-100803214D01*
X96749000Y-100556786D01*
X96797075Y-100315097D01*
X96891377Y-100087431D01*
X97022376Y-99891378D01*
X97028285Y-99882534D01*
X97202534Y-99708285D01*
X97407429Y-99571378D01*
X97635097Y-99477075D01*
X97876786Y-99429000D01*
X98123214Y-99429000D01*
X98364903Y-99477075D01*
G37*
G36*
X212236694Y-93401860D02*
G01*
X212502437Y-93454719D01*
X213003087Y-93662095D01*
X213183561Y-93782684D01*
X213453660Y-93963158D01*
X213836842Y-94346340D01*
X214017316Y-94616439D01*
X214137905Y-94796913D01*
X214345281Y-95297563D01*
X214392854Y-95536728D01*
X214451000Y-95829049D01*
X214451000Y-96370951D01*
X214415186Y-96551000D01*
X214345281Y-96902437D01*
X214137905Y-97403087D01*
X214081521Y-97487471D01*
X213836842Y-97853660D01*
X213453660Y-98236842D01*
X213190774Y-98412496D01*
X213003087Y-98537905D01*
X212502437Y-98745281D01*
X212236693Y-98798141D01*
X211970951Y-98851000D01*
X211429049Y-98851000D01*
X211163307Y-98798141D01*
X210897563Y-98745281D01*
X210396913Y-98537905D01*
X210209226Y-98412496D01*
X209946340Y-98236842D01*
X209563158Y-97853660D01*
X209318479Y-97487471D01*
X209262095Y-97403087D01*
X209054719Y-96902437D01*
X208984814Y-96551000D01*
X208949000Y-96370951D01*
X208949000Y-95829049D01*
X209007146Y-95536728D01*
X209054719Y-95297563D01*
X209262095Y-94796913D01*
X209382684Y-94616439D01*
X209563158Y-94346340D01*
X209946340Y-93963158D01*
X210216439Y-93782684D01*
X210396913Y-93662095D01*
X210897563Y-93454719D01*
X211163307Y-93401859D01*
X211429049Y-93349000D01*
X211970951Y-93349000D01*
X212236694Y-93401860D01*
G37*
G36*
X142746031Y-92914207D02*
G01*
X142944145Y-92974305D01*
X142944148Y-92974306D01*
X143010030Y-93009521D01*
X143126729Y-93071897D01*
X143286765Y-93203235D01*
X143418103Y-93363271D01*
X143418104Y-93363273D01*
X143515694Y-93545851D01*
X143515694Y-93545852D01*
X143515695Y-93545854D01*
X143575793Y-93743968D01*
X143591000Y-93898370D01*
X143591000Y-95001630D01*
X143575793Y-95156032D01*
X143532859Y-95297563D01*
X143515694Y-95354149D01*
X143463939Y-95450975D01*
X143418103Y-95536729D01*
X143286765Y-95696765D01*
X143126729Y-95828103D01*
X143040975Y-95873939D01*
X142944149Y-95925694D01*
X142944146Y-95925695D01*
X142746032Y-95985793D01*
X142540000Y-96006085D01*
X142333969Y-95985793D01*
X142135855Y-95925695D01*
X142135852Y-95925694D01*
X142039026Y-95873939D01*
X141953272Y-95828103D01*
X141793236Y-95696765D01*
X141661898Y-95536729D01*
X141639184Y-95494234D01*
X141564305Y-95354147D01*
X141504207Y-95156030D01*
X141489000Y-95001631D01*
X141489000Y-93898370D01*
X141504207Y-93743971D01*
X141504207Y-93743969D01*
X141564305Y-93545855D01*
X141564306Y-93545852D01*
X141613018Y-93454719D01*
X141661897Y-93363271D01*
X141793235Y-93203235D01*
X141953271Y-93071897D01*
X142039025Y-93026061D01*
X142135851Y-92974306D01*
X142135854Y-92974305D01*
X142333968Y-92914207D01*
X142540000Y-92893915D01*
X142746031Y-92914207D01*
G37*
G36*
X92666031Y-92914207D02*
G01*
X92864145Y-92974305D01*
X92864148Y-92974306D01*
X92930030Y-93009521D01*
X93046729Y-93071897D01*
X93206765Y-93203235D01*
X93338103Y-93363271D01*
X93338104Y-93363273D01*
X93435694Y-93545851D01*
X93435694Y-93545852D01*
X93435695Y-93545854D01*
X93495793Y-93743968D01*
X93511000Y-93898370D01*
X93511000Y-95001630D01*
X93495793Y-95156032D01*
X93452859Y-95297563D01*
X93435694Y-95354149D01*
X93383939Y-95450975D01*
X93338103Y-95536729D01*
X93206765Y-95696765D01*
X93046729Y-95828103D01*
X92960975Y-95873939D01*
X92864149Y-95925694D01*
X92864146Y-95925695D01*
X92666032Y-95985793D01*
X92460000Y-96006085D01*
X92253969Y-95985793D01*
X92055855Y-95925695D01*
X92055852Y-95925694D01*
X91959026Y-95873939D01*
X91873272Y-95828103D01*
X91713236Y-95696765D01*
X91581898Y-95536729D01*
X91559184Y-95494234D01*
X91484305Y-95354147D01*
X91424207Y-95156030D01*
X91409000Y-95001631D01*
X91409000Y-93898370D01*
X91424207Y-93743971D01*
X91424207Y-93743969D01*
X91484305Y-93545855D01*
X91484306Y-93545852D01*
X91533018Y-93454719D01*
X91581897Y-93363271D01*
X91713235Y-93203235D01*
X91873271Y-93071897D01*
X91959025Y-93026061D01*
X92055851Y-92974306D01*
X92055854Y-92974305D01*
X92253968Y-92914207D01*
X92460000Y-92893915D01*
X92666031Y-92914207D01*
G37*
G36*
X95206031Y-92914207D02*
G01*
X95404145Y-92974305D01*
X95404148Y-92974306D01*
X95470030Y-93009521D01*
X95586729Y-93071897D01*
X95746765Y-93203235D01*
X95878103Y-93363271D01*
X95878104Y-93363273D01*
X95975694Y-93545851D01*
X95975694Y-93545852D01*
X95975695Y-93545854D01*
X96035793Y-93743968D01*
X96051000Y-93898370D01*
X96051000Y-95001630D01*
X96035793Y-95156032D01*
X95992859Y-95297563D01*
X95975694Y-95354149D01*
X95923939Y-95450975D01*
X95878103Y-95536729D01*
X95746765Y-95696765D01*
X95586729Y-95828103D01*
X95500975Y-95873939D01*
X95404149Y-95925694D01*
X95404146Y-95925695D01*
X95206032Y-95985793D01*
X95000000Y-96006085D01*
X94793969Y-95985793D01*
X94595855Y-95925695D01*
X94595852Y-95925694D01*
X94499026Y-95873939D01*
X94413272Y-95828103D01*
X94253236Y-95696765D01*
X94121898Y-95536729D01*
X94099184Y-95494234D01*
X94024305Y-95354147D01*
X93964207Y-95156030D01*
X93949000Y-95001631D01*
X93949000Y-93898370D01*
X93964207Y-93743971D01*
X93964207Y-93743969D01*
X94024305Y-93545855D01*
X94024306Y-93545852D01*
X94073018Y-93454719D01*
X94121897Y-93363271D01*
X94253235Y-93203235D01*
X94413271Y-93071897D01*
X94499025Y-93026061D01*
X94595851Y-92974306D01*
X94595854Y-92974305D01*
X94793968Y-92914207D01*
X95000000Y-92893915D01*
X95206031Y-92914207D01*
G37*
G36*
X137666031Y-92914207D02*
G01*
X137864145Y-92974305D01*
X137864148Y-92974306D01*
X137930030Y-93009521D01*
X138046729Y-93071897D01*
X138206765Y-93203235D01*
X138338103Y-93363271D01*
X138338104Y-93363273D01*
X138435694Y-93545851D01*
X138435694Y-93545852D01*
X138435695Y-93545854D01*
X138495793Y-93743968D01*
X138511000Y-93898370D01*
X138511000Y-95001630D01*
X138495793Y-95156032D01*
X138452859Y-95297563D01*
X138435694Y-95354149D01*
X138383939Y-95450975D01*
X138338103Y-95536729D01*
X138206765Y-95696765D01*
X138046729Y-95828103D01*
X137960975Y-95873939D01*
X137864149Y-95925694D01*
X137864146Y-95925695D01*
X137666032Y-95985793D01*
X137460000Y-96006085D01*
X137253969Y-95985793D01*
X137055855Y-95925695D01*
X137055852Y-95925694D01*
X136959026Y-95873939D01*
X136873272Y-95828103D01*
X136713236Y-95696765D01*
X136581898Y-95536729D01*
X136559184Y-95494234D01*
X136484305Y-95354147D01*
X136424207Y-95156030D01*
X136409000Y-95001631D01*
X136409000Y-93898370D01*
X136424207Y-93743971D01*
X136424207Y-93743969D01*
X136484305Y-93545855D01*
X136484306Y-93545852D01*
X136533018Y-93454719D01*
X136581897Y-93363271D01*
X136713235Y-93203235D01*
X136873271Y-93071897D01*
X136959025Y-93026061D01*
X137055851Y-92974306D01*
X137055854Y-92974305D01*
X137253968Y-92914207D01*
X137460000Y-92893915D01*
X137666031Y-92914207D01*
G37*
G36*
X97746031Y-92914207D02*
G01*
X97944145Y-92974305D01*
X97944148Y-92974306D01*
X98010030Y-93009521D01*
X98126729Y-93071897D01*
X98286765Y-93203235D01*
X98418103Y-93363271D01*
X98418104Y-93363273D01*
X98515694Y-93545851D01*
X98515694Y-93545852D01*
X98515695Y-93545854D01*
X98575793Y-93743968D01*
X98591000Y-93898370D01*
X98591000Y-95001630D01*
X98575793Y-95156032D01*
X98532859Y-95297563D01*
X98515694Y-95354149D01*
X98463939Y-95450975D01*
X98418103Y-95536729D01*
X98286765Y-95696765D01*
X98126729Y-95828103D01*
X98040975Y-95873939D01*
X97944149Y-95925694D01*
X97944146Y-95925695D01*
X97746032Y-95985793D01*
X97540000Y-96006085D01*
X97333969Y-95985793D01*
X97135855Y-95925695D01*
X97135852Y-95925694D01*
X97039026Y-95873939D01*
X96953272Y-95828103D01*
X96793236Y-95696765D01*
X96661898Y-95536729D01*
X96639184Y-95494234D01*
X96564305Y-95354147D01*
X96504207Y-95156030D01*
X96489000Y-95001631D01*
X96489000Y-93898370D01*
X96504207Y-93743971D01*
X96504207Y-93743969D01*
X96564305Y-93545855D01*
X96564306Y-93545852D01*
X96613018Y-93454719D01*
X96661897Y-93363271D01*
X96793235Y-93203235D01*
X96953271Y-93071897D01*
X97039025Y-93026061D01*
X97135851Y-92974306D01*
X97135854Y-92974305D01*
X97333968Y-92914207D01*
X97540000Y-92893915D01*
X97746031Y-92914207D01*
G37*
G36*
X140206031Y-92914207D02*
G01*
X140404145Y-92974305D01*
X140404148Y-92974306D01*
X140470030Y-93009521D01*
X140586729Y-93071897D01*
X140746765Y-93203235D01*
X140878103Y-93363271D01*
X140878104Y-93363273D01*
X140975694Y-93545851D01*
X140975694Y-93545852D01*
X140975695Y-93545854D01*
X141035793Y-93743968D01*
X141051000Y-93898370D01*
X141051000Y-95001630D01*
X141035793Y-95156032D01*
X140992859Y-95297563D01*
X140975694Y-95354149D01*
X140923939Y-95450975D01*
X140878103Y-95536729D01*
X140746765Y-95696765D01*
X140586729Y-95828103D01*
X140500975Y-95873939D01*
X140404149Y-95925694D01*
X140404146Y-95925695D01*
X140206032Y-95985793D01*
X140000000Y-96006085D01*
X139793969Y-95985793D01*
X139595855Y-95925695D01*
X139595852Y-95925694D01*
X139499026Y-95873939D01*
X139413272Y-95828103D01*
X139253236Y-95696765D01*
X139121898Y-95536729D01*
X139099184Y-95494234D01*
X139024305Y-95354147D01*
X138964207Y-95156030D01*
X138949000Y-95001631D01*
X138949000Y-93898370D01*
X138964207Y-93743971D01*
X138964207Y-93743969D01*
X139024305Y-93545855D01*
X139024306Y-93545852D01*
X139073018Y-93454719D01*
X139121897Y-93363271D01*
X139253235Y-93203235D01*
X139413271Y-93071897D01*
X139499025Y-93026061D01*
X139595851Y-92974306D01*
X139595854Y-92974305D01*
X139793968Y-92914207D01*
X140000000Y-92893915D01*
X140206031Y-92914207D01*
G37*
G36*
X127800081Y-85985910D02*
G01*
X128094854Y-86075329D01*
X128280948Y-86131780D01*
X128280950Y-86131781D01*
X128724115Y-86368657D01*
X129112557Y-86687443D01*
X129431343Y-87075883D01*
X129640815Y-87467780D01*
X129668220Y-87519051D01*
X129720856Y-87692568D01*
X129814090Y-87999918D01*
X129851000Y-88374676D01*
X129851000Y-91625324D01*
X129814090Y-92000082D01*
X129668219Y-92480951D01*
X129431343Y-92924116D01*
X129112558Y-93312558D01*
X128724116Y-93631343D01*
X128429867Y-93788622D01*
X128280949Y-93868220D01*
X128181554Y-93898371D01*
X127800082Y-94014090D01*
X127300000Y-94063343D01*
X126799919Y-94014090D01*
X126418447Y-93898371D01*
X126319052Y-93868220D01*
X126170134Y-93788622D01*
X125875885Y-93631343D01*
X125487443Y-93312558D01*
X125168658Y-92924116D01*
X124931780Y-92480948D01*
X124785910Y-92000085D01*
X124749000Y-91625324D01*
X124749000Y-88374677D01*
X124785910Y-87999919D01*
X124931781Y-87519050D01*
X125168657Y-87075885D01*
X125487443Y-86687443D01*
X125875883Y-86368657D01*
X126319049Y-86131781D01*
X126319051Y-86131780D01*
X126505145Y-86075329D01*
X126799918Y-85985910D01*
X127300000Y-85936657D01*
X127800081Y-85985910D01*
G37*
G36*
X153200081Y-85985910D02*
G01*
X153494854Y-86075329D01*
X153680948Y-86131780D01*
X153680950Y-86131781D01*
X154124115Y-86368657D01*
X154512557Y-86687443D01*
X154831343Y-87075883D01*
X155040815Y-87467780D01*
X155068220Y-87519051D01*
X155120856Y-87692568D01*
X155214090Y-87999918D01*
X155251000Y-88374676D01*
X155251000Y-91625324D01*
X155214090Y-92000082D01*
X155068219Y-92480951D01*
X154831343Y-92924116D01*
X154512558Y-93312558D01*
X154124116Y-93631343D01*
X153829867Y-93788622D01*
X153680949Y-93868220D01*
X153581554Y-93898371D01*
X153200082Y-94014090D01*
X152700000Y-94063343D01*
X152199919Y-94014090D01*
X151818447Y-93898371D01*
X151719052Y-93868220D01*
X151570134Y-93788622D01*
X151275885Y-93631343D01*
X150887443Y-93312558D01*
X150568658Y-92924116D01*
X150331780Y-92480948D01*
X150185910Y-92000085D01*
X150149000Y-91625324D01*
X150149000Y-88374677D01*
X150185910Y-87999919D01*
X150331781Y-87519050D01*
X150568657Y-87075885D01*
X150887443Y-86687443D01*
X151275883Y-86368657D01*
X151719049Y-86131781D01*
X151719051Y-86131780D01*
X151905145Y-86075329D01*
X152199918Y-85985910D01*
X152700000Y-85936657D01*
X153200081Y-85985910D01*
G37*
G36*
X108200081Y-85985910D02*
G01*
X108494854Y-86075329D01*
X108680948Y-86131780D01*
X108680950Y-86131781D01*
X109124115Y-86368657D01*
X109512557Y-86687443D01*
X109831343Y-87075883D01*
X110040815Y-87467780D01*
X110068220Y-87519051D01*
X110120856Y-87692568D01*
X110214090Y-87999918D01*
X110251000Y-88374676D01*
X110251000Y-91625324D01*
X110214090Y-92000082D01*
X110068219Y-92480951D01*
X109831343Y-92924116D01*
X109512558Y-93312558D01*
X109124116Y-93631343D01*
X108829867Y-93788622D01*
X108680949Y-93868220D01*
X108581554Y-93898371D01*
X108200082Y-94014090D01*
X107700000Y-94063343D01*
X107199919Y-94014090D01*
X106818447Y-93898371D01*
X106719052Y-93868220D01*
X106570134Y-93788622D01*
X106275885Y-93631343D01*
X105887443Y-93312558D01*
X105568658Y-92924116D01*
X105331780Y-92480948D01*
X105185910Y-92000085D01*
X105149000Y-91625324D01*
X105149000Y-88374677D01*
X105185910Y-87999919D01*
X105331781Y-87519050D01*
X105568657Y-87075885D01*
X105887443Y-86687443D01*
X106275883Y-86368657D01*
X106719049Y-86131781D01*
X106719051Y-86131780D01*
X106905145Y-86075329D01*
X107199918Y-85985910D01*
X107700000Y-85936657D01*
X108200081Y-85985910D01*
G37*
G36*
X82800081Y-85985910D02*
G01*
X83094854Y-86075329D01*
X83280948Y-86131780D01*
X83280950Y-86131781D01*
X83724115Y-86368657D01*
X84112557Y-86687443D01*
X84431343Y-87075883D01*
X84640815Y-87467780D01*
X84668220Y-87519051D01*
X84720856Y-87692568D01*
X84814090Y-87999918D01*
X84851000Y-88374676D01*
X84851000Y-91625324D01*
X84814090Y-92000082D01*
X84668219Y-92480951D01*
X84431343Y-92924116D01*
X84112558Y-93312558D01*
X83724116Y-93631343D01*
X83429867Y-93788622D01*
X83280949Y-93868220D01*
X83181554Y-93898371D01*
X82800082Y-94014090D01*
X82300000Y-94063343D01*
X81799919Y-94014090D01*
X81418447Y-93898371D01*
X81319052Y-93868220D01*
X81170134Y-93788622D01*
X80875885Y-93631343D01*
X80487443Y-93312558D01*
X80168658Y-92924116D01*
X79931780Y-92480948D01*
X79785910Y-92000085D01*
X79749000Y-91625324D01*
X79749000Y-88374677D01*
X79785910Y-87999919D01*
X79931781Y-87519050D01*
X80168657Y-87075885D01*
X80487443Y-86687443D01*
X80875883Y-86368657D01*
X81319049Y-86131781D01*
X81319051Y-86131780D01*
X81505145Y-86075329D01*
X81799918Y-85985910D01*
X82300000Y-85936657D01*
X82800081Y-85985910D01*
G37*
G36*
X177564903Y-91477075D02*
G01*
X177792571Y-91571378D01*
X177997466Y-91708285D01*
X178171715Y-91882534D01*
X178308622Y-92087429D01*
X178402925Y-92315097D01*
X178451000Y-92556787D01*
X178451000Y-92803213D01*
X178402925Y-93044903D01*
X178308622Y-93272571D01*
X178171715Y-93477466D01*
X177997466Y-93651715D01*
X177792571Y-93788622D01*
X177792570Y-93788623D01*
X177792569Y-93788623D01*
X177564903Y-93882925D01*
X177323214Y-93931000D01*
X177076786Y-93931000D01*
X176835097Y-93882925D01*
X176607431Y-93788623D01*
X176607430Y-93788623D01*
X176607429Y-93788622D01*
X176402534Y-93651715D01*
X176228285Y-93477466D01*
X176091378Y-93272571D01*
X175997075Y-93044903D01*
X175949000Y-92803213D01*
X175949000Y-92556787D01*
X175997075Y-92315097D01*
X176091378Y-92087429D01*
X176228285Y-91882534D01*
X176402534Y-91708285D01*
X176607429Y-91571378D01*
X176835097Y-91477075D01*
X177076786Y-91429000D01*
X177323214Y-91429000D01*
X177564903Y-91477075D01*
G37*
G36*
X212236693Y-85801859D02*
G01*
X212502437Y-85854719D01*
X213003087Y-86062095D01*
X213107379Y-86131781D01*
X213453660Y-86363158D01*
X213836842Y-86746340D01*
X214017316Y-87016439D01*
X214137905Y-87196913D01*
X214271339Y-87519051D01*
X214345281Y-87697564D01*
X214451000Y-88229049D01*
X214451000Y-88770951D01*
X214415186Y-88951000D01*
X214345281Y-89302437D01*
X214137905Y-89803087D01*
X214081521Y-89887471D01*
X213836842Y-90253660D01*
X213453660Y-90636842D01*
X213190774Y-90812496D01*
X213003087Y-90937905D01*
X212502437Y-91145281D01*
X212236694Y-91198140D01*
X211970951Y-91251000D01*
X211429049Y-91251000D01*
X211163307Y-91198141D01*
X210897563Y-91145281D01*
X210396913Y-90937905D01*
X210209226Y-90812496D01*
X209946340Y-90636842D01*
X209563158Y-90253660D01*
X209318479Y-89887471D01*
X209262095Y-89803087D01*
X209054719Y-89302437D01*
X208984814Y-88951000D01*
X208949000Y-88770951D01*
X208949000Y-88229049D01*
X209054719Y-87697564D01*
X209128661Y-87519051D01*
X209262095Y-87196913D01*
X209382684Y-87016439D01*
X209563158Y-86746340D01*
X209946340Y-86363158D01*
X210292621Y-86131781D01*
X210396913Y-86062095D01*
X210897563Y-85854719D01*
X211163306Y-85801860D01*
X211429049Y-85749000D01*
X211970951Y-85749000D01*
X212236693Y-85801859D01*
G37*
G36*
X137666031Y-84014207D02*
G01*
X137864145Y-84074305D01*
X137864148Y-84074306D01*
X137930030Y-84109521D01*
X138046729Y-84171897D01*
X138206765Y-84303235D01*
X138338103Y-84463271D01*
X138338104Y-84463273D01*
X138435694Y-84645851D01*
X138435694Y-84645852D01*
X138435695Y-84645854D01*
X138495793Y-84843968D01*
X138511000Y-84998370D01*
X138511000Y-86101630D01*
X138495793Y-86256032D01*
X138494173Y-86261371D01*
X138435694Y-86454149D01*
X138400806Y-86519420D01*
X138338103Y-86636729D01*
X138206765Y-86796765D01*
X138046729Y-86928103D01*
X137960975Y-86973939D01*
X137864149Y-87025694D01*
X137864146Y-87025695D01*
X137666032Y-87085793D01*
X137460000Y-87106085D01*
X137253969Y-87085793D01*
X137055855Y-87025695D01*
X137055852Y-87025694D01*
X136959026Y-86973939D01*
X136873272Y-86928103D01*
X136713236Y-86796765D01*
X136581898Y-86636729D01*
X136519195Y-86519420D01*
X136484305Y-86454147D01*
X136424207Y-86256030D01*
X136409000Y-86101631D01*
X136409000Y-84998370D01*
X136414069Y-84946904D01*
X136424207Y-84843969D01*
X136484305Y-84645855D01*
X136484306Y-84645852D01*
X136519521Y-84579970D01*
X136581897Y-84463271D01*
X136713235Y-84303235D01*
X136873271Y-84171897D01*
X136959025Y-84126061D01*
X137055851Y-84074306D01*
X137055854Y-84074305D01*
X137253968Y-84014207D01*
X137460000Y-83993915D01*
X137666031Y-84014207D01*
G37*
G36*
X142746031Y-84014207D02*
G01*
X142944145Y-84074305D01*
X142944148Y-84074306D01*
X143010030Y-84109521D01*
X143126729Y-84171897D01*
X143286765Y-84303235D01*
X143418103Y-84463271D01*
X143418104Y-84463273D01*
X143515694Y-84645851D01*
X143515694Y-84645852D01*
X143515695Y-84645854D01*
X143575793Y-84843968D01*
X143591000Y-84998370D01*
X143591000Y-86101630D01*
X143575793Y-86256032D01*
X143574173Y-86261371D01*
X143515694Y-86454149D01*
X143480806Y-86519420D01*
X143418103Y-86636729D01*
X143286765Y-86796765D01*
X143126729Y-86928103D01*
X143040975Y-86973939D01*
X142944149Y-87025694D01*
X142944146Y-87025695D01*
X142746032Y-87085793D01*
X142540000Y-87106085D01*
X142333969Y-87085793D01*
X142135855Y-87025695D01*
X142135852Y-87025694D01*
X142039026Y-86973939D01*
X141953272Y-86928103D01*
X141793236Y-86796765D01*
X141661898Y-86636729D01*
X141599195Y-86519420D01*
X141564305Y-86454147D01*
X141504207Y-86256030D01*
X141489000Y-86101631D01*
X141489000Y-84998370D01*
X141494069Y-84946904D01*
X141504207Y-84843969D01*
X141564305Y-84645855D01*
X141564306Y-84645852D01*
X141599521Y-84579970D01*
X141661897Y-84463271D01*
X141793235Y-84303235D01*
X141953271Y-84171897D01*
X142039025Y-84126061D01*
X142135851Y-84074306D01*
X142135854Y-84074305D01*
X142333968Y-84014207D01*
X142540000Y-83993915D01*
X142746031Y-84014207D01*
G37*
G36*
X140206031Y-84014207D02*
G01*
X140404145Y-84074305D01*
X140404148Y-84074306D01*
X140470030Y-84109521D01*
X140586729Y-84171897D01*
X140746765Y-84303235D01*
X140878103Y-84463271D01*
X140878104Y-84463273D01*
X140975694Y-84645851D01*
X140975694Y-84645852D01*
X140975695Y-84645854D01*
X141035793Y-84843968D01*
X141051000Y-84998370D01*
X141051000Y-86101630D01*
X141035793Y-86256032D01*
X141034173Y-86261371D01*
X140975694Y-86454149D01*
X140940806Y-86519420D01*
X140878103Y-86636729D01*
X140746765Y-86796765D01*
X140586729Y-86928103D01*
X140500975Y-86973939D01*
X140404149Y-87025694D01*
X140404146Y-87025695D01*
X140206032Y-87085793D01*
X140000000Y-87106085D01*
X139793969Y-87085793D01*
X139595855Y-87025695D01*
X139595852Y-87025694D01*
X139499026Y-86973939D01*
X139413272Y-86928103D01*
X139253236Y-86796765D01*
X139121898Y-86636729D01*
X139059195Y-86519420D01*
X139024305Y-86454147D01*
X138964207Y-86256030D01*
X138949000Y-86101631D01*
X138949000Y-84998370D01*
X138954069Y-84946904D01*
X138964207Y-84843969D01*
X139024305Y-84645855D01*
X139024306Y-84645852D01*
X139059521Y-84579970D01*
X139121897Y-84463271D01*
X139253235Y-84303235D01*
X139413271Y-84171897D01*
X139499025Y-84126061D01*
X139595851Y-84074306D01*
X139595854Y-84074305D01*
X139793968Y-84014207D01*
X140000000Y-83993915D01*
X140206031Y-84014207D01*
G37*
G36*
X97746031Y-84014207D02*
G01*
X97944145Y-84074305D01*
X97944148Y-84074306D01*
X98010030Y-84109521D01*
X98126729Y-84171897D01*
X98286765Y-84303235D01*
X98418103Y-84463271D01*
X98418104Y-84463273D01*
X98515694Y-84645851D01*
X98515694Y-84645852D01*
X98515695Y-84645854D01*
X98575793Y-84843968D01*
X98591000Y-84998370D01*
X98591000Y-86101630D01*
X98575793Y-86256032D01*
X98574173Y-86261371D01*
X98515694Y-86454149D01*
X98480806Y-86519420D01*
X98418103Y-86636729D01*
X98286765Y-86796765D01*
X98126729Y-86928103D01*
X98040975Y-86973939D01*
X97944149Y-87025694D01*
X97944146Y-87025695D01*
X97746032Y-87085793D01*
X97540000Y-87106085D01*
X97333969Y-87085793D01*
X97135855Y-87025695D01*
X97135852Y-87025694D01*
X97039026Y-86973939D01*
X96953272Y-86928103D01*
X96793236Y-86796765D01*
X96661898Y-86636729D01*
X96599195Y-86519420D01*
X96564305Y-86454147D01*
X96504207Y-86256030D01*
X96489000Y-86101631D01*
X96489000Y-84998370D01*
X96494069Y-84946904D01*
X96504207Y-84843969D01*
X96564305Y-84645855D01*
X96564306Y-84645852D01*
X96599521Y-84579970D01*
X96661897Y-84463271D01*
X96793235Y-84303235D01*
X96953271Y-84171897D01*
X97039025Y-84126061D01*
X97135851Y-84074306D01*
X97135854Y-84074305D01*
X97333968Y-84014207D01*
X97540000Y-83993915D01*
X97746031Y-84014207D01*
G37*
G36*
X95206031Y-84014207D02*
G01*
X95404145Y-84074305D01*
X95404148Y-84074306D01*
X95470030Y-84109521D01*
X95586729Y-84171897D01*
X95746765Y-84303235D01*
X95878103Y-84463271D01*
X95878104Y-84463273D01*
X95975694Y-84645851D01*
X95975694Y-84645852D01*
X95975695Y-84645854D01*
X96035793Y-84843968D01*
X96051000Y-84998370D01*
X96051000Y-86101630D01*
X96035793Y-86256032D01*
X96034173Y-86261371D01*
X95975694Y-86454149D01*
X95940806Y-86519420D01*
X95878103Y-86636729D01*
X95746765Y-86796765D01*
X95586729Y-86928103D01*
X95500975Y-86973939D01*
X95404149Y-87025694D01*
X95404146Y-87025695D01*
X95206032Y-87085793D01*
X95000000Y-87106085D01*
X94793969Y-87085793D01*
X94595855Y-87025695D01*
X94595852Y-87025694D01*
X94499026Y-86973939D01*
X94413272Y-86928103D01*
X94253236Y-86796765D01*
X94121898Y-86636729D01*
X94059195Y-86519420D01*
X94024305Y-86454147D01*
X93964207Y-86256030D01*
X93949000Y-86101631D01*
X93949000Y-84998370D01*
X93954069Y-84946904D01*
X93964207Y-84843969D01*
X94024305Y-84645855D01*
X94024306Y-84645852D01*
X94059521Y-84579970D01*
X94121897Y-84463271D01*
X94253235Y-84303235D01*
X94413271Y-84171897D01*
X94499025Y-84126061D01*
X94595851Y-84074306D01*
X94595854Y-84074305D01*
X94793968Y-84014207D01*
X95000000Y-83993915D01*
X95206031Y-84014207D01*
G37*
G36*
X92666031Y-84014207D02*
G01*
X92864145Y-84074305D01*
X92864148Y-84074306D01*
X92930030Y-84109521D01*
X93046729Y-84171897D01*
X93206765Y-84303235D01*
X93338103Y-84463271D01*
X93338104Y-84463273D01*
X93435694Y-84645851D01*
X93435694Y-84645852D01*
X93435695Y-84645854D01*
X93495793Y-84843968D01*
X93511000Y-84998370D01*
X93511000Y-86101630D01*
X93495793Y-86256032D01*
X93494173Y-86261371D01*
X93435694Y-86454149D01*
X93400806Y-86519420D01*
X93338103Y-86636729D01*
X93206765Y-86796765D01*
X93046729Y-86928103D01*
X92960975Y-86973939D01*
X92864149Y-87025694D01*
X92864146Y-87025695D01*
X92666032Y-87085793D01*
X92460000Y-87106085D01*
X92253969Y-87085793D01*
X92055855Y-87025695D01*
X92055852Y-87025694D01*
X91959026Y-86973939D01*
X91873272Y-86928103D01*
X91713236Y-86796765D01*
X91581898Y-86636729D01*
X91519195Y-86519420D01*
X91484305Y-86454147D01*
X91424207Y-86256030D01*
X91409000Y-86101631D01*
X91409000Y-84998370D01*
X91414069Y-84946904D01*
X91424207Y-84843969D01*
X91484305Y-84645855D01*
X91484306Y-84645852D01*
X91519521Y-84579970D01*
X91581897Y-84463271D01*
X91713235Y-84303235D01*
X91873271Y-84171897D01*
X91959025Y-84126061D01*
X92055851Y-84074306D01*
X92055854Y-84074305D01*
X92253968Y-84014207D01*
X92460000Y-83993915D01*
X92666031Y-84014207D01*
G37*
G36*
X171248228Y-84181703D02*
G01*
X171403100Y-84245853D01*
X171542481Y-84338985D01*
X171661015Y-84457519D01*
X171754147Y-84596900D01*
X171818297Y-84751772D01*
X171851000Y-84916184D01*
X171851000Y-85083816D01*
X171818297Y-85248228D01*
X171754147Y-85403100D01*
X171661015Y-85542481D01*
X171542481Y-85661015D01*
X171403100Y-85754147D01*
X171248228Y-85818297D01*
X171083816Y-85851000D01*
X170916184Y-85851000D01*
X170751772Y-85818297D01*
X170596900Y-85754147D01*
X170457519Y-85661015D01*
X170338985Y-85542481D01*
X170245853Y-85403100D01*
X170181703Y-85248228D01*
X170149000Y-85083816D01*
X170149000Y-84916184D01*
X170181703Y-84751772D01*
X170245853Y-84596900D01*
X170338985Y-84457519D01*
X170457519Y-84338985D01*
X170596900Y-84245853D01*
X170751772Y-84181703D01*
X170916184Y-84149000D01*
X171083816Y-84149000D01*
X171248228Y-84181703D01*
G37*
G36*
X185248228Y-84181703D02*
G01*
X185403100Y-84245853D01*
X185542481Y-84338985D01*
X185661015Y-84457519D01*
X185754147Y-84596900D01*
X185818297Y-84751772D01*
X185851000Y-84916184D01*
X185851000Y-85083816D01*
X185818297Y-85248228D01*
X185754147Y-85403100D01*
X185661015Y-85542481D01*
X185542481Y-85661015D01*
X185403100Y-85754147D01*
X185248228Y-85818297D01*
X185083816Y-85851000D01*
X184916184Y-85851000D01*
X184751772Y-85818297D01*
X184596900Y-85754147D01*
X184457519Y-85661015D01*
X184338985Y-85542481D01*
X184245853Y-85403100D01*
X184181703Y-85248228D01*
X184149000Y-85083816D01*
X184149000Y-84916184D01*
X184181703Y-84751772D01*
X184245853Y-84596900D01*
X184338985Y-84457519D01*
X184457519Y-84338985D01*
X184596900Y-84245853D01*
X184751772Y-84181703D01*
X184916184Y-84149000D01*
X185083816Y-84149000D01*
X185248228Y-84181703D01*
G37*
G36*
X176248228Y-84181703D02*
G01*
X176403100Y-84245853D01*
X176542481Y-84338985D01*
X176661015Y-84457519D01*
X176754147Y-84596900D01*
X176818297Y-84751772D01*
X176851000Y-84916184D01*
X176851000Y-85083816D01*
X176818297Y-85248228D01*
X176754147Y-85403100D01*
X176661015Y-85542481D01*
X176542481Y-85661015D01*
X176403100Y-85754147D01*
X176248228Y-85818297D01*
X176083816Y-85851000D01*
X175916184Y-85851000D01*
X175751772Y-85818297D01*
X175596900Y-85754147D01*
X175457519Y-85661015D01*
X175338985Y-85542481D01*
X175245853Y-85403100D01*
X175181703Y-85248228D01*
X175149000Y-85083816D01*
X175149000Y-84916184D01*
X175181703Y-84751772D01*
X175245853Y-84596900D01*
X175338985Y-84457519D01*
X175457519Y-84338985D01*
X175596900Y-84245853D01*
X175751772Y-84181703D01*
X175916184Y-84149000D01*
X176083816Y-84149000D01*
X176248228Y-84181703D01*
G37*
G36*
X190248228Y-84181703D02*
G01*
X190403100Y-84245853D01*
X190542481Y-84338985D01*
X190661015Y-84457519D01*
X190754147Y-84596900D01*
X190818297Y-84751772D01*
X190851000Y-84916184D01*
X190851000Y-85083816D01*
X190818297Y-85248228D01*
X190754147Y-85403100D01*
X190661015Y-85542481D01*
X190542481Y-85661015D01*
X190403100Y-85754147D01*
X190248228Y-85818297D01*
X190083816Y-85851000D01*
X189916184Y-85851000D01*
X189751772Y-85818297D01*
X189596900Y-85754147D01*
X189457519Y-85661015D01*
X189338985Y-85542481D01*
X189245853Y-85403100D01*
X189181703Y-85248228D01*
X189149000Y-85083816D01*
X189149000Y-84916184D01*
X189181703Y-84751772D01*
X189245853Y-84596900D01*
X189338985Y-84457519D01*
X189457519Y-84338985D01*
X189596900Y-84245853D01*
X189751772Y-84181703D01*
X189916184Y-84149000D01*
X190083816Y-84149000D01*
X190248228Y-84181703D01*
G37*
G36*
X212236694Y-78201860D02*
G01*
X212502437Y-78254719D01*
X213003087Y-78462095D01*
X213169428Y-78573241D01*
X213453660Y-78763158D01*
X213836842Y-79146340D01*
X214017316Y-79416439D01*
X214137905Y-79596913D01*
X214271363Y-79919109D01*
X214345281Y-80097564D01*
X214451000Y-80629049D01*
X214451000Y-81170951D01*
X214415186Y-81351000D01*
X214345281Y-81702437D01*
X214137905Y-82203087D01*
X214081521Y-82287471D01*
X213836842Y-82653660D01*
X213453660Y-83036842D01*
X213190774Y-83212496D01*
X213003087Y-83337905D01*
X212502437Y-83545281D01*
X212236694Y-83598140D01*
X211970951Y-83651000D01*
X211429049Y-83651000D01*
X211163306Y-83598140D01*
X210897563Y-83545281D01*
X210396913Y-83337905D01*
X210209226Y-83212496D01*
X209946340Y-83036842D01*
X209563158Y-82653660D01*
X209318479Y-82287471D01*
X209262095Y-82203087D01*
X209054719Y-81702437D01*
X208984814Y-81351000D01*
X208949000Y-81170951D01*
X208949000Y-80629049D01*
X209054719Y-80097564D01*
X209128637Y-79919109D01*
X209262095Y-79596913D01*
X209382684Y-79416439D01*
X209563158Y-79146340D01*
X209946340Y-78763158D01*
X210230572Y-78573241D01*
X210396913Y-78462095D01*
X210897563Y-78254719D01*
X211163306Y-78201860D01*
X211429049Y-78149000D01*
X211970951Y-78149000D01*
X212236694Y-78201860D01*
G37*
G36*
X203273241Y-76754760D02*
G01*
X203537305Y-76864139D01*
X203774958Y-77022934D01*
X203977066Y-77225042D01*
X204135861Y-77462695D01*
X204245240Y-77726759D01*
X204301000Y-78007088D01*
X204301000Y-78292912D01*
X204245240Y-78573241D01*
X204135861Y-78837305D01*
X203977066Y-79074958D01*
X203774958Y-79277066D01*
X203537305Y-79435861D01*
X203273241Y-79545240D01*
X202992912Y-79601000D01*
X202707088Y-79601000D01*
X202426759Y-79545240D01*
X202162695Y-79435861D01*
X201925042Y-79277066D01*
X201722934Y-79074958D01*
X201564139Y-78837305D01*
X201454760Y-78573241D01*
X201399000Y-78292912D01*
X201399000Y-78007088D01*
X201454760Y-77726759D01*
X201564139Y-77462695D01*
X201722934Y-77225042D01*
X201925042Y-77022934D01*
X202162695Y-76864139D01*
X202426759Y-76754760D01*
X202707088Y-76699000D01*
X202992912Y-76699000D01*
X203273241Y-76754760D01*
G37*
G36*
X181036694Y-70801860D02*
G01*
X181302437Y-70854719D01*
X181803087Y-71062095D01*
X181983561Y-71182684D01*
X182253660Y-71363158D01*
X182636842Y-71746340D01*
X182771285Y-71947549D01*
X182937905Y-72196913D01*
X183145281Y-72697563D01*
X183173094Y-72837389D01*
X183251000Y-73229049D01*
X183251000Y-73770951D01*
X183215186Y-73951000D01*
X183145281Y-74302437D01*
X182937905Y-74803087D01*
X182881521Y-74887471D01*
X182636842Y-75253660D01*
X182253660Y-75636842D01*
X181990774Y-75812496D01*
X181803087Y-75937905D01*
X181302437Y-76145281D01*
X181036693Y-76198141D01*
X180770951Y-76251000D01*
X180229049Y-76251000D01*
X179963306Y-76198140D01*
X179697563Y-76145281D01*
X179196913Y-75937905D01*
X179009226Y-75812496D01*
X178746340Y-75636842D01*
X178363158Y-75253660D01*
X178118479Y-74887471D01*
X178062095Y-74803087D01*
X177854719Y-74302437D01*
X177784814Y-73951000D01*
X177749000Y-73770951D01*
X177749000Y-73229049D01*
X177826906Y-72837389D01*
X177854719Y-72697563D01*
X178062095Y-72196913D01*
X178228715Y-71947549D01*
X178363158Y-71746340D01*
X178746340Y-71363158D01*
X179016439Y-71182684D01*
X179196913Y-71062095D01*
X179697563Y-70854719D01*
X179963306Y-70801860D01*
X180229049Y-70749000D01*
X180770951Y-70749000D01*
X181036694Y-70801860D01*
G37*
G36*
X171536694Y-70801860D02*
G01*
X171802437Y-70854719D01*
X172303087Y-71062095D01*
X172483561Y-71182684D01*
X172753660Y-71363158D01*
X173136842Y-71746340D01*
X173271285Y-71947549D01*
X173437905Y-72196913D01*
X173645281Y-72697563D01*
X173673094Y-72837389D01*
X173751000Y-73229049D01*
X173751000Y-73770951D01*
X173715186Y-73951000D01*
X173645281Y-74302437D01*
X173437905Y-74803087D01*
X173381521Y-74887471D01*
X173136842Y-75253660D01*
X172753660Y-75636842D01*
X172490774Y-75812496D01*
X172303087Y-75937905D01*
X171802437Y-76145281D01*
X171536693Y-76198141D01*
X171270951Y-76251000D01*
X170729049Y-76251000D01*
X170463306Y-76198140D01*
X170197563Y-76145281D01*
X169696913Y-75937905D01*
X169509226Y-75812496D01*
X169246340Y-75636842D01*
X168863158Y-75253660D01*
X168618479Y-74887471D01*
X168562095Y-74803087D01*
X168354719Y-74302437D01*
X168284814Y-73951000D01*
X168249000Y-73770951D01*
X168249000Y-73229049D01*
X168326906Y-72837389D01*
X168354719Y-72697563D01*
X168562095Y-72196913D01*
X168728715Y-71947549D01*
X168863158Y-71746340D01*
X169246340Y-71363158D01*
X169516439Y-71182684D01*
X169696913Y-71062095D01*
X170197563Y-70854719D01*
X170463306Y-70801860D01*
X170729049Y-70749000D01*
X171270951Y-70749000D01*
X171536694Y-70801860D01*
G37*
G36*
X190536694Y-70801860D02*
G01*
X190802437Y-70854719D01*
X191303087Y-71062095D01*
X191483561Y-71182684D01*
X191753660Y-71363158D01*
X192136842Y-71746340D01*
X192271285Y-71947549D01*
X192437905Y-72196913D01*
X192645281Y-72697563D01*
X192673094Y-72837389D01*
X192751000Y-73229049D01*
X192751000Y-73770951D01*
X192715186Y-73951000D01*
X192645281Y-74302437D01*
X192437905Y-74803087D01*
X192381521Y-74887471D01*
X192136842Y-75253660D01*
X191753660Y-75636842D01*
X191490774Y-75812496D01*
X191303087Y-75937905D01*
X190802437Y-76145281D01*
X190536693Y-76198141D01*
X190270951Y-76251000D01*
X189729049Y-76251000D01*
X189463306Y-76198140D01*
X189197563Y-76145281D01*
X188696913Y-75937905D01*
X188509226Y-75812496D01*
X188246340Y-75636842D01*
X187863158Y-75253660D01*
X187618479Y-74887471D01*
X187562095Y-74803087D01*
X187354719Y-74302437D01*
X187284814Y-73951000D01*
X187249000Y-73770951D01*
X187249000Y-73229049D01*
X187326906Y-72837389D01*
X187354719Y-72697563D01*
X187562095Y-72196913D01*
X187728715Y-71947549D01*
X187863158Y-71746340D01*
X188246340Y-71363158D01*
X188516439Y-71182684D01*
X188696913Y-71062095D01*
X189197563Y-70854719D01*
X189463306Y-70801860D01*
X189729049Y-70749000D01*
X190270951Y-70749000D01*
X190536694Y-70801860D01*
G37*
G36*
X124375256Y-72391298D02*
G01*
X124481579Y-72412447D01*
X124694037Y-72500450D01*
X124761237Y-72528285D01*
X124782042Y-72536903D01*
X125052451Y-72717585D01*
X125282415Y-72947549D01*
X125463097Y-73217958D01*
X125463098Y-73217960D01*
X125491435Y-73286371D01*
X125587553Y-73518421D01*
X125608397Y-73623213D01*
X125641076Y-73787496D01*
X125651000Y-73837391D01*
X125651000Y-74162609D01*
X125587553Y-74481579D01*
X125463097Y-74782042D01*
X125282415Y-75052451D01*
X125052451Y-75282415D01*
X124782042Y-75463097D01*
X124782041Y-75463098D01*
X124782040Y-75463098D01*
X124694037Y-75499550D01*
X124481579Y-75587553D01*
X124375256Y-75608702D01*
X124162611Y-75651000D01*
X123837389Y-75651000D01*
X123624744Y-75608702D01*
X123518421Y-75587553D01*
X123305963Y-75499550D01*
X123217960Y-75463098D01*
X123217959Y-75463098D01*
X123217958Y-75463097D01*
X122947549Y-75282415D01*
X122717585Y-75052451D01*
X122536903Y-74782042D01*
X122412447Y-74481579D01*
X122349000Y-74162609D01*
X122349000Y-73837391D01*
X122358925Y-73787496D01*
X122391603Y-73623213D01*
X122412447Y-73518421D01*
X122508565Y-73286371D01*
X122536902Y-73217960D01*
X122536903Y-73217958D01*
X122717585Y-72947549D01*
X122947549Y-72717585D01*
X123217958Y-72536903D01*
X123238764Y-72528285D01*
X123305963Y-72500450D01*
X123518421Y-72412447D01*
X123624744Y-72391298D01*
X123837389Y-72349000D01*
X124162611Y-72349000D01*
X124375256Y-72391298D01*
G37*
G36*
X79375256Y-72391298D02*
G01*
X79481579Y-72412447D01*
X79694037Y-72500450D01*
X79761237Y-72528285D01*
X79782042Y-72536903D01*
X80052451Y-72717585D01*
X80282415Y-72947549D01*
X80463097Y-73217958D01*
X80463098Y-73217960D01*
X80491435Y-73286371D01*
X80587553Y-73518421D01*
X80608397Y-73623213D01*
X80641076Y-73787496D01*
X80651000Y-73837391D01*
X80651000Y-74162609D01*
X80587553Y-74481579D01*
X80463097Y-74782042D01*
X80282415Y-75052451D01*
X80052451Y-75282415D01*
X79782042Y-75463097D01*
X79782041Y-75463098D01*
X79782040Y-75463098D01*
X79694037Y-75499550D01*
X79481579Y-75587553D01*
X79375256Y-75608702D01*
X79162611Y-75651000D01*
X78837389Y-75651000D01*
X78624744Y-75608702D01*
X78518421Y-75587553D01*
X78305963Y-75499550D01*
X78217960Y-75463098D01*
X78217959Y-75463098D01*
X78217958Y-75463097D01*
X77947549Y-75282415D01*
X77717585Y-75052451D01*
X77536903Y-74782042D01*
X77412447Y-74481579D01*
X77349000Y-74162609D01*
X77349000Y-73837391D01*
X77358925Y-73787496D01*
X77391603Y-73623213D01*
X77412447Y-73518421D01*
X77508565Y-73286371D01*
X77536902Y-73217960D01*
X77536903Y-73217958D01*
X77717585Y-72947549D01*
X77947549Y-72717585D01*
X78217958Y-72536903D01*
X78238764Y-72528285D01*
X78305963Y-72500450D01*
X78518421Y-72412447D01*
X78624744Y-72391298D01*
X78837389Y-72349000D01*
X79162611Y-72349000D01*
X79375256Y-72391298D01*
G37*
G36*
X111375256Y-72391298D02*
G01*
X111481579Y-72412447D01*
X111694037Y-72500450D01*
X111761237Y-72528285D01*
X111782042Y-72536903D01*
X112052451Y-72717585D01*
X112282415Y-72947549D01*
X112463097Y-73217958D01*
X112463098Y-73217960D01*
X112491435Y-73286371D01*
X112587553Y-73518421D01*
X112608397Y-73623213D01*
X112641076Y-73787496D01*
X112651000Y-73837391D01*
X112651000Y-74162609D01*
X112587553Y-74481579D01*
X112463097Y-74782042D01*
X112282415Y-75052451D01*
X112052451Y-75282415D01*
X111782042Y-75463097D01*
X111782041Y-75463098D01*
X111782040Y-75463098D01*
X111694037Y-75499550D01*
X111481579Y-75587553D01*
X111375256Y-75608702D01*
X111162611Y-75651000D01*
X110837389Y-75651000D01*
X110624744Y-75608702D01*
X110518421Y-75587553D01*
X110305963Y-75499550D01*
X110217960Y-75463098D01*
X110217959Y-75463098D01*
X110217958Y-75463097D01*
X109947549Y-75282415D01*
X109717585Y-75052451D01*
X109536903Y-74782042D01*
X109412447Y-74481579D01*
X109349000Y-74162609D01*
X109349000Y-73837391D01*
X109358925Y-73787496D01*
X109391603Y-73623213D01*
X109412447Y-73518421D01*
X109508565Y-73286371D01*
X109536902Y-73217960D01*
X109536903Y-73217958D01*
X109717585Y-72947549D01*
X109947549Y-72717585D01*
X110217958Y-72536903D01*
X110238764Y-72528285D01*
X110305963Y-72500450D01*
X110518421Y-72412447D01*
X110624744Y-72391298D01*
X110837389Y-72349000D01*
X111162611Y-72349000D01*
X111375256Y-72391298D01*
G37*
G36*
X156375256Y-72391298D02*
G01*
X156481579Y-72412447D01*
X156694037Y-72500450D01*
X156761237Y-72528285D01*
X156782042Y-72536903D01*
X157052451Y-72717585D01*
X157282415Y-72947549D01*
X157463097Y-73217958D01*
X157463098Y-73217960D01*
X157491435Y-73286371D01*
X157587553Y-73518421D01*
X157608397Y-73623213D01*
X157641076Y-73787496D01*
X157651000Y-73837391D01*
X157651000Y-74162609D01*
X157587553Y-74481579D01*
X157463097Y-74782042D01*
X157282415Y-75052451D01*
X157052451Y-75282415D01*
X156782042Y-75463097D01*
X156782041Y-75463098D01*
X156782040Y-75463098D01*
X156694037Y-75499550D01*
X156481579Y-75587553D01*
X156375256Y-75608702D01*
X156162611Y-75651000D01*
X155837389Y-75651000D01*
X155624744Y-75608702D01*
X155518421Y-75587553D01*
X155305963Y-75499550D01*
X155217960Y-75463098D01*
X155217959Y-75463098D01*
X155217958Y-75463097D01*
X154947549Y-75282415D01*
X154717585Y-75052451D01*
X154536903Y-74782042D01*
X154412447Y-74481579D01*
X154349000Y-74162609D01*
X154349000Y-73837391D01*
X154358925Y-73787496D01*
X154391603Y-73623213D01*
X154412447Y-73518421D01*
X154508565Y-73286371D01*
X154536902Y-73217960D01*
X154536903Y-73217958D01*
X154717585Y-72947549D01*
X154947549Y-72717585D01*
X155217958Y-72536903D01*
X155238764Y-72528285D01*
X155305963Y-72500450D01*
X155518421Y-72412447D01*
X155624744Y-72391298D01*
X155837389Y-72349000D01*
X156162611Y-72349000D01*
X156375256Y-72391298D01*
G37*
G36*
X130364903Y-72297075D02*
G01*
X130592571Y-72391378D01*
X130797466Y-72528285D01*
X130971715Y-72702534D01*
X131108622Y-72907429D01*
X131202925Y-73135097D01*
X131251000Y-73376787D01*
X131251000Y-73623213D01*
X131202925Y-73864903D01*
X131108622Y-74092571D01*
X130971715Y-74297466D01*
X130797466Y-74471715D01*
X130592571Y-74608622D01*
X130592570Y-74608623D01*
X130592569Y-74608623D01*
X130364903Y-74702925D01*
X130123214Y-74751000D01*
X129876786Y-74751000D01*
X129635097Y-74702925D01*
X129407431Y-74608623D01*
X129407430Y-74608623D01*
X129407429Y-74608622D01*
X129202534Y-74471715D01*
X129028285Y-74297466D01*
X128891378Y-74092571D01*
X128797075Y-73864903D01*
X128749000Y-73623213D01*
X128749000Y-73376787D01*
X128797075Y-73135097D01*
X128891378Y-72907429D01*
X129028285Y-72702534D01*
X129202534Y-72528285D01*
X129407429Y-72391378D01*
X129635097Y-72297075D01*
X129876786Y-72249000D01*
X130123214Y-72249000D01*
X130364903Y-72297075D01*
G37*
G36*
X105684903Y-72297075D02*
G01*
X105912571Y-72391378D01*
X106117466Y-72528285D01*
X106291715Y-72702534D01*
X106428622Y-72907429D01*
X106522925Y-73135097D01*
X106571000Y-73376787D01*
X106571000Y-73623213D01*
X106522925Y-73864903D01*
X106428622Y-74092571D01*
X106291715Y-74297466D01*
X106117466Y-74471715D01*
X105912571Y-74608622D01*
X105912570Y-74608623D01*
X105912569Y-74608623D01*
X105684903Y-74702925D01*
X105443214Y-74751000D01*
X105196786Y-74751000D01*
X104955097Y-74702925D01*
X104727431Y-74608623D01*
X104727430Y-74608623D01*
X104727429Y-74608622D01*
X104522534Y-74471715D01*
X104348285Y-74297466D01*
X104211378Y-74092571D01*
X104117075Y-73864903D01*
X104069000Y-73623213D01*
X104069000Y-73376787D01*
X104117075Y-73135097D01*
X104211378Y-72907429D01*
X104348285Y-72702534D01*
X104522534Y-72528285D01*
X104727429Y-72391378D01*
X104955097Y-72297075D01*
X105196786Y-72249000D01*
X105443214Y-72249000D01*
X105684903Y-72297075D01*
G37*
G36*
X85364903Y-72297075D02*
G01*
X85592571Y-72391378D01*
X85797466Y-72528285D01*
X85971715Y-72702534D01*
X86108622Y-72907429D01*
X86202925Y-73135097D01*
X86251000Y-73376787D01*
X86251000Y-73623213D01*
X86202925Y-73864903D01*
X86108622Y-74092571D01*
X85971715Y-74297466D01*
X85797466Y-74471715D01*
X85592571Y-74608622D01*
X85592570Y-74608623D01*
X85592569Y-74608623D01*
X85364903Y-74702925D01*
X85123214Y-74751000D01*
X84876786Y-74751000D01*
X84635097Y-74702925D01*
X84407431Y-74608623D01*
X84407430Y-74608623D01*
X84407429Y-74608622D01*
X84202534Y-74471715D01*
X84028285Y-74297466D01*
X83891378Y-74092571D01*
X83797075Y-73864903D01*
X83749000Y-73623213D01*
X83749000Y-73376787D01*
X83797075Y-73135097D01*
X83891378Y-72907429D01*
X84028285Y-72702534D01*
X84202534Y-72528285D01*
X84407429Y-72391378D01*
X84635097Y-72297075D01*
X84876786Y-72249000D01*
X85123214Y-72249000D01*
X85364903Y-72297075D01*
G37*
G36*
X150684903Y-72297075D02*
G01*
X150912571Y-72391378D01*
X151117466Y-72528285D01*
X151291715Y-72702534D01*
X151428622Y-72907429D01*
X151522925Y-73135097D01*
X151571000Y-73376787D01*
X151571000Y-73623213D01*
X151522925Y-73864903D01*
X151428622Y-74092571D01*
X151291715Y-74297466D01*
X151117466Y-74471715D01*
X150912571Y-74608622D01*
X150912570Y-74608623D01*
X150912569Y-74608623D01*
X150684903Y-74702925D01*
X150443214Y-74751000D01*
X150196786Y-74751000D01*
X149955097Y-74702925D01*
X149727431Y-74608623D01*
X149727430Y-74608623D01*
X149727429Y-74608622D01*
X149522534Y-74471715D01*
X149348285Y-74297466D01*
X149211378Y-74092571D01*
X149117075Y-73864903D01*
X149069000Y-73623213D01*
X149069000Y-73376787D01*
X149117075Y-73135097D01*
X149211378Y-72907429D01*
X149348285Y-72702534D01*
X149522534Y-72528285D01*
X149727429Y-72391378D01*
X149955097Y-72297075D01*
X150196786Y-72249000D01*
X150443214Y-72249000D01*
X150684903Y-72297075D01*
G37*
G36*
X212375256Y-71391298D02*
G01*
X212481579Y-71412447D01*
X212694037Y-71500450D01*
X212739835Y-71519420D01*
X212782042Y-71536903D01*
X213052451Y-71717585D01*
X213282415Y-71947549D01*
X213463097Y-72217958D01*
X213580659Y-72501777D01*
X213587553Y-72518422D01*
X213651000Y-72837389D01*
X213651000Y-73162611D01*
X213637784Y-73229050D01*
X213587553Y-73481579D01*
X213572292Y-73518422D01*
X213467692Y-73770950D01*
X213463097Y-73782042D01*
X213282415Y-74052451D01*
X213052451Y-74282415D01*
X212782042Y-74463097D01*
X212782041Y-74463098D01*
X212782040Y-74463098D01*
X212761234Y-74471716D01*
X212481579Y-74587553D01*
X212375658Y-74608622D01*
X212162611Y-74651000D01*
X211837389Y-74651000D01*
X211624342Y-74608622D01*
X211518421Y-74587553D01*
X211238766Y-74471716D01*
X211217960Y-74463098D01*
X211217959Y-74463098D01*
X211217958Y-74463097D01*
X210947549Y-74282415D01*
X210717585Y-74052451D01*
X210536903Y-73782042D01*
X210532309Y-73770950D01*
X210427708Y-73518422D01*
X210412447Y-73481579D01*
X210362216Y-73229050D01*
X210349000Y-73162611D01*
X210349000Y-72837389D01*
X210412447Y-72518422D01*
X210419342Y-72501777D01*
X210536903Y-72217958D01*
X210717585Y-71947549D01*
X210947549Y-71717585D01*
X211217958Y-71536903D01*
X211260166Y-71519420D01*
X211305963Y-71500450D01*
X211518421Y-71412447D01*
X211624744Y-71391298D01*
X211837389Y-71349000D01*
X212162611Y-71349000D01*
X212375256Y-71391298D01*
G37*
M02*
